<?xml version="1.0" encoding="utf-8"?>
<!-- Generator: Adobe Illustrator 16.0.0, SVG Export Plug-In . SVG Version: 6.00 Build 0)  -->
<!DOCTYPE svg PUBLIC "-//W3C//DTD SVG 1.1//EN" "http://www.w3.org/Graphics/SVG/1.1/DTD/svg11.dtd">
<svg version="1.1" id="Capa_1" xmlns="http://www.w3.org/2000/svg" xmlns:xlink="http://www.w3.org/1999/xlink" x="0px" y="0px"
	 width="78px" height="51px" viewBox="0 0 78 51" enable-background="new 0 0 78 51" xml:space="preserve">
<g>
	<path fill="#748525" d="M4.784,49.654H0v-9.523h4.428c0.721,0,1.326,0.234,1.817,0.697c0.493,0.458,0.736,1.031,0.736,1.734
		c0,0.939-0.404,1.578-1.218,1.914c0.61,0.127,1.082,0.399,1.413,0.813c0.332,0.415,0.496,0.931,0.496,1.55
		c0,0.818-0.277,1.496-0.833,2.021C6.308,49.393,5.622,49.654,4.784,49.654z M2.596,42.236v1.695h1.257
		c0.239,0,0.428-0.078,0.58-0.24c0.151-0.16,0.225-0.364,0.225-0.623c0-0.238-0.079-0.434-0.234-0.596
		c-0.156-0.16-0.346-0.238-0.575-0.238H2.596V42.236z M2.596,45.709v1.816h1.613c0.282,0,0.516-0.088,0.696-0.268
		c0.181-0.175,0.273-0.4,0.273-0.662c0-0.254-0.093-0.468-0.273-0.634c-0.18-0.17-0.418-0.253-0.711-0.253H2.596L2.596,45.709z"/>
	<path fill="#748525" d="M18.956,44.93c0,1.35-0.516,2.51-1.545,3.483c-1.017,0.955-2.26,1.437-3.716,1.437
		c-1.456,0-2.699-0.477-3.717-1.437c-1.018-0.964-1.529-2.129-1.529-3.483c0-1.359,0.511-2.519,1.529-3.482
		C10.995,40.482,12.238,40,13.694,40c1.457,0,2.699,0.482,3.716,1.447C18.439,42.402,18.956,43.561,18.956,44.93z M11.098,44.93
		c0,0.73,0.248,1.346,0.75,1.846c0.502,0.502,1.115,0.75,1.846,0.75c0.711,0,1.32-0.252,1.832-0.765
		c0.521-0.521,0.779-1.13,0.779-1.831s-0.258-1.311-0.779-1.832c-0.502-0.521-1.111-0.779-1.832-0.779
		c-0.711,0-1.321,0.258-1.833,0.779C11.351,43.609,11.098,44.219,11.098,44.93z"/>
	<path fill="#748525" d="M22.629,49.654H20.14v-9.523h2.324l3.99,5.11v-5.11h2.49v9.523h-2.119l-4.195-5.313L22.629,49.654
		L22.629,49.654z"/>
	<path fill="#748525" d="M40.639,44.93c0,1.35-0.518,2.51-1.544,3.483c-1.018,0.955-2.26,1.437-3.717,1.437
		s-2.699-0.477-3.717-1.437c-1.019-0.964-1.531-2.129-1.531-3.483c0-1.359,0.512-2.519,1.531-3.482
		C32.679,40.482,33.921,40,35.378,40s2.699,0.482,3.717,1.447C40.127,42.402,40.639,43.561,40.639,44.93z M32.786,44.93
		c0,0.73,0.249,1.346,0.75,1.846c0.502,0.502,1.116,0.75,1.847,0.75c0.711,0,1.321-0.252,1.831-0.765
		c0.522-0.521,0.78-1.13,0.78-1.831s-0.258-1.311-0.78-1.832c-0.5-0.521-1.11-0.779-1.831-0.779c-0.711,0-1.32,0.258-1.832,0.779
		C33.04,43.609,32.786,44.219,32.786,44.93z"/>
	<path fill="#748525" d="M48.049,49.654h-6.223v-9.523h2.599v7.178h3.618v2.348L48.049,49.654L48.049,49.654z"/>
	<path fill="#748525" d="M58.967,44.93c0,1.35-0.518,2.51-1.545,3.483c-1.018,0.955-2.261,1.437-3.716,1.437
		c-1.457,0-2.699-0.477-3.719-1.437c-1.017-0.964-1.527-2.129-1.527-3.483c0-1.359,0.512-2.519,1.527-3.482
		C51.006,40.482,52.249,40,53.706,40s2.699,0.482,3.716,1.447C58.451,42.402,58.967,43.561,58.967,44.93z M51.109,44.93
		c0,0.73,0.249,1.346,0.751,1.846c0.501,0.502,1.115,0.75,1.846,0.75c0.711,0,1.32-0.252,1.832-0.765
		c0.521-0.521,0.779-1.13,0.779-1.831s-0.259-1.311-0.779-1.832c-0.502-0.521-1.11-0.779-1.832-0.779
		c-0.711,0-1.318,0.258-1.83,0.779C51.363,43.609,51.109,44.219,51.109,44.93z"/>
	<path fill="#748525" d="M64.404,49.654h-2.598v-7.17H59.24v-2.349h7.678v2.349h-2.514V49.654z"/>
	<path fill="#748525" d="M77.705,44.93c0,1.35-0.518,2.51-1.545,3.483c-1.018,0.955-2.262,1.437-3.719,1.437
		s-2.697-0.477-3.717-1.437c-1.018-0.964-1.527-2.129-1.527-3.483c0-1.359,0.512-2.519,1.527-3.482
		c1.02-0.965,2.26-1.447,3.717-1.447s2.701,0.482,3.719,1.447C77.188,42.402,77.705,43.561,77.705,44.93z M69.846,44.93
		c0,0.73,0.248,1.346,0.75,1.846c0.502,0.502,1.115,0.75,1.846,0.75c0.713,0,1.322-0.252,1.832-0.765
		c0.521-0.521,0.779-1.13,0.779-1.831s-0.258-1.311-0.779-1.832c-0.5-0.521-1.109-0.779-1.832-0.779
		c-0.709,0-1.32,0.258-1.832,0.779C70.098,43.609,69.846,44.219,69.846,44.93z"/>
</g>
<g>
	<g>
		<g>
			<path fill="#748525" d="M13.548,15.064c0.014-0.131,0.025-0.262,0.025-0.399c0-0.015,0-0.031,0-0.041c0-0.005,0-0.01,0-0.01l0,0
				c-0.012-1.132-0.218-1.875-1.213-2.855c-0.81-0.798-1.87-0.96-2.784-0.96c-0.88,0-1.647,0.358-2.219,0.94
				c-0.683,0.606-1.111,1.496-1.111,2.471c0,1.163,0.303,1.96,1.312,2.957c0.764,0.752,1.668,0.893,2.527,0.909l0,0
				c0,0,0.606-0.01,0.656-0.01c0.354,0,1.098-0.086,1.517-0.091c0.369-0.004,0.223,0,0.505,0c0.606,0,0.758,0.152,0.758,0.152
				l0.051-0.05l0,0c0,0-0.151-0.152-0.151-0.758c0-0.505,0-1.213,0.101-2.022C13.532,15.281,13.538,15.18,13.548,15.064z
				 M13.502,15.347c0.005-0.015,0.011-0.03,0.016-0.046C13.507,15.337,13.491,15.382,13.502,15.347z"/>
			<path fill="#748525" d="M14.887,15.296c0.103,0.81,0.103,1.517,0.103,2.022c0,0.605-0.151,0.758-0.151,0.758l0,0l0.051,0.05
				c0,0,0.15-0.151,0.758-0.151c0.283,0,0.137-0.005,0.506,0c0.42,0.005,1.162,0.091,1.517,0.091c0.051,0,0.656,0.01,0.656,0.01l0,0
				c0.858-0.016,1.764-0.157,2.526-0.91c1.01-1.001,1.313-1.794,1.313-2.957c0-0.975-0.437-1.864-1.112-2.471
				c-0.57-0.582-1.339-0.94-2.219-0.94c-0.909,0-1.977,0.162-2.784,0.96c-0.995,0.985-1.202,1.723-1.213,2.855l0,0
				c0,0,0,0.005,0,0.01c0,0.015,0,0.03,0,0.04c0,0.137,0.011,0.268,0.024,0.399C14.872,15.18,14.877,15.281,14.887,15.296z
				 M14.893,15.307c0.006,0.015,0.01,0.026,0.016,0.045C14.916,15.382,14.902,15.337,14.893,15.307z"/>
			<path fill="#748525" d="M13.521,21.815c-0.101-0.809-0.101-1.517-0.101-2.021c0-0.606,0.152-0.758,0.152-0.758l0,0l-0.052-0.05
				c0,0-0.151,0.151-0.757,0.151c-0.283,0-0.137,0.005-0.506,0c-0.419-0.005-1.162-0.091-1.516-0.091
				c-0.051,0-0.657-0.01-0.657-0.01l0,0c-0.858,0.016-1.764,0.157-2.526,0.91c-1.011,1.001-1.313,1.794-1.313,2.957
				c0,0.975,0.436,1.864,1.111,2.47c0.571,0.582,1.34,0.939,2.219,0.939c0.909,0,1.976-0.162,2.784-0.959
				c0.995-0.985,1.202-1.724,1.213-2.855l0,0c0,0,0-0.005,0-0.01c0-0.015,0-0.03,0-0.041c0-0.136-0.011-0.268-0.025-0.399
				C13.538,21.931,13.532,21.83,13.521,21.815z M13.518,21.805c-0.005-0.016-0.011-0.025-0.016-0.045
				C13.491,21.729,13.507,21.775,13.518,21.805z"/>
			<path fill="#748525" d="M14.861,22.047c-0.016,0.131-0.024,0.263-0.024,0.399c0,0.015,0,0.031,0,0.041c0,0.005,0,0.01,0,0.01l0,0
				c0.011,1.131,0.218,1.875,1.212,2.855c0.809,0.798,1.87,0.96,2.784,0.96c0.88,0,1.647-0.358,2.22-0.94
				c0.682-0.606,1.111-1.495,1.111-2.47c0-1.163-0.251-1.911-1.264-2.906c-0.764-0.753-1.719-0.945-2.577-0.96l0,0
				c0,0-0.605,0.01-0.656,0.01c-0.354,0-1.097,0.086-1.517,0.091c-0.369,0.005-0.223,0-0.506,0c-0.606,0-0.759-0.151-0.759-0.151
				l-0.05,0.05l0,0c0,0,0.15,0.151,0.15,0.758c0,0.505,0,1.212-0.102,2.021C14.877,21.83,14.872,21.931,14.861,22.047z
				 M14.907,21.765c-0.005,0.015-0.011,0.03-0.017,0.046C14.902,21.775,14.916,21.729,14.907,21.765z"/>
			<path fill="#748525" d="M14.785,28.891c0.506-1.365,0.404-2.521,0.404-3.134c0-0.53-0.43-0.96-0.959-0.96
				c-0.531,0-0.96,0.43-0.96,0.96c0,0.036,0,0.071,0.004,0.107c0.016,0.333,0.045,1.37-0.207,2.167
				c-0.237,0.748-0.692,1.466-0.889,1.759c-0.035,0.04-0.066,0.086-0.091,0.131c0,0.005-0.006,0.005-0.006,0.005l0,0
				C12,30.066,11.955,30.229,11.955,30.4c0,0.531,0.43,0.961,0.96,0.961c0.288,0,0.545-0.127,0.718-0.33l0,0
				c0,0,0-0.006,0.005-0.006c0.04-0.045,0.076-0.094,0.106-0.15C13.962,30.573,14.441,29.825,14.785,28.891z"/>
		</g>
	</g>
	<g>
		<path fill="#748525" d="M28.5,28.506h-3.891v-2.052h1.839V2.052H2.122v24.397H3.82v2.052H0V0h28.5V28.506L28.5,28.506z"/>
	</g>
</g>
</svg>
