<?xml version="1.0" encoding="utf-8"?>
<!-- Generator: Adobe Illustrator 16.0.0, SVG Export Plug-In . SVG Version: 6.00 Build 0)  -->
<!DOCTYPE svg PUBLIC "-//W3C//DTD SVG 1.1//EN" "http://www.w3.org/Graphics/SVG/1.1/DTD/svg11.dtd">
<svg version="1.1" id="Capa_1" xmlns="http://www.w3.org/2000/svg" xmlns:xlink="http://www.w3.org/1999/xlink" x="0px" y="0px"
	 width="112px" height="51px" viewBox="0 0 112 51" enable-background="new 0 0 112 51" xml:space="preserve">
<g>
	<path fill="#3378B3" d="M77.037,108.749h-5.762v-3.038h2.724V69.585h-36.02v36.125h2.514v3.038h-5.657V66.547h42.201V108.749z"/>
	<g>
		<path fill="#3378B3" d="M-37.175,139.868h-9.555V125.24h3.988v11.021h5.559v3.606L-37.175,139.868L-37.175,139.868z"/>
		<path fill="#3378B3" d="M-20.407,132.604c0,2.071-0.793,3.853-2.372,5.35c-1.564,1.467-3.472,2.208-5.709,2.208
			c-2.237,0-4.146-0.734-5.709-2.208c-1.563-1.48-2.35-3.27-2.35-5.35c0-2.088,0.786-3.869,2.35-5.351s3.472-2.224,5.709-2.224
			c2.237,0,4.146,0.742,5.709,2.224C-21.2,128.719-20.407,130.507-20.407,132.604z M-32.476,132.604
			c0,1.121,0.382,2.064,1.152,2.834c0.771,0.771,1.713,1.152,2.836,1.152c1.093,0,2.028-0.389,2.813-1.175
			c0.801-0.8,1.197-1.735,1.197-2.813s-0.396-2.013-1.197-2.813c-0.771-0.8-1.706-1.197-2.813-1.197
			c-1.093,0-2.028,0.396-2.813,1.197C-32.087,130.575-32.476,131.51-32.476,132.604z"/>
		<path fill="#3378B3" d="M-12.057,139.868h-3.988v-11.021h-3.943v-3.606h11.792v3.606h-3.861V139.868L-12.057,139.868z"/>
		<path fill="#3378B3" d="M4.068,139.868H-6.894V125.24h10.79v3.592h-6.802v2.014h6.337v3.276h-6.337v2.224H4.06v3.523
			L4.068,139.868L4.068,139.868z"/>
		<path fill="#3378B3" d="M10.092,139.868H6.104V125.24h6.651c1.452,0,2.694,0.486,3.711,1.467c1.018,0.98,1.534,2.17,1.534,3.568
			c0,0.92-0.224,1.767-0.68,2.521c-0.457,0.756-1.063,1.311-1.819,1.661l3.651,5.417H14.58l-2.978-4.557h-0.044h-1.467
			L10.092,139.868L10.092,139.868z M10.092,128.846v3.277h2.222c0.531,0,0.95-0.15,1.257-0.449c0.307-0.3,0.463-0.726,0.463-1.271
			c0-0.465-0.134-0.838-0.396-1.123c-0.27-0.285-0.599-0.435-0.988-0.435L10.092,128.846L10.092,128.846z"/>
		<path fill="#3378B3" d="M24.443,139.868h-3.988V125.24h3.988V139.868z M23.396,124.229h-2.851l1.025-3.045h3.988L23.396,124.229z"
			/>
		<path fill="#3378B3" d="M30.047,139.868H25.85l5.964-14.628h3.651l5.963,14.628h-4.22l-0.756-1.908h-5.626L30.047,139.868z
			 M33.639,130.335l-1.766,4.534h3.524L33.639,130.335z"/>
	</g>
	<g>
		<path fill="#3378B3" d="M53.28,139.868h-3.824V125.24h3.569l6.127,7.849v-7.849h3.824v14.628h-3.256l-6.442-8.164v8.164H53.28z"/>
		<path fill="#3378B3" d="M68.5,139.868h-4.198l5.964-14.628h3.651l5.964,14.628H75.66l-0.756-1.908h-5.627L68.5,139.868z
			 M72.084,130.335l-1.766,4.534h3.522L72.084,130.335z"/>
		<path fill="#3378B3" d="M87.662,125.029c1.175,0,2.289,0.255,3.337,0.757c1.048,0.501,1.96,1.204,2.731,2.103l-2.709,2.268
			c-0.92-1.033-2.043-1.557-3.359-1.557c-1.122,0-2.064,0.373-2.836,1.129s-1.152,1.699-1.152,2.836c0,1.131,0.383,2.08,1.152,2.836
			c0.785,0.742,1.729,1.115,2.836,1.115c1.316,0,2.432-0.516,3.359-1.556l2.709,2.267c-0.771,0.898-1.676,1.594-2.731,2.096
			c-1.056,0.501-2.162,0.756-3.337,0.756c-2.223,0-4.115-0.71-5.664-2.141c-1.541-1.429-2.312-3.218-2.312-5.373
			c0-2.154,0.771-3.942,2.312-5.373C83.531,125.748,85.425,125.029,87.662,125.029z"/>
		<path fill="#3378B3" d="M99.268,139.868H95.28V125.24h3.987V139.868z"/>
		<path fill="#3378B3" d="M117.314,132.604c0,2.071-0.793,3.853-2.371,5.35c-1.564,1.467-3.474,2.208-5.709,2.208
			c-2.238,0-4.146-0.734-5.711-2.208c-1.562-1.48-2.349-3.27-2.349-5.35c0-2.088,0.785-3.869,2.349-5.351
			c1.564-1.481,3.473-2.224,5.711-2.224c2.235,0,4.145,0.742,5.709,2.224C116.529,128.719,117.314,130.507,117.314,132.604z
			 M105.246,132.604c0,1.121,0.381,2.064,1.152,2.834c0.771,0.771,1.713,1.152,2.836,1.152c1.092,0,2.026-0.389,2.812-1.175
			c0.802-0.8,1.197-1.735,1.197-2.813s-0.396-2.013-1.197-2.813c-0.771-0.8-1.705-1.197-2.812-1.197
			c-1.094,0-2.029,0.396-2.814,1.197C105.643,130.575,105.246,131.51,105.246,132.604z"/>
		<path fill="#3378B3" d="M122.965,139.868h-3.824V125.24h3.569l6.128,7.849v-7.849h3.823v14.628h-3.255l-6.441-8.164V139.868
			L122.965,139.868z"/>
		<path fill="#3378B3" d="M138.176,139.868h-4.197l5.963-14.628h3.652l5.963,14.628h-4.22l-0.756-1.908h-5.627L138.176,139.868z
			 M141.768,130.335l-1.766,4.534h3.523L141.768,130.335z"/>
		<path fill="#3378B3" d="M160.43,139.868h-9.549V125.24h3.988v11.021h5.561V139.868z"/>
	</g>
	<g>
		<path fill="#3378B3" d="M50.444,84.318c0,0-6.285,3.427-6.285,10.289c0,5.828,4.115,8.918,4.115,8.918h1.257
			c0,0-2.29-3.314-2.29-8.574C47.25,89.002,50.444,84.318,50.444,84.318z"/>
		<path fill="#3378B3" d="M51.589,103.525c0,0-2.514-3.428-2.514-8.92c0-6.748,3.891-10.289,3.891-10.289h0.569
			c0,0-1.145,4.115-1.145,10.289s0.801,8.92,0.801,8.92H51.589z"/>
		<path fill="#3378B3" d="M56.505,84.318h-0.568h-0.569c0,0-1.145,4.691-1.145,10.289c0,3.201,0.801,8.918,0.801,8.918h0.913h0.913
			c0,0,0.801-5.715,0.801-8.918C57.65,89.002,56.505,84.318,56.505,84.318z"/>
		<path fill="#3378B3" d="M61.43,84.318c0,0,6.284,3.427,6.284,10.289c0,5.828-4.114,8.918-4.114,8.918h-1.258
			c0,0,2.289-3.314,2.289-8.574C64.623,89.002,61.43,84.318,61.43,84.318z"/>
		<path fill="#3378B3" d="M60.283,103.525c0,0,2.515-3.428,2.515-8.92c0-6.748-3.891-10.289-3.891-10.289h-0.568
			c0,0,1.146,4.115,1.146,10.289s-0.801,8.92-0.801,8.92H60.283z"/>
		<path fill="#3378B3" d="M55.937,82.373L55.937,82.373c-0.038,0-0.075,0-0.112,0c-0.037,0-0.075,0-0.112,0l0,0
			c-1.871,0.029-2.971,0.8-2.971,0.8h2.971h0.232h2.97C58.907,83.173,57.807,82.402,55.937,82.373z"/>
		<path fill="#3378B3" d="M62.453,104.783h-6.217h-0.479h-6.218c0,0,1.908,1.421,5.2,1.729v2.274h2.514v-2.274
			C60.546,106.204,62.453,104.783,62.453,104.783z"/>
	</g>
</g>
<g>
	<path fill="#043F65" d="M14.425,10.183c-4.953,0-8.97,4.016-8.97,8.97c0,4.953,4.017,8.97,8.97,8.97
		c4.954,0,8.971-4.017,8.971-8.97C23.395,14.199,19.379,10.183,14.425,10.183z M15.301,12.091c2.391,0,4.322,1.934,4.322,4.324
		s-1.934,4.324-4.322,4.324c-2.391,0-4.324-1.935-4.324-4.324S12.91,12.091,15.301,12.091z M14.486,26.132
		c-3.889,0-7.164-3.428-7.164-7.184c0-2.344,1.397-4.438,3.393-5.675c-0.229,0.322-0.466,0.691-0.548,0.845
		c-0.322,0.608-0.609,1.514-0.609,2.839c0,2.937,2.518,6.13,5.803,6.13c2.574,0,5.312-1.996,6.15-4.359
		c0.01,0.205,0.016,0.409,0.016,0.624C21.527,23.129,18.376,26.132,14.486,26.132z"/>
	<g>
		<g>
			<path fill="#043F65" d="M28.859,28.864h-3.938v-2.077h1.862V2.078H2.15v24.705h1.719v2.076H0V0h28.859V28.864z"/>
		</g>
	</g>
</g>
<g>
	<path fill="#043F65" d="M7.491,50.208H0V40.204h7.379v2.456H2.728v1.376h4.333v2.241H2.728v1.521h4.764L7.491,50.208L7.491,50.208z
		"/>
	<path fill="#043F65" d="M8.771,45.904v-5.7h2.727v5.407c0,0.805,0.148,1.383,0.445,1.736c0.297,0.354,0.737,0.532,1.32,0.532
		s1.023-0.179,1.32-0.532c0.296-0.354,0.445-0.932,0.445-1.736v-5.407h2.728v5.7c0,1.443-0.425,2.548-1.279,3.316
		c-0.845,0.756-1.914,1.135-3.213,1.135c-1.3,0-2.375-0.377-3.214-1.135C9.195,48.453,8.771,47.348,8.771,45.904z"/>
	<path fill="#043F65" d="M22.003,50.208h-2.728V40.204h4.549c0.993,0,1.842,0.332,2.538,1.003c0.696,0.67,1.05,1.484,1.05,2.441
		c0,0.629-0.154,1.207-0.466,1.724s-0.727,0.896-1.243,1.136l2.497,3.705h-3.126l-2.036-3.117h-0.031h-1.003L22.003,50.208
		L22.003,50.208z M22.003,42.67v2.241h1.52c0.364,0,0.65-0.103,0.86-0.308c0.21-0.203,0.317-0.496,0.317-0.869
		c0-0.317-0.092-0.573-0.271-0.769c-0.184-0.194-0.409-0.296-0.675-0.296H22.003z"/>
	<path fill="#043F65" d="M39.401,45.244c0,1.417-0.542,2.636-1.622,3.658c-1.069,1.004-2.375,1.51-3.904,1.51
		s-2.835-0.501-3.904-1.51c-1.069-1.014-1.607-2.235-1.607-3.658c0-1.428,0.537-2.646,1.607-3.659
		c1.069-1.012,2.375-1.519,3.904-1.519s2.835,0.507,3.904,1.519C38.858,42.589,39.401,43.807,39.401,45.244z M31.146,45.244
		c0,0.768,0.262,1.412,0.788,1.939c0.527,0.526,1.172,0.787,1.939,0.787c0.748,0,1.387-0.267,1.924-0.803
		c0.548-0.548,0.819-1.188,0.819-1.924s-0.271-1.376-0.819-1.924c-0.526-0.547-1.166-0.818-1.924-0.818
		c-0.747,0-1.386,0.271-1.924,0.818C31.413,43.854,31.146,44.497,31.146,45.244z"/>
	<path fill="#043F65" d="M43.171,50.208h-2.527V40.204h2.241l3.245,4.549l3.244-4.549h2.242v10.003h-2.528v-5.296L46.129,49
		l-2.958-4.088V50.208L43.171,50.208z"/>
	<path fill="#043F65" d="M56.036,50.208h-2.728V40.204h2.728V50.208z"/>
	<path fill="#043F65" d="M64.259,50.208H57.73V40.204h2.728v7.538h3.802L64.259,50.208L64.259,50.208z"/>
	<path fill="#043F65" d="M71.893,50.208h-6.527V40.204h2.727v7.538h3.803v2.466H71.893z"/>
	<path fill="#043F65" d="M83.359,45.244c0,1.417-0.541,2.636-1.62,3.658c-1.071,1.004-2.375,1.51-3.905,1.51
		c-1.529,0-2.835-0.501-3.904-1.51c-1.068-1.014-1.605-2.235-1.605-3.658c0-1.428,0.537-2.646,1.605-3.659
		c1.069-1.012,2.375-1.519,3.904-1.519c1.53,0,2.834,0.507,3.905,1.519C82.823,42.589,83.359,43.807,83.359,45.244z M75.105,45.244
		c0,0.768,0.263,1.412,0.789,1.939c0.526,0.526,1.172,0.787,1.938,0.787c0.747,0,1.388-0.267,1.924-0.803
		c0.548-0.548,0.818-1.188,0.818-1.924s-0.271-1.376-0.818-1.924c-0.526-0.547-1.166-0.818-1.924-0.818
		c-0.746,0-1.386,0.271-1.924,0.818C75.379,43.854,75.105,44.497,75.105,45.244z"/>
	<path fill="#043F65" d="M87.225,50.208h-2.615V40.204h2.439l4.191,5.368v-5.368h2.615v10.003h-2.228l-4.405-5.583v5.584H87.225z"/>
	<path fill="#043F65" d="M102.982,50.208h-7.49V40.204h7.38v2.456h-4.651v1.376h4.334v2.241h-4.334v1.521h4.764v2.41H102.982z"/>
	<path fill="#043F65" d="M103.582,48.229l1.925-1.479c0.267,0.374,0.625,0.67,1.063,0.896c0.439,0.227,0.922,0.338,1.438,0.338
		c0.891,0,1.336-0.24,1.336-0.717c0-0.255-0.185-0.465-0.559-0.619c-0.219-0.086-0.414-0.152-0.588-0.198
		c-0.706-0.21-1.233-0.38-1.581-0.501c-1.54-0.573-2.312-1.535-2.312-2.887c0-0.946,0.346-1.685,1.049-2.211
		c0.694-0.526,1.545-0.787,2.537-0.787c1.647,0,2.881,0.531,3.705,1.592l-1.797,1.535c-0.439-0.526-1.043-0.789-1.806-0.789
		c-0.345,0-0.615,0.057-0.804,0.175c-0.19,0.112-0.287,0.261-0.287,0.444c0,0.267,0.134,0.461,0.404,0.573
		c0.152,0.066,0.322,0.123,0.502,0.173c0.476,0.099,1.062,0.271,1.765,0.533c0.85,0.307,1.469,0.69,1.853,1.157
		c0.385,0.465,0.573,1.039,0.573,1.729c0,0.998-0.338,1.77-1.019,2.332c-0.681,0.559-1.668,0.84-2.974,0.84
		c-1.121,0-2.041-0.205-2.769-0.621C104.529,49.322,103.977,48.82,103.582,48.229z"/>
</g>
</svg>
