<?xml version="1.0" encoding="utf-8"?>
<!-- Generator: Adobe Illustrator 16.0.0, SVG Export Plug-In . SVG Version: 6.00 Build 0)  -->
<!DOCTYPE svg PUBLIC "-//W3C//DTD SVG 1.1//EN" "http://www.w3.org/Graphics/SVG/1.1/DTD/svg11.dtd">
<svg version="1.1" id="Capa_1" xmlns="http://www.w3.org/2000/svg" xmlns:xlink="http://www.w3.org/1999/xlink" x="0px" y="0px"
	 width="78px" height="51px" viewBox="0 0 78 51" enable-background="new 0 0 78 51" xml:space="preserve">
<g>
	<path fill="#DC3F46" d="M22.652,17.361h-0.004c0,0-4.504-0.303-8.668-0.303c-4.166,0-8.584,0.253-8.584,0.253H5.287
		c-0.06,0.417-0.094,0.849-0.094,1.28c0,0.438,0.03,0.864,0.094,1.286c0.025,0,4.513,0.304,8.668,0.304
		c4.165,0,8.584-0.253,8.584-0.253h0.104c0.064-0.438,0.1-0.88,0.1-1.337C22.742,18.175,22.713,17.763,22.652,17.361z"/>
	<path fill="#DC3F46" d="M20.866,24.014c0.649-0.824,1.151-1.769,1.475-2.791c-0.016,0-5.04,0.303-8.386,0.303
		c-3.351,0-8.355-0.317-8.365-0.317c0.323,1.027,0.829,1.977,1.479,2.806h0.03c0,0,2.363,0.734,6.856,0.734
		S20.866,24.014,20.866,24.014z"/>
	<path fill="#DC3F46" d="M8.926,11.434c0,0,2.82-0.349,5.054-0.349s5.054,0.367,5.054,0.367l0.073,0.03
		c-1.443-1.047-3.222-1.663-5.138-1.663c-1.921,0-3.699,0.616-5.144,1.663L8.926,11.434z"/>
	<path fill="#DC3F46" d="M13.955,26.119c-2.234,0-5.054-0.367-5.054-0.367c1.43,1.014,3.177,1.608,5.069,1.608
		c1.876,0,3.615-0.591,5.04-1.589C18.979,25.776,16.18,26.119,13.955,26.119z"/>
	<path fill="#DC3F46" d="M5.595,16.01c0,0,5.034-0.303,8.385-0.303s8.365,0.318,8.365,0.318l0.015,0.005
		c-0.316-1.043-0.823-2.001-1.475-2.84h-0.05c0,0-2.362-0.734-6.855-0.734c-4.493,0-6.911,0.734-6.911,0.734h-0.02
		c-0.65,0.834-1.156,1.792-1.474,2.83L5.595,16.01z"/>
	<path fill="#DC3F46" d="M28,28h-3.822v-2.016h1.807V2.016H2.085v23.969h1.668V28H0V0h28V28L28,28z"/>
</g>
<path fill="#DC3F46" d="M7.814,50.085H0V39.649h7.697v2.562H2.844v1.437h4.521v2.338H2.844v1.585h4.97V50.085L7.814,50.085z"/>
<path fill="#DC3F46" d="M16.078,50.085H9.266V39.649h2.846v7.863h3.966V50.085z"/>
<path fill="#DC3F46" d="M26.861,39.5c1.708,0,3.116,0.619,4.237,1.858l-1.932,1.617c-0.598-0.619-1.366-0.93-2.306-0.93
	c-0.801,0-1.474,0.268-2.023,0.807c-0.55,0.54-0.822,1.212-0.822,2.022c0,0.807,0.272,1.484,0.822,2.023
	c0.561,0.528,1.232,0.795,2.023,0.795c0.918,0,1.644-0.299,2.172-0.897v-0.709h-2.695v-2.364h5.15v4.189
	c-0.501,0.71-1.157,1.271-1.975,1.692c-0.816,0.421-1.702,0.629-2.647,0.629c-1.585,0-2.936-0.507-4.041-1.526
	c-1.1-1.02-1.649-2.295-1.649-3.833c0-1.537,0.55-2.812,1.649-3.833C23.914,40.018,25.264,39.5,26.861,39.5z"/>
<path fill="#DC3F46" d="M43.973,44.908c0,1.479-0.566,2.749-1.691,3.816c-1.114,1.046-2.477,1.574-4.072,1.574
	s-2.957-0.523-4.074-1.574c-1.115-1.058-1.676-2.333-1.676-3.816c0-1.489,0.561-2.76,1.676-3.817
	c1.117-1.057,2.479-1.585,4.074-1.585s2.952,0.528,4.072,1.585C43.414,42.137,43.973,43.408,43.973,44.908z M35.364,44.908
	c0,0.801,0.271,1.473,0.822,2.023c0.55,0.55,1.222,0.821,2.023,0.821c0.779,0,1.446-0.277,2.007-0.838
	c0.57-0.572,0.854-1.239,0.854-2.007c0-0.769-0.283-1.436-0.854-2.007c-0.551-0.572-1.217-0.854-2.007-0.854
	c-0.78,0-1.447,0.283-2.008,0.854C35.646,43.461,35.364,44.128,35.364,44.908z"/>
<path fill="#DC3F46" d="M48.123,50.085h-2.846V39.649h4.745c1.034,0,1.922,0.347,2.646,1.046c0.729,0.699,1.098,1.548,1.098,2.546
	c0,0.657-0.162,1.26-0.487,1.799c-0.323,0.539-0.758,0.935-1.297,1.186l2.604,3.864h-3.26l-2.127-3.251h-0.031h-1.045V50.085
	L48.123,50.085z M48.123,42.228v2.338h1.586c0.379,0,0.678-0.106,0.896-0.32c0.219-0.213,0.332-0.518,0.332-0.907
	c0-0.332-0.097-0.598-0.283-0.801c-0.192-0.202-0.427-0.31-0.704-0.31H48.123z"/>
<path fill="#DC3F46" d="M59.711,50.085h-4.256V39.649h4.239c1.805,0,3.189,0.485,4.148,1.452c0.967,0.966,1.451,2.23,1.451,3.79
	c0,1.585-0.48,2.85-1.438,3.79C62.92,49.615,61.537,50.085,59.711,50.085z M58.307,42.345v5.167h1.229
	c1.219,0,2.02-0.268,2.396-0.796c0.342-0.437,0.508-1.046,0.508-1.824c0-0.77-0.172-1.361-0.508-1.783
	c-0.422-0.507-1.223-0.764-2.414-0.764H58.307z"/>
<path fill="#DC3F46" d="M77.711,44.908c0,1.479-0.566,2.749-1.693,3.816c-1.115,1.046-2.477,1.574-4.07,1.574
	c-1.598,0-2.959-0.523-4.074-1.574c-1.113-1.058-1.676-2.333-1.676-3.816c0-1.489,0.562-2.76,1.676-3.817
	c1.115-1.057,2.477-1.585,4.074-1.585c1.596,0,2.955,0.528,4.07,1.585C77.145,42.137,77.711,43.408,77.711,44.908z M69.102,44.908
	c0,0.801,0.271,1.473,0.82,2.023c0.549,0.55,1.225,0.821,2.023,0.821c0.777,0,1.447-0.277,2.008-0.838
	c0.57-0.572,0.854-1.239,0.854-2.007c0-0.769-0.281-1.436-0.854-2.007c-0.551-0.572-1.219-0.854-2.008-0.854
	c-0.779,0-1.445,0.283-2.008,0.854C69.379,43.461,69.102,44.128,69.102,44.908z"/>
</svg>
