<?xml version="1.0" encoding="utf-8"?>
<!-- Generator: Adobe Illustrator 16.0.0, SVG Export Plug-In . SVG Version: 6.00 Build 0)  -->
<!DOCTYPE svg PUBLIC "-//W3C//DTD SVG 1.1//EN" "http://www.w3.org/Graphics/SVG/1.1/DTD/svg11.dtd">
<svg version="1.1" id="Capa_1" xmlns="http://www.w3.org/2000/svg" xmlns:xlink="http://www.w3.org/1999/xlink" x="0px" y="0px"
	 width="135px" height="49px" viewBox="0 0 135 49" enable-background="new 0 0 135 49" xml:space="preserve">
<g>
	<g>
		<path fill="#3378B3" d="M6.271,48.125H0v-9.602h2.617v7.233h3.649v2.367L6.271,48.125L6.271,48.125z"/>
		<path fill="#3378B3" d="M17.277,43.355c0,1.36-0.52,2.529-1.557,3.512c-1.027,0.963-2.279,1.449-3.747,1.449
			s-2.721-0.481-3.748-1.449c-1.027-0.973-1.542-2.146-1.542-3.512c0-1.371,0.517-2.539,1.542-3.512
			c1.026-0.973,2.279-1.459,3.748-1.459s2.721,0.486,3.747,1.459C16.757,40.809,17.277,41.98,17.277,43.355z M9.356,43.355
			c0,0.737,0.251,1.355,0.756,1.861c0.506,0.506,1.125,0.756,1.862,0.756c0.717,0,1.331-0.255,1.847-0.771
			c0.525-0.526,0.786-1.14,0.786-1.847c0-0.709-0.26-1.321-0.786-1.848c-0.506-0.525-1.12-0.785-1.847-0.785
			c-0.717,0-1.331,0.26-1.847,0.785C9.611,42.025,9.356,42.639,9.356,43.355z"/>
		<path fill="#3378B3" d="M22.758,48.125h-2.617v-7.234h-2.588v-2.367h7.74v2.367h-2.534L22.758,48.125L22.758,48.125z"/>
		<path fill="#3378B3" d="M33.342,48.125h-7.195v-9.602h7.083v2.357h-4.465v1.321h4.161v2.151h-4.161v1.459h4.573v2.312H33.342
			L33.342,48.125z"/>
		<path fill="#3378B3" d="M37.295,48.125h-2.617v-9.602h4.365c0.953,0,1.77,0.318,2.437,0.963c0.668,0.643,1.007,1.425,1.007,2.342
			c0,0.604-0.146,1.16-0.445,1.654c-0.301,0.498-0.698,0.859-1.194,1.091l2.397,3.556h-3.002l-1.955-2.99h-0.028h-0.963
			L37.295,48.125L37.295,48.125z M37.295,40.891v2.151h1.459c0.349,0,0.623-0.099,0.824-0.294c0.201-0.197,0.306-0.477,0.306-0.835
			c0-0.306-0.089-0.55-0.261-0.737c-0.178-0.187-0.394-0.285-0.648-0.285H37.295L37.295,40.891z"/>
		<path fill="#3378B3" d="M46.715,48.125h-2.617v-9.602h2.617V48.125z M46.028,37.859h-1.871l0.674-1.998h2.617L46.028,37.859z"/>
		<path fill="#3378B3" d="M50.394,48.125h-2.755l3.914-9.602h2.396l3.914,9.602h-2.77l-0.496-1.252h-3.692L50.394,48.125z
			 M52.75,41.868l-1.158,2.976h2.312L52.75,41.868z"/>
	</g>
	<g>
		<path fill="#3378B3" d="M63.816,48.125h-2.51v-9.602h2.343l4.022,5.152v-5.152h2.509v9.602h-2.136l-4.229-5.358L63.816,48.125
			L63.816,48.125z"/>
		<path fill="#3378B3" d="M73.806,48.125h-2.755l3.914-9.602h2.396l3.915,9.602h-2.77l-0.497-1.252h-3.693L73.806,48.125z
			 M76.158,41.867L75,44.844h2.312L76.158,41.867z"/>
		<path fill="#3378B3" d="M86.384,38.385c0.771,0,1.503,0.168,2.19,0.498c0.688,0.328,1.286,0.789,1.791,1.379l-1.777,1.488
			c-0.604-0.678-1.34-1.021-2.205-1.021c-0.736,0-1.355,0.245-1.862,0.741c-0.506,0.498-0.756,1.115-0.756,1.861
			c0,0.741,0.25,1.365,0.756,1.861c0.517,0.487,1.136,0.732,1.862,0.732c0.865,0,1.596-0.34,2.205-1.021l1.777,1.487
			c-0.506,0.59-1.1,1.047-1.791,1.375c-0.692,0.329-1.42,0.495-2.19,0.495c-1.459,0-2.701-0.465-3.718-1.403
			c-1.012-0.938-1.519-2.112-1.519-3.526s0.507-2.588,1.519-3.525C83.672,38.856,84.914,38.385,86.384,38.385z"/>
		<path fill="#3378B3" d="M94,48.125h-2.617v-9.602H94V48.125z"/>
		<path fill="#3378B3" d="M105.846,43.355c0,1.359-0.521,2.529-1.558,3.511c-1.025,0.964-2.277,1.45-3.746,1.45
			s-2.722-0.48-3.747-1.449c-1.026-0.972-1.543-2.146-1.543-3.511c0-1.371,0.517-2.539,1.543-3.511
			c1.025-0.973,2.278-1.459,3.747-1.459s2.721,0.486,3.746,1.459C105.329,40.807,105.846,41.98,105.846,43.355z M97.926,43.355
			c0,0.736,0.249,1.355,0.756,1.861c0.506,0.506,1.125,0.757,1.862,0.757c0.717,0,1.33-0.255,1.846-0.771
			c0.525-0.524,0.786-1.14,0.786-1.847c0-0.708-0.261-1.321-0.786-1.848c-0.505-0.524-1.119-0.785-1.846-0.785
			c-0.719,0-1.334,0.26-1.849,0.785C98.185,42.024,97.926,42.639,97.926,43.355z"/>
		<path fill="#3378B3" d="M109.555,48.125h-2.511v-9.602h2.344l4.021,5.152v-5.152h2.51v9.602h-2.137l-4.229-5.358L109.555,48.125
			L109.555,48.125z"/>
		<path fill="#3378B3" d="M119.538,48.125h-2.754l3.912-9.602h2.398l3.913,9.602h-2.771l-0.496-1.252h-3.692L119.538,48.125z
			 M121.896,41.867l-1.159,2.977h2.312L121.896,41.867z"/>
		<path fill="#3378B3" d="M134.145,48.125h-6.267v-9.602h2.617v7.234h3.648L134.145,48.125L134.145,48.125z"/>
	</g>
</g>
<g>
	<path fill="#3378B3" d="M27.702,27.699h-3.783v-1.994h1.787V1.994H2.062v23.711h1.65v1.994H0V0h27.7v27.699H27.702z"/>
	<path fill="#3378B3" d="M9.988,11.664c0,0-4.125,2.25-4.125,6.753c0,3.826,2.701,5.854,2.701,5.854h0.825
		c0,0-1.503-2.176-1.503-5.628C7.892,14.739,9.988,11.664,9.988,11.664z"/>
	<path fill="#3378B3" d="M10.74,24.271c0,0-1.65-2.249-1.65-5.854c0-4.43,2.553-6.753,2.553-6.753h0.374
		c0,0-0.751,2.701-0.751,6.753s0.525,5.854,0.525,5.854H10.74z"/>
	<path fill="#3378B3" d="M13.966,11.664h-0.372H13.22c0,0-0.751,3.08-0.751,6.753c0,2.102,0.525,5.854,0.525,5.854h0.6h0.599
		c0,0,0.525-3.752,0.525-5.854C14.719,14.739,13.966,11.664,13.966,11.664z"/>
	<path fill="#3378B3" d="M17.2,11.664c0,0,4.125,2.25,4.125,6.753c0,3.826-2.701,5.854-2.701,5.854h-0.825
		c0,0,1.502-2.176,1.502-5.628C19.295,14.739,17.2,11.664,17.2,11.664z"/>
	<path fill="#3378B3" d="M16.448,24.271c0,0,1.649-2.249,1.649-5.854c0-4.43-2.554-6.753-2.554-6.753H15.17
		c0,0,0.752,2.701,0.752,6.753s-0.526,5.854-0.526,5.854H16.448z"/>
	<path fill="#3378B3" d="M13.593,10.388L13.593,10.388c-0.024,0-0.049,0-0.073,0c-0.025,0-0.049,0-0.074,0l0,0
		c-1.228,0.019-1.95,0.525-1.95,0.525h1.95h0.151h1.951C15.543,10.913,14.821,10.407,13.593,10.388z"/>
	<path fill="#3378B3" d="M17.872,25.096H13.79h-0.314H9.395c0,0,1.252,0.933,3.413,1.135v1.493h1.649v-1.493
		C16.62,26.029,17.872,25.096,17.872,25.096z"/>
</g>
</svg>
