<?xml version="1.0" encoding="utf-8"?>
<!-- Generator: Adobe Illustrator 16.0.0, SVG Export Plug-In . SVG Version: 6.00 Build 0)  -->
<!DOCTYPE svg PUBLIC "-//W3C//DTD SVG 1.1//EN" "http://www.w3.org/Graphics/SVG/1.1/DTD/svg11.dtd">
<svg version="1.1" id="Capa_1" xmlns="http://www.w3.org/2000/svg" xmlns:xlink="http://www.w3.org/1999/xlink" x="0px" y="0px"
	 width="94px" height="51px" viewBox="0 0 94 51" enable-background="new 0 0 94 51" xml:space="preserve">
<path fill="#FFFF00" d="M79.229,25.41"/>
<g>
	<g>
		<path fill="#098342" d="M23.067,17.674h-0.004c0,0-4.586-0.307-8.826-0.307c-4.24,0-8.737,0.257-8.737,0.257H5.388
			c-0.062,0.424-0.096,0.865-0.096,1.305c0,0.444,0.031,0.878,0.096,1.309c0.026,0,4.594,0.309,8.825,0.309
			c4.241,0,8.739-0.258,8.739-0.258h0.106c0.065-0.444,0.1-0.895,0.1-1.359C23.155,18.504,23.124,18.085,23.067,17.674z"/>
		<path fill="#098342" d="M21.243,24.447c0.663-0.838,1.174-1.798,1.5-2.839c-0.014,0-5.129,0.308-8.535,0.308
			c-3.412,0-8.507-0.324-8.517-0.324c0.328,1.047,0.844,2.012,1.507,2.855h0.029c0,0,2.406,0.749,6.98,0.749
			C18.781,25.196,21.243,24.447,21.243,24.447z"/>
		<path fill="#098342" d="M9.092,11.64c0,0,2.872-0.354,5.145-0.354c2.275,0,5.146,0.373,5.146,0.373l0.074,0.03
			c-1.471-1.065-3.279-1.692-5.23-1.692c-1.957,0-3.765,0.626-5.236,1.692L9.092,11.64z"/>
		<path fill="#098342" d="M14.208,26.591c-2.274,0-5.146-0.375-5.146-0.375c1.456,1.031,3.235,1.638,5.161,1.638
			c1.91,0,3.68-0.602,5.13-1.617C19.329,26.242,16.469,26.591,14.208,26.591z"/>
		<path fill="#098342" d="M5.696,16.3c0,0,5.125-0.307,8.536-0.307c3.413,0,8.519,0.323,8.519,0.323l0.014,0.005
			c-0.323-1.062-0.838-2.038-1.499-2.892h-0.052c0,0-2.406-0.748-6.98-0.748c-4.573,0-7.034,0.748-7.034,0.748H7.178
			c-0.662,0.85-1.177,1.825-1.5,2.881L5.696,16.3z"/>
	</g>
	<g>
		<path fill="#098342" d="M28.504,28.506h-3.891v-2.051h1.84V2.052H2.122v24.403H3.82v2.051H0V0h28.506v28.506H28.504z"/>
	</g>
</g>
<g>
	<path fill="#098342" d="M6.454,49.573H0v-9.882h2.693v7.444h3.756v2.438H6.454z"/>
	<path fill="#098342" d="M9.659,49.573H6.823l4.03-9.882h2.461l4.028,9.882H14.49l-0.511-1.288H10.18L9.659,49.573z M12.08,43.139
		l-1.193,3.063h2.381L12.08,43.139z"/>
	<path fill="#098342" d="M25.464,49.573H22.77v-9.882h4.635c0.802,0,1.561,0.289,2.269,0.865c0.359,0.283,0.652,0.656,0.875,1.127
		c0.223,0.469,0.334,0.976,0.334,1.525c0,1.001-0.365,1.84-1.092,2.507c-0.717,0.662-1.511,0.99-2.381,0.99h-1.94v2.866
		L25.464,49.573L25.464,49.573z M25.464,42.133v2.139h1.829c0.131,0,0.299-0.045,0.496-0.142c0.293-0.122,0.439-0.43,0.439-0.92
		c0-0.51-0.146-0.828-0.439-0.95c-0.197-0.086-0.369-0.126-0.51-0.126L25.464,42.133L25.464,42.133z"/>
	<path fill="#098342" d="M34.693,49.573h-2.694v-9.882h4.493c0.981,0,1.82,0.328,2.507,0.992c0.687,0.662,1.037,1.465,1.037,2.41
		c0,0.623-0.152,1.192-0.46,1.704c-0.309,0.511-0.718,0.886-1.229,1.122l2.466,3.659h-3.087L35.714,46.5h-0.03h-0.991V49.573
		L34.693,49.573z M34.693,42.133v2.213h1.501c0.359,0,0.642-0.1,0.85-0.302c0.206-0.202,0.313-0.491,0.313-0.858
		c0-0.313-0.092-0.566-0.268-0.759c-0.182-0.192-0.404-0.293-0.667-0.293L34.693,42.133L34.693,42.133z"/>
	<path fill="#098342" d="M44.393,49.573h-2.694v-9.882h2.694V49.573z"/>
	<path fill="#098342" d="M48.562,49.573h-2.498v-9.882h2.215l3.204,4.494l3.203-4.494h2.215v9.882h-2.498v-5.231l-2.92,4.039
		l-2.922-4.039V49.573L48.562,49.573z"/>
	<path fill="#098342" d="M61.264,49.573h-2.695v-9.882h2.695V49.573z"/>
	<path fill="#098342" d="M67.557,49.573h-2.697v-7.44h-2.661v-2.438h7.967v2.438h-2.608V49.573z"/>
	<path fill="#098342" d="M73.794,49.573h-2.696v-9.882h2.696V49.573z"/>
	<path fill="#098342" d="M81.223,49.573h-2.48l-3.997-9.882h2.851l2.396,6.056l2.38-6.056h2.851L81.223,49.573z"/>
	<path fill="#098342" d="M86.312,49.573h-2.836l4.029-9.882h2.465l4.028,9.882h-2.851l-0.51-1.288h-3.802L86.312,49.573z
		 M88.738,43.139l-1.193,3.063h2.381L88.738,43.139z"/>
</g>
</svg>
