<?xml version="1.0" encoding="utf-8"?>
<!-- Generator: Adobe Illustrator 16.0.0, SVG Export Plug-In . SVG Version: 6.00 Build 0)  -->
<!DOCTYPE svg PUBLIC "-//W3C//DTD SVG 1.1//EN" "http://www.w3.org/Graphics/SVG/1.1/DTD/svg11.dtd">
<svg version="1.1" id="Capa_1" xmlns="http://www.w3.org/2000/svg" xmlns:xlink="http://www.w3.org/1999/xlink" x="0px" y="0px"
	 width="75px" height="51px" viewBox="0 0 75 51" enable-background="new 0 0 75 51" xml:space="preserve">
<path fill="#3FBCD0" d="M1.676,41.07C2.788,40.027,4.14,39.5,5.72,39.5c1.581,0,2.938,0.521,4.06,1.57
	c1.112,1.043,1.671,2.31,1.671,3.789c0,1.213-0.42,2.288-1.256,3.225l0.852,0.958l-1.868,1.612l-0.91-1
	c-0.777,0.367-1.628,0.553-2.554,0.553c-1.57,0-2.921-0.516-4.044-1.554C0.559,47.61,0,46.343,0,44.864
	C0,43.374,0.559,42.113,1.676,41.07z M2.901,44.858c0,0.788,0.271,1.453,0.819,2c0.548,0.537,1.213,0.804,2,0.804
	c0.288,0,0.517-0.021,0.687-0.059L5.301,46.38l1.868-1.611l1.149,1.282c0.16-0.309,0.24-0.708,0.24-1.191
	c0-0.756-0.277-1.416-0.835-1.969c-0.548-0.569-1.213-0.852-2.001-0.852c-0.777,0-1.442,0.276-2,0.835
	C3.172,43.422,2.901,44.082,2.901,44.858z"/>
<path fill="#3FBCD0" d="M12.627,45.577v-5.928h2.836v5.625c0,0.835,0.154,1.437,0.463,1.804s0.767,0.553,1.373,0.553
	s1.064-0.186,1.373-0.553s0.463-0.968,0.463-1.804v-5.625h2.836v5.928c0,1.5-0.441,2.65-1.33,3.448
	c-0.878,0.788-1.99,1.181-3.342,1.181s-2.469-0.394-3.341-1.181C13.074,48.227,12.627,47.077,12.627,45.577z"/>
<path fill="#3FBCD0" d="M26.451,50.052h-2.836V39.649h2.836V50.052z"/>
<path fill="#3FBCD0" d="M30.926,50.052h-2.719V39.649h2.539l4.357,5.582v-5.582h2.72v10.402h-2.314l-4.582-5.805V50.052
	L30.926,50.052z"/>
<path fill="#3FBCD0" d="M42.42,50.052h-2.837V39.649h2.837V50.052z"/>
<path fill="#3FBCD0" d="M49.447,39.5c1.703,0,3.108,0.617,4.227,1.853l-1.928,1.611c-0.596-0.616-1.361-0.926-2.299-0.926
	c-0.797,0-1.467,0.267-2.016,0.804c-0.549,0.538-0.82,1.208-0.82,2.018c0,0.803,0.271,1.479,0.82,2.017
	c0.559,0.527,1.229,0.792,2.016,0.792c0.916,0,1.641-0.298,2.166-0.894v-0.702h-2.688v-2.363h5.135v4.177
	c-0.5,0.708-1.154,1.268-1.969,1.688c-0.812,0.42-1.697,0.628-2.639,0.628c-1.582,0-2.928-0.506-4.028-1.521
	c-1.097-1.017-1.644-2.288-1.644-3.82s0.547-2.805,1.644-3.821C46.517,40.01,47.857,39.5,49.447,39.5z"/>
<path fill="#3FBCD0" d="M66.508,44.89c0,1.474-0.562,2.739-1.688,3.805c-1.111,1.043-2.469,1.57-4.061,1.57
	c-1.591,0-2.947-0.521-4.061-1.57c-1.111-1.054-1.67-2.325-1.67-3.805c0-1.484,0.559-2.75,1.67-3.805
	c1.112-1.054,2.47-1.581,4.061-1.581s2.948,0.527,4.061,1.581C65.949,42.129,66.508,43.395,66.508,44.89z M57.925,44.89
	c0,0.798,0.271,1.469,0.819,2.017c0.549,0.547,1.219,0.819,2.017,0.819c0.776,0,1.442-0.276,2.001-0.835
	c0.569-0.569,0.852-1.234,0.852-2c0-0.767-0.281-1.432-0.852-2c-0.548-0.569-1.213-0.852-2.001-0.852c-0.776,0-1.44,0.282-2,0.852
	C58.207,43.448,57.925,44.113,57.925,44.89z"/>
<path fill="#3FBCD0" d="M74.602,50.052h-6.79V39.649h2.837v7.838h3.953V50.052L74.602,50.052z"/>
<g>
	<g>
		<g>
			<g>
				<g>
					<path fill="#3FBCD0" d="M28.499,28.504h-3.891v-2.051h1.839V2.052H2.122v24.396H3.82V28.5H0V0h28.5L28.499,28.504
						L28.499,28.504z"/>
				</g>
			</g>
		</g>
	</g>
	<path opacity="0.17" fill="#1E1E1E" enable-background="new    " d="M7.618,25.25"/>
	<g>
		<path fill="#3FBCD0" d="M16.771,17.241c-0.58-0.54-2.521-1.92-2.521-1.92s-1.941,1.381-2.521,1.92
			c-0.064,0.06-0.17,0.215-0.091,0.413c0,0,0.622,1.877,0.899,2.505c0.038,0.085,0.139,0.263,0.262,0.263s1.451,0,1.451,0
			s1.328,0,1.451,0s0.225-0.178,0.263-0.263c0.276-0.628,0.897-2.505,0.897-2.505C16.94,17.456,16.835,17.301,16.771,17.241z"/>
		<path fill="#3FBCD0" d="M17.546,23.492c-0.391-0.562-1.419-2.157-1.419-2.157h-1.878h-1.877c0,0-1.03,1.596-1.419,2.157
			c-0.202,0.292-0.189,0.477-0.031,0.713c0.1,0.147,0.973,1.453,1.387,1.894c0.155,0.165,0.62,0.277,1.086,0.277
			c0.468,0,0.854,0,0.854,0s0.386,0,0.854,0c0.467,0,0.933-0.112,1.086-0.277c0.414-0.44,1.287-1.746,1.388-1.894
			C17.735,23.968,17.748,23.783,17.546,23.492z"/>
		<path fill="#3FBCD0" d="M7.977,16.724c0,0-1.472,1.401-1.472,2.419c0,1.017,0.638,2.893,1.124,3.379
			c0.3,0.3,1.627,0.72,2.217,0.72c0.278,0,1.792-2.286,1.792-2.505s-1.019-3.227-1.019-3.227L7.977,16.724z"/>
		<path fill="#3FBCD0" d="M20.521,16.741c0,0,1.473,1.402,1.473,2.419s-0.639,2.894-1.124,3.379c-0.3,0.3-1.627,0.72-2.218,0.72
			c-0.278,0-1.793-2.286-1.793-2.506c0-0.219,1.021-3.225,1.021-3.225L20.521,16.741z"/>
		<path fill="#3FBCD0" d="M8.714,12.319c-0.222,0.222-0.524,1.855-0.524,2.884c0,0.497,0,0.547,0,0.547l2.612,0.859l2.947-1.996
			v-2.586c0,0-1.297-0.894-2.645-0.894C10.178,11.135,8.913,12.121,8.714,12.319z"/>
		<path fill="#3FBCD0" d="M19.783,12.319c0.222,0.222,0.524,1.855,0.524,2.884c0,0.497,0,0.547,0,0.547l-2.611,0.859l-2.947-1.995
			v-2.586c0,0,1.297-0.894,2.646-0.894C18.319,11.135,19.586,12.121,19.783,12.319z"/>
		<path fill="#3FBCD0" d="M7.629,25.188c0-0.322,0-0.96,0-1.333c0,0,0.074-0.208,0.333-0.208c0,0,1.863,0.492,1.945,0.594
			c0.195,0.24,1.411,2.116,1.411,2.207c0,0.212-0.504,0.455-0.716,0.455c-0.034,0-0.568,0-0.872,0
			C9.447,26.901,7.629,25.322,7.629,25.188z"/>
		<path fill="#3FBCD0" d="M20.869,25.188c0-0.322,0-0.96,0-1.333c0,0-0.073-0.208-0.333-0.208c0,0-1.864,0.492-1.946,0.594
			c-0.194,0.24-1.409,2.116-1.409,2.207c0,0.212,0.504,0.455,0.717,0.455c0.031,0,0.567,0,0.871,0
			C19.05,26.901,20.869,25.322,20.869,25.188z"/>
		<path fill="#3FBCD0" d="M16.39,27.232c-0.154-0.128-0.242-0.204-0.242-0.204s-0.554,0.226-1.625,0.226
			c-0.256,0-0.273,0.001-0.273,0.001s-0.018-0.001-0.273-0.001c-1.072,0-1.625-0.226-1.625-0.226s-0.164,0.162-0.257,0.225
			c-0.104,0.07-0.535,0.307-0.535,0.307s1.192,0.346,2.039,0.346c0.387,0,0.651,0,0.651,0s0.265,0,0.651,0
			c0.847,0,2.039-0.346,2.039-0.346S16.537,27.354,16.39,27.232z"/>
		<path fill="#3FBCD0" d="M6.732,23.646c0,0-1.259-1.794-1.259-4.106c0-0.439,0.003-0.439,0.003-0.439l0.174,0.22
			c0,0,0.088,1.42,0.423,2.254c0.336,0.837,0.781,1.31,0.781,1.31c0,0.109,0,0.303,0,0.312C6.854,23.263,6.732,23.646,6.732,23.646z
			"/>
		<path fill="#3FBCD0" d="M21.767,23.607c0,0,1.26-1.794,1.26-4.105c0-0.439-0.004-0.439-0.004-0.439l-0.176,0.22
			c0,0-0.087,1.42-0.422,2.254c-0.336,0.837-0.767,1.311-0.767,1.311c0,0.108,0,0.302,0,0.312
			C21.658,23.29,21.767,23.607,21.767,23.607z"/>
		<path fill="#3FBCD0" d="M5.386,17.814c0,0,0.126-1.222,0.581-2.231c0.455-1.011,1.449-2.384,1.449-2.384s-0.072,1.16-0.072,1.779
			c0,0.751,0.041,1.157,0.041,1.157s-0.593,0.415-0.896,0.887c-0.303,0.471-0.665,1.339-0.665,1.339L5.386,17.814z"/>
		<path fill="#3FBCD0" d="M23.112,17.814c0,0-0.127-1.222-0.581-2.231c-0.455-1.011-1.657-2.674-1.657-2.674
			s0.229,1.137,0.229,1.756c0,0.752,0.013,1.473,0.013,1.473s0.593,0.414,0.896,0.887c0.303,0.472,0.664,1.339,0.664,1.339
			L23.112,17.814z"/>
		<path fill="#3FBCD0" d="M14.242,10.042c-1.593,0-2.232,0.389-2.232,0.389s0.933,0.218,1.452,0.433
			c0.452,0.188,0.634,0.383,0.634,0.383h0.146h0.161c0,0,0.182-0.195,0.634-0.383c0.519-0.215,1.451-0.433,1.451-0.433
			S15.836,10.042,14.242,10.042z"/>
	</g>
</g>
</svg>
