<?xml version="1.0" encoding="utf-8"?>
<!-- Generator: Adobe Illustrator 16.0.0, SVG Export Plug-In . SVG Version: 6.00 Build 0)  -->
<!DOCTYPE svg PUBLIC "-//W3C//DTD SVG 1.1//EN" "http://www.w3.org/Graphics/SVG/1.1/DTD/svg11.dtd">
<svg version="1.1" id="Capa_1" xmlns="http://www.w3.org/2000/svg" xmlns:xlink="http://www.w3.org/1999/xlink" x="0px" y="0px"
	 width="95px" height="50.652px" viewBox="0 0 95 50.652" enable-background="new 0 0 95 50.652" xml:space="preserve">
<g>
	<path fill="#CC1517" d="M6.796,50.057H0V39.649h2.839v7.841h3.957V50.057L6.796,50.057z"/>
	<path fill="#CC1517" d="M10.172,50.057H7.184l4.239-10.407h2.599l4.24,10.407h-3.004l-0.538-1.357h-4L10.172,50.057z
		 M12.723,43.276l-1.257,3.229h2.509L12.723,43.276z"/>
	<path fill="#CC1517" d="M24.659,41.066c1.113-1.044,2.466-1.565,4.048-1.565c1.582,0,2.935,0.521,4.063,1.565
		c1.113,1.043,1.673,2.312,1.673,3.792c0,1.214-0.421,2.29-1.258,3.228l0.853,0.954l-1.864,1.613l-0.91-1.001
		c-0.778,0.368-1.63,0.555-2.552,0.555c-1.571,0-2.924-0.518-4.048-1.556c-1.112-1.044-1.672-2.312-1.672-3.792
		C22.986,43.377,23.541,42.11,24.659,41.066z M25.879,44.858c0,0.789,0.271,1.454,0.82,2.002c0.549,0.538,1.214,0.805,2.002,0.805
		c0.288,0,0.518-0.021,0.688-0.06l-1.103-1.225l1.864-1.614l1.15,1.283c0.159-0.309,0.239-0.708,0.239-1.193
		c0-0.756-0.277-1.412-0.836-1.971c-0.549-0.57-1.215-0.852-2.003-0.852c-0.777,0-1.443,0.276-2.002,0.836
		C26.155,43.421,25.879,44.081,25.879,44.858z"/>
	<path fill="#CC1517" d="M35.62,45.577v-5.929h2.833v5.63c0,0.837,0.154,1.438,0.464,1.806c0.309,0.368,0.767,0.554,1.374,0.554
		s1.065-0.186,1.374-0.554c0.309-0.367,0.464-0.969,0.464-1.806v-5.63h2.838v5.929c0,1.502-0.441,2.652-1.331,3.451
		c-0.879,0.788-1.992,1.178-3.345,1.178s-2.472-0.395-3.345-1.178C36.062,48.23,35.62,47.079,35.62,45.577z"/>
	<path fill="#CC1517" d="M49.446,50.057h-2.838V39.649h2.838V50.057z"/>
	<path fill="#CC1517" d="M53.925,50.057H51.21V39.649h2.539l4.361,5.587v-5.587h2.717v10.407h-2.316l-4.586-5.811V50.057z"/>
	<path fill="#CC1517" d="M65.425,50.057h-2.84V39.649h2.84V50.057z"/>
	<path fill="#CC1517" d="M74.983,50.057h-7.797V39.649h7.676V42.2h-4.836v1.433h4.51v2.327h-4.51v1.582h4.957V50.057L74.983,50.057z
		"/>
	<path fill="#CC1517" d="M83.224,50.057h-6.797V39.649h2.84v7.841h3.957V50.057L83.224,50.057z"/>
	<path fill="#CC1517" d="M86.601,50.057h-2.988l4.24-10.407h2.598l4.24,10.407h-3.004l-0.539-1.357h-4L86.601,50.057z
		 M89.151,43.276l-1.258,3.229h2.51L89.151,43.276z"/>
</g>
<g>
	<path fill="#CC1517" d="M28,28h-3.823v-2.017h1.808V2.016H2.085v23.969h1.668V28H0V0h28V28z"/>
	<path fill="#CC1517" d="M14.035,19.178l-7.641,4.378l7.71,4.449l7.64-4.449L14.035,19.178z M16.328,23.83
		c-0.486,0.277-1.112,0.417-1.668,0.347l-1.599-0.069l1.458,0.834l-1.042,0.557l-3.197-1.808l0.695-0.417c0,0,3.197,0.07,3.475,0.07
		c0.208,0,0.486,0,0.695-0.139c0.209-0.14,0.277-0.349,0-0.486c-0.349-0.139-0.695-0.139-1.042,0l-1.042-0.557
		c0.973-0.486,2.084-0.486,2.989,0C17.23,22.787,16.885,23.552,16.328,23.83L16.328,23.83z"/>
	<path fill="#CC1517" d="M13.548,9.309l-7.71,4.448v8.961l7.71-4.448V9.309z M9.309,18.622v-3.685l-0.625,0.349v-1.183l1.737-1.043
		v4.866L9.309,18.622z"/>
	<path fill="#CC1517" d="M22.23,13.757l-7.709-4.448v9.036l7.709,4.448V13.757L22.23,13.757z M19.316,18.97l-0.765-1.807
		l-0.834,0.834l-1.321-0.766l1.461-1.599l-1.461-3.197l1.392,0.834l0.694,1.6l0.694-0.834l1.392,0.834l-1.392,1.599l1.46,3.267
		L19.316,18.97z"/>
</g>
</svg>
