<svg xmlns="http://www.w3.org/2000/svg" xmlns:xlink="http://www.w3.org/1999/xlink" width="132" height="83" viewBox="0 0 132 83">
    <defs>
        <path id="a" d="M70.036 29h-6.272l-6.966 16.19L49.832 29H23.261L13.2 53h6.062l2.063-5.358h11.48L35 53h63.08l6.836-7.874L111.622 53h7.177l-10.143-12.13L118.8 29h-7.177l-6.45 7.742L98.721 29H70.036z"/>
    </defs>
    <g fill="none" fill-rule="evenodd">
        <path fill="#FFF" d="M0 0h132v83H0z"/>
        <rect width="132" height="83" fill="#1174B8" rx="6"/>
        <use fill="#FFF" xlink:href="#a"/>
        <path stroke="#FFF" stroke-width="3" d="M105.172 34.399l5.748-6.899h11.134L110.62 40.88l11.39 13.62h-11.08l-6.026-7.073-6.14 7.073H33.992L31.8 49.142h-9.444L20.293 54.5h-9.348l11.318-27H50.82l5.978 13.895L62.777 27.5h36.648l5.747 6.899z"/>
        <path fill="#1174B8" d="M27.13 42.611h-3.483l3.483-8.127v.26l3.483 7.867H27.13zm29.668 2.58l-6.966-15.606h-8.9v22.443l-10.06-22.443H23.26L13.2 52.932h6.063l2.063-5.29h11.48L35 52.932h11.609V35.517l7.61 17.415h5.288l7.74-17.028v17.028h5.675V29.585h-9.157L56.798 45.19zM94.983 47.964H81.954v-4.642h12.642v-4.387H81.954v-4.257h13.029l6.449 6.192-6.45 7.094zm13.673-7.094l4.126-4.386 6.017-6.836h-7.177l-6.45 7.094-6.45-7.094H76.15v23.089h21.93l6.835-7.61 6.707 7.74h7.177l-6.017-7.096-4.126-4.9z"/>
    </g>
</svg>
