<svg id="Capa_1" data-name="Capa 1" xmlns="http://www.w3.org/2000/svg" viewBox="0 0 132 83"><defs><style>.cls-1{fill:none;}.cls-2{fill:#231f20;}.cls-3{fill:#f79410;}.cls-4{fill:#ff5f00;}.cls-5{fill:#eb001b;}.cls-6{fill:#f79e1b;}</style></defs><title>mastercard</title><rect class="cls-1" x="-150.67" y="20.7" width="154.33" height="41.59"/><path class="cls-2" d="M115.23,80.36v.21h.19a.2.2,0,0,0,.1,0,.09.09,0,0,0,0-.08.09.09,0,0,0,0-.08.18.18,0,0,0-.1,0Zm.19-.15a.35.35,0,0,1,.23.07.22.22,0,0,1,.08.18.21.21,0,0,1-.06.16.31.31,0,0,1-.18.08l.25.29h-.2l-.24-.29h-.08V81h-.17v-.78Zm-.05,1a.61.61,0,0,0,.25-.05.66.66,0,0,0,.21-.14.65.65,0,0,0,.14-.21.67.67,0,0,0,0-.51.67.67,0,0,0-.14-.21.66.66,0,0,0-.21-.14.65.65,0,0,0-.25,0,.67.67,0,0,0-.26,0,.66.66,0,0,0-.21.14.66.66,0,0,0-.14.72.61.61,0,0,0,.14.21.66.66,0,0,0,.21.14.64.64,0,0,0,.26.05m0-1.49a.86.86,0,0,1,.6.25.82.82,0,0,1,.18.27.83.83,0,0,1,0,.65.87.87,0,0,1-.18.27.92.92,0,0,1-.27.18.84.84,0,0,1-.33.07.85.85,0,0,1-.34-.07.88.88,0,0,1-.27-.18.87.87,0,0,1-.18-.27.83.83,0,0,1,0-.65.82.82,0,0,1,.18-.27.81.81,0,0,1,.27-.18.85.85,0,0,1,.34-.07m-78.61-3a2.55,2.55,0,1,1,2.56,2.7,2.53,2.53,0,0,1-2.56-2.7m6.82,0V72.56H41.75v1a3.19,3.19,0,0,0-2.66-1.23,4.43,4.43,0,0,0,0,8.85A3.19,3.19,0,0,0,41.75,80v1h1.83Zm61.91,0a2.55,2.55,0,1,1,2.56,2.7,2.53,2.53,0,0,1-2.56-2.7m6.82,0v-7.6h-1.83v4.41a3.19,3.19,0,0,0-2.66-1.23,4.43,4.43,0,0,0,0,8.85A3.19,3.19,0,0,0,110.49,80v1h1.83ZM66.33,74a2.09,2.09,0,0,1,2.13,2H64.09a2.17,2.17,0,0,1,2.24-2m0-1.64a4.43,4.43,0,0,0,.12,8.85A5.12,5.12,0,0,0,69.94,80L69,78.66a4,4,0,0,1-2.45.88,2.34,2.34,0,0,1-2.52-2.06h6.26c0-.23,0-.46,0-.7,0-2.63-1.64-4.42-4-4.42m22.12,4.42A2.55,2.55,0,1,1,91,79.48a2.53,2.53,0,0,1-2.56-2.7m6.82,0V72.56H93.47v1a3.2,3.2,0,0,0-2.66-1.23,4.43,4.43,0,0,0,0,8.85A3.2,3.2,0,0,0,93.47,80v1h1.83Zm-17.17,0a4.26,4.26,0,0,0,4.5,4.42,4.41,4.41,0,0,0,3-1l-.88-1.48a3.7,3.7,0,0,1-2.21.76,2.7,2.7,0,0,1,0-5.4,3.7,3.7,0,0,1,2.21.76l.88-1.48a4.41,4.41,0,0,0-3-1,4.26,4.26,0,0,0-4.5,4.42m23.62-4.42a2.49,2.49,0,0,0-2.22,1.23v-1H97.72V81h1.83V76.27c0-1.39.6-2.17,1.8-2.17a3,3,0,0,1,1.15.21l.56-1.73a3.9,3.9,0,0,0-1.31-.23m-49.11.88a6.3,6.3,0,0,0-3.44-.88c-2.13,0-3.51,1-3.51,2.7,0,1.37,1,2.22,2.91,2.49l.87.12c1,.14,1.48.41,1.48.88,0,.65-.67,1-1.92,1a4.49,4.49,0,0,1-2.8-.88l-.86,1.43A6.08,6.08,0,0,0,49,81.2c2.43,0,3.84-1.15,3.84-2.75s-1.11-2.26-2.94-2.52l-.86-.13c-.79-.1-1.43-.26-1.43-.83s.6-1,1.6-1a5.44,5.44,0,0,1,2.63.72Zm23.64-.88a2.48,2.48,0,0,0-2.22,1.23v-1H72.25V81h1.83V76.27c0-1.39.6-2.17,1.8-2.17a3,3,0,0,1,1.15.21l.56-1.73a3.9,3.9,0,0,0-1.31-.23m-15.63.21h-3V70H55.8v2.56H54.09v1.67H55.8v3.84c0,2,.76,3.12,2.93,3.12A4.3,4.3,0,0,0,61,80.55L60.49,79a3.39,3.39,0,0,1-1.62.48c-.92,0-1.21-.56-1.21-1.41V74.24h3ZM33.26,81V75.7a3.14,3.14,0,0,0-3.32-3.35,3.26,3.26,0,0,0-3,1.5,3.09,3.09,0,0,0-2.78-1.5,2.79,2.79,0,0,0-2.47,1.25v-1H19.89V81h1.85V76.32a2,2,0,0,1,2.06-2.24c1.22,0,1.83.79,1.83,2.22V81h1.85V76.32a2,2,0,0,1,2.06-2.24c1.25,0,1.85.79,1.85,2.22V81Z"/><path class="cls-3" d="M116.36,53V51.74H116l-.37.85-.37-.85H115V53h.23V52l.35.8h.24l.35-.8V53Zm-2,0v-1h.41v-.21h-1v.21h.41v1Z"/><path class="cls-4" d="M79.88,58.26H52.12V8.36H79.88Z"/><path class="cls-5" d="M53.89,33.31A31.68,31.68,0,0,1,66,8.36a31.74,31.74,0,1,0,0,49.9,31.68,31.68,0,0,1-12.12-25"/><path class="cls-6" d="M117.33,33.31A31.73,31.73,0,0,1,66,58.26a31.74,31.74,0,0,0,0-49.9,31.73,31.73,0,0,1,51.35,25"/></svg>