<svg id="Capa_1" data-name="Capa 1" xmlns="http://www.w3.org/2000/svg" viewBox="0 0 132 83"><defs><style>.cls-1{fill:none;}.cls-2{fill:#00579f;}.cls-3{fill:#faa61a;}</style></defs><title>visa</title><rect class="cls-1" x="-150.667" y="20.703" width="154.333" height="41.593"/><g id="g4158"><polygon id="polygon9" class="cls-2" points="57.359 61.868 46.86 61.868 53.427 21.263 63.926 21.263 57.359 61.868"/><path id="path11" class="cls-2" d="M95.42,22.255A25.874,25.874,0,0,0,86,20.527c-10.368,0-17.67,5.529-17.714,13.434-.086,5.832,5.228,9.071,9.2,11.016,4.062,1.987,5.443,3.284,5.443,5.055-.041,2.72-3.282,3.974-6.305,3.974a20.9,20.9,0,0,1-9.851-2.16L65.394,51.2l-1.469,9.115a31.954,31.954,0,0,0,11.71,2.161c11.017,0,18.189-5.443,18.274-13.867.042-4.622-2.764-8.164-8.813-11.058-3.672-1.858-5.921-3.111-5.921-5.012.043-1.728,1.9-3.5,6.047-3.5a17.839,17.839,0,0,1,7.821,1.555l.95.431,1.428-8.768Z"/><path id="path13" class="cls-2" d="M109.374,47.483c.865-2.333,4.192-11.361,4.192-11.361-.044.087.863-2.376,1.381-3.887l.734,3.5s1.988,9.72,2.42,11.75Zm12.96-26.22h-8.121c-2.5,0-4.407.734-5.488,3.369L93.13,61.868h11.017s1.814-5.012,2.2-6.091h13.48c.3,1.426,1.253,6.091,1.253,6.091H130.8l-8.47-40.6h0Z"/><path id="path15" class="cls-2" d="M38.091,21.263,27.808,48.952l-1.124-5.616c-1.9-6.48-7.863-13.52-14.516-17.02l9.418,35.509h11.1l16.5-40.562h-11.1Z"/><path id="path17" class="cls-3" d="M18.26,21.263H1.368l-.173.82c13.177,3.37,21.9,11.492,25.489,21.255L23.012,24.676c-.6-2.593-2.462-3.328-4.752-3.413Z"/></g></svg>