<?xml version="1.0" encoding="utf-8"?>
<!-- Generator: Adobe Illustrator 16.0.0, SVG Export Plug-In . SVG Version: 6.00 Build 0)  -->
<!DOCTYPE svg PUBLIC "-//W3C//DTD SVG 1.1//EN" "http://www.w3.org/Graphics/SVG/1.1/DTD/svg11.dtd">
<svg version="1.1" id="Capa_1" xmlns="http://www.w3.org/2000/svg" xmlns:xlink="http://www.w3.org/1999/xlink" x="0px" y="0px"
	 width="112px" height="51px" viewBox="0 0 112 51" enable-background="new 0 0 112 51" xml:space="preserve">
<g>
	<path fill="#3378B3" d="M77.037,108.749h-5.762v-3.038h2.724V69.585H37.979v36.125h2.514v3.038h-5.657V66.547h42.201V108.749z"/>
	<g>
		<path fill="#3378B3" d="M-37.175,139.868h-9.555V125.24h3.988v11.021h5.559v3.606H-37.175z"/>
		<path fill="#3378B3" d="M-20.407,132.603c0,2.072-0.793,3.853-2.372,5.35c-1.564,1.467-3.472,2.208-5.709,2.208
			s-4.146-0.734-5.709-2.208c-1.564-1.481-2.35-3.27-2.35-5.35c0-2.088,0.786-3.869,2.35-5.35c1.563-1.481,3.472-2.223,5.709-2.223
			s4.146,0.741,5.709,2.223C-21.2,128.719-20.407,130.507-20.407,132.603z M-32.476,132.603c0,1.122,0.382,2.065,1.152,2.835
			c0.771,0.771,1.713,1.152,2.836,1.152c1.093,0,2.028-0.389,2.813-1.175c0.801-0.8,1.197-1.736,1.197-2.813
			c0-1.078-0.396-2.013-1.197-2.814c-0.771-0.8-1.706-1.197-2.813-1.197c-1.093,0-2.028,0.396-2.813,1.197
			C-32.087,130.575-32.476,131.51-32.476,132.603z"/>
		<path fill="#3378B3" d="M-12.057,139.868h-3.988v-11.021h-3.943v-3.606h11.792v3.606h-3.861L-12.057,139.868L-12.057,139.868z"/>
		<path fill="#3378B3" d="M4.068,139.868H-6.894V125.24h10.79v3.592h-6.802v2.013h6.337v3.277h-6.337v2.223h6.966v3.524H4.068
			L4.068,139.868z"/>
		<path fill="#3378B3" d="M10.092,139.868H6.104V125.24h6.651c1.452,0,2.694,0.486,3.711,1.467c1.018,0.98,1.534,2.17,1.534,3.569
			c0,0.92-0.224,1.766-0.68,2.521c-0.457,0.756-1.063,1.31-1.819,1.661l3.651,5.417h-4.572l-2.978-4.557h-0.044h-1.467V139.868
			L10.092,139.868z M10.092,128.846v3.277h2.222c0.531,0,0.95-0.15,1.257-0.449c0.307-0.3,0.463-0.726,0.463-1.272
			c0-0.464-0.134-0.838-0.396-1.123c-0.27-0.285-0.599-0.434-0.988-0.434H10.092L10.092,128.846z"/>
		<path fill="#3378B3" d="M24.443,139.868h-3.988V125.24h3.988V139.868z M23.396,124.229h-2.851l1.025-3.045h3.988L23.396,124.229z"
			/>
		<path fill="#3378B3" d="M30.047,139.868H25.85l5.964-14.628h3.651l5.963,14.628h-4.22l-0.756-1.908h-5.626L30.047,139.868z
			 M33.639,130.335l-1.766,4.534h3.524L33.639,130.335z"/>
	</g>
	<g>
		<path fill="#3378B3" d="M53.28,139.868h-3.824V125.24h3.569l6.128,7.849v-7.849h3.823v14.628h-3.255l-6.442-8.164V139.868
			L53.28,139.868z"/>
		<path fill="#3378B3" d="M68.5,139.868h-4.198l5.964-14.628h3.651l5.964,14.628H75.66l-0.756-1.908h-5.627L68.5,139.868z
			 M72.084,130.335l-1.766,4.534h3.523L72.084,130.335z"/>
		<path fill="#3378B3" d="M87.662,125.03c1.175,0,2.289,0.254,3.337,0.756c1.048,0.501,1.96,1.204,2.731,2.103l-2.709,2.267
			c-0.92-1.033-2.042-1.557-3.359-1.557c-1.122,0-2.064,0.374-2.836,1.13c-0.771,0.756-1.152,1.699-1.152,2.836
			c0,1.13,0.382,2.08,1.152,2.836c0.785,0.741,1.729,1.115,2.836,1.115c1.317,0,2.432-0.516,3.359-1.556l2.709,2.267
			c-0.771,0.898-1.676,1.594-2.731,2.095c-1.055,0.501-2.162,0.756-3.337,0.756c-2.223,0-4.115-0.71-5.664-2.14
			c-1.541-1.429-2.312-3.218-2.312-5.373c0-2.155,0.771-3.943,2.312-5.373C83.531,125.748,85.425,125.03,87.662,125.03z"/>
		<path fill="#3378B3" d="M99.268,139.868h-3.988V125.24h3.988V139.868z"/>
		<path fill="#3378B3" d="M117.314,132.603c0,2.072-0.793,3.853-2.371,5.35c-1.564,1.467-3.473,2.208-5.709,2.208
			c-2.238,0-4.146-0.734-5.71-2.208c-1.563-1.481-2.349-3.27-2.349-5.35c0-2.088,0.785-3.869,2.349-5.35s3.472-2.223,5.71-2.223
			c2.236,0,4.145,0.741,5.709,2.223C116.529,128.719,117.314,130.507,117.314,132.603z M105.246,132.603
			c0,1.122,0.381,2.065,1.152,2.835c0.771,0.771,1.713,1.152,2.836,1.152c1.092,0,2.027-0.389,2.812-1.175
			c0.801-0.8,1.197-1.736,1.197-2.813c0-1.078-0.396-2.013-1.197-2.814c-0.771-0.8-1.705-1.197-2.812-1.197
			c-1.094,0-2.029,0.396-2.814,1.197C105.643,130.575,105.246,131.51,105.246,132.603z"/>
		<path fill="#3378B3" d="M122.965,139.868h-3.824V125.24h3.569l6.128,7.849v-7.849h3.823v14.628h-3.255l-6.441-8.164V139.868
			L122.965,139.868z"/>
		<path fill="#3378B3" d="M138.176,139.868h-4.197l5.963-14.628h3.652l5.963,14.628h-4.22l-0.756-1.908h-5.627L138.176,139.868z
			 M141.768,130.335l-1.766,4.534h3.523L141.768,130.335z"/>
		<path fill="#3378B3" d="M160.429,139.868h-9.548V125.24h3.988v11.021h5.56V139.868z"/>
	</g>
	<g>
		<path fill="#3378B3" d="M50.444,84.318c0,0-6.285,3.427-6.285,10.289c0,5.829,4.115,8.919,4.115,8.919h1.257
			c0,0-2.29-3.315-2.29-8.575C47.25,89.002,50.444,84.318,50.444,84.318z"/>
		<path fill="#3378B3" d="M51.589,103.525c0,0-2.514-3.427-2.514-8.919c0-6.749,3.891-10.289,3.891-10.289h0.569
			c0,0-1.145,4.115-1.145,10.289c0,6.173,0.801,8.919,0.801,8.919H51.589z"/>
		<path fill="#3378B3" d="M56.505,84.318h-0.568h-0.569c0,0-1.145,4.692-1.145,10.289c0,3.202,0.801,8.919,0.801,8.919h0.913h0.913
			c0,0,0.801-5.716,0.801-8.919C57.65,89.002,56.505,84.318,56.505,84.318z"/>
		<path fill="#3378B3" d="M61.429,84.318c0,0,6.285,3.427,6.285,10.289c0,5.829-4.115,8.919-4.115,8.919h-1.257
			c0,0,2.289-3.315,2.289-8.575C64.623,89.002,61.429,84.318,61.429,84.318z"/>
		<path fill="#3378B3" d="M60.283,103.525c0,0,2.515-3.427,2.515-8.919c0-6.749-3.891-10.289-3.891-10.289h-0.568
			c0,0,1.145,4.115,1.145,10.289c0,6.173-0.801,8.919-0.801,8.919H60.283z"/>
		<path fill="#3378B3" d="M55.937,82.373L55.937,82.373c-0.038,0-0.075,0-0.112,0c-0.037,0-0.075,0-0.112,0l0,0
			c-1.871,0.03-2.971,0.8-2.971,0.8h2.971h0.232h2.97C58.907,83.173,57.807,82.403,55.937,82.373z"/>
		<path fill="#3378B3" d="M62.453,104.783h-6.217h-0.479h-6.218c0,0,1.908,1.421,5.2,1.729v2.274h2.514v-2.274
			C60.546,106.204,62.453,104.783,62.453,104.783z"/>
	</g>
</g>
<g>
	<g>
		<path fill="#043F65" d="M56.179,10.183c-4.953,0-8.97,4.016-8.97,8.97c0,4.953,4.017,8.97,8.97,8.97
			c4.954,0,8.971-4.017,8.971-8.97C65.149,14.199,61.133,10.183,56.179,10.183z M57.055,12.091c2.39,0,4.322,1.934,4.322,4.324
			s-1.934,4.324-4.322,4.324c-2.391,0-4.324-1.935-4.324-4.324S54.664,12.091,57.055,12.091z M56.24,26.132
			c-3.889,0-7.164-3.428-7.164-7.184c0-2.344,1.397-4.437,3.393-5.675c-0.23,0.322-0.466,0.691-0.548,0.845
			c-0.322,0.608-0.609,1.514-0.609,2.839c0,2.937,2.518,6.13,5.803,6.13c2.574,0,5.312-1.996,6.151-4.359
			c0.01,0.205,0.015,0.409,0.015,0.624C63.281,23.129,60.13,26.132,56.24,26.132z"/>
		<g>
			<g>
				<path fill="#043F65" d="M70.613,28.864h-3.938v-2.077h1.862V2.078H43.904v24.705h1.719v2.077h-3.869V0h28.859V28.864z"/>
			</g>
		</g>
	</g>
	<g>
		<path fill="#043F65" d="M7.491,50.208H0V40.204h7.379v2.456H2.728v1.376h4.333v2.242H2.728v1.52h4.764V50.208z"/>
		<path fill="#043F65" d="M8.771,45.904v-5.7h2.727v5.408c0,0.804,0.148,1.382,0.445,1.735c0.297,0.354,0.737,0.533,1.32,0.533
			s1.023-0.179,1.32-0.533c0.296-0.353,0.445-0.931,0.445-1.735v-5.408h2.728v5.7c0,1.443-0.425,2.548-1.279,3.316
			c-0.845,0.757-1.914,1.136-3.213,1.136c-1.3,0-2.375-0.378-3.214-1.136C9.195,48.453,8.771,47.347,8.771,45.904z"/>
		<path fill="#043F65" d="M22.003,50.208h-2.728V40.204h4.549c0.993,0,1.842,0.332,2.538,1.003c0.696,0.67,1.05,1.484,1.05,2.441
			c0,0.629-0.154,1.208-0.466,1.724c-0.312,0.517-0.727,0.896-1.243,1.136l2.497,3.705h-3.126l-2.036-3.117h-0.031h-1.003V50.208
			L22.003,50.208z M22.003,42.67v2.241h1.52c0.364,0,0.65-0.103,0.86-0.307s0.317-0.497,0.317-0.87c0-0.317-0.092-0.573-0.271-0.768
			c-0.184-0.194-0.409-0.296-0.675-0.296H22.003z"/>
		<path fill="#043F65" d="M39.401,45.244c0,1.417-0.542,2.636-1.622,3.659c-1.069,1.003-2.375,1.509-3.904,1.509
			s-2.835-0.501-3.904-1.509c-1.069-1.014-1.607-2.236-1.607-3.659c0-1.428,0.537-2.646,1.607-3.659
			c1.069-1.012,2.375-1.519,3.904-1.519s2.835,0.507,3.904,1.519C38.858,42.589,39.401,43.806,39.401,45.244z M31.146,45.244
			c0,0.768,0.262,1.412,0.788,1.939c0.527,0.527,1.172,0.788,1.939,0.788c0.748,0,1.387-0.267,1.924-0.803
			c0.548-0.548,0.819-1.188,0.819-1.924s-0.271-1.376-0.819-1.924c-0.526-0.547-1.166-0.818-1.924-0.818
			c-0.747,0-1.386,0.271-1.924,0.818C31.413,43.853,31.146,44.497,31.146,45.244z"/>
		<path fill="#043F65" d="M43.171,50.208h-2.527V40.204h2.241l3.245,4.549l3.244-4.549h2.242v10.003h-2.528v-5.296L46.129,49
			l-2.958-4.088V50.208L43.171,50.208z"/>
		<path fill="#043F65" d="M56.036,50.208h-2.728V40.204h2.728V50.208z"/>
		<path fill="#043F65" d="M64.259,50.208h-6.529V40.204h2.728v7.538h3.802V50.208z"/>
		<path fill="#043F65" d="M71.893,50.208h-6.528V40.204h2.727v7.538h3.802V50.208L71.893,50.208z"/>
		<path fill="#043F65" d="M83.36,45.244c0,1.417-0.542,2.636-1.621,3.659c-1.071,1.003-2.375,1.509-3.905,1.509
			c-1.529,0-2.835-0.501-3.904-1.509c-1.069-1.014-1.606-2.236-1.606-3.659c0-1.428,0.537-2.646,1.606-3.659
			c1.069-1.012,2.375-1.519,3.904-1.519c1.53,0,2.834,0.507,3.905,1.519C82.823,42.589,83.36,43.806,83.36,45.244z M75.106,45.244
			c0,0.768,0.262,1.412,0.788,1.939c0.527,0.527,1.172,0.788,1.939,0.788c0.747,0,1.387-0.267,1.924-0.803
			c0.548-0.548,0.818-1.188,0.818-1.924s-0.271-1.376-0.818-1.924c-0.527-0.547-1.166-0.818-1.924-0.818
			c-0.746,0-1.386,0.271-1.924,0.818C75.379,43.853,75.106,44.497,75.106,45.244z"/>
		<path fill="#043F65" d="M87.224,50.208h-2.615V40.204h2.44l4.191,5.368v-5.368h2.615v10.003h-2.227l-4.405-5.583V50.208
			L87.224,50.208z"/>
		<path fill="#043F65" d="M102.983,50.208h-7.491V40.204h7.38v2.456h-4.651v1.376h4.334v2.242h-4.334v1.52h4.763V50.208
			L102.983,50.208z"/>
		<path fill="#043F65" d="M103.582,48.228l1.925-1.479c0.266,0.374,0.625,0.67,1.063,0.896c0.44,0.226,0.922,0.338,1.438,0.338
			c0.891,0,1.336-0.241,1.336-0.717c0-0.255-0.185-0.465-0.559-0.619c-0.219-0.087-0.414-0.153-0.588-0.199
			c-0.706-0.21-1.233-0.379-1.581-0.501c-1.54-0.573-2.312-1.535-2.312-2.886c0-0.947,0.347-1.685,1.049-2.211
			c0.695-0.527,1.545-0.788,2.537-0.788c1.648,0,2.882,0.532,3.705,1.592l-1.796,1.535c-0.44-0.526-1.043-0.788-1.806-0.788
			c-0.344,0-0.615,0.056-0.804,0.174c-0.19,0.113-0.286,0.261-0.286,0.445c0,0.266,0.133,0.46,0.403,0.573
			c0.153,0.066,0.323,0.123,0.502,0.173c0.476,0.098,1.063,0.271,1.765,0.533c0.85,0.307,1.469,0.69,1.853,1.157
			c0.384,0.465,0.573,1.039,0.573,1.729c0,0.998-0.338,1.77-1.018,2.333c-0.681,0.558-1.669,0.839-2.974,0.839
			c-1.121,0-2.041-0.205-2.769-0.62C104.529,49.322,103.977,48.821,103.582,48.228z"/>
	</g>
</g>
</svg>
