<?xml version="1.0" encoding="utf-8"?>
<svg version="1.1" id="Capa_1" xmlns="http://www.w3.org/2000/svg" xmlns:xlink="http://www.w3.org/1999/xlink" x="0px" y="0px"
	 viewBox="0 0 66.5 21.1" style="enable-background:new 0 0 66.5 21.1;" xml:space="preserve">
<style type="text/css">
	.st0{display:none;clip-path:url(#SVGID_2_);}
	.st1{clip-path:url(#SVGID_2_);}
	.st2{clip-path:url(#SVGID_4_);}
	.st3{clip-path:url(#SVGID_6_);fill:#CC6506;}
	.st4{clip-path:url(#SVGID_6_);fill:none;stroke:#CC6506;stroke-width:0.2579;}
	.st5{clip-path:url(#SVGID_6_);fill:none;stroke:#CC6506;stroke-width:0.1289;}
	.st6{clip-path:url(#SVGID_6_);}
	.st7{clip-path:url(#SVGID_8_);fill:#0076B9;}
	.st8{clip-path:url(#SVGID_10_);fill:#CC6506;}
	.st9{clip-path:url(#SVGID_10_);fill:#FFFFFF;}
	.st10{clip-path:url(#SVGID_12_);fill:none;stroke:#FFFFFF;stroke-width:0.3223;stroke-miterlimit:10;}
	.st11{clip-path:url(#SVGID_12_);fill:none;stroke:#000000;stroke-width:6.446991e-02;stroke-miterlimit:10;}
	.st12{clip-path:url(#SVGID_12_);}
	.st13{clip-path:url(#SVGID_12_);fill:none;stroke:#FFFFFF;stroke-width:6.446991e-02;stroke-miterlimit:10;}
	.st14{clip-path:url(#SVGID_12_);fill:none;stroke:#FFFFFF;stroke-width:0.1032;stroke-miterlimit:10;}
	.st15{clip-path:url(#SVGID_14_);fill:none;stroke:#FFFFFF;stroke-width:0.1032;stroke-miterlimit:10;}
	.st16{clip-path:url(#SVGID_16_);fill:none;stroke:#FFFFFF;stroke-width:0.3223;stroke-miterlimit:10;}
	.st17{clip-path:url(#SVGID_16_);fill:none;stroke:#000000;stroke-width:6.446991e-02;stroke-miterlimit:10;}
</style>
<g>
	<g>
		<defs>
			<rect id="SVGID_1_" x="0.7" y="-3.3" width="69" height="26.1"/>
		</defs>
		<clipPath id="SVGID_2_">
			<use xlink:href="#SVGID_1_"  style="overflow:visible;"/>
		</clipPath>
		<g class="st0">
			
				<image style="display:inline;overflow:visible;enable-background:new    ;" width="3178" height="1226" xlink:href="9AB5C45D00C31C1D.png"  transform="matrix(2.074819e-02 0 0 2.129536e-02 2.2793 -3.239)">
			</image>
		</g>
		<g class="st1">
			<defs>
				<rect id="SVGID_3_" x="0" y="-1.8" width="65.1" height="23.2"/>
			</defs>
			<clipPath id="SVGID_4_">
				<use xlink:href="#SVGID_3_"  style="overflow:visible;"/>
			</clipPath>
			<g class="st2">
				<g>
					<defs>
						<rect id="SVGID_5_" x="-51.4" y="-103.6" width="322.1" height="232.2"/>
					</defs>
					<clipPath id="SVGID_6_">
						<use xlink:href="#SVGID_5_"  style="overflow:visible;"/>
					</clipPath>
					<rect x="120.6" y="-52.2" class="st3" width="131.6" height="131.6"/>
					<rect x="120.6" y="-52.2" class="st4" width="131.6" height="131.6"/>
					<rect x="-32.9" y="-52.1" class="st5" width="131.5" height="131.5"/>
					<g class="st6">
						<text transform="matrix(1 0 0 1 -32.937 112.2941)"><tspan x="0" y="0" style="fill:#AEADB3; font-family:'HurmeGeometricSans1-Bold'; font-size:2.063px;">1</tspan><tspan x="0.7" y="0" style="fill:#AEADB3; font-family:'HurmeGeometricSans1-Bold'; font-size:2.063px;">7</tspan><tspan x="1.8" y="0" style="fill:#AEADB3; font-family:'HurmeGeometricSans1-Bold'; font-size:2.063px;">2</tspan></text>
					</g>
					<g class="st6">
						
							<text transform="matrix(1 0 0 1 -29.9624 112.2941)" style="fill:#D8D9DD; font-family:'HurmeGeometricSans1-Bold'; font-size:2.063px;">  </text>
					</g>
					<g class="st6">
						<text transform="matrix(1 0 0 1 249.21 112.2941)"><tspan x="0" y="0" style="fill:#AEADB3; font-family:'HurmeGeometricSans1-Bold'; font-size:2.063px;">1</tspan><tspan x="0.7" y="0" style="fill:#AEADB3; font-family:'HurmeGeometricSans1-Bold'; font-size:2.063px;">7</tspan><tspan x="1.8" y="0" style="fill:#AEADB3; font-family:'HurmeGeometricSans1-Bold'; font-size:2.063px;">3</tspan></text>
					</g>
					<g class="st6">
						
							<text transform="matrix(1 0 0 1 252.1523 112.2941)" style="fill:#AEADB3; font-family:'HurmeGeometricSans1-Bold'; font-size:2.063px;">  </text>
					</g>
					<g class="st6">
						<defs>
							<rect id="SVGID_7_" x="-46.1" y="-98.2" width="311.4" height="221.5"/>
						</defs>
						<clipPath id="SVGID_8_">
							<use xlink:href="#SVGID_7_"  style="overflow:visible;"/>
						</clipPath>
						<g style="clip-path:url(#SVGID_8_);">
							
								<text transform="matrix(1 0 0 1 -29.9902 -78.1928)" style="fill:#0076B9; font-family:'HurmeGeometricSans2-SemiBold'; font-size:5.1576px;">3</text>
						</g>
						<polygon class="st7" points="-24.2,-76.3 -25.4,-76.3 -25.4,-76.9 -24.8,-76.9 -24.8,-84.4 -32.3,-84.4 -32.3,-76.9 
							-31.8,-76.9 -31.8,-76.3 -32.9,-76.3 -32.9,-85.1 -24.2,-85.1 						"/>
						<g style="clip-path:url(#SVGID_8_);">
							<text transform="matrix(1 0 0 1 -21.0947 -78.1928)"><tspan x="0" y="0" style="fill:#0076B9; font-family:'HurmeGeometricSans1-SemiBold'; font-size:2.5479px;">P</tspan><tspan x="1.6" y="0" style="fill:#0076B9; font-family:'HurmeGeometricSans1-SemiBold'; font-size:2.5479px;">R</tspan><tspan x="3.2" y="0" style="fill:#0076B9; font-family:'HurmeGeometricSans1-SemiBold'; font-size:2.5479px;">ODU</tspan><tspan x="9.1" y="0" style="fill:#0076B9; font-family:'HurmeGeometricSans1-SemiBold'; font-size:2.5479px;">C</tspan><tspan x="10.9" y="0" style="fill:#0076B9; font-family:'HurmeGeometricSans1-SemiBold'; font-size:2.5479px;">T</tspan><tspan x="12.2" y="0" style="fill:#0076B9; font-family:'HurmeGeometricSans1-SemiBold'; font-size:2.5479px;">O</tspan><tspan x="14.3" y="0" style="fill:#0076B9; font-family:'HurmeGeometricSans1-SemiBold'; font-size:2.5479px;">S</tspan></text>
						</g>
						<g style="clip-path:url(#SVGID_8_);">
							<text transform="matrix(1 0 0 1 -25.9927 112.2941)"><tspan x="0" y="0" style="fill:#AEADB3; font-family:'HurmeGeometricSans1-SemiBold'; font-size:2.1404px;">MAN</tspan><tspan x="5.1" y="0" style="fill:#AEADB3; font-family:'HurmeGeometricSans1-SemiBold'; font-size:2.1404px;">U</tspan><tspan x="6.6" y="0" style="fill:#AEADB3; font-family:'HurmeGeometricSans1-SemiBold'; font-size:2.1404px;">A</tspan><tspan x="8.2" y="0" style="fill:#AEADB3; font-family:'HurmeGeometricSans1-SemiBold'; font-size:2.1404px;">L</tspan><tspan x="9.2" y="0" style="fill:#AEADB3; font-family:'HurmeGeometricSans1-SemiBold'; font-size:2.1404px;"> DE E</tspan><tspan x="14.5" y="0" style="fill:#AEADB3; font-family:'HurmeGeometricSans1-SemiBold'; font-size:2.1404px;">S</tspan><tspan x="15.7" y="0" style="fill:#AEADB3; font-family:'HurmeGeometricSans1-SemiBold'; font-size:2.1404px;">T</tspan><tspan x="16.9" y="0" style="fill:#AEADB3; font-family:'HurmeGeometricSans1-SemiBold'; font-size:2.1404px;">R</tspan><tspan x="18.2" y="0" style="fill:#AEADB3; font-family:'HurmeGeometricSans1-SemiBold'; font-size:2.1404px;">A</tspan><tspan x="19.6" y="0" style="fill:#AEADB3; font-family:'HurmeGeometricSans1-SemiBold'; font-size:2.1404px;">TEGI</tspan><tspan x="24.4" y="0" style="fill:#AEADB3; font-family:'HurmeGeometricSans1-SemiBold'; font-size:2.1404px;">A </tspan><tspan x="26.3" y="0" style="fill:#AEADB3; font-family:'HurmeGeometricSans1-SemiBold'; font-size:2.1404px;">VIS</tspan><tspan x="29.7" y="0" style="fill:#AEADB3; font-family:'HurmeGeometricSans1-SemiBold'; font-size:2.1404px;">U</tspan><tspan x="31.2" y="0" style="fill:#AEADB3; font-family:'HurmeGeometricSans1-SemiBold'; font-size:2.1404px;">A</tspan><tspan x="32.8" y="0" style="fill:#AEADB3; font-family:'HurmeGeometricSans1-SemiBold'; font-size:2.1404px;">L</tspan><tspan x="33.8" y="0" style="fill:#AEADB3; font-family:'HurmeGeometricSans1-SemiBold'; font-size:2.1404px;"> </tspan><tspan x="34.3" y="0" style="fill:#AEADB3; font-family:'HurmeGeometricSans1-SemiBold'; font-size:2.1404px;">C</tspan><tspan x="35.8" y="0" style="fill:#AEADB3; font-family:'HurmeGeometricSans1-SemiBold'; font-size:2.1404px;">ORPO</tspan><tspan x="42.1" y="0" style="fill:#AEADB3; font-family:'HurmeGeometricSans1-SemiBold'; font-size:2.1404px;">R</tspan><tspan x="43.4" y="0" style="fill:#AEADB3; font-family:'HurmeGeometricSans1-SemiBold'; font-size:2.1404px;">A</tspan><tspan x="44.9" y="0" style="fill:#AEADB3; font-family:'HurmeGeometricSans1-SemiBold'; font-size:2.1404px;">TI</tspan><tspan x="46.7" y="0" style="fill:#AEADB3; font-family:'HurmeGeometricSans1-SemiBold'; font-size:2.1404px;">V</tspan><tspan x="48" y="0" style="fill:#AEADB3; font-family:'HurmeGeometricSans1-SemiBold'; font-size:2.1404px;">A. </tspan><tspan x="50.6" y="0" style="fill:#AEADB3; font-family:'HurmeGeometricSans1-SemiBold'; font-size:2.1404px;">L</tspan><tspan x="51.7" y="0" style="fill:#AEADB3; font-family:'HurmeGeometricSans1-SemiBold'; font-size:2.1404px;">O</tspan><tspan x="53.4" y="0" style="fill:#AEADB3; font-family:'HurmeGeometricSans1-SemiBold'; font-size:2.1404px;">TERÍ</tspan><tspan x="58" y="0" style="fill:#AEADB3; font-family:'HurmeGeometricSans1-SemiBold'; font-size:2.1404px;">A</tspan><tspan x="59.5" y="0" style="fill:#AEADB3; font-family:'HurmeGeometricSans1-SemiBold'; font-size:2.1404px;">S</tspan><tspan x="60.7" y="0" style="fill:#AEADB3; font-family:'HurmeGeometricSans1-SemiBold'; font-size:2.1404px;"> Y</tspan><tspan x="62.5" y="0" style="fill:#AEADB3; font-family:'HurmeGeometricSans1-SemiBold'; font-size:2.1404px;"> </tspan><tspan x="62.9" y="0" style="fill:#AEADB3; font-family:'HurmeGeometricSans1-SemiBold'; font-size:2.1404px;">APUE</tspan><tspan x="68.7" y="0" style="fill:#AEADB3; font-family:'HurmeGeometricSans1-SemiBold'; font-size:2.1404px;">S</tspan><tspan x="69.8" y="0" style="fill:#AEADB3; font-family:'HurmeGeometricSans1-SemiBold'; font-size:2.1404px;">T</tspan><tspan x="70.8" y="0" style="fill:#AEADB3; font-family:'HurmeGeometricSans1-SemiBold'; font-size:2.1404px;">A</tspan><tspan x="72.4" y="0" style="fill:#AEADB3; font-family:'HurmeGeometricSans1-SemiBold'; font-size:2.1404px;">S</tspan><tspan x="73.6" y="0" style="fill:#AEADB3; font-family:'HurmeGeometricSans1-SemiBold'; font-size:2.1404px;"> DE</tspan><tspan x="77.1" y="0" style="fill:#AEADB3; font-family:'HurmeGeometricSans1-SemiBold'; font-size:2.1404px;">L</tspan><tspan x="78.1" y="0" style="fill:#AEADB3; font-family:'HurmeGeometricSans1-SemiBold'; font-size:2.1404px;"> E</tspan><tspan x="80" y="0" style="fill:#AEADB3; font-family:'HurmeGeometricSans1-SemiBold'; font-size:2.1404px;">S</tspan><tspan x="81.1" y="0" style="fill:#AEADB3; font-family:'HurmeGeometricSans1-SemiBold'; font-size:2.1404px;">T</tspan><tspan x="82.1" y="0" style="fill:#AEADB3; font-family:'HurmeGeometricSans1-SemiBold'; font-size:2.1404px;">ADO</tspan></text>
						</g>
						<g style="clip-path:url(#SVGID_8_);">
							<text transform="matrix(1 0 0 1 158.2061 112.2941)"><tspan x="0" y="0" style="fill:#AEADB3; font-family:'HurmeGeometricSans1-SemiBold'; font-size:2.1404px;">MAN</tspan><tspan x="5.1" y="0" style="fill:#AEADB3; font-family:'HurmeGeometricSans1-SemiBold'; font-size:2.1404px;">U</tspan><tspan x="6.6" y="0" style="fill:#AEADB3; font-family:'HurmeGeometricSans1-SemiBold'; font-size:2.1404px;">A</tspan><tspan x="8.2" y="0" style="fill:#AEADB3; font-family:'HurmeGeometricSans1-SemiBold'; font-size:2.1404px;">L</tspan><tspan x="9.2" y="0" style="fill:#AEADB3; font-family:'HurmeGeometricSans1-SemiBold'; font-size:2.1404px;"> DE E</tspan><tspan x="14.5" y="0" style="fill:#AEADB3; font-family:'HurmeGeometricSans1-SemiBold'; font-size:2.1404px;">S</tspan><tspan x="15.7" y="0" style="fill:#AEADB3; font-family:'HurmeGeometricSans1-SemiBold'; font-size:2.1404px;">T</tspan><tspan x="16.9" y="0" style="fill:#AEADB3; font-family:'HurmeGeometricSans1-SemiBold'; font-size:2.1404px;">R</tspan><tspan x="18.2" y="0" style="fill:#AEADB3; font-family:'HurmeGeometricSans1-SemiBold'; font-size:2.1404px;">A</tspan><tspan x="19.6" y="0" style="fill:#AEADB3; font-family:'HurmeGeometricSans1-SemiBold'; font-size:2.1404px;">TEGI</tspan><tspan x="24.4" y="0" style="fill:#AEADB3; font-family:'HurmeGeometricSans1-SemiBold'; font-size:2.1404px;">A </tspan><tspan x="26.3" y="0" style="fill:#AEADB3; font-family:'HurmeGeometricSans1-SemiBold'; font-size:2.1404px;">VIS</tspan><tspan x="29.7" y="0" style="fill:#AEADB3; font-family:'HurmeGeometricSans1-SemiBold'; font-size:2.1404px;">U</tspan><tspan x="31.2" y="0" style="fill:#AEADB3; font-family:'HurmeGeometricSans1-SemiBold'; font-size:2.1404px;">A</tspan><tspan x="32.8" y="0" style="fill:#AEADB3; font-family:'HurmeGeometricSans1-SemiBold'; font-size:2.1404px;">L</tspan><tspan x="33.8" y="0" style="fill:#AEADB3; font-family:'HurmeGeometricSans1-SemiBold'; font-size:2.1404px;"> </tspan><tspan x="34.3" y="0" style="fill:#AEADB3; font-family:'HurmeGeometricSans1-SemiBold'; font-size:2.1404px;">C</tspan><tspan x="35.8" y="0" style="fill:#AEADB3; font-family:'HurmeGeometricSans1-SemiBold'; font-size:2.1404px;">ORPO</tspan><tspan x="42.1" y="0" style="fill:#AEADB3; font-family:'HurmeGeometricSans1-SemiBold'; font-size:2.1404px;">R</tspan><tspan x="43.4" y="0" style="fill:#AEADB3; font-family:'HurmeGeometricSans1-SemiBold'; font-size:2.1404px;">A</tspan><tspan x="44.8" y="0" style="fill:#AEADB3; font-family:'HurmeGeometricSans1-SemiBold'; font-size:2.1404px;">TI</tspan><tspan x="46.7" y="0" style="fill:#AEADB3; font-family:'HurmeGeometricSans1-SemiBold'; font-size:2.1404px;">V</tspan><tspan x="48" y="0" style="fill:#AEADB3; font-family:'HurmeGeometricSans1-SemiBold'; font-size:2.1404px;">A. </tspan><tspan x="50.6" y="0" style="fill:#AEADB3; font-family:'HurmeGeometricSans1-SemiBold'; font-size:2.1404px;">L</tspan><tspan x="51.7" y="0" style="fill:#AEADB3; font-family:'HurmeGeometricSans1-SemiBold'; font-size:2.1404px;">O</tspan><tspan x="53.4" y="0" style="fill:#AEADB3; font-family:'HurmeGeometricSans1-SemiBold'; font-size:2.1404px;">TERÍ</tspan><tspan x="57.9" y="0" style="fill:#AEADB3; font-family:'HurmeGeometricSans1-SemiBold'; font-size:2.1404px;">A</tspan><tspan x="59.5" y="0" style="fill:#AEADB3; font-family:'HurmeGeometricSans1-SemiBold'; font-size:2.1404px;">S</tspan><tspan x="60.7" y="0" style="fill:#AEADB3; font-family:'HurmeGeometricSans1-SemiBold'; font-size:2.1404px;"> Y</tspan><tspan x="62.4" y="0" style="fill:#AEADB3; font-family:'HurmeGeometricSans1-SemiBold'; font-size:2.1404px;"> </tspan><tspan x="62.9" y="0" style="fill:#AEADB3; font-family:'HurmeGeometricSans1-SemiBold'; font-size:2.1404px;">APU</tspan><tspan x="67.4" y="0" style="fill:#AEADB3; font-family:'HurmeGeometricSans1-SemiBold'; font-size:2.1404px;">E</tspan><tspan x="68.6" y="0" style="fill:#AEADB3; font-family:'HurmeGeometricSans1-SemiBold'; font-size:2.1404px;">S</tspan><tspan x="69.8" y="0" style="fill:#AEADB3; font-family:'HurmeGeometricSans1-SemiBold'; font-size:2.1404px;">T</tspan><tspan x="70.8" y="0" style="fill:#AEADB3; font-family:'HurmeGeometricSans1-SemiBold'; font-size:2.1404px;">A</tspan><tspan x="72.4" y="0" style="fill:#AEADB3; font-family:'HurmeGeometricSans1-SemiBold'; font-size:2.1404px;">S</tspan><tspan x="73.6" y="0" style="fill:#AEADB3; font-family:'HurmeGeometricSans1-SemiBold'; font-size:2.1404px;"> DE</tspan><tspan x="77.1" y="0" style="fill:#AEADB3; font-family:'HurmeGeometricSans1-SemiBold'; font-size:2.1404px;">L</tspan><tspan x="78.1" y="0" style="fill:#AEADB3; font-family:'HurmeGeometricSans1-SemiBold'; font-size:2.1404px;"> </tspan><tspan x="78.7" y="0" style="fill:#AEADB3; font-family:'HurmeGeometricSans1-SemiBold'; font-size:2.1404px;">E</tspan><tspan x="80" y="0" style="fill:#AEADB3; font-family:'HurmeGeometricSans1-SemiBold'; font-size:2.1404px;">S</tspan><tspan x="81.1" y="0" style="fill:#AEADB3; font-family:'HurmeGeometricSans1-SemiBold'; font-size:2.1404px;">T</tspan><tspan x="82.1" y="0" style="fill:#AEADB3; font-family:'HurmeGeometricSans1-SemiBold'; font-size:2.1404px;">ADO</tspan></text>
						</g>
					</g>
					<g class="st6">
						
							<text transform="matrix(1 0 0 1 146.1572 -78.0243)" style="fill:#0076B9; font-family:'HurmeGeometricSans2-Black'; font-size:5.1576px;"> </text>
					</g>
					<g class="st6">
						<text transform="matrix(1 0 0 1 152.1035 -78.0243)"><tspan x="0" y="0" style="fill:#0076B9; font-family:'HurmeGeometricSans2-Black'; font-size:5.1576px;">3</tspan><tspan x="2.8" y="0" style="fill:#0076B9; font-family:'HurmeGeometricSans2-Black'; font-size:5.1576px;">.22</tspan></text>
					</g>
					<g class="st6">
						<text transform="matrix(1 0 0 1 161.8721 -78.0243)"><tspan x="0" y="0" style="fill:#0076B9; font-family:'HurmeGeometricSans2-Black'; font-size:5.1576px; letter-spacing:2;"> </tspan><tspan x="3.7" y="0" style="fill:#0076B9; font-family:'HurmeGeometricSans2-Black'; font-size:5.1576px;"> </tspan></text>
					</g>
					<g class="st6">
						<text transform="matrix(1 0 0 1 165.5293 -78.0243)"><tspan x="0" y="0" style="fill:#0076B9; font-family:'HurmeGeometricSans2-Thin'; font-size:5.1576px;">MAR</tspan><tspan x="10.9" y="0" style="fill:#0076B9; font-family:'HurmeGeometricSans2-Thin'; font-size:5.1576px;">C</tspan><tspan x="14.8" y="0" style="fill:#0076B9; font-family:'HurmeGeometricSans2-Thin'; font-size:5.1576px;">A</tspan><tspan x="18" y="0" style="fill:#0076B9; font-family:'HurmeGeometricSans2-Thin'; font-size:5.1576px;"> E</tspan><tspan x="22.3" y="0" style="fill:#0076B9; font-family:'HurmeGeometricSans2-Thin'; font-size:5.1576px;">L</tspan><tspan x="24.8" y="0" style="fill:#0076B9; font-family:'HurmeGeometricSans2-Thin'; font-size:5.1576px;"> MIL</tspan><tspan x="34.5" y="0" style="fill:#0076B9; font-family:'HurmeGeometricSans2-Thin'; font-size:5.1576px;">L</tspan><tspan x="36.9" y="0" style="fill:#0076B9; font-family:'HurmeGeometricSans2-Thin'; font-size:5.1576px;">ÓN </tspan></text>
					</g>
					<g class="st6">
						
							<text transform="matrix(1 0 0 1 212.0234 -78.0243)" style="fill:#0076B9; font-family:'HurmeGeometricSans2-Thin'; font-size:5.1576px;"> </text>
					</g>
					<g class="st6">
						<text transform="matrix(1 0 0 1 165.5293 -72.8666)"><tspan x="0" y="0" style="fill:#0076B9; font-family:'HurmeGeometricSans2-Thin'; font-size:5.1576px;">CON MAR</tspan><tspan x="24.4" y="0" style="fill:#0076B9; font-family:'HurmeGeometricSans2-Thin'; font-size:5.1576px;">C</tspan><tspan x="28.3" y="0" style="fill:#0076B9; font-family:'HurmeGeometricSans2-Thin'; font-size:5.1576px;">A</tspan><tspan x="31.5" y="0" style="fill:#0076B9; font-family:'HurmeGeometricSans2-Thin'; font-size:5.1576px;"> EUROMIL</tspan><tspan x="55.2" y="0" style="fill:#0076B9; font-family:'HurmeGeometricSans2-Thin'; font-size:5.1576px;">L</tspan><tspan x="57.5" y="0" style="fill:#0076B9; font-family:'HurmeGeometricSans2-Thin'; font-size:5.1576px;">ONES:</tspan></text>
					</g>
					<g class="st6">
						
							<text transform="matrix(1 0 0 1 237.9609 -72.8666)" style="fill:#0076B9; font-family:'HurmeGeometricSans2-Thin'; font-size:5.1576px;"> </text>
					</g>
					<g class="st6">
						<text transform="matrix(1 0 0 1 165.5293 -67.7089)"><tspan x="0" y="0" style="fill:#0076B9; font-family:'HurmeGeometricSans2-Thin'; font-size:5.1576px;">VERSIÓN HORI</tspan><tspan x="35.7" y="0" style="fill:#0076B9; font-family:'HurmeGeometricSans2-Thin'; font-size:5.1576px;">Z</tspan><tspan x="38.8" y="0" style="fill:#0076B9; font-family:'HurmeGeometricSans2-Thin'; font-size:5.1576px;">ON</tspan><tspan x="47" y="0" style="fill:#0076B9; font-family:'HurmeGeometricSans2-Thin'; font-size:5.1576px;">T</tspan><tspan x="49.4" y="0" style="fill:#0076B9; font-family:'HurmeGeometricSans2-Thin'; font-size:5.1576px;">AL</tspan></text>
					</g>
					<g class="st6">
						<text transform="matrix(1 0 0 1 -32.937 83.545)"><tspan x="0" y="0" style="fill:#211915; font-family:'HurmeGeometricSans2-Light'; font-size:2.5788px;">VERSIÓN EN POSITI</tspan><tspan x="24.1" y="0" style="fill:#211915; font-family:'HurmeGeometricSans2-Light'; font-size:2.5788px;">V</tspan><tspan x="25.7" y="0" style="fill:#211915; font-family:'HurmeGeometricSans2-Light'; font-size:2.5788px;">O</tspan><tspan x="27.9" y="0" style="fill:#211915; font-family:'HurmeGeometricSans2-Light'; font-size:2.5788px;">: NA</tspan><tspan x="32.9" y="0" style="fill:#211915; font-family:'HurmeGeometricSans2-Light'; font-size:2.5788px;">R</tspan><tspan x="34.4" y="0" style="fill:#211915; font-family:'HurmeGeometricSans2-Light'; font-size:2.5788px;">AN</tspan><tspan x="38.2" y="0" style="fill:#211915; font-family:'HurmeGeometricSans2-Light'; font-size:2.5788px;">J</tspan><tspan x="39" y="0" style="fill:#211915; font-family:'HurmeGeometricSans2-Light'; font-size:2.5788px;">A</tspan><tspan x="40.7" y="0" style="fill:#211915; font-family:'HurmeGeometricSans2-Light'; font-size:2.5788px;"> </tspan><tspan x="41.4" y="0" style="fill:#211915; font-family:'HurmeGeometricSans2-Light'; font-size:2.5788px;">SOBRE </tspan><tspan x="50.4" y="0" style="fill:#211915; font-family:'HurmeGeometricSans2-Light'; font-size:2.5788px;">F</tspan><tspan x="51.7" y="0" style="fill:#211915; font-family:'HurmeGeometricSans2-Light'; font-size:2.5788px;">OND</tspan><tspan x="57.8" y="0" style="fill:#211915; font-family:'HurmeGeometricSans2-Light'; font-size:2.5788px;">O</tspan><tspan x="59.9" y="0" style="fill:#211915; font-family:'HurmeGeometricSans2-Light'; font-size:2.5788px;"> B</tspan><tspan x="62.2" y="0" style="fill:#211915; font-family:'HurmeGeometricSans2-Light'; font-size:2.5788px;">L</tspan><tspan x="63.5" y="0" style="fill:#211915; font-family:'HurmeGeometricSans2-Light'; font-size:2.5788px;">ANCO</tspan></text>
					</g>
					<g class="st6">
						<text transform="matrix(1 0 0 1 -29.2822 47.3321)"><tspan x="0" y="0" style="fill:#CC6506; font-family:'HurmeGeometricSans2-Bold'; font-size:2.8367px;">MA</tspan><tspan x="4.6" y="0" style="fill:#CC6506; font-family:'HurmeGeometricSans2-Bold'; font-size:2.8367px;">R</tspan><tspan x="6.4" y="0" style="fill:#CC6506; font-family:'HurmeGeometricSans2-Bold'; font-size:2.8367px;">C</tspan><tspan x="8.4" y="0" style="fill:#CC6506; font-family:'HurmeGeometricSans2-Bold'; font-size:2.8367px;">A</tspan><tspan x="10.4" y="0" style="fill:#CC6506; font-family:'HurmeGeometricSans2-Bold'; font-size:2.8367px;"> NA</tspan><tspan x="15.4" y="0" style="fill:#CC6506; font-family:'HurmeGeometricSans2-Bold'; font-size:2.8367px;">R</tspan><tspan x="17.2" y="0" style="fill:#CC6506; font-family:'HurmeGeometricSans2-Bold'; font-size:2.8367px;">AN</tspan><tspan x="21.5" y="0" style="fill:#CC6506; font-family:'HurmeGeometricSans2-Bold'; font-size:2.8367px;">J</tspan><tspan x="22.4" y="0" style="fill:#CC6506; font-family:'HurmeGeometricSans2-Bold'; font-size:2.8367px;">A</tspan></text>
					</g>
					<g class="st6">
						<text transform="matrix(1 0 0 1 -29.2822 49.8077)"><tspan x="0" y="0" style="fill:#211915; font-family:'HurmeGeometricSans2-Bold'; font-size:2.063px;">P</tspan><tspan x="1.1" y="0" style="fill:#211915; font-family:'HurmeGeometricSans2-Bold'; font-size:2.063px;">AN</tspan><tspan x="4.2" y="0" style="fill:#211915; font-family:'HurmeGeometricSans2-Bold'; font-size:2.063px;">T</tspan><tspan x="5.3" y="0" style="fill:#211915; font-family:'HurmeGeometricSans2-Bold'; font-size:2.063px;">ONE</tspan><tspan x="9.8" y="0" style="fill:#211915; font-family:'HurmeGeometricSans2-Bold'; font-size:2.063px;"> </tspan><tspan x="10.3" y="0" style="fill:#211915; font-family:'HurmeGeometricSans2-Bold'; font-size:2.063px;">O</tspan><tspan x="12" y="0" style="fill:#211915; font-family:'HurmeGeometricSans2-Bold'; font-size:2.063px;">R</tspan><tspan x="13.3" y="0" style="fill:#211915; font-family:'HurmeGeometricSans2-Bold'; font-size:2.063px;">ANGE 0</tspan><tspan x="21" y="0" style="fill:#211915; font-family:'HurmeGeometricSans2-Bold'; font-size:2.063px;">2</tspan><tspan x="22.1" y="0" style="fill:#211915; font-family:'HurmeGeometricSans2-Bold'; font-size:2.063px;">1C</tspan></text>
					</g>
					<g class="st6">
						
							<text transform="matrix(1 0 0 1 -29.2822 54.7589)" style="fill:#211915; font-family:'HurmeGeometricSans2-Bold'; font-size:2.063px;">CMYK</text>
					</g>
					<g class="st6">
						<text transform="matrix(1 0 0 1 -29.2822 57.2345)"><tspan x="0" y="0" style="fill:#211915; font-family:'HurmeGeometricSans2-Light'; font-size:2.063px;">C:0 M</tspan><tspan x="5.5" y="0" style="fill:#211915; font-family:'HurmeGeometricSans2-Light'; font-size:2.063px;">:</tspan><tspan x="5.9" y="0" style="fill:#211915; font-family:'HurmeGeometricSans2-Light'; font-size:2.063px;">7</tspan><tspan x="7" y="0" style="fill:#211915; font-family:'HurmeGeometricSans2-Light'; font-size:2.063px;">8 |</tspan><tspan x="9.2" y="0" style="fill:#211915; font-family:'HurmeGeometricSans2-Light'; font-size:2.063px;"> </tspan><tspan x="9.6" y="0" style="fill:#211915; font-family:'HurmeGeometricSans2-Light'; font-size:2.063px;">Y</tspan><tspan x="10.8" y="0" style="fill:#211915; font-family:'HurmeGeometricSans2-Light'; font-size:2.063px;">:</tspan><tspan x="11.1" y="0" style="fill:#211915; font-family:'HurmeGeometricSans2-Light'; font-size:2.063px;">100 | </tspan><tspan x="15.9" y="0" style="fill:#211915; font-family:'HurmeGeometricSans2-Light'; font-size:2.063px;">K</tspan><tspan x="17.1" y="0" style="fill:#211915; font-family:'HurmeGeometricSans2-Light'; font-size:2.063px;">:0</tspan></text>
					</g>
					<g class="st6">
						<text transform="matrix(1 0 0 1 -29.2822 61.173)"><tspan x="0" y="0" style="fill:#211915; font-family:'HurmeGeometricSans2-Bold'; font-size:2.063px;">R</tspan><tspan x="1.3" y="0" style="fill:#211915; font-family:'HurmeGeometricSans2-Bold'; font-size:2.063px;">GB</tspan></text>
					</g>
					<g class="st6">
						<text transform="matrix(1 0 0 1 -29.2822 63.6486)"><tspan x="0" y="0" style="fill:#211915; font-family:'HurmeGeometricSans2-Light'; font-size:2.063px;">R:25</tspan><tspan x="4" y="0" style="fill:#211915; font-family:'HurmeGeometricSans2-Light'; font-size:2.063px;">5</tspan><tspan x="5.1" y="0" style="fill:#211915; font-family:'HurmeGeometricSans2-Light'; font-size:2.063px;"> |</tspan><tspan x="6.2" y="0" style="fill:#211915; font-family:'HurmeGeometricSans2-Light'; font-size:2.063px;"> </tspan><tspan x="6.7" y="0" style="fill:#211915; font-family:'HurmeGeometricSans2-Light'; font-size:2.063px;">G:80 | B:0</tspan></text>
					</g>
					<g class="st6">
						<text transform="matrix(1 0 0 1 -29.2822 67.587)"><tspan x="0" y="0" style="fill:#211915; font-family:'HurmeGeometricSans2-Bold'; font-size:2.063px;">L</tspan><tspan x="1.1" y="0" style="fill:#211915; font-family:'HurmeGeometricSans2-Bold'; font-size:2.063px;">AB</tspan></text>
					</g>
					<g class="st6">
						<text transform="matrix(1 0 0 1 -29.2822 70.0626)"><tspan x="0" y="0" style="fill:#211915; font-family:'HurmeGeometricSans2-Light'; font-size:2.063px;">L:</tspan><tspan x="1.5" y="0" style="fill:#211915; font-family:'HurmeGeometricSans2-Light'; font-size:2.063px;">6</tspan><tspan x="2.6" y="0" style="fill:#211915; font-family:'HurmeGeometricSans2-Light'; font-size:2.063px;">1 |</tspan><tspan x="4.4" y="0" style="fill:#211915; font-family:'HurmeGeometricSans2-Light'; font-size:2.063px;"> </tspan><tspan x="4.9" y="0" style="fill:#211915; font-family:'HurmeGeometricSans2-Light'; font-size:2.063px;">A:6</tspan><tspan x="7.9" y="0" style="fill:#211915; font-family:'HurmeGeometricSans2-Light'; font-size:2.063px;">6</tspan><tspan x="9.1" y="0" style="fill:#211915; font-family:'HurmeGeometricSans2-Light'; font-size:2.063px;"> | B:85</tspan></text>
					</g>
					<g class="st6">
						
							<text transform="matrix(1 0 0 1 -29.2822 74.0011)" style="fill:#211915; font-family:'HurmeGeometricSans2-Bold'; font-size:2.063px;">HTML</text>
					</g>
					<g class="st6">
						<text transform="matrix(1 0 0 1 -29.2822 76.4767)"><tspan x="0" y="0" style="fill:#211915; font-family:'HurmeGeometricSans2-Light'; font-size:2.063px;">#</tspan><tspan x="1.1" y="0" style="fill:#211915; font-family:'HurmeGeometricSans2-Light'; font-size:2.063px;">e85512</tspan></text>
					</g>
					<g class="st6">
						<text transform="matrix(1 0 0 1 120.5723 83.545)"><tspan x="0" y="0" style="fill:#211915; font-family:'HurmeGeometricSans2-Light'; font-size:2.5788px;">VERSIÓN EN NE</tspan><tspan x="19.5" y="0" style="fill:#211915; font-family:'HurmeGeometricSans2-Light'; font-size:2.5788px;">G</tspan><tspan x="21.4" y="0" style="fill:#211915; font-family:'HurmeGeometricSans2-Light'; font-size:2.5788px;">A</tspan><tspan x="23" y="0" style="fill:#211915; font-family:'HurmeGeometricSans2-Light'; font-size:2.5788px;">TI</tspan><tspan x="25.1" y="0" style="fill:#211915; font-family:'HurmeGeometricSans2-Light'; font-size:2.5788px;">V</tspan><tspan x="26.8" y="0" style="fill:#211915; font-family:'HurmeGeometricSans2-Light'; font-size:2.5788px;">O</tspan><tspan x="29" y="0" style="fill:#211915; font-family:'HurmeGeometricSans2-Light'; font-size:2.5788px;">: B</tspan><tspan x="31.8" y="0" style="fill:#211915; font-family:'HurmeGeometricSans2-Light'; font-size:2.5788px;">L</tspan><tspan x="33.1" y="0" style="fill:#211915; font-family:'HurmeGeometricSans2-Light'; font-size:2.5788px;">ANC</tspan><tspan x="38.8" y="0" style="fill:#211915; font-family:'HurmeGeometricSans2-Light'; font-size:2.5788px;">O</tspan><tspan x="40.9" y="0" style="fill:#211915; font-family:'HurmeGeometricSans2-Light'; font-size:2.5788px;"> </tspan><tspan x="41.5" y="0" style="fill:#211915; font-family:'HurmeGeometricSans2-Light'; font-size:2.5788px;">SOBRE </tspan><tspan x="50.6" y="0" style="fill:#211915; font-family:'HurmeGeometricSans2-Light'; font-size:2.5788px;">F</tspan><tspan x="51.9" y="0" style="fill:#211915; font-family:'HurmeGeometricSans2-Light'; font-size:2.5788px;">OND</tspan><tspan x="58" y="0" style="fill:#211915; font-family:'HurmeGeometricSans2-Light'; font-size:2.5788px;">O</tspan><tspan x="60.1" y="0" style="fill:#211915; font-family:'HurmeGeometricSans2-Light'; font-size:2.5788px;"> NA</tspan><tspan x="64.6" y="0" style="fill:#211915; font-family:'HurmeGeometricSans2-Light'; font-size:2.5788px;">R</tspan><tspan x="66.1" y="0" style="fill:#211915; font-family:'HurmeGeometricSans2-Light'; font-size:2.5788px;">AN</tspan><tspan x="69.9" y="0" style="fill:#211915; font-family:'HurmeGeometricSans2-Light'; font-size:2.5788px;">J</tspan><tspan x="70.7" y="0" style="fill:#211915; font-family:'HurmeGeometricSans2-Light'; font-size:2.5788px;">A</tspan></text>
					</g>
					<g class="st6">
						<text transform="matrix(1 0 0 1 124.2275 47.3321)"><tspan x="0" y="0" style="fill:#FFFFFF; font-family:'HurmeGeometricSans2-Bold'; font-size:2.8367px;">F</tspan><tspan x="1.6" y="0" style="fill:#FFFFFF; font-family:'HurmeGeometricSans2-Bold'; font-size:2.8367px;">OND</tspan><tspan x="8.1" y="0" style="fill:#FFFFFF; font-family:'HurmeGeometricSans2-Bold'; font-size:2.8367px;">O</tspan><tspan x="10.3" y="0" style="fill:#FFFFFF; font-family:'HurmeGeometricSans2-Bold'; font-size:2.8367px;"> NA</tspan><tspan x="15.4" y="0" style="fill:#FFFFFF; font-family:'HurmeGeometricSans2-Bold'; font-size:2.8367px;">R</tspan><tspan x="17.2" y="0" style="fill:#FFFFFF; font-family:'HurmeGeometricSans2-Bold'; font-size:2.8367px;">AN</tspan><tspan x="21.4" y="0" style="fill:#FFFFFF; font-family:'HurmeGeometricSans2-Bold'; font-size:2.8367px;">J</tspan><tspan x="22.4" y="0" style="fill:#FFFFFF; font-family:'HurmeGeometricSans2-Bold'; font-size:2.8367px;">A</tspan></text>
					</g>
					<g class="st6">
						<text transform="matrix(1 0 0 1 124.2275 49.8077)"><tspan x="0" y="0" style="fill:#FFFFFF; font-family:'HurmeGeometricSans2-Bold'; font-size:2.063px;">P</tspan><tspan x="1.1" y="0" style="fill:#FFFFFF; font-family:'HurmeGeometricSans2-Bold'; font-size:2.063px;">AN</tspan><tspan x="4.2" y="0" style="fill:#FFFFFF; font-family:'HurmeGeometricSans2-Bold'; font-size:2.063px;">T</tspan><tspan x="5.3" y="0" style="fill:#FFFFFF; font-family:'HurmeGeometricSans2-Bold'; font-size:2.063px;">ONE</tspan><tspan x="9.8" y="0" style="fill:#FFFFFF; font-family:'HurmeGeometricSans2-Bold'; font-size:2.063px;"> </tspan><tspan x="10.3" y="0" style="fill:#FFFFFF; font-family:'HurmeGeometricSans2-Bold'; font-size:2.063px;">O</tspan><tspan x="12" y="0" style="fill:#FFFFFF; font-family:'HurmeGeometricSans2-Bold'; font-size:2.063px;">R</tspan><tspan x="13.3" y="0" style="fill:#FFFFFF; font-family:'HurmeGeometricSans2-Bold'; font-size:2.063px;">ANGE 0</tspan><tspan x="21" y="0" style="fill:#FFFFFF; font-family:'HurmeGeometricSans2-Bold'; font-size:2.063px;">2</tspan><tspan x="22.1" y="0" style="fill:#FFFFFF; font-family:'HurmeGeometricSans2-Bold'; font-size:2.063px;">1C</tspan></text>
					</g>
					<g class="st6">
						
							<text transform="matrix(1 0 0 1 124.2275 54.7589)" style="fill:#FFFFFF; font-family:'HurmeGeometricSans2-Bold'; font-size:2.063px;">CMYK</text>
					</g>
					<g class="st6">
						<text transform="matrix(1 0 0 1 124.2275 57.2345)"><tspan x="0" y="0" style="fill:#FFFFFF; font-family:'HurmeGeometricSans2-Light'; font-size:2.063px;">C:0 M</tspan><tspan x="5.5" y="0" style="fill:#FFFFFF; font-family:'HurmeGeometricSans2-Light'; font-size:2.063px;">:</tspan><tspan x="5.9" y="0" style="fill:#FFFFFF; font-family:'HurmeGeometricSans2-Light'; font-size:2.063px;">7</tspan><tspan x="7" y="0" style="fill:#FFFFFF; font-family:'HurmeGeometricSans2-Light'; font-size:2.063px;">8 |</tspan><tspan x="9.2" y="0" style="fill:#FFFFFF; font-family:'HurmeGeometricSans2-Light'; font-size:2.063px;"> </tspan><tspan x="9.6" y="0" style="fill:#FFFFFF; font-family:'HurmeGeometricSans2-Light'; font-size:2.063px;">Y</tspan><tspan x="10.8" y="0" style="fill:#FFFFFF; font-family:'HurmeGeometricSans2-Light'; font-size:2.063px;">:</tspan><tspan x="11.1" y="0" style="fill:#FFFFFF; font-family:'HurmeGeometricSans2-Light'; font-size:2.063px;">100 | </tspan><tspan x="15.9" y="0" style="fill:#FFFFFF; font-family:'HurmeGeometricSans2-Light'; font-size:2.063px;">K</tspan><tspan x="17.1" y="0" style="fill:#FFFFFF; font-family:'HurmeGeometricSans2-Light'; font-size:2.063px;">:0</tspan></text>
					</g>
					<g class="st6">
						<text transform="matrix(1 0 0 1 124.2275 61.173)"><tspan x="0" y="0" style="fill:#FFFFFF; font-family:'HurmeGeometricSans2-Bold'; font-size:2.063px;">R</tspan><tspan x="1.3" y="0" style="fill:#FFFFFF; font-family:'HurmeGeometricSans2-Bold'; font-size:2.063px;">GB</tspan></text>
					</g>
					<g class="st6">
						<text transform="matrix(1 0 0 1 124.2275 63.6486)"><tspan x="0" y="0" style="fill:#FFFFFF; font-family:'HurmeGeometricSans2-Light'; font-size:2.063px;">R:25</tspan><tspan x="4" y="0" style="fill:#FFFFFF; font-family:'HurmeGeometricSans2-Light'; font-size:2.063px;">5</tspan><tspan x="5.1" y="0" style="fill:#FFFFFF; font-family:'HurmeGeometricSans2-Light'; font-size:2.063px;"> |</tspan><tspan x="6.2" y="0" style="fill:#FFFFFF; font-family:'HurmeGeometricSans2-Light'; font-size:2.063px;"> </tspan><tspan x="6.7" y="0" style="fill:#FFFFFF; font-family:'HurmeGeometricSans2-Light'; font-size:2.063px;">G:80 | B:0</tspan></text>
					</g>
					<g class="st6">
						<text transform="matrix(1 0 0 1 124.2275 67.587)"><tspan x="0" y="0" style="fill:#FFFFFF; font-family:'HurmeGeometricSans2-Bold'; font-size:2.063px;">L</tspan><tspan x="1.1" y="0" style="fill:#FFFFFF; font-family:'HurmeGeometricSans2-Bold'; font-size:2.063px;">AB</tspan></text>
					</g>
					<g class="st6">
						<text transform="matrix(1 0 0 1 124.2275 70.0626)"><tspan x="0" y="0" style="fill:#FFFFFF; font-family:'HurmeGeometricSans2-Light'; font-size:2.063px;">L:</tspan><tspan x="1.5" y="0" style="fill:#FFFFFF; font-family:'HurmeGeometricSans2-Light'; font-size:2.063px;">6</tspan><tspan x="2.6" y="0" style="fill:#FFFFFF; font-family:'HurmeGeometricSans2-Light'; font-size:2.063px;">1 |</tspan><tspan x="4.4" y="0" style="fill:#FFFFFF; font-family:'HurmeGeometricSans2-Light'; font-size:2.063px;"> </tspan><tspan x="4.9" y="0" style="fill:#FFFFFF; font-family:'HurmeGeometricSans2-Light'; font-size:2.063px;">A:6</tspan><tspan x="7.9" y="0" style="fill:#FFFFFF; font-family:'HurmeGeometricSans2-Light'; font-size:2.063px;">6</tspan><tspan x="9.1" y="0" style="fill:#FFFFFF; font-family:'HurmeGeometricSans2-Light'; font-size:2.063px;"> | B:85</tspan></text>
					</g>
					<g class="st6">
						
							<text transform="matrix(1 0 0 1 124.2275 74.0011)" style="fill:#FFFFFF; font-family:'HurmeGeometricSans2-Bold'; font-size:2.063px;">HTML</text>
					</g>
					<g class="st6">
						<text transform="matrix(1 0 0 1 124.2275 76.4767)"><tspan x="0" y="0" style="fill:#FFFFFF; font-family:'HurmeGeometricSans2-Light'; font-size:2.063px;">#</tspan><tspan x="1.1" y="0" style="fill:#FFFFFF; font-family:'HurmeGeometricSans2-Light'; font-size:2.063px;">e85512</tspan></text>
					</g>
					<g class="st6">
						<text transform="matrix(1 0 0 1 165.6504 47.3321)"><tspan x="0" y="0" style="fill:#FFFFFF; font-family:'HurmeGeometricSans2-Bold'; font-size:2.8367px;">MA</tspan><tspan x="4.6" y="0" style="fill:#FFFFFF; font-family:'HurmeGeometricSans2-Bold'; font-size:2.8367px;">R</tspan><tspan x="6.4" y="0" style="fill:#FFFFFF; font-family:'HurmeGeometricSans2-Bold'; font-size:2.8367px;">C</tspan><tspan x="8.4" y="0" style="fill:#FFFFFF; font-family:'HurmeGeometricSans2-Bold'; font-size:2.8367px;">A</tspan><tspan x="10.4" y="0" style="fill:#FFFFFF; font-family:'HurmeGeometricSans2-Bold'; font-size:2.8367px;"> EN B</tspan><tspan x="17.5" y="0" style="fill:#FFFFFF; font-family:'HurmeGeometricSans2-Bold'; font-size:2.8367px;">L</tspan><tspan x="19" y="0" style="fill:#FFFFFF; font-family:'HurmeGeometricSans2-Bold'; font-size:2.8367px;">AN</tspan><tspan x="23.3" y="0" style="fill:#FFFFFF; font-family:'HurmeGeometricSans2-Bold'; font-size:2.8367px;">C</tspan><tspan x="25.3" y="0" style="fill:#FFFFFF; font-family:'HurmeGeometricSans2-Bold'; font-size:2.8367px;">O</tspan></text>
					</g>
					<g class="st6">
						
							<text transform="matrix(1 0 0 1 165.6504 54.7589)" style="fill:#FFFFFF; font-family:'HurmeGeometricSans2-Bold'; font-size:2.063px;">CMYK</text>
					</g>
					<g class="st6">
						<text transform="matrix(1 0 0 1 165.6504 57.2345)"><tspan x="0" y="0" style="fill:#FFFFFF; font-family:'HurmeGeometricSans2-Light'; font-size:2.063px;">C:0 | M:0 |</tspan><tspan x="9.3" y="0" style="fill:#FFFFFF; font-family:'HurmeGeometricSans2-Light'; font-size:2.063px;"> </tspan><tspan x="9.7" y="0" style="fill:#FFFFFF; font-family:'HurmeGeometricSans2-Light'; font-size:2.063px;">Y</tspan><tspan x="10.9" y="0" style="fill:#FFFFFF; font-family:'HurmeGeometricSans2-Light'; font-size:2.063px;">:0 | </tspan><tspan x="14.2" y="0" style="fill:#FFFFFF; font-family:'HurmeGeometricSans2-Light'; font-size:2.063px;">K</tspan><tspan x="15.5" y="0" style="fill:#FFFFFF; font-family:'HurmeGeometricSans2-Light'; font-size:2.063px;">:0</tspan></text>
					</g>
					<g class="st6">
						<text transform="matrix(1 0 0 1 165.6504 61.173)"><tspan x="0" y="0" style="fill:#FFFFFF; font-family:'HurmeGeometricSans2-Bold'; font-size:2.063px;">R</tspan><tspan x="1.3" y="0" style="fill:#FFFFFF; font-family:'HurmeGeometricSans2-Bold'; font-size:2.063px;">GB</tspan></text>
					</g>
					<g class="st6">
						<text transform="matrix(1 0 0 1 165.6504 63.6486)"><tspan x="0" y="0" style="fill:#FFFFFF; font-family:'HurmeGeometricSans2-Light'; font-size:2.063px;">R:25</tspan><tspan x="4" y="0" style="fill:#FFFFFF; font-family:'HurmeGeometricSans2-Light'; font-size:2.063px;">5</tspan><tspan x="5.1" y="0" style="fill:#FFFFFF; font-family:'HurmeGeometricSans2-Light'; font-size:2.063px;"> |</tspan><tspan x="6.2" y="0" style="fill:#FFFFFF; font-family:'HurmeGeometricSans2-Light'; font-size:2.063px;"> </tspan><tspan x="6.7" y="0" style="fill:#FFFFFF; font-family:'HurmeGeometricSans2-Light'; font-size:2.063px;">G:25</tspan><tspan x="11" y="0" style="fill:#FFFFFF; font-family:'HurmeGeometricSans2-Light'; font-size:2.063px;">5</tspan><tspan x="12.2" y="0" style="fill:#FFFFFF; font-family:'HurmeGeometricSans2-Light'; font-size:2.063px;"> | B:255</tspan></text>
					</g>
					<g class="st6">
						<text transform="matrix(1 0 0 1 165.6504 67.587)"><tspan x="0" y="0" style="fill:#FFFFFF; font-family:'HurmeGeometricSans2-Bold'; font-size:2.063px;">L</tspan><tspan x="1.1" y="0" style="fill:#FFFFFF; font-family:'HurmeGeometricSans2-Bold'; font-size:2.063px;">AB</tspan></text>
					</g>
					<g class="st6">
						<text transform="matrix(1 0 0 1 165.6504 70.0626)"><tspan x="0" y="0" style="fill:#FFFFFF; font-family:'HurmeGeometricSans2-Light'; font-size:2.063px;">L</tspan><tspan x="1.1" y="0" style="fill:#FFFFFF; font-family:'HurmeGeometricSans2-Light'; font-size:2.063px;">:</tspan><tspan x="1.4" y="0" style="fill:#FFFFFF; font-family:'HurmeGeometricSans2-Light'; font-size:2.063px;">100 |</tspan><tspan x="5.6" y="0" style="fill:#FFFFFF; font-family:'HurmeGeometricSans2-Light'; font-size:2.063px;"> </tspan><tspan x="6" y="0" style="fill:#FFFFFF; font-family:'HurmeGeometricSans2-Light'; font-size:2.063px;">A:0 | B:0</tspan></text>
					</g>
					<g class="st6">
						
							<text transform="matrix(1 0 0 1 165.6504 74.0011)" style="fill:#FFFFFF; font-family:'HurmeGeometricSans2-Bold'; font-size:2.063px;">HTML</text>
					</g>
					<g class="st6">
						
							<text transform="matrix(1 0 0 1 165.6504 76.4767)" style="fill:#FFFFFF; font-family:'HurmeGeometricSans2-Light'; font-size:2.063px;">#ﬀﬀﬀ</text>
					</g>
					<g class="st6">
						<defs>
							<rect id="SVGID_9_" x="-46.1" y="-98.2" width="311.4" height="221.5"/>
						</defs>
						<clipPath id="SVGID_10_">
							<use xlink:href="#SVGID_9_"  style="overflow:visible;"/>
						</clipPath>
						<path class="st8" d="M52.2,8.4l-1.7-0.2l-0.7-1.5c0-0.1-0.1-0.1-0.1-0.1c-0.1-0.1-0.3,0-0.4,0.1l-0.7,1.5l-1.7,0.2v0
							c-0.1,0-0.1,0-0.2,0.1c-0.1,0.1-0.1,0.3,0,0.4l1.2,1.2l-0.3,1.7c0,0.1,0,0.1,0,0.2c0.1,0.1,0.3,0.2,0.4,0.1l1.5-0.8l1.5,0.8
							c0.1,0,0.1,0,0.2,0c0.2,0,0.3-0.2,0.2-0.3l-0.3-1.7L52.3,9c0.1,0,0.1-0.1,0.1-0.2C52.4,8.6,52.3,8.5,52.2,8.4 M53.9,9.3
							c0,1.1-0.4,2.1-1.3,2.9v0c-0.9,0.8-1.9,1.2-3.1,1.2c-1.2,0-2.2-0.4-3.1-1.2c-0.9-0.8-1.3-1.8-1.3-2.9c0-1.1,0.4-2.1,1.3-2.9
							c0.9-0.8,1.9-1.2,3.1-1.2c1.2,0,2.3,0.4,3.1,1.2C53.5,7.2,53.9,8.2,53.9,9.3 M12.8,5.4h-2.3l0,8h5.3v-2.1h-3L12.8,5.4z
							 M60.3,9.5L57,5.4h-2l0,8h2.2V9.1l3.4,4.3h1.8l0-8h-2.2L60.3,9.5z M41.6,5.4h-2.3l0,8h5.3v-2.1h-3L41.6,5.4z M35.3,5.4H33l0,8
							h5.3v-2.1h-3L35.3,5.4z M29.2,13.4h2.3l0-8h-2.3L29.2,13.4z M23.3,8.9l-2.5-3.5H19l0,8h2.1V9.3l2.3,3.1l2.3-3.1v4.1h2.1l0-8
							h-1.9L23.3,8.9z M5.5,10.3h3.4V8.4H5.5l0-1h3.7V5.4H3.2l0,8h6v-2H5.5V10.3z M53.3,1.7l0.5,1l1.1,0.1C55,2.9,55.1,3,55,3.1
							c0,0.1,0,0.1-0.1,0.1L54.1,4l0.2,1.1c0,0.1-0.1,0.2-0.2,0.2c0,0-0.1,0-0.1,0l-1-0.6l-1,0.6c-0.1,0.1-0.2,0-0.3-0.1
							c0,0,0-0.1,0-0.1L52,4l-0.8-0.8c-0.1-0.1-0.1-0.2,0-0.3c0,0,0.1-0.1,0.1-0.1v0l1.1-0.1l0.5-1C53,1.6,53.1,1.6,53.3,1.7
							C53.2,1.6,53.2,1.7,53.3,1.7"/>
						<path class="st8" d="M9,17.7h1.8v-1H9l0-0.5h1.9v-1.1H7.8l0,4.2H11v-1.1H9V17.7z M4.3,18.3v-2.2h0.5c0.7,0,1.2,0.4,1.2,1.1v0
							c0,0.7-0.5,1.1-1.2,1.1H4.3z M3.2,19.3h1.6c1.5,0,2.4-0.9,2.4-2.1v0c0-1.2-0.9-2.1-2.4-2.1H3.2V19.3z M59,18.5
							c0.2,0.3,0.4,0.5,0.7,0.6c0.3,0.2,0.7,0.3,1.2,0.3c1.1,0,1.7-0.5,1.7-1.4c0-0.6-0.3-1-1-1.2c-0.3-0.1-0.6-0.2-0.8-0.2
							c-0.1,0-0.1,0-0.2-0.1c-0.1-0.1-0.2-0.1-0.2-0.2c0-0.2,0.2-0.3,0.5-0.3c0.3,0,0.6,0.1,0.8,0.3l0.8-0.7
							C62,15.3,61.5,15,60.8,15c-0.4,0-0.8,0.1-1.1,0.3c-0.3,0.2-0.4,0.5-0.4,0.9c0,0.6,0.3,1,1,1.2c0.2,0.1,0.5,0.2,0.7,0.2
							c0.1,0,0.2,0.1,0.3,0.1c0.2,0.1,0.2,0.1,0.2,0.3c0,0.2-0.2,0.3-0.6,0.3c-0.4,0-0.8-0.2-1.1-0.5L59,18.5z M56.5,17.7h1.8v-1
							h-1.8v-0.5h1.9v-1.1h-3.1l0,4.2h3.2v-1.1h-2V17.7z M53.4,17.3l-1.7-2.2h-1.1l0,4.2h1.2v-2.3l1.8,2.3h1v-4.2h-1.2L53.4,17.3z
							 M48.8,17.2c0-0.3-0.1-0.6-0.3-0.8c-0.2-0.2-0.5-0.3-0.8-0.3c-0.3,0-0.6,0.1-0.8,0.3c-0.2,0.2-0.3,0.5-0.3,0.8
							c0,0.3,0.1,0.6,0.3,0.8c0.2,0.2,0.5,0.3,0.8,0.3c0.3,0,0.6-0.1,0.8-0.3C48.7,17.8,48.8,17.5,48.8,17.2 M49.3,15.7
							c0.5,0.4,0.7,0.9,0.7,1.5c0,0.6-0.2,1.1-0.7,1.5v0c-0.5,0.4-1,0.6-1.6,0.6c-0.7,0-1.2-0.2-1.6-0.6c-0.5-0.4-0.7-0.9-0.7-1.5
							c0-0.6,0.2-1.1,0.7-1.5c0.5-0.4,1-0.6,1.6-0.6C48.3,15,48.9,15.3,49.3,15.7 M43.5,15.1h-1.2v4.2h2.8v-1.1h-1.6L43.5,15.1z
							 M40.2,15.1H39l0,4.2h2.8v-1.1h-1.6L40.2,15.1z M37,19.3h1.2l0-4.2H37L37,19.3z M33.9,17l-1.3-1.9h-1l0,4.2h1.1v-2.1l1.2,1.7
							l1.2-1.7v2.1h1.1v-4.2h-1L33.9,17z M29.7,17.2c0-0.3-0.1-0.6-0.3-0.8c-0.2-0.2-0.5-0.3-0.8-0.3c-0.3,0-0.6,0.1-0.8,0.3
							c-0.2,0.2-0.3,0.5-0.3,0.8c0,0.3,0.1,0.6,0.3,0.8c0.2,0.2,0.5,0.3,0.8,0.3c0.3,0,0.6-0.1,0.8-0.3
							C29.6,17.8,29.7,17.5,29.7,17.2 M30.3,15.7c0.5,0.4,0.7,0.9,0.7,1.5c0,0.6-0.2,1.1-0.7,1.5l0,0c-0.5,0.4-1,0.6-1.6,0.6
							c-0.6,0-1.2-0.2-1.6-0.6c-0.5-0.4-0.7-0.9-0.7-1.5c0-0.6,0.2-1.1,0.7-1.5c0.5-0.4,1-0.6,1.6-0.6C29.3,15,29.8,15.3,30.3,15.7
							 M23.5,17.1h0.6c0.3,0,0.5-0.2,0.5-0.5c0-0.1,0-0.2-0.1-0.3c-0.1-0.1-0.2-0.1-0.3-0.1h-0.7L23.5,17.1z M25.1,17.8l1.1,1.6
							h-1.4L23.9,18h-0.4v1.3h-1.2v-4.2h1.9c0.4,0,0.8,0.1,1.1,0.4c0.3,0.3,0.4,0.6,0.4,1C25.8,17.1,25.5,17.6,25.1,17.8 M20.4,17.4
							c0,0.6-0.2,0.9-0.7,0.9S19,18,19,17.4l0-2.3h-1.2l0,2.4c0,0.6,0.2,1.1,0.5,1.4c0.4,0.3,0.8,0.5,1.4,0.5c0.5,0,1-0.2,1.4-0.5
							c0.4-0.3,0.5-0.8,0.5-1.4l0-2.4h-1.2L20.4,17.4z M15.2,18.3h2v1.1H14v-4.2h3.1v1.1h-1.9l0,0.5H17v1h-1.8V18.3z"/>
						<path class="st9" d="M205.7,8.4L204,8.2l-0.7-1.5c0-0.1-0.1-0.1-0.1-0.1c-0.1-0.1-0.3,0-0.4,0.1L202,8.2l-1.7,0.2v0
							c-0.1,0-0.1,0-0.2,0.1c-0.1,0.1-0.1,0.3,0,0.4l1.2,1.2l-0.3,1.7c0,0.1,0,0.1,0,0.2c0.1,0.1,0.3,0.2,0.4,0.1l1.5-0.8l1.5,0.8
							c0.1,0,0.1,0,0.2,0c0.2,0,0.3-0.2,0.2-0.3l-0.3-1.7l1.2-1.2c0.1,0,0.1-0.1,0.1-0.2C206,8.6,205.8,8.5,205.7,8.4 M207.4,9.3
							c0,1.1-0.4,2.1-1.3,2.9v0c-0.9,0.8-1.9,1.2-3.1,1.2c-1.2,0-2.2-0.4-3.1-1.2c-0.9-0.8-1.3-1.8-1.3-2.9c0-1.1,0.4-2.1,1.3-2.9
							c0.9-0.8,1.9-1.2,3.1-1.2c1.2,0,2.3,0.4,3.1,1.2C207,7.2,207.4,8.2,207.4,9.3 M166.3,5.4H164l0,8h5.3v-2.1h-3L166.3,5.4z
							 M213.8,9.5l-3.2-4.1h-2l0,8h2.2V9.1l3.4,4.3h1.8l0-8h-2.2L213.8,9.5z M195.1,5.4h-2.3l0,8h5.3v-2.1h-3L195.1,5.4z M188.8,5.4
							h-2.3l0,8h5.3v-2.1h-3L188.8,5.4z M182.7,13.4h2.3l0-8h-2.3L182.7,13.4z M176.9,8.9l-2.5-3.5h-1.9l0,8h2.1V9.3l2.3,3.1
							l2.3-3.1v4.1h2.1l0-8h-1.9L176.9,8.9z M159,10.3h3.4V8.4H159l0-1h3.7V5.4h-5.9l0,8h6v-2H159V10.3z M206.8,1.7l0.5,1l1.1,0.1
							c0.1,0,0.2,0.1,0.2,0.2c0,0.1,0,0.1-0.1,0.1L207.7,4l0.2,1.1c0,0.1-0.1,0.2-0.2,0.2c0,0-0.1,0-0.1,0l-1-0.6l-1,0.6
							c-0.1,0.1-0.2,0-0.3-0.1c0,0,0-0.1,0-0.1l0.2-1.1l-0.8-0.8c-0.1-0.1-0.1-0.2,0-0.3c0,0,0.1-0.1,0.1-0.1v0l1.1-0.1l0.5-1
							C206.5,1.6,206.6,1.6,206.8,1.7C206.7,1.6,206.7,1.7,206.8,1.7"/>
						<path class="st9" d="M162.5,17.7h1.8v-1h-1.8l0-0.5h1.9v-1.1h-3.1l0,4.2h3.2v-1.1h-2V17.7z M157.8,18.3v-2.2h0.5
							c0.7,0,1.2,0.4,1.2,1.1v0c0,0.7-0.5,1.1-1.2,1.1H157.8z M156.7,19.3h1.6c1.5,0,2.4-0.9,2.4-2.1v0c0-1.2-0.9-2.1-2.4-2.1h-1.6
							V19.3z M212.5,18.5c0.2,0.3,0.4,0.5,0.7,0.6c0.3,0.2,0.7,0.3,1.2,0.3c1.1,0,1.7-0.5,1.7-1.4c0-0.6-0.3-1-1-1.2
							c-0.3-0.1-0.6-0.2-0.8-0.2c-0.1,0-0.1,0-0.2-0.1c-0.1-0.1-0.2-0.1-0.2-0.2c0-0.2,0.2-0.3,0.5-0.3c0.3,0,0.6,0.1,0.8,0.3
							l0.8-0.7c-0.3-0.5-0.9-0.7-1.6-0.7c-0.4,0-0.8,0.1-1.1,0.3c-0.3,0.2-0.4,0.5-0.4,0.9c0,0.6,0.3,1,1,1.2
							c0.2,0.1,0.5,0.2,0.7,0.2c0.1,0,0.2,0.1,0.3,0.1c0.2,0.1,0.2,0.1,0.2,0.3c0,0.2-0.2,0.3-0.6,0.3c-0.4,0-0.8-0.2-1.1-0.5
							L212.5,18.5z M210,17.7h1.8v-1H210v-0.5h1.9v-1.1h-3.1l0,4.2h3.2v-1.1h-2V17.7z M206.9,17.3l-1.7-2.2h-1.1l0,4.2h1.2v-2.3
							l1.8,2.3h1v-4.2h-1.2L206.9,17.3z M202.3,17.2c0-0.3-0.1-0.6-0.3-0.8c-0.2-0.2-0.5-0.3-0.8-0.3c-0.3,0-0.6,0.1-0.8,0.3
							c-0.2,0.2-0.3,0.5-0.3,0.8c0,0.3,0.1,0.6,0.3,0.8c0.2,0.2,0.5,0.3,0.8,0.3c0.3,0,0.6-0.1,0.8-0.3
							C202.2,17.8,202.3,17.5,202.3,17.2 M202.8,15.7c0.5,0.4,0.7,0.9,0.7,1.5c0,0.6-0.2,1.1-0.7,1.5v0c-0.5,0.4-1,0.6-1.6,0.6
							c-0.7,0-1.2-0.2-1.6-0.6c-0.5-0.4-0.7-0.9-0.7-1.5c0-0.6,0.2-1.1,0.7-1.5c0.5-0.4,1-0.6,1.6-0.6
							C201.8,15,202.4,15.3,202.8,15.7 M197,15.1h-1.2v4.2h2.8v-1.1H197L197,15.1z M193.7,15.1h-1.2l0,4.2h2.8v-1.1h-1.6L193.7,15.1
							z M190.5,19.3h1.2l0-4.2h-1.2L190.5,19.3z M187.4,17l-1.3-1.9h-1l0,4.2h1.1v-2.1l1.2,1.7l1.2-1.7v2.1h1.1v-4.2h-1L187.4,17z
							 M183.2,17.2c0-0.3-0.1-0.6-0.3-0.8c-0.2-0.2-0.5-0.3-0.8-0.3c-0.3,0-0.6,0.1-0.8,0.3c-0.2,0.2-0.3,0.5-0.3,0.8
							c0,0.3,0.1,0.6,0.3,0.8c0.2,0.2,0.5,0.3,0.8,0.3c0.3,0,0.6-0.1,0.8-0.3C183.1,17.8,183.2,17.5,183.2,17.2 M183.8,15.7
							c0.5,0.4,0.7,0.9,0.7,1.5c0,0.6-0.2,1.1-0.7,1.5l0,0c-0.5,0.4-1,0.6-1.6,0.6c-0.6,0-1.2-0.2-1.6-0.6c-0.5-0.4-0.7-0.9-0.7-1.5
							c0-0.6,0.2-1.1,0.7-1.5c0.5-0.4,1-0.6,1.6-0.6C182.8,15,183.3,15.3,183.8,15.7 M177.1,17.1h0.6c0.3,0,0.5-0.2,0.5-0.5
							c0-0.1,0-0.2-0.1-0.3c-0.1-0.1-0.2-0.1-0.3-0.1h-0.7L177.1,17.1z M178.6,17.8l1.1,1.6h-1.4l-0.8-1.3h-0.4v1.3h-1.2v-4.2h1.9
							c0.4,0,0.8,0.1,1.1,0.4c0.3,0.3,0.4,0.6,0.4,1C179.3,17.1,179,17.6,178.6,17.8 M173.9,17.4c0,0.6-0.2,0.9-0.7,0.9
							s-0.7-0.3-0.7-0.9l0-2.3h-1.2l0,2.4c0,0.6,0.2,1.1,0.5,1.4c0.4,0.3,0.8,0.5,1.4,0.5c0.5,0,1-0.2,1.4-0.5
							c0.4-0.3,0.5-0.8,0.5-1.4l0-2.4h-1.2L173.9,17.4z M168.7,18.3h2v1.1h-3.2v-4.2h3.1v1.1h-1.9l0,0.5h1.8v1h-1.8V18.3z"/>
					</g>
					<g class="st6">
						<defs>
							<rect id="SVGID_11_" x="-51.4" y="-103.6" width="322.1" height="232.2"/>
						</defs>
						<clipPath id="SVGID_12_">
							<use xlink:href="#SVGID_11_"  style="overflow:visible;"/>
						</clipPath>
						<path class="st10" d="M263.1,124.7v3.9 M263.1-99.7v-3.9 M-43.9,124.7v3.9 M-43.9-99.7v-3.9 M266.8,121.1h3.9 M-47.6,121.1
							h-3.9 M266.8-96h3.9 M-47.6-96h-3.9"/>
						<path class="st11" d="M263.1,124.7v3.9 M263.1-99.7v-3.9 M-43.9,124.7v3.9 M-43.9-99.7v-3.9 M266.8,121.1h3.9 M-47.6,121.1
							h-3.9 M266.8-96h3.9 M-47.6-96h-3.9"/>
						<circle class="st10" cx="109.6" cy="-101.6" r="1.3"/>
						<line class="st10" x1="108.1" y1="-101.6" x2="111.2" y2="-101.6"/>
						<line class="st10" x1="109.6" y1="-103.2" x2="109.6" y2="-100.1"/>
						<circle class="st10" cx="109.6" cy="-101.6" r="0.8"/>
						<circle class="st11" cx="109.6" cy="-101.6" r="1.3"/>
						<line class="st11" x1="108.1" y1="-101.6" x2="111.2" y2="-101.6"/>
						<line class="st11" x1="109.6" y1="-103.2" x2="109.6" y2="-100.1"/>
						<path class="st12" d="M110.4-101.6c0,0.4-0.3,0.8-0.8,0.8c-0.4,0-0.8-0.3-0.8-0.8c0-0.4,0.3-0.8,0.8-0.8
							C110-102.4,110.4-102.1,110.4-101.6"/>
						<line class="st13" x1="108.8" y1="-101.6" x2="110.4" y2="-101.6"/>
						<line class="st13" x1="109.6" y1="-102.4" x2="109.6" y2="-100.9"/>
						<circle class="st10" cx="109.6" cy="126.7" r="1.3"/>
						<line class="st10" x1="108.1" y1="126.7" x2="111.2" y2="126.7"/>
						<line class="st10" x1="109.6" y1="125.1" x2="109.6" y2="128.2"/>
						<circle class="st10" cx="109.6" cy="126.7" r="0.8"/>
						<circle class="st11" cx="109.6" cy="126.7" r="1.3"/>
						<line class="st11" x1="108.1" y1="126.7" x2="111.2" y2="126.7"/>
						<line class="st11" x1="109.6" y1="125.1" x2="109.6" y2="128.2"/>
						<path class="st12" d="M110.4,126.7c0,0.4-0.3,0.8-0.8,0.8c-0.4,0-0.8-0.3-0.8-0.8s0.3-0.8,0.8-0.8
							C110,125.9,110.4,126.2,110.4,126.7"/>
						<line class="st13" x1="108.8" y1="126.7" x2="110.4" y2="126.7"/>
						<line class="st13" x1="109.6" y1="125.9" x2="109.6" y2="127.4"/>
						<circle class="st10" cx="-49.5" cy="12.5" r="1.3"/>
						<line class="st10" x1="-51" y1="12.5" x2="-47.9" y2="12.5"/>
						<line class="st10" x1="-49.5" y1="11" x2="-49.5" y2="14.1"/>
						<circle class="st10" cx="-49.5" cy="12.5" r="0.8"/>
						<circle class="st11" cx="-49.5" cy="12.5" r="1.3"/>
						<line class="st11" x1="-51" y1="12.5" x2="-47.9" y2="12.5"/>
						<line class="st11" x1="-49.5" y1="11" x2="-49.5" y2="14.1"/>
						<path class="st12" d="M-48.7,12.5c0,0.4-0.3,0.8-0.8,0.8s-0.8-0.3-0.8-0.8c0-0.4,0.3-0.8,0.8-0.8S-48.7,12.1-48.7,12.5"/>
						<line class="st13" x1="-50.3" y1="12.5" x2="-48.7" y2="12.5"/>
						<line class="st13" x1="-49.5" y1="11.7" x2="-49.5" y2="13.3"/>
						<circle class="st10" cx="268.7" cy="12.5" r="1.3"/>
						<line class="st10" x1="267.2" y1="12.5" x2="270.3" y2="12.5"/>
						<line class="st10" x1="268.7" y1="11" x2="268.7" y2="14.1"/>
						<circle class="st10" cx="268.7" cy="12.5" r="0.8"/>
						<circle class="st11" cx="268.7" cy="12.5" r="1.3"/>
						<line class="st11" x1="267.2" y1="12.5" x2="270.3" y2="12.5"/>
						<line class="st11" x1="268.7" y1="11" x2="268.7" y2="14.1"/>
						<path class="st12" d="M269.5,12.5c0,0.4-0.3,0.8-0.8,0.8c-0.4,0-0.8-0.3-0.8-0.8c0-0.4,0.3-0.8,0.8-0.8
							C269.1,11.7,269.5,12.1,269.5,12.5"/>
						<line class="st13" x1="267.9" y1="12.5" x2="269.5" y2="12.5"/>
						<line class="st13" x1="268.7" y1="11.7" x2="268.7" y2="13.3"/>
						<path class="st14" d="M-41.2,127h0.1v-0.7c0,0,0-0.1,0-0.1c0-0.1,0-0.1,0-0.1v0l0.3,0.9h0.1l0.3-0.9c0,0.1,0,0.1,0,0.2
							c0,0.1,0,0.1,0,0.1v0.7h0.1v-1.1h-0.2l-0.3,0.9l-0.3-0.9h-0.2V127z"/>
						<path class="st14" d="M-39.7,126.6c-0.1,0-0.1,0-0.2,0.1c0,0-0.1,0.1-0.1,0.2c0,0.1,0,0.1,0.1,0.2c0,0,0.1,0.1,0.2,0.1
							c0.1,0,0.1,0,0.2,0c0.1,0,0.1-0.1,0.1-0.1c0,0,0,0.1,0,0.1c0,0,0.1,0,0.1,0c0,0,0,0,0,0c0,0,0,0,0,0v-0.1c0,0,0,0,0,0
							c0,0,0,0,0,0c0,0,0,0,0,0c0,0,0,0,0,0v-0.5c0-0.1,0-0.1-0.1-0.2c-0.1,0-0.1-0.1-0.2-0.1c-0.1,0-0.2,0-0.2,0.1
							c-0.1,0-0.1,0.1-0.1,0.2L-39.7,126.6c-0.1-0.1-0.1-0.2-0.1-0.2c0,0,0.1-0.1,0.2-0.1c0.1,0,0.1,0,0.1,0c0,0,0,0.1,0,0.1
							c0,0,0,0,0,0.1c0,0,0,0-0.1,0L-39.7,126.6z M-39.8,126.8c0-0.1,0-0.1,0.1-0.1c0,0,0.1,0,0.1,0l0.1,0c0,0,0.1,0,0.1,0
							c0,0,0,0,0.1,0v0.1c0,0.1,0,0.1-0.1,0.2c0,0-0.1,0-0.1,0C-39.7,127-39.8,126.9-39.8,126.8C-39.8,126.9-39.8,126.9-39.8,126.8z
							"/>
						<path class="st14" d="M-39.1,127h0.1v-0.4c0-0.1,0-0.1,0-0.1c0,0,0-0.1,0-0.1c0,0,0.1-0.1,0.1-0.1c0,0,0,0,0.1,0
							c0.1,0,0.1,0,0.1,0.1c0,0,0,0.1,0,0.1v0.5h0.1v-0.5c0-0.1,0-0.1,0-0.2c0-0.1-0.1-0.1-0.2-0.1c-0.1,0-0.1,0-0.1,0
							s-0.1,0.1-0.1,0.1v-0.1h-0.1V127z"/>
						<path class="st14" d="M-38.2,126.2v0.6c0,0.1,0,0.1,0,0.2c0,0.1,0.1,0.1,0.2,0.1c0.1,0,0.1,0,0.2-0.1c0,0,0,0,0.1-0.1l0,0.1
							h0.1v-0.8h-0.1v0.4c0,0.1,0,0.1,0,0.2c0,0.1-0.1,0.1-0.2,0.1c-0.1,0-0.1,0-0.1-0.1c0,0,0-0.1,0-0.1v-0.5H-38.2z"/>
						<path class="st14" d="M-37.1,126.6c-0.1,0-0.1,0-0.2,0.1c0,0-0.1,0.1-0.1,0.2c0,0.1,0,0.1,0.1,0.2c0,0,0.1,0.1,0.2,0.1
							c0.1,0,0.1,0,0.2,0c0.1,0,0.1-0.1,0.1-0.1c0,0,0,0.1,0,0.1c0,0,0.1,0,0.1,0c0,0,0,0,0,0c0,0,0,0,0,0v-0.1c0,0,0,0,0,0
							c0,0,0,0,0,0c0,0,0,0,0,0c0,0,0,0,0,0v-0.5c0-0.1,0-0.1-0.1-0.2c-0.1,0-0.1-0.1-0.2-0.1c-0.1,0-0.2,0-0.2,0.1
							c-0.1,0-0.1,0.1-0.1,0.2L-37.1,126.6c-0.1-0.1-0.1-0.2-0.1-0.2c0,0,0.1-0.1,0.2-0.1c0.1,0,0.1,0,0.1,0c0,0,0,0.1,0,0.1
							c0,0,0,0,0,0.1c0,0,0,0-0.1,0L-37.1,126.6z M-37.2,126.8c0-0.1,0-0.1,0.1-0.1c0,0,0.1,0,0.1,0l0.1,0c0,0,0.1,0,0.1,0
							c0,0,0,0,0.1,0v0.1c0,0.1,0,0.1-0.1,0.2c0,0-0.1,0-0.1,0C-37.1,127-37.2,126.9-37.2,126.8C-37.2,126.9-37.2,126.9-37.2,126.8z
							"/>
						<rect x="-36.5" y="125.9" class="st14" width="0.1" height="1.1"/>
						<rect x="-35.7" y="125.9" class="st14" width="0.2" height="1.1"/>
						<path class="st14" d="M-35,126.2c-0.1,0-0.2,0-0.3,0.1c-0.1,0.1-0.1,0.2-0.1,0.3c0,0.1,0,0.2,0.1,0.3c0.1,0.1,0.1,0.1,0.2,0.1
							c0.1,0,0.1,0,0.1,0c0,0,0.1-0.1,0.1-0.1v0.1h0.1v-1.1h-0.1v0.4c0,0-0.1-0.1-0.1-0.1C-34.9,126.2-34.9,126.2-35,126.2z
							 M-35.2,126.6c0-0.1,0-0.2,0.1-0.2c0-0.1,0.1-0.1,0.2-0.1c0.1,0,0.1,0,0.2,0.1c0,0,0.1,0.1,0.1,0.2c0,0.1,0,0.2-0.1,0.2
							c0,0.1-0.1,0.1-0.2,0.1c-0.1,0-0.1,0-0.2-0.1C-35.2,126.8-35.2,126.7-35.2,126.6z"/>
						<path class="st14" d="M-34.3,126.6c0-0.1,0-0.1,0.1-0.2c0,0,0.1-0.1,0.2-0.1c0.1,0,0.1,0,0.2,0.1c0,0,0,0.1,0,0.1H-34.3z
							 M-34.1,126.2c-0.1,0-0.2,0-0.3,0.1c-0.1,0.1-0.1,0.2-0.1,0.3c0,0.1,0,0.2,0.1,0.3c0.1,0.1,0.2,0.1,0.3,0.1c0,0,0.1,0,0.1,0
							c0.1,0,0.1,0,0.2-0.1c0,0,0-0.1,0.1-0.1c0,0,0-0.1,0-0.1h-0.1c0,0,0,0.1-0.1,0.1c0,0-0.1,0.1-0.2,0.1c-0.1,0-0.1,0-0.2-0.1
							c0,0-0.1-0.1-0.1-0.2h0.6c0-0.1,0-0.1,0-0.2c0-0.1,0-0.1-0.1-0.1c0,0-0.1-0.1-0.1-0.1C-34,126.2-34,126.2-34.1,126.2z"/>
						<path class="st14" d="M-33.6,127h0.1v-0.4c0-0.1,0-0.1,0-0.1c0,0,0-0.1,0-0.1c0,0,0.1-0.1,0.1-0.1c0,0,0,0,0.1,0
							c0.1,0,0.1,0,0.1,0.1c0,0,0,0.1,0,0.1v0.5h0.1v-0.5c0-0.1,0-0.1,0-0.2c0-0.1-0.1-0.1-0.2-0.1c-0.1,0-0.1,0-0.1,0
							s-0.1,0.1-0.1,0.1v-0.1h-0.1V127z"/>
						<path class="st14" d="M-32.7,126.2h-0.1v0.1h0.1v0.5c0,0.1,0,0.1,0,0.1c0,0,0.1,0,0.1,0c0,0,0,0,0.1,0c0,0,0,0,0,0v-0.1
							c0,0,0,0,0,0c0,0,0,0,0,0c0,0,0,0-0.1,0c0,0,0,0,0-0.1v-0.5h0.1v-0.1h-0.1V126h-0.1V126.2z"/>
						<path class="st14" d="M-32.3,126.1h0.1v-0.2h-0.1V126.1z M-32.3,127h0.1v-0.8h-0.1V127z"/>
						<path class="st14" d="M-31.6,126.2c-0.1,0-0.2,0-0.3,0.1c-0.1,0.1-0.1,0.2-0.1,0.3c0,0.1,0,0.2,0.1,0.3
							c0.1,0.1,0.1,0.1,0.2,0.1c0.1,0,0.1,0,0.1,0c0,0,0.1-0.1,0.1-0.1v0.1h0.1v-1.1h-0.1v0.4c0,0-0.1-0.1-0.1-0.1
							C-31.5,126.2-31.6,126.2-31.6,126.2z M-31.8,126.6c0-0.1,0-0.2,0.1-0.2c0-0.1,0.1-0.1,0.2-0.1c0.1,0,0.1,0,0.2,0.1
							c0,0,0.1,0.1,0.1,0.2c0,0.1,0,0.2-0.1,0.2c0,0.1-0.1,0.1-0.2,0.1c-0.1,0-0.1,0-0.2-0.1C-31.8,126.8-31.8,126.7-31.8,126.6z"/>
						<path class="st14" d="M-30.9,126.6c-0.1,0-0.1,0-0.2,0.1c0,0-0.1,0.1-0.1,0.2c0,0.1,0,0.1,0.1,0.2c0,0,0.1,0.1,0.2,0.1
							c0.1,0,0.1,0,0.2,0c0.1,0,0.1-0.1,0.1-0.1c0,0,0,0.1,0,0.1c0,0,0.1,0,0.1,0c0,0,0,0,0,0c0,0,0,0,0,0v-0.1c0,0,0,0,0,0
							c0,0,0,0,0,0c0,0,0,0,0,0c0,0,0,0,0,0v-0.5c0-0.1,0-0.1-0.1-0.2c-0.1,0-0.1-0.1-0.2-0.1c-0.1,0-0.2,0-0.2,0.1
							c-0.1,0-0.1,0.1-0.1,0.2L-30.9,126.6c-0.1-0.1-0.1-0.2-0.1-0.2c0,0,0.1-0.1,0.2-0.1c0.1,0,0.1,0,0.1,0c0,0,0,0.1,0,0.1
							c0,0,0,0,0,0.1c0,0,0,0-0.1,0L-30.9,126.6z M-31,126.8c0-0.1,0-0.1,0.1-0.1c0,0,0.1,0,0.1,0l0.1,0c0,0,0.1,0,0.1,0
							c0,0,0,0,0.1,0v0.1c0,0.1,0,0.1-0.1,0.2c0,0-0.1,0-0.1,0C-30.9,127-30.9,126.9-31,126.8C-31,126.9-31,126.9-31,126.8z"/>
						<path class="st14" d="M-29.9,126.2c-0.1,0-0.2,0-0.3,0.1c-0.1,0.1-0.1,0.2-0.1,0.3c0,0.1,0,0.2,0.1,0.3
							c0.1,0.1,0.1,0.1,0.2,0.1c0.1,0,0.1,0,0.1,0c0,0,0.1-0.1,0.1-0.1v0.1h0.1v-1.1h-0.1v0.4c0,0-0.1-0.1-0.1-0.1
							C-29.8,126.2-29.9,126.2-29.9,126.2z M-30.1,126.6c0-0.1,0-0.2,0.1-0.2c0-0.1,0.1-0.1,0.2-0.1c0.1,0,0.1,0,0.2,0.1
							c0,0,0.1,0.1,0.1,0.2c0,0.1,0,0.2-0.1,0.2c0,0.1-0.1,0.1-0.2,0.1c-0.1,0-0.1,0-0.2-0.1C-30.1,126.8-30.1,126.7-30.1,126.6z"/>
						<path class="st14" d="M-28.4,125.9c-0.2,0-0.3,0.1-0.4,0.2c-0.1,0.1-0.1,0.2-0.1,0.4c0,0.2,0.1,0.4,0.2,0.5
							c0.1,0.1,0.2,0.1,0.3,0.1c0.1,0,0.3,0,0.4-0.1c0.1-0.1,0.1-0.2,0.1-0.3h-0.1c0,0.1,0,0.1-0.1,0.2c-0.1,0.1-0.1,0.1-0.2,0.1
							c-0.1,0-0.2,0-0.3-0.1c-0.1-0.1-0.1-0.2-0.1-0.3c0-0.2,0-0.3,0.1-0.4s0.2-0.1,0.3-0.1c0.1,0,0.2,0,0.2,0.1
							c0,0,0.1,0.1,0.1,0.2h0.1c0-0.1-0.1-0.2-0.1-0.3C-28.2,125.9-28.3,125.9-28.4,125.9z"/>
						<path class="st14" d="M-27.5,126.2c-0.1,0-0.2,0-0.3,0.1c-0.1,0.1-0.1,0.2-0.1,0.3c0,0.1,0,0.2,0.1,0.3
							c0.1,0.1,0.2,0.1,0.3,0.1c0.1,0,0.2,0,0.3-0.1c0.1-0.1,0.1-0.2,0.1-0.3c0-0.1,0-0.2-0.1-0.3
							C-27.3,126.2-27.4,126.2-27.5,126.2z M-27.5,127c-0.1,0-0.1,0-0.2-0.1c0-0.1-0.1-0.1-0.1-0.2c0-0.1,0-0.2,0.1-0.2
							c0-0.1,0.1-0.1,0.2-0.1c0.1,0,0.2,0,0.2,0.1c0,0,0,0.1,0,0.2c0,0.1,0,0.2,0,0.2C-27.3,126.9-27.4,127-27.5,127z"/>
						<path class="st14" d="M-26.9,127h0.1v-0.5c0-0.1,0-0.1,0.1-0.2c0,0,0.1-0.1,0.2-0.1c0,0,0,0,0,0c0,0,0,0,0,0v-0.1c0,0,0,0,0,0
							c0,0,0,0,0,0c-0.1,0-0.1,0-0.1,0.1c0,0-0.1,0.1-0.1,0.1v-0.1h-0.1V127z"/>
						<path class="st14" d="M-26.4,127.4h0.1V127c0,0,0.1,0.1,0.1,0.1c0,0,0.1,0,0.2,0c0.1,0,0.1,0,0.2-0.1c0.1-0.1,0.1-0.2,0.1-0.4
							c0-0.1,0-0.2-0.1-0.3c-0.1-0.1-0.1-0.1-0.2-0.1c-0.1,0-0.1,0-0.2,0c0,0-0.1,0-0.1,0.1v-0.1h-0.1V127.4z M-26.1,127
							c-0.1,0-0.2,0-0.2-0.1c0,0,0-0.1,0-0.2c0-0.1,0-0.1,0-0.2c0-0.1,0.1-0.1,0.2-0.1c0.1,0,0.2,0,0.2,0.1c0,0,0,0.1,0,0.2
							c0,0.1,0,0.2-0.1,0.2C-26,126.9-26,127-26.1,127z"/>
						<path class="st14" d="M-25.2,126.2c-0.1,0-0.2,0-0.3,0.1c-0.1,0.1-0.1,0.2-0.1,0.3c0,0.1,0,0.2,0.1,0.3
							c0.1,0.1,0.2,0.1,0.3,0.1c0.1,0,0.2,0,0.3-0.1c0.1-0.1,0.1-0.2,0.1-0.3c0-0.1,0-0.2-0.1-0.3
							C-25.1,126.2-25.1,126.2-25.2,126.2z M-25.3,127c-0.1,0-0.1,0-0.2-0.1c0-0.1-0.1-0.1-0.1-0.2c0-0.1,0-0.2,0.1-0.2
							c0-0.1,0.1-0.1,0.2-0.1c0.1,0,0.2,0,0.2,0.1c0,0,0,0.1,0,0.2c0,0.1,0,0.2,0,0.2C-25.1,126.9-25.2,127-25.3,127z"/>
						<path class="st14" d="M-24.7,127h0.1v-0.5c0-0.1,0-0.1,0.1-0.2c0,0,0.1-0.1,0.2-0.1c0,0,0,0,0,0c0,0,0,0,0,0v-0.1c0,0,0,0,0,0
							c0,0,0,0,0,0c-0.1,0-0.1,0-0.1,0.1c0,0-0.1,0.1-0.1,0.1v-0.1h-0.1V127z"/>
						<path class="st14" d="M-24,126.6c-0.1,0-0.1,0-0.2,0.1c0,0-0.1,0.1-0.1,0.2c0,0.1,0,0.1,0.1,0.2c0,0,0.1,0.1,0.2,0.1
							c0.1,0,0.1,0,0.2,0c0.1,0,0.1-0.1,0.1-0.1c0,0,0,0.1,0,0.1c0,0,0.1,0,0.1,0c0,0,0,0,0,0c0,0,0,0,0,0v-0.1c0,0,0,0,0,0
							c0,0,0,0,0,0c0,0,0,0,0,0c0,0,0,0,0,0v-0.5c0-0.1,0-0.1-0.1-0.2c-0.1,0-0.1-0.1-0.2-0.1c-0.1,0-0.2,0-0.2,0.1
							c-0.1,0-0.1,0.1-0.1,0.2L-24,126.6c-0.1-0.1-0.1-0.2-0.1-0.2c0,0,0.1-0.1,0.2-0.1c0.1,0,0.1,0,0.1,0c0,0,0,0.1,0,0.1
							c0,0,0,0,0,0.1c0,0,0,0-0.1,0L-24,126.6z M-24.1,126.8c0-0.1,0-0.1,0.1-0.1c0,0,0.1,0,0.1,0l0.1,0c0,0,0.1,0,0.1,0
							c0,0,0,0,0.1,0v0.1c0,0.1,0,0.1-0.1,0.2c0,0-0.1,0-0.1,0C-24,127-24,126.9-24.1,126.8C-24.1,126.9-24.1,126.9-24.1,126.8z"/>
						<path class="st14" d="M-23.3,126.2h-0.1v0.1h0.1v0.5c0,0.1,0,0.1,0,0.1c0,0,0.1,0,0.1,0c0,0,0,0,0.1,0c0,0,0,0,0,0v-0.1
							c0,0,0,0,0,0c0,0,0,0,0,0c0,0,0,0-0.1,0c0,0,0,0,0-0.1v-0.5h0.1v-0.1h-0.1V126h-0.1V126.2z"/>
						<path class="st14" d="M-22.9,126.1h0.1v-0.2h-0.1V126.1z M-22.9,127h0.1v-0.8h-0.1V127z"/>
						<polygon class="st14" points="-22.6,126.2 -22.4,127 -22.2,127 -21.9,126.2 -22.1,126.2 -22.3,126.9 -22.5,126.2 						"/>
						<path class="st14" d="M-21.6,126.6c-0.1,0-0.1,0-0.2,0.1c0,0-0.1,0.1-0.1,0.2c0,0.1,0,0.1,0.1,0.2c0,0,0.1,0.1,0.2,0.1
							c0.1,0,0.1,0,0.2,0c0.1,0,0.1-0.1,0.1-0.1c0,0,0,0.1,0,0.1c0,0,0.1,0,0.1,0c0,0,0,0,0,0c0,0,0,0,0,0v-0.1c0,0,0,0,0,0
							c0,0,0,0,0,0c0,0,0,0,0,0c0,0,0,0,0,0v-0.5c0-0.1,0-0.1-0.1-0.2c-0.1,0-0.1-0.1-0.2-0.1c-0.1,0-0.2,0-0.2,0.1
							c-0.1,0-0.1,0.1-0.1,0.2L-21.6,126.6c-0.1-0.1-0.1-0.2-0.1-0.2c0,0,0.1-0.1,0.2-0.1c0.1,0,0.1,0,0.1,0c0,0,0,0.1,0,0.1
							c0,0,0,0,0,0.1c0,0,0,0-0.1,0L-21.6,126.6z M-21.7,126.8c0-0.1,0-0.1,0.1-0.1c0,0,0.1,0,0.1,0l0.1,0c0,0,0.1,0,0.1,0
							c0,0,0,0,0.1,0v0.1c0,0.1,0,0.1-0.1,0.2c0,0-0.1,0-0.1,0C-21.6,127-21.6,126.9-21.7,126.8C-21.7,126.9-21.7,126.9-21.7,126.8z
							"/>
						<polygon class="st14" points="-20.5,127 -19.8,127 -19.8,126.9 -20.3,126.9 -20.3,125.9 -20.5,125.9 						"/>
						<path class="st14" d="M-19.3,126.2c-0.1,0-0.2,0-0.3,0.1c-0.1,0.1-0.1,0.2-0.1,0.3c0,0.1,0,0.2,0.1,0.3
							c0.1,0.1,0.2,0.1,0.3,0.1c0.1,0,0.2,0,0.3-0.1c0.1-0.1,0.1-0.2,0.1-0.3c0-0.1,0-0.2-0.1-0.3
							C-19.1,126.2-19.2,126.2-19.3,126.2z M-19.3,127c-0.1,0-0.1,0-0.2-0.1c0-0.1-0.1-0.1-0.1-0.2c0-0.1,0-0.2,0.1-0.2
							c0-0.1,0.1-0.1,0.2-0.1c0.1,0,0.2,0,0.2,0.1c0,0,0,0.1,0,0.2c0,0.1,0,0.2,0,0.2C-19.2,126.9-19.2,127-19.3,127z"/>
						<path class="st14" d="M-18.2,126.6c0,0.1,0,0.1,0,0.2c0,0.1-0.1,0.1-0.2,0.1c-0.1,0-0.1,0-0.1-0.1c0,0-0.1-0.1-0.1-0.2
							c0-0.1,0-0.1,0-0.2c0-0.1,0.1-0.1,0.2-0.1c0.1,0,0.1,0,0.2,0.1C-18.3,126.5-18.2,126.5-18.2,126.6z M-18.5,126.2
							c-0.1,0-0.2,0-0.2,0.1c-0.1,0.1-0.1,0.2-0.1,0.3c0,0.1,0,0.2,0.1,0.3c0.1,0.1,0.1,0.1,0.2,0.1c0.1,0,0.1,0,0.2,0
							c0,0,0.1-0.1,0.1-0.1c0,0.1,0,0.2,0,0.2c0,0.1-0.1,0.1-0.2,0.1c-0.1,0-0.1,0-0.1,0c0,0,0,0,0-0.1h-0.1c0,0.1,0,0.1,0.1,0.2
							c0.1,0,0.1,0.1,0.2,0.1c0.2,0,0.3-0.1,0.3-0.2c0-0.1,0-0.1,0-0.2v-0.7h-0.1v0.1c0,0-0.1-0.1-0.1-0.1
							C-18.4,126.2-18.4,126.2-18.5,126.2z"/>
						<path class="st14" d="M-17.6,126.2c-0.1,0-0.2,0-0.3,0.1c-0.1,0.1-0.1,0.2-0.1,0.3c0,0.1,0,0.2,0.1,0.3
							c0.1,0.1,0.2,0.1,0.3,0.1c0.1,0,0.2,0,0.3-0.1c0.1-0.1,0.1-0.2,0.1-0.3c0-0.1,0-0.2-0.1-0.3
							C-17.4,126.2-17.5,126.2-17.6,126.2z M-17.6,127c-0.1,0-0.1,0-0.2-0.1c0-0.1-0.1-0.1-0.1-0.2c0-0.1,0-0.2,0.1-0.2
							c0-0.1,0.1-0.1,0.2-0.1c0.1,0,0.2,0,0.2,0.1c0,0,0,0.1,0,0.2c0,0.1,0,0.2,0,0.2C-17.4,126.9-17.5,127-17.6,127z"/>
						<path class="st14" d="M-17,126.2h-0.1v0.1h0.1v0.5c0,0.1,0,0.1,0,0.1c0,0,0.1,0,0.1,0c0,0,0,0,0.1,0c0,0,0,0,0,0v-0.1
							c0,0,0,0,0,0c0,0,0,0,0,0c0,0,0,0-0.1,0c0,0,0,0,0-0.1v-0.5h0.1v-0.1h-0.1V126H-17V126.2z"/>
						<path class="st14" d="M-16.6,126.1h0.1v-0.2h-0.1V126.1z M-16.6,127h0.1v-0.8h-0.1V127z"/>
						<path class="st14" d="M-16.3,127.4h0.1V127c0,0,0.1,0.1,0.1,0.1c0,0,0.1,0,0.2,0c0.1,0,0.1,0,0.2-0.1c0.1-0.1,0.1-0.2,0.1-0.4
							c0-0.1,0-0.2-0.1-0.3c-0.1-0.1-0.1-0.1-0.2-0.1c-0.1,0-0.1,0-0.2,0c0,0-0.1,0-0.1,0.1v-0.1h-0.1V127.4z M-15.9,127
							c-0.1,0-0.2,0-0.2-0.1c0,0,0-0.1,0-0.2c0-0.1,0-0.1,0-0.2c0-0.1,0.1-0.1,0.2-0.1c0.1,0,0.2,0,0.2,0.1c0,0,0,0.1,0,0.2
							c0,0.1,0,0.2-0.1,0.2C-15.8,126.9-15.9,127-15.9,127z"/>
						<path class="st14" d="M-15.1,126.2c-0.1,0-0.2,0-0.3,0.1c-0.1,0.1-0.1,0.2-0.1,0.3c0,0.1,0,0.2,0.1,0.3
							c0.1,0.1,0.2,0.1,0.3,0.1c0.1,0,0.2,0,0.3-0.1c0.1-0.1,0.1-0.2,0.1-0.3c0-0.1,0-0.2-0.1-0.3C-14.9,126.2-15,126.2-15.1,126.2z
							 M-15.1,127c-0.1,0-0.1,0-0.2-0.1c0-0.1-0.1-0.1-0.1-0.2c0-0.1,0-0.2,0.1-0.2c0-0.1,0.1-0.1,0.2-0.1c0.1,0,0.2,0,0.2,0.1
							c0,0,0,0.1,0,0.2c0,0.1,0,0.2,0,0.2C-14.9,126.9-15,127-15.1,127z"/>
						<path class="st14" d="M-14.6,126.8c0,0.1,0,0.1,0.1,0.2c0.1,0.1,0.1,0.1,0.3,0.1c0.1,0,0.2,0,0.3-0.1c0.1-0.1,0.1-0.1,0.1-0.2
							c0-0.1,0-0.1-0.1-0.2c0,0-0.1,0-0.2-0.1l-0.1,0c0,0-0.1,0-0.1,0c0,0-0.1,0-0.1-0.1c0,0,0-0.1,0-0.1c0,0,0.1,0,0.1,0
							c0.1,0,0.1,0,0.2,0.1c0,0,0,0.1,0,0.1h0.1c0-0.1,0-0.1,0-0.1c-0.1-0.1-0.1-0.1-0.3-0.1c-0.1,0-0.2,0-0.2,0.1
							c-0.1,0-0.1,0.1-0.1,0.2c0,0.1,0,0.1,0.1,0.2c0,0,0.1,0,0.2,0.1l0.1,0c0.1,0,0.1,0,0.1,0c0,0,0,0,0,0.1c0,0,0,0.1-0.1,0.1
							c0,0-0.1,0-0.1,0c-0.1,0-0.1,0-0.2-0.1c0,0,0-0.1,0-0.1H-14.6z"/>
						<polygon class="st14" points="-13.3,127 -12.6,127 -12.6,126.9 -13.2,126.9 -13.2,125.9 -13.3,125.9 						"/>
						<path class="st14" d="M-12.2,126.2c-0.1,0-0.2,0-0.3,0.1c-0.1,0.1-0.1,0.2-0.1,0.3c0,0.1,0,0.2,0.1,0.3
							c0.1,0.1,0.2,0.1,0.3,0.1c0.1,0,0.2,0,0.3-0.1c0.1-0.1,0.1-0.2,0.1-0.3c0-0.1,0-0.2-0.1-0.3C-12,126.2-12.1,126.2-12.2,126.2z
							 M-12.2,127c-0.1,0-0.1,0-0.2-0.1c0-0.1-0.1-0.1-0.1-0.2c0-0.1,0-0.2,0.1-0.2c0-0.1,0.1-0.1,0.2-0.1c0.1,0,0.2,0,0.2,0.1
							c0,0,0,0.1,0,0.2c0,0.1,0,0.2,0,0.2C-12,126.9-12.1,127-12.2,127z"/>
						<path class="st14" d="M-11.6,126.2h-0.1v0.1h0.1v0.5c0,0.1,0,0.1,0,0.1s0.1,0,0.1,0c0,0,0,0,0.1,0c0,0,0,0,0,0v-0.1
							c0,0,0,0,0,0c0,0,0,0,0,0c0,0,0,0-0.1,0c0,0,0,0,0-0.1v-0.5h0.1v-0.1h-0.1V126h-0.1V126.2z"/>
						<path class="st14" d="M-11.1,126.6c0-0.1,0-0.1,0.1-0.2c0,0,0.1-0.1,0.2-0.1c0.1,0,0.1,0,0.2,0.1c0,0,0,0.1,0,0.1H-11.1z
							 M-10.9,126.2c-0.1,0-0.2,0-0.3,0.1c-0.1,0.1-0.1,0.2-0.1,0.3c0,0.1,0,0.2,0.1,0.3c0.1,0.1,0.2,0.1,0.3,0.1c0,0,0.1,0,0.1,0
							c0.1,0,0.1,0,0.2-0.1c0,0,0-0.1,0.1-0.1c0,0,0-0.1,0-0.1h-0.1c0,0,0,0.1-0.1,0.1c0,0-0.1,0.1-0.2,0.1c-0.1,0-0.1,0-0.2-0.1
							c0,0-0.1-0.1-0.1-0.2h0.6c0-0.1,0-0.1,0-0.2c0-0.1,0-0.1-0.1-0.1c0,0-0.1-0.1-0.1-0.1C-10.8,126.2-10.8,126.2-10.9,126.2z"/>
						<path class="st14" d="M-10.3,127h0.1v-0.5c0-0.1,0-0.1,0.1-0.2c0,0,0.1-0.1,0.2-0.1c0,0,0,0,0,0c0,0,0,0,0,0v-0.1c0,0,0,0,0,0
							c0,0,0,0,0,0c-0.1,0-0.1,0-0.1,0.1s-0.1,0.1-0.1,0.1v-0.1h-0.1V127z"/>
						<path class="st14" d="M-9.8,126.1h0.1v-0.2h-0.1V126.1z M-9.8,127h0.1v-0.8h-0.1V127z"/>
						<polygon class="st14" points="-10,125.9 -10.2,126.1 -10.1,126.1 -9.9,125.9 						"/>
						<path class="st14" d="M-9.3,126.6c-0.1,0-0.1,0-0.2,0.1c0,0-0.1,0.1-0.1,0.2c0,0.1,0,0.1,0.1,0.2c0,0,0.1,0.1,0.2,0.1
							c0.1,0,0.1,0,0.2,0C-9,127-9,127-9,126.9c0,0,0,0.1,0,0.1c0,0,0.1,0,0.1,0c0,0,0,0,0,0c0,0,0,0,0,0v-0.1c0,0,0,0,0,0
							c0,0,0,0,0,0c0,0,0,0,0,0c0,0,0,0,0,0v-0.5c0-0.1,0-0.1-0.1-0.2c-0.1,0-0.1-0.1-0.2-0.1c-0.1,0-0.2,0-0.2,0.1
							c-0.1,0-0.1,0.1-0.1,0.2L-9.3,126.6c-0.1-0.1-0.1-0.2-0.1-0.2c0,0,0.1-0.1,0.2-0.1c0.1,0,0.1,0,0.1,0c0,0,0,0.1,0,0.1
							c0,0,0,0,0,0.1c0,0,0,0-0.1,0L-9.3,126.6z M-9.4,126.8c0-0.1,0-0.1,0.1-0.1c0,0,0.1,0,0.1,0l0.1,0c0,0,0.1,0,0.1,0
							c0,0,0,0,0.1,0v0.1c0,0.1,0,0.1-0.1,0.2c0,0-0.1,0-0.1,0C-9.3,127-9.3,126.9-9.4,126.8C-9.4,126.9-9.4,126.9-9.4,126.8z"/>
						<path class="st14" d="M-8.7,126.8c0,0.1,0,0.1,0.1,0.2c0.1,0.1,0.1,0.1,0.3,0.1c0.1,0,0.2,0,0.3-0.1c0.1-0.1,0.1-0.1,0.1-0.2
							c0-0.1,0-0.1-0.1-0.2c0,0-0.1,0-0.2-0.1l-0.1,0c0,0-0.1,0-0.1,0c0,0-0.1,0-0.1-0.1c0,0,0-0.1,0-0.1c0,0,0.1,0,0.1,0
							c0.1,0,0.1,0,0.2,0.1c0,0,0,0.1,0,0.1H-8c0-0.1,0-0.1,0-0.1c-0.1-0.1-0.1-0.1-0.3-0.1c-0.1,0-0.2,0-0.2,0.1
							c-0.1,0-0.1,0.1-0.1,0.2c0,0.1,0,0.1,0.1,0.2c0,0,0.1,0,0.2,0.1l0.1,0c0.1,0,0.1,0,0.1,0c0,0,0,0,0,0.1c0,0,0,0.1-0.1,0.1
							c0,0-0.1,0-0.1,0c-0.1,0-0.1,0-0.2-0.1c0,0,0-0.1,0-0.1H-8.7z"/>
						<path class="st14" d="M-7.1,126.9c-0.1,0-0.1-0.1-0.2-0.2c0-0.1,0-0.2,0-0.3c0-0.1,0-0.3,0.1-0.3c0-0.1,0.1-0.1,0.2-0.1
							c0.1,0,0.1,0,0.2,0.1c0,0.1,0,0.2,0,0.3c0,0.2,0,0.3-0.1,0.3C-7,126.9-7,126.9-7.1,126.9z M-7.1,126c-0.2,0-0.3,0.1-0.3,0.2
							c0,0.1,0,0.2,0,0.3c0,0.2,0,0.3,0.1,0.4c0.1,0.1,0.2,0.2,0.3,0.2c0.1,0,0.2-0.1,0.3-0.2c0-0.1,0.1-0.2,0.1-0.4
							c0-0.2,0-0.3-0.1-0.4C-6.9,126-7,126-7.1,126z"/>
						<path class="st14" d="M-6.6,126.8c0,0.1,0,0.2,0.1,0.2c0.1,0,0.1,0.1,0.2,0.1c0.1,0,0.2,0,0.3-0.1c0.1-0.1,0.1-0.2,0.1-0.3
							c0-0.1,0-0.2-0.1-0.2c-0.1-0.1-0.2-0.1-0.3-0.1c-0.1,0-0.1,0-0.1,0c0,0,0,0-0.1,0l0-0.3h0.5V126h-0.6l-0.1,0.6l0.1,0
							c0,0,0.1-0.1,0.1-0.1c0,0,0.1,0,0.1,0c0.1,0,0.1,0,0.2,0.1c0,0,0.1,0.1,0.1,0.2c0,0.1,0,0.1-0.1,0.2c0,0.1-0.1,0.1-0.2,0.1
							c0,0-0.1,0-0.1,0c-0.1,0-0.1-0.1-0.1-0.2H-6.6z"/>
						<rect x="-5.8" y="127.2" class="st14" width="0.9" height="0.1"/>
						<path class="st14" d="M-4.9,127h0.7v-0.1h-0.6c0-0.1,0-0.1,0.1-0.1c0,0,0.1-0.1,0.1-0.1l0.1-0.1c0.1-0.1,0.2-0.1,0.2-0.1
							c0.1-0.1,0.1-0.1,0.1-0.2c0-0.1,0-0.2-0.1-0.2c-0.1-0.1-0.1-0.1-0.3-0.1c-0.1,0-0.3,0.1-0.3,0.2c0,0.1-0.1,0.1-0.1,0.2h0.1
							c0-0.1,0-0.1,0-0.2c0-0.1,0.1-0.1,0.2-0.1c0.1,0,0.1,0,0.2,0.1c0,0,0.1,0.1,0.1,0.2c0,0.1,0,0.1-0.1,0.1c0,0-0.1,0.1-0.1,0.1
							l-0.1,0.1c-0.1,0.1-0.2,0.1-0.2,0.2C-4.9,126.9-4.9,126.9-4.9,127z"/>
						<path class="st14" d="M-3.7,126.9c-0.1,0-0.1-0.1-0.2-0.2c0-0.1,0-0.2,0-0.3c0-0.1,0-0.3,0.1-0.3c0-0.1,0.1-0.1,0.2-0.1
							c0.1,0,0.1,0,0.2,0.1c0,0.1,0,0.2,0,0.3c0,0.2,0,0.3-0.1,0.3S-3.6,126.9-3.7,126.9z M-3.7,126c-0.2,0-0.3,0.1-0.3,0.2
							c0,0.1,0,0.2,0,0.3c0,0.2,0,0.3,0.1,0.4c0.1,0.1,0.2,0.2,0.3,0.2c0.1,0,0.2-0.1,0.3-0.2c0-0.1,0.1-0.2,0.1-0.4
							c0-0.2,0-0.3-0.1-0.4C-3.4,126-3.5,126-3.7,126z"/>
						<path class="st14" d="M-2.8,126.3v0.8h0.1V126h-0.1c0,0.1,0,0.1-0.1,0.2c0,0-0.1,0-0.2,0v0.1H-2.8z"/>
						<path class="st14" d="M-1.9,126.6c-0.1,0-0.1,0-0.2-0.1c0,0-0.1-0.1-0.1-0.2c0-0.1,0-0.1,0.1-0.2c0,0,0.1-0.1,0.2-0.1
							c0.1,0,0.1,0,0.2,0.1c0,0,0.1,0.1,0.1,0.2c0,0.1,0,0.2-0.1,0.2C-1.8,126.5-1.9,126.6-1.9,126.6z M-2.3,126.8
							c0,0.1,0,0.2,0.1,0.2c0.1,0.1,0.1,0.1,0.2,0.1c0.2,0,0.3-0.1,0.3-0.3c0-0.1,0.1-0.2,0.1-0.4c0-0.1,0-0.2,0-0.3
							c-0.1-0.1-0.2-0.2-0.3-0.2c-0.1,0-0.2,0-0.3,0.1c-0.1,0.1-0.1,0.2-0.1,0.3c0,0.1,0,0.2,0.1,0.3c0.1,0.1,0.1,0.1,0.2,0.1
							c0.1,0,0.1,0,0.1,0c0,0,0.1-0.1,0.1-0.1c0,0.2-0.1,0.3-0.1,0.3c0,0.1-0.1,0.1-0.2,0.1c0,0-0.1,0-0.1,0c-0.1,0-0.1-0.1-0.1-0.2
							H-2.3z"/>
						<rect x="-1.4" y="126.9" class="st14" width="0.2" height="0.2"/>
						<path class="st14" d="M-1,126.1h0.1v-0.2H-1V126.1z M-1,127h0.1v-0.8H-1V127z"/>
						<path class="st14" d="M-0.6,127h0.1v-0.4c0-0.1,0-0.1,0-0.1c0,0,0-0.1,0-0.1c0,0,0.1-0.1,0.1-0.1c0,0,0,0,0.1,0
							c0.1,0,0.1,0,0.1,0.1c0,0,0,0.1,0,0.1v0.5H0v-0.5c0-0.1,0-0.1,0-0.2c0-0.1-0.1-0.1-0.2-0.1c-0.1,0-0.1,0-0.1,0
							s-0.1,0.1-0.1,0.1v-0.1h-0.1V127z"/>
						<path class="st14" d="M0.5,126.2c-0.1,0-0.2,0-0.3,0.1c-0.1,0.1-0.1,0.2-0.1,0.3c0,0.1,0,0.2,0.1,0.3c0.1,0.1,0.1,0.1,0.2,0.1
							c0.1,0,0.1,0,0.1,0c0,0,0.1-0.1,0.1-0.1v0.1h0.1v-1.1H0.8v0.4c0,0-0.1-0.1-0.1-0.1C0.6,126.2,0.6,126.2,0.5,126.2z M0.3,126.6
							c0-0.1,0-0.2,0.1-0.2c0-0.1,0.1-0.1,0.2-0.1c0.1,0,0.1,0,0.2,0.1c0,0,0.1,0.1,0.1,0.2c0,0.1,0,0.2-0.1,0.2
							c0,0.1-0.1,0.1-0.2,0.1c-0.1,0-0.1,0-0.2-0.1C0.3,126.8,0.3,126.7,0.3,126.6z"/>
						<path class="st14" d="M1.4,126.2c-0.1,0-0.2,0-0.3,0.1c-0.1,0.1-0.1,0.2-0.1,0.3c0,0.1,0,0.2,0.1,0.3c0.1,0.1,0.1,0.1,0.2,0.1
							c0.1,0,0.1,0,0.1,0c0,0,0.1-0.1,0.1-0.1v0.1h0.1v-1.1H1.6v0.4c0,0-0.1-0.1-0.1-0.1C1.5,126.2,1.4,126.2,1.4,126.2z M1.2,126.6
							c0-0.1,0-0.2,0.1-0.2c0-0.1,0.1-0.1,0.2-0.1c0.1,0,0.1,0,0.2,0.1c0,0,0.1,0.1,0.1,0.2c0,0.1,0,0.2-0.1,0.2
							c0,0.1-0.1,0.1-0.2,0.1c-0.1,0-0.1,0-0.2-0.1C1.2,126.8,1.2,126.7,1.2,126.6z"/>
						<path class="st14" d="M3.6,126.3v0.8h0.1V126H3.6c0,0.1,0,0.1-0.1,0.2c0,0-0.1,0-0.2,0v0.1H3.6z"/>
						<path class="st14" d="M4.1,126v0.1h0.6c-0.1,0.1-0.1,0.2-0.2,0.3c-0.1,0.2-0.2,0.4-0.2,0.6h0.2c0-0.1,0-0.2,0.1-0.2
							c0-0.1,0.1-0.2,0.1-0.3c0-0.1,0.1-0.2,0.2-0.3c0.1-0.1,0.1-0.1,0.1-0.2V126H4.1z"/>
						<path class="st14" d="M4.9,127h0.7v-0.1H5.1c0-0.1,0-0.1,0.1-0.1c0,0,0.1-0.1,0.1-0.1l0.1-0.1c0.1-0.1,0.2-0.1,0.2-0.1
							c0.1-0.1,0.1-0.1,0.1-0.2c0-0.1,0-0.2-0.1-0.2C5.5,126,5.4,126,5.3,126c-0.1,0-0.3,0.1-0.3,0.2c0,0.1-0.1,0.1-0.1,0.2h0.1
							c0-0.1,0-0.1,0-0.2c0-0.1,0.1-0.1,0.2-0.1c0.1,0,0.1,0,0.2,0.1c0,0,0.1,0.1,0.1,0.2c0,0.1,0,0.1-0.1,0.1c0,0-0.1,0.1-0.1,0.1
							l-0.1,0.1c-0.1,0.1-0.2,0.1-0.2,0.2C4.9,126.9,4.9,126.9,4.9,127z"/>
						<rect x="5.8" y="126.5" class="st14" width="0.4" height="0.1"/>
						<path class="st14" d="M6.6,126.3v0.8h0.1V126H6.7c0,0.1,0,0.1-0.1,0.2c0,0-0.1,0-0.2,0v0.1H6.6z"/>
						<path class="st14" d="M7.2,126v0.1h0.6c-0.1,0.1-0.1,0.2-0.2,0.3c-0.1,0.2-0.2,0.4-0.2,0.6h0.2c0-0.1,0-0.2,0.1-0.2
							c0-0.1,0.1-0.2,0.1-0.3c0-0.1,0.1-0.2,0.2-0.3c0.1-0.1,0.1-0.1,0.1-0.2V126H7.2z"/>
						<path class="st14" d="M8.4,127.1c0.1,0,0.2,0,0.3-0.1c0.1-0.1,0.1-0.1,0.1-0.3c0-0.1,0-0.1,0-0.2c0,0-0.1-0.1-0.1-0.1
							c0,0,0.1,0,0.1-0.1c0,0,0.1-0.1,0.1-0.2c0-0.1,0-0.2-0.1-0.2c-0.1,0-0.1-0.1-0.3-0.1c-0.1,0-0.2,0.1-0.3,0.2
							c0,0.1,0,0.1,0,0.2h0.1c0-0.1,0-0.1,0-0.1c0-0.1,0.1-0.1,0.2-0.1c0.1,0,0.1,0,0.1,0c0,0,0.1,0.1,0.1,0.1c0,0.1,0,0.1-0.1,0.2
							c0,0-0.1,0-0.1,0c0,0,0,0,0,0c0,0,0,0,0,0v0.1c0,0,0,0,0,0c0,0,0,0,0,0c0.1,0,0.1,0,0.2,0c0,0,0.1,0.1,0.1,0.2
							c0,0.1,0,0.1-0.1,0.1c0,0-0.1,0.1-0.2,0.1c-0.1,0-0.2,0-0.2-0.1c0,0,0-0.1,0-0.2H8c0,0.1,0,0.2,0.1,0.3
							C8.1,127,8.2,127.1,8.4,127.1z"/>
					</g>
					<g class="st6">
						<text transform="matrix(1 0 0 1 7.959 127.0421)" style="font-family:'Helvetica'; font-size:1.5473px;">3</text>
						<text transform="matrix(1 0 0 1 7.0986 127.0421)" style="font-family:'Helvetica'; font-size:1.5473px;">7</text>
						<text transform="matrix(1 0 0 1 6.2383 127.0421)" style="font-family:'Helvetica'; font-size:1.5473px;">1</text>
						<text transform="matrix(1 0 0 1 5.7231 127.0421)" style="font-family:'Helvetica'; font-size:1.5473px;">-</text>
						<text transform="matrix(1 0 0 1 4.8628 127.0421)" style="font-family:'Helvetica'; font-size:1.5473px;">2</text>
						<text transform="matrix(1 0 0 1 4.0024 127.0421)" style="font-family:'Helvetica'; font-size:1.5473px;">7</text>
						<text transform="matrix(1 0 0 1 3.1421 127.0421)" style="font-family:'Helvetica'; font-size:1.5473px;">1</text>
						<text transform="matrix(1 0 0 1 2.7119 127.0421)" style="font-family:'Helvetica'; font-size:1.5473px;"> </text>
						<text transform="matrix(1 0 0 1 2.2817 127.0421)" style="font-family:'Helvetica'; font-size:1.5473px;"> </text>
						<text transform="matrix(1 0 0 1 1.8516 127.0421)" style="font-family:'Helvetica'; font-size:1.5473px;"> </text>
						<text transform="matrix(1 0 0 1 0.9912 127.0421)" style="font-family:'Helvetica'; font-size:1.5473px;">d</text>
						<text transform="matrix(1 0 0 1 0.1309 127.0421)" style="font-family:'Helvetica'; font-size:1.5473px;">d</text>
						<text transform="matrix(1 0 0 1 -0.729 127.0421)" style="font-family:'Helvetica'; font-size:1.5473px;">n</text>
						<text transform="matrix(1 0 0 1 -1.0723 127.0421)" style="font-family:'Helvetica'; font-size:1.5473px;">i</text>
						<text transform="matrix(1 0 0 1 -1.5029 127.0421)" style="font-family:'Helvetica'; font-size:1.5473px;">.</text>
						<text transform="matrix(1 0 0 1 -2.3633 127.0421)" style="font-family:'Helvetica'; font-size:1.5473px;">9</text>
						<text transform="matrix(1 0 0 1 -3.2236 127.0421)" style="font-family:'Helvetica'; font-size:1.5473px;">1</text>
						<text transform="matrix(1 0 0 1 -4.0835 127.0421)" style="font-family:'Helvetica'; font-size:1.5473px;">0</text>
						<text transform="matrix(1 0 0 1 -4.9438 127.0421)" style="font-family:'Helvetica'; font-size:1.5473px;">2</text>
						<text transform="matrix(1 0 0 1 -5.8042 127.0421)" style="font-family:'Helvetica'; font-size:1.5473px;">_</text>
						<text transform="matrix(1 0 0 1 -6.6641 127.0421)" style="font-family:'Helvetica'; font-size:1.5473px;">5</text>
						<text transform="matrix(1 0 0 1 -7.5244 127.0421)" style="font-family:'Helvetica'; font-size:1.5473px;">0</text>
						<text transform="matrix(1 0 0 1 -7.9551 127.0421)" style="font-family:'Helvetica'; font-size:1.5473px;"> </text>
						<text transform="matrix(1 0 0 1 -8.7285 127.0421)" style="font-family:'Helvetica'; font-size:1.5473px;">s</text>
						<text transform="matrix(1 0 0 1 -9.5889 127.0421)" style="font-family:'Helvetica'; font-size:1.5473px;">a</text>
						<text transform="matrix(1 0 0 1 -9.5889 127.0421)" style="font-family:'Helvetica'; font-size:1.5473px;">́</text>
						<text transform="matrix(1 0 0 1 -9.9321 127.0421)" style="font-family:'Helvetica'; font-size:1.5473px;">i</text>
						<text transform="matrix(1 0 0 1 -10.4473 127.0421)" style="font-family:'Helvetica'; font-size:1.5473px;">r</text>
						<text transform="matrix(1 0 0 1 -11.3076 127.0421)" style="font-family:'Helvetica'; font-size:1.5473px;">e</text>
						<text transform="matrix(1 0 0 1 -11.7378 127.0421)" style="font-family:'Helvetica'; font-size:1.5473px;">t</text>
						<text transform="matrix(1 0 0 1 -12.5981 127.0421)" style="font-family:'Helvetica'; font-size:1.5473px;">o</text>
						<text transform="matrix(1 0 0 1 -13.459 127.0421)" style="font-family:'Helvetica'; font-size:1.5473px;">L</text>
						<text transform="matrix(1 0 0 1 -13.8887 127.0421)" style="font-family:'Helvetica'; font-size:1.5473px;"> </text>
						<text transform="matrix(1 0 0 1 -14.6621 127.0421)" style="font-family:'Helvetica'; font-size:1.5473px;">s</text>
						<text transform="matrix(1 0 0 1 -15.5225 127.0421)" style="font-family:'Helvetica'; font-size:1.5473px;">o</text>
						<text transform="matrix(1 0 0 1 -16.3828 127.0421)" style="font-family:'Helvetica'; font-size:1.5473px;">p</text>
						<text transform="matrix(1 0 0 1 -16.7266 127.0421)" style="font-family:'Helvetica'; font-size:1.5473px;">i</text>
						<text transform="matrix(1 0 0 1 -17.1562 127.0421)" style="font-family:'Helvetica'; font-size:1.5473px;">t</text>
						<text transform="matrix(1 0 0 1 -18.0166 127.0421)" style="font-family:'Helvetica'; font-size:1.5473px;">o</text>
						<text transform="matrix(1 0 0 1 -18.877 127.0421)" style="font-family:'Helvetica'; font-size:1.5473px;">g</text>
						<text transform="matrix(1 0 0 1 -19.7373 127.0421)" style="font-family:'Helvetica'; font-size:1.5473px;">o</text>
						<text transform="matrix(1 0 0 1 -20.5977 127.0421)" style="font-family:'Helvetica'; font-size:1.5473px;">L</text>
						<text transform="matrix(1 0 0 1 -21.0278 127.0421)" style="font-family:'Helvetica'; font-size:1.5473px;"> </text>
						<text transform="matrix(1 0 0 1 -21.8882 127.0421)" style="font-family:'Helvetica'; font-size:1.5473px;">a</text>
						<text transform="matrix(1 0 0 1 -22.6616 127.0421)" style="font-family:'Helvetica'; font-size:1.5473px;">v</text>
						<text transform="matrix(1 0 0 1 -23.0049 127.0421)" style="font-family:'Helvetica'; font-size:1.5473px;">i</text>
						<text transform="matrix(1 0 0 1 -23.4355 127.0421)" style="font-family:'Helvetica'; font-size:1.5473px;">t</text>
						<text transform="matrix(1 0 0 1 -24.2959 127.0421)" style="font-family:'Helvetica'; font-size:1.5473px;">a</text>
						<text transform="matrix(1 0 0 1 -24.8105 127.0421)" style="font-family:'Helvetica'; font-size:1.5473px;">r</text>
						<text transform="matrix(1 0 0 1 -25.6709 127.0421)" style="font-family:'Helvetica'; font-size:1.5473px;">o</text>
						<text transform="matrix(1 0 0 1 -26.5312 127.0421)" style="font-family:'Helvetica'; font-size:1.5473px;">p</text>
						<text transform="matrix(1 0 0 1 -27.0469 127.0421)" style="font-family:'Helvetica'; font-size:1.5473px;">r</text>
						<text transform="matrix(1 0 0 1 -27.9072 127.0421)" style="font-family:'Helvetica'; font-size:1.5473px;">o</text>
						<text transform="matrix(1 0 0 1 -29.0244 127.0421)" style="font-family:'Helvetica'; font-size:1.5473px;">C</text>
						<text transform="matrix(1 0 0 1 -29.4541 127.0421)" style="font-family:'Helvetica'; font-size:1.5473px;"> </text>
						<text transform="matrix(1 0 0 1 -30.3145 127.0421)" style="font-family:'Helvetica'; font-size:1.5473px;">d</text>
						<text transform="matrix(1 0 0 1 -31.1748 127.0421)" style="font-family:'Helvetica'; font-size:1.5473px;">a</text>
						<text transform="matrix(1 0 0 1 -32.0352 127.0421)" style="font-family:'Helvetica'; font-size:1.5473px;">d</text>
						<text transform="matrix(1 0 0 1 -32.3789 127.0421)" style="font-family:'Helvetica'; font-size:1.5473px;">i</text>
						<text transform="matrix(1 0 0 1 -32.8086 127.0421)" style="font-family:'Helvetica'; font-size:1.5473px;">t</text>
						<text transform="matrix(1 0 0 1 -33.6689 127.0421)" style="font-family:'Helvetica'; font-size:1.5473px;">n</text>
						<text transform="matrix(1 0 0 1 -34.5293 127.0421)" style="font-family:'Helvetica'; font-size:1.5473px;">e</text>
						<text transform="matrix(1 0 0 1 -35.3896 127.0421)" style="font-family:'Helvetica'; font-size:1.5473px;">d</text>
						<text transform="matrix(1 0 0 1 -35.8193 127.0421)" style="font-family:'Helvetica'; font-size:1.5473px;">I</text>
						<text transform="matrix(1 0 0 1 -36.25 127.0421)" style="font-family:'Helvetica'; font-size:1.5473px;"> </text>
						<text transform="matrix(1 0 0 1 -36.5933 127.0421)" style="font-family:'Helvetica'; font-size:1.5473px;">l</text>
						<text transform="matrix(1 0 0 1 -37.4541 127.0421)" style="font-family:'Helvetica'; font-size:1.5473px;">a</text>
						<text transform="matrix(1 0 0 1 -38.314 127.0421)" style="font-family:'Helvetica'; font-size:1.5473px;">u</text>
						<text transform="matrix(1 0 0 1 -39.1743 127.0421)" style="font-family:'Helvetica'; font-size:1.5473px;">n</text>
						<text transform="matrix(1 0 0 1 -40.0347 127.0421)" style="font-family:'Helvetica'; font-size:1.5473px;">a</text>
						<text transform="matrix(1 0 0 1 -41.3232 127.0421)" style="font-family:'Helvetica'; font-size:1.5473px;">M</text>
					</g>
					<g class="st6">
						<defs>
							<rect id="SVGID_13_" x="-51.4" y="-103.6" width="322.1" height="232.2"/>
						</defs>
						<clipPath id="SVGID_14_">
							<use xlink:href="#SVGID_13_"  style="overflow:visible;"/>
						</clipPath>
						<path class="st15" d="M251.9,126.3v0.8h0.1V126H252c0,0.1,0,0.1-0.1,0.2c0,0-0.1,0-0.2,0v0.1H251.9z"/>
						<path class="st15" d="M252.8,126.9c-0.1,0-0.1,0-0.2-0.1c0,0-0.1-0.1-0.1-0.2c0-0.1,0-0.1,0.1-0.2c0,0,0.1-0.1,0.2-0.1
							c0.1,0,0.1,0,0.2,0.1c0,0.1,0,0.1,0,0.2c0,0.1,0,0.1-0.1,0.2C252.9,126.9,252.9,126.9,252.8,126.9z M252.8,126
							c-0.2,0-0.3,0.1-0.3,0.3c0,0.1,0,0.2,0,0.3c0,0.2,0,0.3,0.1,0.4c0.1,0.1,0.2,0.1,0.3,0.1c0.1,0,0.2,0,0.3-0.1
							c0.1-0.1,0.1-0.2,0.1-0.3c0-0.1,0-0.2-0.1-0.3c-0.1-0.1-0.1-0.1-0.2-0.1c-0.1,0-0.1,0-0.1,0c0,0-0.1,0.1-0.1,0.1
							c0-0.1,0-0.2,0.1-0.3c0-0.1,0.1-0.1,0.2-0.1c0.1,0,0.1,0,0.1,0.1c0,0,0,0.1,0,0.1h0.1c0-0.1,0-0.1-0.1-0.2
							C253,126,252.9,126,252.8,126z"/>
						<polygon class="st15" points="253.2,127 253.3,127 253.7,125.9 253.6,125.9 						"/>
						<path class="st15" d="M253.7,126.8c0,0.1,0,0.2,0.1,0.2c0.1,0,0.1,0.1,0.2,0.1c0.1,0,0.2,0,0.3-0.1c0.1-0.1,0.1-0.2,0.1-0.3
							c0-0.1,0-0.2-0.1-0.2c-0.1-0.1-0.2-0.1-0.3-0.1c-0.1,0-0.1,0-0.1,0c0,0,0,0-0.1,0l0-0.3h0.5V126h-0.6l-0.1,0.6l0.1,0
							c0,0,0.1-0.1,0.1-0.1c0,0,0.1,0,0.1,0c0.1,0,0.1,0,0.2,0.1c0,0,0.1,0.1,0.1,0.2c0,0.1,0,0.1-0.1,0.2c0,0.1-0.1,0.1-0.2,0.1
							c0,0-0.1,0-0.1,0c-0.1,0-0.1-0.1-0.1-0.2H253.7z"/>
						<polygon class="st15" points="254.5,127 254.6,127 255,125.9 254.9,125.9 						"/>
						<path class="st15" d="M255.4,126.3v0.8h0.1V126h-0.1c0,0.1,0,0.1-0.1,0.2c0,0-0.1,0-0.2,0v0.1H255.4z"/>
						<path class="st15" d="M256.2,126.6c-0.1,0-0.1,0-0.2-0.1c0,0-0.1-0.1-0.1-0.2c0-0.1,0-0.1,0.1-0.2c0,0,0.1-0.1,0.2-0.1
							c0.1,0,0.1,0,0.2,0.1c0,0,0.1,0.1,0.1,0.2c0,0.1,0,0.2-0.1,0.2C256.3,126.5,256.3,126.6,256.2,126.6z M255.9,126.8
							c0,0.1,0,0.2,0.1,0.2c0.1,0.1,0.1,0.1,0.2,0.1c0.2,0,0.3-0.1,0.3-0.3c0-0.1,0.1-0.2,0.1-0.4c0-0.1,0-0.2,0-0.3
							c-0.1-0.1-0.2-0.2-0.3-0.2c-0.1,0-0.2,0-0.3,0.1c-0.1,0.1-0.1,0.2-0.1,0.3c0,0.1,0,0.2,0.1,0.3c0.1,0.1,0.1,0.1,0.2,0.1
							c0.1,0,0.1,0,0.1,0s0.1-0.1,0.1-0.1c0,0.2-0.1,0.3-0.1,0.3c0,0.1-0.1,0.1-0.2,0.1c0,0-0.1,0-0.1,0c-0.1,0-0.1-0.1-0.1-0.2
							H255.9z"/>
						<path class="st15" d="M258.4,126.3v0.8h0.1V126h-0.1c0,0.1,0,0.1-0.1,0.2c0,0-0.1,0-0.2,0v0.1H258.4z"/>
						<path class="st15" d="M259.1,126.5c-0.1,0-0.1,0.1-0.1,0.1c0,0,0,0.1,0,0.2c0,0.1,0,0.2,0.1,0.2c0.1,0.1,0.2,0.1,0.3,0.1
							c0.1,0,0.2,0,0.3-0.1c0.1-0.1,0.1-0.1,0.1-0.2c0-0.1,0-0.1-0.1-0.2c0,0-0.1-0.1-0.1-0.1c0,0,0.1,0,0.1-0.1
							c0,0,0.1-0.1,0.1-0.2c0-0.1,0-0.1-0.1-0.2c-0.1-0.1-0.1-0.1-0.2-0.1c-0.1,0-0.2,0-0.2,0.1c-0.1,0.1-0.1,0.1-0.1,0.2
							C258.9,126.3,258.9,126.4,259.1,126.5C259,126.4,259,126.4,259.1,126.5z M259.3,126.9c-0.1,0-0.1,0-0.2-0.1
							c0,0-0.1-0.1-0.1-0.1c0-0.1,0-0.1,0.1-0.2c0,0,0.1-0.1,0.2-0.1c0.1,0,0.1,0,0.2,0.1s0.1,0.1,0.1,0.2c0,0.1,0,0.1-0.1,0.2
							C259.4,126.9,259.3,126.9,259.3,126.9z M259.2,126.4c-0.1,0-0.1,0-0.1,0c0,0-0.1-0.1-0.1-0.1c0,0,0-0.1,0-0.1
							c0,0,0.1-0.1,0.1-0.1c0.1,0,0.1,0,0.1,0.1c0,0,0,0.1,0,0.1c0,0,0,0.1-0.1,0.1C259.4,126.4,259.3,126.4,259.2,126.4z"/>
						<path class="st15" d="M259.9,127h0.2v-0.2h-0.2V127z M259.9,126.4h0.2v-0.2h-0.2V126.4z"/>
						<path class="st15" d="M260.2,127h0.7v-0.1h-0.6c0-0.1,0-0.1,0.1-0.1c0,0,0.1-0.1,0.1-0.1l0.1-0.1c0.1-0.1,0.2-0.1,0.2-0.1
							c0.1-0.1,0.1-0.1,0.1-0.2c0-0.1,0-0.2-0.1-0.2c-0.1-0.1-0.1-0.1-0.3-0.1c-0.1,0-0.3,0.1-0.3,0.2c0,0.1-0.1,0.1-0.1,0.2h0.1
							c0-0.1,0-0.1,0-0.2c0-0.1,0.1-0.1,0.2-0.1c0.1,0,0.1,0,0.2,0.1c0,0,0.1,0.1,0.1,0.2c0,0.1,0,0.1-0.1,0.1c0,0-0.1,0.1-0.1,0.1
							l-0.1,0.1c-0.1,0.1-0.2,0.1-0.2,0.2C260.2,126.9,260.2,126.9,260.2,127z"/>
						<path class="st15" d="M261,126.8c0,0.1,0,0.2,0.1,0.2c0.1,0,0.1,0.1,0.2,0.1c0.1,0,0.2,0,0.3-0.1c0.1-0.1,0.1-0.2,0.1-0.3
							c0-0.1,0-0.2-0.1-0.2c-0.1-0.1-0.2-0.1-0.3-0.1c-0.1,0-0.1,0-0.1,0c0,0,0,0-0.1,0l0-0.3h0.5V126h-0.6l-0.1,0.6l0.1,0
							c0,0,0.1-0.1,0.1-0.1c0,0,0.1,0,0.1,0c0.1,0,0.1,0,0.2,0.1c0,0,0.1,0.1,0.1,0.2c0,0.1,0,0.1-0.1,0.2c0,0.1-0.1,0.1-0.2,0.1
							c0,0-0.1,0-0.1,0c-0.1,0-0.1-0.1-0.1-0.2H261z"/>
					</g>
					<g class="st6">
						<text transform="matrix(1 0 0 1 251.5117 127.0421)" style="font-family:'Helvetica'; font-size:1.5473px;">16/5/19   18:25</text>
					</g>
					<g class="st6">
						<defs>
							<rect id="SVGID_15_" x="-51.4" y="-103.6" width="322.1" height="232.2"/>
						</defs>
						<clipPath id="SVGID_16_">
							<use xlink:href="#SVGID_15_"  style="overflow:visible;"/>
						</clipPath>
						<path class="st16" d="M109.6,126.3v2.9 M109.6-101.2v-2.9 M109.6,126.3v3.9 M109.6-101.2v-3.9 M109.6,126.3v3.9 M109.6-101.2
							v-3.9"/>
						<path class="st17" d="M109.6,126.3v2.9 M109.6-101.2v-2.9 M109.6,126.3v3.9 M109.6-101.2v-3.9 M109.6,126.3v3.9 M109.6-101.2
							v-3.9"/>
					</g>
				</g>
			</g>
		</g>
	</g>
</g>
</svg>
