<?xml version="1.0" encoding="utf-8"?>
<!-- Generator: Adobe Illustrator 16.0.0, SVG Export Plug-In . SVG Version: 6.00 Build 0)  -->
<!DOCTYPE svg PUBLIC "-//W3C//DTD SVG 1.1//EN" "http://www.w3.org/Graphics/SVG/1.1/DTD/svg11.dtd">
<svg version="1.1" id="Capa_1" xmlns="http://www.w3.org/2000/svg" xmlns:xlink="http://www.w3.org/1999/xlink" x="0px" y="0px"
	 width="665.088px" height="302.959px" viewBox="591.953 0 665.088 302.959" enable-background="new 591.953 0 665.088 302.959"
	 xml:space="preserve">
<path fill="#B3233F" d="M774.201,118.343l-21.302-99.408l-21.302,99.408L667.692,75.74l-30.77,18.935l23.669-4.734l35.503,66.272
	h18.935h7.101l0,0l0,0l0,0h80.474l35.503-66.272l26.035,7.101l-26.035-18.935L774.201,118.343z M752.899,52.071l16.568,71.006
	l-35.503,21.302L752.899,52.071z M724.497,151.479h-21.302l-37.87-66.272h-2.366l4.733-2.367l63.905,42.604l-4.733,23.668
	L724.497,151.479z M840.474,85.207l-37.87,66.272h-68.639L840.474,85.207L840.474,85.207L840.474,85.207z"/>
<path fill="#B3233F" d="M752.899,18.935c4.733,0,7.101-2.367,7.101-4.734s-4.733-4.734-7.101-7.101
	c-4.733,0-7.101,2.367-7.101,4.734C743.432,14.201,748.166,18.935,752.899,18.935"/>
<path fill="#B3233F" d="M883.077,97.042c-4.734,0-7.101,2.367-7.101,4.734c0,2.367,4.733,4.733,7.101,7.101
	c4.733,0,7.101-2.367,7.101-4.734C890.178,99.408,887.811,97.042,883.077,97.042"/>
<path fill="#B3233F" d="M620.355,92.308c-4.734,0-7.102,2.367-7.102,4.734s4.734,4.734,7.102,7.101
	c2.366,2.367,4.733-2.367,4.733-4.734C627.455,94.675,625.089,92.308,620.355,92.308"/>
<path fill="#B3233F" d="M655.857,168.047h-35.502l0,0h-16.568v28.402h21.302v59.171c0,9.468-2.367,18.936-21.302,18.936
	c-4.734,0-7.101,0-11.834-2.367v26.035c7.1,0,11.834,2.367,21.301,2.367c44.971,0,49.705-23.669,49.705-47.338V196.45l0,0
	L655.857,168.047L655.857,168.047L655.857,168.047z"/>
<path fill="#B3233F" d="M757.633,165.681c-44.97,0-80.473,28.402-80.473,68.639c0,40.237,35.503,68.64,80.473,68.64
	c47.338,0,80.474-28.402,80.474-68.64C838.106,196.45,802.604,165.681,757.633,165.681 M757.633,274.557
	c-26.035,0-49.704-18.936-49.704-42.604c0-23.669,21.302-42.604,49.704-42.604s49.704,21.301,49.704,42.604
	C804.971,255.621,783.669,274.557,757.633,274.557"/>
<polygon fill="#B3233F" points="989.586,168.047 946.982,168.047 894.911,227.219 894.911,168.047 859.408,168.047 859.408,298.225 
	894.911,298.225 894.911,241.42 949.35,298.225 989.586,298.225 923.313,231.953 "/>
<polygon fill="#B3233F" points="1039.29,243.787 1103.195,246.154 1103.195,220.118 1039.29,220.118 1039.29,196.45 
	1107.929,196.45 1107.929,168.047 1008.521,168.047 1008.521,298.225 1110.296,300.592 1110.296,274.557 1039.29,274.557 "/>
<path fill="#B3233F" d="M1257.041,300.592l-35.503-49.704c16.568-7.101,28.403-21.302,28.403-40.237
	c0-26.035-21.303-42.603-52.071-42.603h-61.539l0,0v21.302l30.77,40.237h-33.136v71.006h33.136v-44.971h21.302l35.503,42.604
	L1257.041,300.592z M1214.438,215.385c0,7.101-4.733,14.201-9.467,16.568l-26.036-33.137h21.302
	C1207.337,196.45,1214.438,203.551,1214.438,215.385"/>
<g>
	<g>
		<g>
			<g>
				<g>
					<defs>
						<rect id="SVGID_1_" x="132.781" y="-714.793" width="1633.136" height="617.751"/>
					</defs>
					<clipPath id="SVGID_2_">
						<use xlink:href="#SVGID_1_"  overflow="visible"/>
					</clipPath>
					<g clip-path="url(#SVGID_2_)">
						<g>
							<g>
								<g>
									<defs>
										<rect id="SVGID_3_" x="116.213" y="-679.29" width="1540.828" height="549.112"/>
									</defs>
									<clipPath id="SVGID_4_">
										<use xlink:href="#SVGID_3_"  overflow="visible"/>
									</clipPath>
									<g clip-path="url(#SVGID_4_)">
										<g>
											<g>
												<g>
													<g>
														<defs>
															<rect id="SVGID_5_" x="-1100.355" y="-3088.758" width="7623.668" height="5495.858"/>
														</defs>
														<clipPath id="SVGID_6_">
															<use xlink:href="#SVGID_5_"  overflow="visible"/>
														</clipPath>
														
															<rect x="-662.485" y="-1869.822" clip-path="url(#SVGID_6_)" fill="none" stroke="#CC6506" stroke-width="0.1289" width="3112.427" height="3112.426"/>
													</g>
												</g>
												<g>
													<g>
														<g>
															<defs>
																<rect id="SVGID_7_" x="-1100.355" y="-3088.758" width="7623.668" height="5495.858"/>
															</defs>
															<clipPath id="SVGID_8_">
																<use xlink:href="#SVGID_7_"  overflow="visible"/>
															</clipPath>
															<g clip-path="url(#SVGID_8_)">
																<g>
																	<g>
																		<g>
																			<defs>
																				<rect id="SVGID_9_" x="-1100.355" y="-3088.758" width="7623.668" height="5495.858"/>
																			</defs>
																			<clipPath id="SVGID_10_">
																				<use xlink:href="#SVGID_9_"  overflow="visible"/>
																			</clipPath>
																			
																				<path clip-path="url(#SVGID_10_)" fill="none" stroke="#FFFFFF" stroke-width="0.3223" stroke-miterlimit="10" d="
																				M6343.432,2314.793v92.308 M6343.432-2996.45v-92.308 M-922.84,2314.793v92.308 M-922.84-2996.45v-92.308
																				 M6431.006,2229.586h92.308 M-1010.415,2229.586h-92.308 M6431.006-2908.876h92.308 M-1010.415-2908.876h-92.308
																				"/>
																		</g>
																	</g>
																	<g>
																		<g>
																			<g>
																				<defs>
																					<rect id="SVGID_11_" x="-1100.355" y="-3088.758" width="7623.668" height="5495.858"/>
																				</defs>
																				<clipPath id="SVGID_12_">
																					<use xlink:href="#SVGID_11_"  overflow="visible"/>
																				</clipPath>
																				
																					<path clip-path="url(#SVGID_12_)" fill="none" stroke="#000000" stroke-width="0.0645" stroke-miterlimit="10" d="
																					M6343.432,2314.793v92.308 M6343.432-2996.45v-92.308 M-922.84,2314.793v92.308 M-922.84-2996.45v-92.308
																					 M6431.006,2229.586h92.308 M-1010.415,2229.586h-92.308 M6431.006-2908.876h92.308 M-1010.415-2908.876
																					h-92.308"/>
																			</g>
																		</g>
																	</g>
																</g>
															</g>
														</g>
													</g>
												</g>
											</g>
										</g>
									</g>
								</g>
							</g>
						</g>
					</g>
				</g>
			</g>
		</g>
	</g>
</g>
</svg>
