<?xml version="1.0" encoding="utf-8"?>
<!-- Generator: Adobe Illustrator 16.0.0, SVG Export Plug-In . SVG Version: 6.00 Build 0)  -->
<!DOCTYPE svg PUBLIC "-//W3C//DTD SVG 1.1//EN" "http://www.w3.org/Graphics/SVG/1.1/DTD/svg11.dtd">
<svg version="1.1" id="Capa_1" xmlns="http://www.w3.org/2000/svg" xmlns:xlink="http://www.w3.org/1999/xlink" x="0px" y="0px"
	 width="112px" height="61px" viewBox="0 0 112 61" enable-background="new 0 0 112 61" xml:space="preserve">
<g>
	<g>
		<path fill="#3378B3" d="M69.851,27.699h-3.783v-1.994h1.788V1.994H44.212v23.711h1.65v1.994H42.15V0h27.7V27.699z"/>
		<g>
			<path fill="#3378B3" d="M33.339,48.125h-6.271v-9.602h2.617v7.234h3.649v2.367H33.339z"/>
			<path fill="#3378B3" d="M44.345,43.356c0,1.36-0.52,2.529-1.557,3.511c-1.027,0.963-2.279,1.449-3.747,1.449
				s-2.721-0.481-3.748-1.449c-1.027-0.973-1.542-2.146-1.542-3.511c0-1.371,0.517-2.539,1.542-3.512
				c1.026-0.973,2.279-1.459,3.748-1.459s2.721,0.486,3.747,1.459C43.825,40.808,44.345,41.981,44.345,43.356z M36.424,43.356
				c0,0.737,0.251,1.355,0.756,1.861c0.506,0.506,1.125,0.756,1.862,0.756c0.717,0,1.331-0.255,1.847-0.771
				c0.525-0.526,0.786-1.14,0.786-1.847c0-0.708-0.26-1.321-0.786-1.847c-0.506-0.525-1.12-0.786-1.847-0.786
				c-0.717,0-1.331,0.261-1.847,0.786C36.679,42.025,36.424,42.639,36.424,43.356z"/>
			<path fill="#3378B3" d="M49.826,48.125h-2.617v-7.234h-2.588v-2.367h7.74v2.367h-2.534L49.826,48.125L49.826,48.125z"/>
			<path fill="#3378B3" d="M60.41,48.125h-7.195v-9.602h7.083v2.358h-4.465v1.321h4.161v2.151h-4.161v1.459h4.573v2.313H60.41
				L60.41,48.125z"/>
			<path fill="#3378B3" d="M64.363,48.125h-2.617v-9.602h4.366c0.952,0,1.769,0.319,2.436,0.963
				c0.668,0.643,1.007,1.425,1.007,2.342c0,0.604-0.147,1.16-0.446,1.655c-0.3,0.497-0.698,0.859-1.194,1.09l2.397,3.556H67.31
				l-1.954-2.991h-0.029h-0.963V48.125L64.363,48.125z M64.363,40.891v2.151h1.459c0.349,0,0.624-0.099,0.825-0.294
				c0.201-0.197,0.305-0.477,0.305-0.835c0-0.305-0.089-0.55-0.261-0.737c-0.177-0.187-0.393-0.285-0.648-0.285H64.363
				L64.363,40.891z"/>
			<path fill="#3378B3" d="M73.783,48.125h-2.617v-9.602h2.617V48.125z M73.096,37.86h-1.871l0.673-1.999h2.617L73.096,37.86z"/>
			<path fill="#3378B3" d="M77.462,48.125h-2.755l3.914-9.602h2.396l3.915,9.602h-2.771l-0.496-1.252h-3.692L77.462,48.125z
				 M79.818,41.868l-1.158,2.976h2.313L79.818,41.868z"/>
		</g>
		<g>
			<path fill="#3378B3" d="M22.091,60.808h-2.51v-9.601h2.343l4.022,5.152v-5.152h2.509v9.601h-2.136l-4.229-5.358V60.808
				L22.091,60.808z"/>
			<path fill="#3378B3" d="M32.08,60.808h-2.755l3.914-9.601h2.397l3.915,9.601h-2.77l-0.497-1.252h-3.693L32.08,60.808z
				 M34.433,54.551l-1.159,2.976h2.312L34.433,54.551z"/>
			<path fill="#3378B3" d="M44.658,51.069c0.771,0,1.503,0.167,2.19,0.497c0.688,0.329,1.287,0.79,1.792,1.38l-1.778,1.488
				c-0.604-0.678-1.34-1.021-2.205-1.021c-0.736,0-1.355,0.245-1.862,0.742c-0.506,0.497-0.756,1.115-0.756,1.861
				c0,0.741,0.25,1.365,0.756,1.861c0.516,0.487,1.135,0.732,1.862,0.732c0.865,0,1.596-0.339,2.205-1.021l1.778,1.487
				c-0.506,0.59-1.1,1.047-1.792,1.375c-0.692,0.329-1.419,0.496-2.19,0.496c-1.459,0-2.701-0.466-3.718-1.404
				c-1.011-0.938-1.518-2.112-1.518-3.526s0.507-2.588,1.518-3.526C41.946,51.54,43.189,51.069,44.658,51.069z"/>
			<path fill="#3378B3" d="M52.275,60.808h-2.618v-9.601h2.618V60.808z"/>
			<path fill="#3378B3" d="M64.12,56.039c0,1.36-0.52,2.529-1.557,3.511C61.537,60.514,60.285,61,58.817,61
				c-1.469,0-2.722-0.481-3.748-1.449c-1.026-0.972-1.542-2.146-1.542-3.511c0-1.371,0.516-2.539,1.542-3.511
				c1.026-0.973,2.279-1.459,3.748-1.459c1.468,0,2.72,0.486,3.746,1.459C63.604,53.49,64.12,54.664,64.12,56.039z M56.2,56.039
				c0,0.737,0.249,1.355,0.756,1.861c0.506,0.506,1.125,0.757,1.862,0.757c0.717,0,1.33-0.255,1.846-0.771
				c0.525-0.525,0.786-1.14,0.786-1.847c0-0.708-0.261-1.321-0.786-1.847c-0.505-0.525-1.119-0.786-1.846-0.786
				c-0.719,0-1.333,0.26-1.848,0.786C56.459,54.708,56.2,55.322,56.2,56.039z"/>
			<path fill="#3378B3" d="M67.829,60.808h-2.51v-9.601h2.343l4.021,5.152v-5.152h2.51v9.601h-2.137l-4.228-5.358V60.808
				L67.829,60.808z"/>
			<path fill="#3378B3" d="M77.813,60.808h-2.755l3.913-9.601h2.398l3.913,9.601h-2.77l-0.496-1.252h-3.693L77.813,60.808z
				 M80.171,54.551l-1.159,2.976h2.312L80.171,54.551z"/>
			<path fill="#3378B3" d="M92.419,60.808h-6.267v-9.601h2.618v7.234h3.648V60.808z"/>
		</g>
	</g>
	<g>
		<path fill="#3378B3" d="M52.138,11.664c0,0-4.125,2.25-4.125,6.753c0,3.826,2.701,5.854,2.701,5.854h0.825
			c0,0-1.503-2.176-1.503-5.628C50.042,14.739,52.138,11.664,52.138,11.664z"/>
		<path fill="#3378B3" d="M52.89,24.271c0,0-1.65-2.249-1.65-5.854c0-4.43,2.553-6.753,2.553-6.753h0.374
			c0,0-0.751,2.701-0.751,6.753s0.525,5.854,0.525,5.854H52.89z"/>
		<path fill="#3378B3" d="M56.116,11.664h-0.372H55.37c0,0-0.751,3.08-0.751,6.753c0,2.102,0.525,5.854,0.525,5.854h0.6h0.599
			c0,0,0.525-3.752,0.525-5.854C56.869,14.739,56.116,11.664,56.116,11.664z"/>
		<path fill="#3378B3" d="M59.349,11.664c0,0,4.126,2.25,4.126,6.753c0,3.826-2.702,5.854-2.702,5.854h-0.825
			c0,0,1.502-2.176,1.502-5.628C61.445,14.739,59.349,11.664,59.349,11.664z"/>
		<path fill="#3378B3" d="M58.597,24.271c0,0,1.65-2.249,1.65-5.854c0-4.43-2.554-6.753-2.554-6.753H57.32
			c0,0,0.752,2.701,0.752,6.753s-0.526,5.854-0.526,5.854H58.597z"/>
		<path fill="#3378B3" d="M55.743,10.388L55.743,10.388c-0.024,0-0.049,0-0.073,0c-0.025,0-0.049,0-0.074,0l0,0
			c-1.228,0.019-1.95,0.525-1.95,0.525h1.95h0.151h1.951C57.693,10.913,56.971,10.407,55.743,10.388z"/>
		<path fill="#3378B3" d="M60.021,25.096H55.94h-0.314h-4.081c0,0,1.252,0.933,3.413,1.135v1.493h1.65v-1.493
			C58.77,26.029,60.021,25.096,60.021,25.096z"/>
	</g>
</g>
<g>
	<g>
		<path fill="#043F65" d="M216.607-25.797c-4.953,0-8.97,4.016-8.97,8.97c0,4.953,4.017,8.97,8.97,8.97
			c4.954,0,8.971-4.017,8.971-8.97C225.578-21.781,221.562-25.797,216.607-25.797z M217.483-23.889c2.39,0,4.322,1.934,4.322,4.324
			s-1.934,4.324-4.322,4.324c-2.391,0-4.324-1.935-4.324-4.324S215.093-23.889,217.483-23.889z M216.669-9.848
			c-3.889,0-7.163-3.428-7.163-7.184c0-2.344,1.396-4.437,3.393-5.675c-0.23,0.322-0.466,0.691-0.548,0.845
			c-0.322,0.608-0.609,1.514-0.609,2.839c0,2.937,2.518,6.13,5.803,6.13c2.574,0,5.312-1.996,6.151-4.359
			c0.01,0.205,0.015,0.409,0.015,0.624C223.71-12.851,220.559-9.848,216.669-9.848z"/>
		<g>
			<g>
				<path fill="#043F65" d="M231.042-7.116h-3.938v-2.077h1.862v-24.709h-24.634v24.705h1.72v2.077h-3.868V-35.98h28.858V-7.116z"/>
			</g>
		</g>
	</g>
	<g>
		<path fill="#043F65" d="M167.92,14.228h-7.491V4.224h7.379V6.68h-4.651v1.376h4.334v2.242h-4.334v1.52h4.764V14.228z"/>
		<path fill="#043F65" d="M169.199,9.924v-5.7h2.727v5.408c0,0.804,0.148,1.382,0.445,1.735c0.297,0.354,0.738,0.533,1.32,0.533
			c0.584,0,1.023-0.179,1.32-0.533c0.297-0.353,0.445-0.931,0.445-1.735V4.224h2.728v5.7c0,1.443-0.425,2.548-1.279,3.316
			c-0.845,0.757-1.914,1.136-3.214,1.136c-1.299,0-2.374-0.378-3.213-1.136C169.623,12.473,169.199,11.367,169.199,9.924z"/>
		<path fill="#043F65" d="M182.432,14.228h-2.728V4.224h4.55c0.992,0,1.842,0.332,2.537,1.003c0.696,0.67,1.05,1.484,1.05,2.441
			c0,0.629-0.153,1.208-0.466,1.724s-0.727,0.896-1.244,1.136l2.498,3.705h-3.127l-2.036-3.117h-0.031h-1.003V14.228L182.432,14.228
			z M182.432,6.69v2.241h1.52c0.363,0,0.65-0.103,0.859-0.307c0.211-0.205,0.318-0.497,0.318-0.87c0-0.317-0.093-0.573-0.271-0.768
			c-0.185-0.194-0.41-0.296-0.676-0.296H182.432z"/>
		<path fill="#043F65" d="M199.83,9.264c0,1.417-0.543,2.636-1.623,3.659c-1.068,1.003-2.374,1.509-3.904,1.509
			c-1.529,0-2.834-0.501-3.904-1.509c-1.068-1.014-1.606-2.236-1.606-3.659c0-1.428,0.537-2.646,1.606-3.659
			c1.07-1.012,2.375-1.519,3.904-1.519c1.53,0,2.836,0.507,3.904,1.519C199.287,6.609,199.83,7.826,199.83,9.264z M191.575,9.264
			c0,0.768,0.262,1.412,0.788,1.939c0.527,0.527,1.172,0.788,1.939,0.788c0.748,0,1.387-0.267,1.924-0.803
			c0.548-0.548,0.818-1.188,0.818-1.924s-0.271-1.376-0.818-1.924c-0.526-0.547-1.166-0.818-1.924-0.818
			c-0.746,0-1.387,0.271-1.924,0.818C191.842,7.873,191.575,8.517,191.575,9.264z"/>
		<path fill="#043F65" d="M203.6,14.228h-2.527V4.224h2.241l3.245,4.549l3.244-4.549h2.241v10.003h-2.528V8.932l-2.957,4.088
			L203.6,8.932V14.228L203.6,14.228z"/>
		<path fill="#043F65" d="M216.465,14.228h-2.728V4.224h2.728V14.228z"/>
		<path fill="#043F65" d="M224.688,14.228h-6.529V4.224h2.728v7.538h3.802V14.228z"/>
		<path fill="#043F65" d="M232.321,14.228h-6.528V4.224h2.727v7.538h3.802V14.228L232.321,14.228z"/>
		<path fill="#043F65" d="M243.789,9.264c0,1.417-0.542,2.636-1.621,3.659c-1.071,1.003-2.375,1.509-3.905,1.509
			c-1.529,0-2.835-0.501-3.904-1.509c-1.069-1.014-1.606-2.236-1.606-3.659c0-1.428,0.537-2.646,1.606-3.659
			c1.069-1.012,2.375-1.519,3.904-1.519c1.53,0,2.834,0.507,3.905,1.519C243.252,6.609,243.789,7.826,243.789,9.264z M235.535,9.264
			c0,0.768,0.262,1.412,0.788,1.939c0.527,0.527,1.172,0.788,1.939,0.788c0.747,0,1.387-0.267,1.924-0.803
			c0.548-0.548,0.818-1.188,0.818-1.924s-0.271-1.376-0.818-1.924c-0.527-0.547-1.166-0.818-1.924-0.818
			c-0.746,0-1.386,0.271-1.924,0.818C235.808,7.873,235.535,8.517,235.535,9.264z"/>
		<path fill="#043F65" d="M247.652,14.228h-2.615V4.224h2.44l4.191,5.368V4.224h2.615v10.003h-2.227l-4.405-5.583V14.228
			L247.652,14.228z"/>
		<path fill="#043F65" d="M263.412,14.228h-7.491V4.224h7.38V6.68h-4.651v1.376h4.334v2.242h-4.334v1.52h4.763V14.228
			L263.412,14.228z"/>
		<path fill="#043F65" d="M264.011,12.248l1.925-1.479c0.266,0.374,0.625,0.67,1.063,0.896c0.44,0.226,0.922,0.338,1.438,0.338
			c0.891,0,1.336-0.241,1.336-0.717c0-0.255-0.185-0.465-0.559-0.619c-0.219-0.087-0.414-0.153-0.588-0.199
			c-0.706-0.21-1.233-0.379-1.581-0.501c-1.54-0.573-2.312-1.535-2.312-2.886c0-0.947,0.347-1.685,1.049-2.211
			c0.695-0.527,1.545-0.788,2.537-0.788c1.648,0,2.882,0.532,3.705,1.592l-1.796,1.535c-0.44-0.526-1.043-0.788-1.806-0.788
			c-0.344,0-0.615,0.056-0.804,0.174c-0.19,0.113-0.286,0.261-0.286,0.445c0,0.266,0.133,0.46,0.403,0.573
			c0.153,0.066,0.323,0.123,0.502,0.173c0.476,0.098,1.063,0.271,1.765,0.533c0.85,0.307,1.469,0.69,1.853,1.157
			c0.384,0.465,0.573,1.039,0.573,1.729c0,0.998-0.338,1.77-1.018,2.333c-0.681,0.558-1.669,0.839-2.974,0.839
			c-1.121,0-2.041-0.205-2.769-0.62C264.958,13.342,264.405,12.841,264.011,12.248z"/>
	</g>
</g>
</svg>
