<?xml version="1.0" encoding="utf-8"?>
<!-- Generator: Adobe Illustrator 16.0.0, SVG Export Plug-In . SVG Version: 6.00 Build 0)  -->
<!DOCTYPE svg PUBLIC "-//W3C//DTD SVG 1.1//EN" "http://www.w3.org/Graphics/SVG/1.1/DTD/svg11.dtd">
<svg version="1.1" id="Capa_1" xmlns="http://www.w3.org/2000/svg" xmlns:xlink="http://www.w3.org/1999/xlink" x="0px" y="0px"
	 width="112px" height="51px" viewBox="0 0 112 51" enable-background="new 0 0 112 51" xml:space="preserve">
<g>
	<g>
		<path fill="#3378B3" d="M230.463,51.97h-3.783v-1.994h1.788V26.265h-23.644v23.711h1.65v1.994h-3.712V24.271h27.7V51.97z"/>
		<g>
			<path fill="#3378B3" d="M193.951,72.396h-6.271v-9.602h2.617v7.234h3.649v2.367H193.951z"/>
			<path fill="#3378B3" d="M204.957,67.627c0,1.36-0.52,2.529-1.557,3.511c-1.026,0.963-2.278,1.449-3.746,1.449
				c-1.469,0-2.722-0.481-3.748-1.449c-1.027-0.973-1.543-2.146-1.543-3.511c0-1.371,0.518-2.539,1.543-3.512
				c1.026-0.973,2.279-1.459,3.748-1.459c1.468,0,2.721,0.486,3.746,1.459C204.438,65.079,204.957,66.252,204.957,67.627z
				 M197.036,67.627c0,0.737,0.251,1.355,0.756,1.861c0.506,0.506,1.124,0.756,1.862,0.756c0.717,0,1.33-0.255,1.846-0.771
				c0.525-0.526,0.786-1.14,0.786-1.847c0-0.708-0.261-1.321-0.786-1.847c-0.506-0.525-1.119-0.786-1.846-0.786
				c-0.717,0-1.332,0.261-1.848,0.786C197.291,66.296,197.036,66.91,197.036,67.627z"/>
			<path fill="#3378B3" d="M210.438,72.396h-2.616v-7.234h-2.588v-2.367h7.739v2.367h-2.533v7.234H210.438z"/>
			<path fill="#3378B3" d="M221.022,72.396h-7.194v-9.602h7.082v2.358h-4.465v1.321h4.16v2.151h-4.16v1.459h4.572v2.313H221.022
				L221.022,72.396z"/>
			<path fill="#3378B3" d="M224.976,72.396h-2.617v-9.602h4.366c0.952,0,1.769,0.319,2.436,0.963
				c0.668,0.643,1.007,1.425,1.007,2.342c0,0.604-0.147,1.16-0.446,1.655c-0.3,0.497-0.698,0.859-1.194,1.09l2.397,3.556h-3.002
				l-1.954-2.991h-0.029h-0.963V72.396L224.976,72.396z M224.976,65.162v2.151h1.459c0.349,0,0.624-0.099,0.825-0.294
				c0.201-0.197,0.305-0.477,0.305-0.835c0-0.305-0.089-0.55-0.261-0.737c-0.177-0.187-0.393-0.285-0.648-0.285H224.976
				L224.976,65.162z"/>
			<path fill="#3378B3" d="M234.396,72.396h-2.617v-9.602h2.617V72.396z M233.708,62.131h-1.871l0.673-1.999h2.617L233.708,62.131z"
				/>
			<path fill="#3378B3" d="M238.074,72.396h-2.755l3.914-9.602h2.396l3.915,9.602h-2.771l-0.496-1.252h-3.692L238.074,72.396z
				 M240.431,66.139l-1.158,2.976h2.313L240.431,66.139z"/>
		</g>
		<g>
			<path fill="#3378B3" d="M182.703,85.079h-2.51v-9.601h2.343l4.022,5.152v-5.152h2.51v9.601h-2.137l-4.229-5.358V85.079
				L182.703,85.079z"/>
			<path fill="#3378B3" d="M192.692,85.079h-2.755l3.914-9.601h2.396l3.914,9.601h-2.77l-0.496-1.252h-3.693L192.692,85.079z
				 M195.045,78.822l-1.158,2.976h2.312L195.045,78.822z"/>
			<path fill="#3378B3" d="M205.27,75.34c0.771,0,1.504,0.167,2.191,0.497c0.688,0.329,1.286,0.79,1.792,1.38l-1.778,1.488
				c-0.604-0.678-1.34-1.021-2.205-1.021c-0.736,0-1.354,0.245-1.861,0.742c-0.506,0.497-0.756,1.115-0.756,1.861
				c0,0.741,0.25,1.365,0.756,1.861c0.516,0.487,1.135,0.732,1.861,0.732c0.865,0,1.596-0.339,2.205-1.021l1.778,1.487
				c-0.506,0.59-1.1,1.047-1.792,1.375c-0.692,0.329-1.42,0.496-2.191,0.496c-1.459,0-2.7-0.466-3.717-1.404
				c-1.012-0.938-1.519-2.112-1.519-3.526s0.507-2.588,1.519-3.526C202.559,75.811,203.802,75.34,205.27,75.34z"/>
			<path fill="#3378B3" d="M212.888,85.079h-2.618v-9.601h2.618V85.079z"/>
			<path fill="#3378B3" d="M224.732,80.31c0,1.36-0.52,2.529-1.557,3.511c-1.026,0.963-2.278,1.449-3.746,1.449
				c-1.469,0-2.723-0.481-3.748-1.449c-1.026-0.972-1.542-2.146-1.542-3.511c0-1.371,0.516-2.539,1.542-3.511
				c1.025-0.973,2.279-1.459,3.748-1.459c1.468,0,2.72,0.486,3.746,1.459C224.217,77.761,224.732,78.935,224.732,80.31z
				 M216.812,80.31c0,0.737,0.248,1.355,0.756,1.861c0.506,0.506,1.124,0.757,1.861,0.757c0.717,0,1.33-0.255,1.846-0.771
				c0.525-0.525,0.786-1.14,0.786-1.847c0-0.708-0.261-1.321-0.786-1.847c-0.505-0.525-1.119-0.786-1.846-0.786
				c-0.719,0-1.333,0.26-1.848,0.786C217.072,78.979,216.812,79.593,216.812,80.31z"/>
			<path fill="#3378B3" d="M228.441,85.079h-2.51v-9.601h2.343l4.021,5.152v-5.152h2.51v9.601h-2.137l-4.228-5.358V85.079
				L228.441,85.079z"/>
			<path fill="#3378B3" d="M238.426,85.079h-2.755l3.913-9.601h2.398l3.913,9.601h-2.77l-0.496-1.252h-3.693L238.426,85.079z
				 M240.783,78.822l-1.159,2.976h2.312L240.783,78.822z"/>
			<path fill="#3378B3" d="M253.031,85.079h-6.267v-9.601h2.618v7.234h3.648V85.079z"/>
		</g>
	</g>
	<g>
		<path fill="#3378B3" d="M212.75,35.935c0,0-4.125,2.25-4.125,6.753c0,3.826,2.701,5.854,2.701,5.854h0.826
			c0,0-1.504-2.176-1.504-5.628C210.654,39.01,212.75,35.935,212.75,35.935z"/>
		<path fill="#3378B3" d="M213.502,48.542c0,0-1.649-2.249-1.649-5.854c0-4.43,2.553-6.753,2.553-6.753h0.374
			c0,0-0.752,2.701-0.752,6.753s0.525,5.854,0.525,5.854H213.502z"/>
		<path fill="#3378B3" d="M216.729,35.935h-0.372h-0.374c0,0-0.752,3.08-0.752,6.753c0,2.102,0.525,5.854,0.525,5.854h0.601h0.599
			c0,0,0.525-3.752,0.525-5.854C217.48,39.01,216.729,35.935,216.729,35.935z"/>
		<path fill="#3378B3" d="M219.961,35.935c0,0,4.126,2.25,4.126,6.753c0,3.826-2.702,5.854-2.702,5.854h-0.825
			c0,0,1.502-2.176,1.502-5.628C222.058,39.01,219.961,35.935,219.961,35.935z"/>
		<path fill="#3378B3" d="M219.209,48.542c0,0,1.65-2.249,1.65-5.854c0-4.43-2.554-6.753-2.554-6.753h-0.373
			c0,0,0.752,2.701,0.752,6.753s-0.526,5.854-0.526,5.854H219.209z"/>
		<path fill="#3378B3" d="M216.355,34.659L216.355,34.659c-0.024,0-0.049,0-0.073,0s-0.049,0-0.073,0l0,0
			c-1.229,0.019-1.951,0.525-1.951,0.525h1.951h0.15h1.951C218.306,35.184,217.583,34.678,216.355,34.659z"/>
		<path fill="#3378B3" d="M220.633,49.367h-4.08h-0.314h-4.082c0,0,1.253,0.933,3.414,1.135v1.493h1.649v-1.493
			C219.382,50.3,220.633,49.367,220.633,49.367z"/>
	</g>
</g>
<g>
	<g>
		<path fill="#043F65" d="M216.607-25.797c-4.953,0-8.97,4.016-8.97,8.97c0,4.953,4.017,8.97,8.97,8.97
			c4.954,0,8.971-4.017,8.971-8.97C225.578-21.781,221.562-25.797,216.607-25.797z M217.483-23.889c2.39,0,4.322,1.934,4.322,4.324
			s-1.934,4.324-4.322,4.324c-2.391,0-4.324-1.935-4.324-4.324S215.093-23.889,217.483-23.889z M216.669-9.848
			c-3.889,0-7.163-3.428-7.163-7.184c0-2.344,1.396-4.437,3.393-5.675c-0.23,0.322-0.466,0.691-0.548,0.845
			c-0.322,0.608-0.609,1.514-0.609,2.839c0,2.937,2.518,6.13,5.803,6.13c2.574,0,5.312-1.996,6.151-4.359
			c0.01,0.205,0.015,0.409,0.015,0.624C223.71-12.851,220.559-9.848,216.669-9.848z"/>
		<g>
			<g>
				<path fill="#043F65" d="M231.042-7.116h-3.938v-2.077h1.862v-24.709h-24.634v24.705h1.72v2.077h-3.868V-35.98h28.858V-7.116z"/>
			</g>
		</g>
	</g>
	<g>
		<path fill="#043F65" d="M167.92,14.228h-7.491V4.224h7.379V6.68h-4.651v1.376h4.334v2.242h-4.334v1.52h4.764V14.228z"/>
		<path fill="#043F65" d="M169.199,9.924v-5.7h2.727v5.408c0,0.804,0.148,1.382,0.445,1.735c0.297,0.354,0.738,0.533,1.32,0.533
			c0.584,0,1.023-0.179,1.32-0.533c0.297-0.353,0.445-0.931,0.445-1.735V4.224h2.728v5.7c0,1.443-0.425,2.548-1.279,3.316
			c-0.845,0.757-1.914,1.136-3.214,1.136c-1.299,0-2.374-0.378-3.213-1.136C169.623,12.473,169.199,11.367,169.199,9.924z"/>
		<path fill="#043F65" d="M182.432,14.228h-2.728V4.224h4.55c0.992,0,1.842,0.332,2.537,1.003c0.696,0.67,1.05,1.484,1.05,2.441
			c0,0.629-0.153,1.208-0.466,1.724s-0.727,0.896-1.244,1.136l2.498,3.705h-3.127l-2.036-3.117h-0.031h-1.003V14.228L182.432,14.228
			z M182.432,6.69v2.241h1.52c0.363,0,0.65-0.103,0.859-0.307c0.211-0.205,0.318-0.497,0.318-0.87c0-0.317-0.093-0.573-0.271-0.768
			c-0.185-0.194-0.41-0.296-0.676-0.296H182.432z"/>
		<path fill="#043F65" d="M199.83,9.264c0,1.417-0.543,2.636-1.623,3.659c-1.068,1.003-2.374,1.509-3.904,1.509
			c-1.529,0-2.834-0.501-3.904-1.509c-1.068-1.014-1.606-2.236-1.606-3.659c0-1.428,0.537-2.646,1.606-3.659
			c1.07-1.012,2.375-1.519,3.904-1.519c1.53,0,2.836,0.507,3.904,1.519C199.287,6.609,199.83,7.826,199.83,9.264z M191.575,9.264
			c0,0.768,0.262,1.412,0.788,1.939c0.527,0.527,1.172,0.788,1.939,0.788c0.748,0,1.387-0.267,1.924-0.803
			c0.548-0.548,0.818-1.188,0.818-1.924s-0.271-1.376-0.818-1.924c-0.526-0.547-1.166-0.818-1.924-0.818
			c-0.746,0-1.387,0.271-1.924,0.818C191.842,7.873,191.575,8.517,191.575,9.264z"/>
		<path fill="#043F65" d="M203.6,14.228h-2.527V4.224h2.241l3.245,4.549l3.244-4.549h2.241v10.003h-2.528V8.932l-2.957,4.088
			L203.6,8.932V14.228L203.6,14.228z"/>
		<path fill="#043F65" d="M216.465,14.228h-2.728V4.224h2.728V14.228z"/>
		<path fill="#043F65" d="M224.688,14.228h-6.529V4.224h2.728v7.538h3.802V14.228z"/>
		<path fill="#043F65" d="M232.321,14.228h-6.528V4.224h2.727v7.538h3.802V14.228L232.321,14.228z"/>
		<path fill="#043F65" d="M243.789,9.264c0,1.417-0.542,2.636-1.621,3.659c-1.071,1.003-2.375,1.509-3.905,1.509
			c-1.529,0-2.835-0.501-3.904-1.509c-1.069-1.014-1.606-2.236-1.606-3.659c0-1.428,0.537-2.646,1.606-3.659
			c1.069-1.012,2.375-1.519,3.904-1.519c1.53,0,2.834,0.507,3.905,1.519C243.252,6.609,243.789,7.826,243.789,9.264z M235.535,9.264
			c0,0.768,0.262,1.412,0.788,1.939c0.527,0.527,1.172,0.788,1.939,0.788c0.747,0,1.387-0.267,1.924-0.803
			c0.548-0.548,0.818-1.188,0.818-1.924s-0.271-1.376-0.818-1.924c-0.527-0.547-1.166-0.818-1.924-0.818
			c-0.746,0-1.386,0.271-1.924,0.818C235.808,7.873,235.535,8.517,235.535,9.264z"/>
		<path fill="#043F65" d="M247.652,14.228h-2.615V4.224h2.44l4.191,5.368V4.224h2.615v10.003h-2.227l-4.405-5.583V14.228
			L247.652,14.228z"/>
		<path fill="#043F65" d="M263.412,14.228h-7.491V4.224h7.38V6.68h-4.651v1.376h4.334v2.242h-4.334v1.52h4.763V14.228
			L263.412,14.228z"/>
		<path fill="#043F65" d="M264.011,12.248l1.925-1.479c0.266,0.374,0.625,0.67,1.063,0.896c0.44,0.226,0.922,0.338,1.438,0.338
			c0.891,0,1.336-0.241,1.336-0.717c0-0.255-0.185-0.465-0.559-0.619c-0.219-0.087-0.414-0.153-0.588-0.199
			c-0.706-0.21-1.233-0.379-1.581-0.501c-1.54-0.573-2.312-1.535-2.312-2.886c0-0.947,0.347-1.685,1.049-2.211
			c0.695-0.527,1.545-0.788,2.537-0.788c1.648,0,2.882,0.532,3.705,1.592l-1.796,1.535c-0.44-0.526-1.043-0.788-1.806-0.788
			c-0.344,0-0.615,0.056-0.804,0.174c-0.19,0.113-0.286,0.261-0.286,0.445c0,0.266,0.133,0.46,0.403,0.573
			c0.153,0.066,0.323,0.123,0.502,0.173c0.476,0.098,1.063,0.271,1.765,0.533c0.85,0.307,1.469,0.69,1.853,1.157
			c0.384,0.465,0.573,1.039,0.573,1.729c0,0.998-0.338,1.77-1.018,2.333c-0.681,0.558-1.669,0.839-2.974,0.839
			c-1.121,0-2.041-0.205-2.769-0.62C264.958,13.342,264.405,12.841,264.011,12.248z"/>
	</g>
</g>
<path fill="#FFFF00" d="M79.229,25.41"/>
<g>
	<g>
		<g>
			<path fill="#098342" d="M64.627,17.674h-0.004c0,0-4.586-0.307-8.826-0.307c-4.24,0-8.737,0.257-8.737,0.257h-0.112
				c-0.062,0.424-0.096,0.865-0.096,1.305c0,0.444,0.031,0.878,0.096,1.309c0.026,0,4.594,0.309,8.825,0.309
				c4.241,0,8.739-0.258,8.739-0.258h0.106c0.065-0.444,0.1-0.895,0.1-1.359C64.715,18.504,64.684,18.085,64.627,17.674z"/>
			<path fill="#098342" d="M62.803,24.447c0.663-0.838,1.174-1.798,1.5-2.839c-0.014,0-5.129,0.308-8.535,0.308
				c-3.412,0-8.507-0.324-8.517-0.324c0.328,1.047,0.844,2.012,1.507,2.855h0.029c0,0,2.406,0.749,6.98,0.749
				C60.341,25.196,62.803,24.447,62.803,24.447z"/>
			<path fill="#098342" d="M50.652,11.64c0,0,2.872-0.354,5.145-0.354c2.275,0,5.146,0.373,5.146,0.373l0.074,0.03
				c-1.47-1.065-3.279-1.692-5.23-1.692c-1.957,0-3.765,0.626-5.236,1.692L50.652,11.64z"/>
			<path fill="#098342" d="M55.768,26.591c-2.274,0-5.146-0.375-5.146-0.375c1.456,1.031,3.235,1.638,5.161,1.638
				c1.91,0,3.68-0.602,5.13-1.618C60.888,26.242,58.029,26.591,55.768,26.591z"/>
			<path fill="#098342" d="M47.256,16.3c0,0,5.125-0.307,8.536-0.307c3.413,0,8.518,0.323,8.518,0.323l0.014,0.005
				c-0.323-1.062-0.838-2.038-1.499-2.892h-0.051c0,0-2.407-0.748-6.981-0.748c-4.573,0-7.034,0.748-7.034,0.748h-0.021
				c-0.662,0.85-1.177,1.825-1.5,2.881L47.256,16.3z"/>
		</g>
		<g>
			<path fill="#098342" d="M70.065,28.506h-3.891v-2.051h1.84V2.052H43.682v24.403h1.698v2.051H41.56V0h28.506V28.506z"/>
		</g>
	</g>
	<g>
		<path fill="#098342" d="M15.954,49.573H9.5v-9.881h2.693v7.444h3.756v2.437H15.954z"/>
		<path fill="#098342" d="M19.159,49.573h-2.836l4.03-9.881h2.461l4.028,9.881H23.99l-0.511-1.288H19.68L19.159,49.573z
			 M21.58,43.139l-1.193,3.063h2.381L21.58,43.139z"/>
		<path fill="#098342" d="M34.964,49.573H32.27v-9.881h4.635c0.802,0,1.561,0.288,2.269,0.864c0.359,0.284,0.652,0.657,0.875,1.127
			c0.223,0.47,0.334,0.976,0.334,1.526c0,1.001-0.365,1.84-1.092,2.507c-0.717,0.662-1.511,0.99-2.381,0.99h-1.94v2.866
			L34.964,49.573L34.964,49.573z M34.964,42.133v2.138h1.829c0.131,0,0.299-0.045,0.496-0.141c0.293-0.122,0.439-0.43,0.439-0.92
			c0-0.51-0.146-0.828-0.439-0.95c-0.197-0.086-0.369-0.126-0.51-0.126H34.964L34.964,42.133z"/>
		<path fill="#098342" d="M44.193,49.573h-2.694v-9.881h4.493c0.981,0,1.82,0.328,2.507,0.991c0.687,0.662,1.037,1.466,1.037,2.411
			c0,0.623-0.152,1.192-0.46,1.704c-0.309,0.51-0.718,0.885-1.229,1.122l2.466,3.659h-3.087L45.214,46.5h-0.03h-0.991V49.573
			L44.193,49.573z M44.193,42.133v2.213h1.501c0.359,0,0.642-0.1,0.85-0.302c0.206-0.202,0.313-0.491,0.313-0.859
			c0-0.313-0.092-0.566-0.268-0.758c-0.182-0.193-0.404-0.293-0.667-0.293H44.193z"/>
		<path fill="#098342" d="M53.893,49.573h-2.694v-9.881h2.694V49.573z"/>
		<path fill="#098342" d="M58.062,49.573h-2.497v-9.881h2.215l3.204,4.493l3.204-4.493h2.215v9.881h-2.498v-5.231l-2.921,4.039
			l-2.922-4.039V49.573L58.062,49.573z"/>
		<path fill="#098342" d="M70.763,49.573h-2.694v-9.881h2.694V49.573z"/>
		<path fill="#098342" d="M77.056,49.573H74.36v-7.44h-2.662v-2.437h7.967v2.437h-2.609V49.573z"/>
		<path fill="#098342" d="M83.294,49.573h-2.696v-9.881h2.696V49.573z"/>
		<path fill="#098342" d="M90.723,49.573h-2.481l-3.997-9.881h2.851l2.396,6.055l2.38-6.055h2.851L90.723,49.573z"/>
		<path fill="#098342" d="M95.812,49.573h-2.835l4.029-9.881h2.465l4.028,9.881h-2.85l-0.511-1.288h-3.801L95.812,49.573z
			 M98.238,43.139l-1.193,3.063h2.381L98.238,43.139z"/>
	</g>
</g>
</svg>
