<?xml version="1.0" encoding="utf-8"?>
<!-- Generator: Adobe Illustrator 16.0.0, SVG Export Plug-In . SVG Version: 6.00 Build 0)  -->
<!DOCTYPE svg PUBLIC "-//W3C//DTD SVG 1.1//EN" "http://www.w3.org/Graphics/SVG/1.1/DTD/svg11.dtd">
<svg version="1.1" id="Capa_1" xmlns="http://www.w3.org/2000/svg" xmlns:xlink="http://www.w3.org/1999/xlink" x="0px" y="0px"
	 width="112px" height="50.978px" viewBox="0 0 112 50.978" enable-background="new 0 0 112 50.978" xml:space="preserve">
<g>
	<g>
		<path fill="#3378B3" d="M230.463,51.97h-3.783v-1.994h1.788V26.265h-23.644v23.711h1.65v1.994h-3.712V24.271h27.7V51.97z"/>
		<g>
			<path fill="#3378B3" d="M193.951,72.396h-6.271v-9.602h2.617v7.234h3.649v2.367H193.951z"/>
			<path fill="#3378B3" d="M204.957,67.627c0,1.36-0.52,2.529-1.557,3.511c-1.026,0.963-2.278,1.449-3.746,1.449
				c-1.469,0-2.722-0.481-3.748-1.449c-1.027-0.973-1.543-2.146-1.543-3.511c0-1.371,0.518-2.539,1.543-3.512
				c1.026-0.973,2.279-1.459,3.748-1.459c1.468,0,2.721,0.486,3.746,1.459C204.438,65.079,204.957,66.252,204.957,67.627z
				 M197.036,67.627c0,0.737,0.251,1.355,0.756,1.861c0.506,0.506,1.124,0.756,1.862,0.756c0.717,0,1.33-0.255,1.846-0.771
				c0.525-0.526,0.786-1.14,0.786-1.847c0-0.708-0.261-1.321-0.786-1.847c-0.506-0.525-1.119-0.786-1.846-0.786
				c-0.717,0-1.332,0.261-1.848,0.786C197.291,66.296,197.036,66.91,197.036,67.627z"/>
			<path fill="#3378B3" d="M210.438,72.396h-2.616v-7.234h-2.588v-2.367h7.739v2.367h-2.533v7.234H210.438z"/>
			<path fill="#3378B3" d="M221.022,72.396h-7.194v-9.602h7.082v2.358h-4.465v1.321h4.16v2.151h-4.16v1.459h4.572v2.313H221.022
				L221.022,72.396z"/>
			<path fill="#3378B3" d="M224.976,72.396h-2.617v-9.602h4.366c0.952,0,1.769,0.319,2.436,0.963
				c0.668,0.643,1.007,1.425,1.007,2.342c0,0.604-0.147,1.16-0.446,1.655c-0.3,0.497-0.698,0.859-1.194,1.09l2.397,3.556h-3.002
				l-1.954-2.991h-0.029h-0.963V72.396L224.976,72.396z M224.976,65.162v2.151h1.459c0.349,0,0.624-0.099,0.825-0.294
				c0.201-0.197,0.305-0.477,0.305-0.835c0-0.305-0.089-0.55-0.261-0.737c-0.177-0.187-0.393-0.285-0.648-0.285H224.976
				L224.976,65.162z"/>
			<path fill="#3378B3" d="M234.396,72.396h-2.617v-9.602h2.617V72.396z M233.708,62.131h-1.871l0.673-1.999h2.617L233.708,62.131z"
				/>
			<path fill="#3378B3" d="M238.074,72.396h-2.755l3.914-9.602h2.396l3.915,9.602h-2.771l-0.496-1.252h-3.692L238.074,72.396z
				 M240.431,66.139l-1.158,2.976h2.313L240.431,66.139z"/>
		</g>
		<g>
			<path fill="#3378B3" d="M182.703,85.079h-2.51v-9.601h2.343l4.022,5.152v-5.152h2.51v9.601h-2.137l-4.229-5.358V85.079
				L182.703,85.079z"/>
			<path fill="#3378B3" d="M192.692,85.079h-2.755l3.914-9.601h2.396l3.914,9.601h-2.77l-0.496-1.252h-3.693L192.692,85.079z
				 M195.045,78.822l-1.158,2.976h2.312L195.045,78.822z"/>
			<path fill="#3378B3" d="M205.27,75.34c0.771,0,1.504,0.167,2.191,0.497c0.688,0.329,1.286,0.79,1.792,1.38l-1.778,1.488
				c-0.604-0.678-1.34-1.021-2.205-1.021c-0.736,0-1.354,0.245-1.861,0.742c-0.506,0.497-0.756,1.115-0.756,1.861
				c0,0.741,0.25,1.365,0.756,1.861c0.516,0.487,1.135,0.732,1.861,0.732c0.865,0,1.596-0.339,2.205-1.021l1.778,1.487
				c-0.506,0.59-1.1,1.047-1.792,1.375c-0.692,0.329-1.42,0.496-2.191,0.496c-1.459,0-2.7-0.466-3.717-1.404
				c-1.012-0.938-1.519-2.112-1.519-3.526s0.507-2.588,1.519-3.526C202.559,75.811,203.802,75.34,205.27,75.34z"/>
			<path fill="#3378B3" d="M212.888,85.079h-2.618v-9.601h2.618V85.079z"/>
			<path fill="#3378B3" d="M224.732,80.31c0,1.36-0.52,2.529-1.557,3.511c-1.026,0.963-2.278,1.449-3.746,1.449
				c-1.469,0-2.723-0.481-3.748-1.449c-1.026-0.972-1.542-2.146-1.542-3.511c0-1.371,0.516-2.539,1.542-3.511
				c1.025-0.973,2.279-1.459,3.748-1.459c1.468,0,2.72,0.486,3.746,1.459C224.217,77.761,224.732,78.935,224.732,80.31z
				 M216.812,80.31c0,0.737,0.248,1.355,0.756,1.861c0.506,0.506,1.124,0.757,1.861,0.757c0.717,0,1.33-0.255,1.846-0.771
				c0.525-0.525,0.786-1.14,0.786-1.847c0-0.708-0.261-1.321-0.786-1.847c-0.505-0.525-1.119-0.786-1.846-0.786
				c-0.719,0-1.333,0.26-1.848,0.786C217.072,78.979,216.812,79.593,216.812,80.31z"/>
			<path fill="#3378B3" d="M228.441,85.079h-2.51v-9.601h2.343l4.021,5.152v-5.152h2.51v9.601h-2.137l-4.228-5.358V85.079
				L228.441,85.079z"/>
			<path fill="#3378B3" d="M238.426,85.079h-2.755l3.913-9.601h2.398l3.913,9.601h-2.77l-0.496-1.252h-3.693L238.426,85.079z
				 M240.783,78.822l-1.159,2.976h2.312L240.783,78.822z"/>
			<path fill="#3378B3" d="M253.031,85.079h-6.267v-9.601h2.618v7.234h3.648V85.079z"/>
		</g>
	</g>
	<g>
		<path fill="#3378B3" d="M212.75,35.935c0,0-4.125,2.25-4.125,6.753c0,3.826,2.701,5.854,2.701,5.854h0.826
			c0,0-1.504-2.176-1.504-5.628C210.654,39.01,212.75,35.935,212.75,35.935z"/>
		<path fill="#3378B3" d="M213.502,48.542c0,0-1.649-2.249-1.649-5.854c0-4.43,2.553-6.753,2.553-6.753h0.374
			c0,0-0.752,2.701-0.752,6.753s0.525,5.854,0.525,5.854H213.502z"/>
		<path fill="#3378B3" d="M216.729,35.935h-0.372h-0.374c0,0-0.752,3.08-0.752,6.753c0,2.102,0.525,5.854,0.525,5.854h0.601h0.599
			c0,0,0.525-3.752,0.525-5.854C217.48,39.01,216.729,35.935,216.729,35.935z"/>
		<path fill="#3378B3" d="M219.961,35.935c0,0,4.126,2.25,4.126,6.753c0,3.826-2.702,5.854-2.702,5.854h-0.825
			c0,0,1.502-2.176,1.502-5.628C222.058,39.01,219.961,35.935,219.961,35.935z"/>
		<path fill="#3378B3" d="M219.209,48.542c0,0,1.65-2.249,1.65-5.854c0-4.43-2.554-6.753-2.554-6.753h-0.373
			c0,0,0.752,2.701,0.752,6.753s-0.526,5.854-0.526,5.854H219.209z"/>
		<path fill="#3378B3" d="M216.355,34.659L216.355,34.659c-0.024,0-0.049,0-0.073,0s-0.049,0-0.073,0l0,0
			c-1.229,0.019-1.951,0.525-1.951,0.525h1.951h0.15h1.951C218.306,35.184,217.583,34.678,216.355,34.659z"/>
		<path fill="#3378B3" d="M220.633,49.367h-4.08h-0.314h-4.082c0,0,1.253,0.933,3.414,1.135v1.493h1.649v-1.493
			C219.382,50.3,220.633,49.367,220.633,49.367z"/>
	</g>
</g>
<g>
	<g>
		<path fill="#043F65" d="M216.607-25.797c-4.953,0-8.97,4.016-8.97,8.97c0,4.953,4.017,8.97,8.97,8.97
			c4.954,0,8.971-4.017,8.971-8.97C225.578-21.781,221.562-25.797,216.607-25.797z M217.483-23.889c2.39,0,4.322,1.934,4.322,4.324
			s-1.934,4.324-4.322,4.324c-2.391,0-4.324-1.935-4.324-4.324S215.093-23.889,217.483-23.889z M216.669-9.848
			c-3.889,0-7.163-3.428-7.163-7.184c0-2.344,1.396-4.437,3.393-5.675c-0.23,0.322-0.466,0.691-0.548,0.845
			c-0.322,0.608-0.609,1.514-0.609,2.839c0,2.937,2.518,6.13,5.803,6.13c2.574,0,5.312-1.996,6.151-4.359
			c0.01,0.205,0.015,0.409,0.015,0.624C223.71-12.851,220.559-9.848,216.669-9.848z"/>
		<g>
			<g>
				<path fill="#043F65" d="M231.042-7.116h-3.938v-2.077h1.862v-24.709h-24.634v24.705h1.72v2.077h-3.868V-35.98h28.858V-7.116z"/>
			</g>
		</g>
	</g>
	<g>
		<path fill="#043F65" d="M167.92,14.228h-7.491V4.224h7.379V6.68h-4.651v1.376h4.334v2.242h-4.334v1.52h4.764V14.228z"/>
		<path fill="#043F65" d="M169.199,9.924v-5.7h2.727v5.408c0,0.804,0.148,1.382,0.445,1.735c0.297,0.354,0.738,0.533,1.32,0.533
			c0.584,0,1.023-0.179,1.32-0.533c0.297-0.353,0.445-0.931,0.445-1.735V4.224h2.728v5.7c0,1.443-0.425,2.548-1.279,3.316
			c-0.845,0.757-1.914,1.136-3.214,1.136c-1.299,0-2.374-0.378-3.213-1.136C169.623,12.473,169.199,11.367,169.199,9.924z"/>
		<path fill="#043F65" d="M182.432,14.228h-2.728V4.224h4.55c0.992,0,1.842,0.332,2.537,1.003c0.696,0.67,1.05,1.484,1.05,2.441
			c0,0.629-0.153,1.208-0.466,1.724s-0.727,0.896-1.244,1.136l2.498,3.705h-3.127l-2.036-3.117h-0.031h-1.003V14.228L182.432,14.228
			z M182.432,6.69v2.241h1.52c0.363,0,0.65-0.103,0.859-0.307c0.211-0.205,0.318-0.497,0.318-0.87c0-0.317-0.093-0.573-0.271-0.768
			c-0.185-0.194-0.41-0.296-0.676-0.296H182.432z"/>
		<path fill="#043F65" d="M199.83,9.264c0,1.417-0.543,2.636-1.623,3.659c-1.068,1.003-2.374,1.509-3.904,1.509
			c-1.529,0-2.834-0.501-3.904-1.509c-1.068-1.014-1.606-2.236-1.606-3.659c0-1.428,0.537-2.646,1.606-3.659
			c1.07-1.012,2.375-1.519,3.904-1.519c1.53,0,2.836,0.507,3.904,1.519C199.287,6.609,199.83,7.826,199.83,9.264z M191.575,9.264
			c0,0.768,0.262,1.412,0.788,1.939c0.527,0.527,1.172,0.788,1.939,0.788c0.748,0,1.387-0.267,1.924-0.803
			c0.548-0.548,0.818-1.188,0.818-1.924s-0.271-1.376-0.818-1.924c-0.526-0.547-1.166-0.818-1.924-0.818
			c-0.746,0-1.387,0.271-1.924,0.818C191.842,7.873,191.575,8.517,191.575,9.264z"/>
		<path fill="#043F65" d="M203.6,14.228h-2.527V4.224h2.241l3.245,4.549l3.244-4.549h2.241v10.003h-2.528V8.932l-2.957,4.088
			L203.6,8.932V14.228L203.6,14.228z"/>
		<path fill="#043F65" d="M216.465,14.228h-2.728V4.224h2.728V14.228z"/>
		<path fill="#043F65" d="M224.688,14.228h-6.529V4.224h2.728v7.538h3.802V14.228z"/>
		<path fill="#043F65" d="M232.321,14.228h-6.528V4.224h2.727v7.538h3.802V14.228L232.321,14.228z"/>
		<path fill="#043F65" d="M243.789,9.264c0,1.417-0.542,2.636-1.621,3.659c-1.071,1.003-2.375,1.509-3.905,1.509
			c-1.529,0-2.835-0.501-3.904-1.509c-1.069-1.014-1.606-2.236-1.606-3.659c0-1.428,0.537-2.646,1.606-3.659
			c1.069-1.012,2.375-1.519,3.904-1.519c1.53,0,2.834,0.507,3.905,1.519C243.252,6.609,243.789,7.826,243.789,9.264z M235.535,9.264
			c0,0.768,0.262,1.412,0.788,1.939c0.527,0.527,1.172,0.788,1.939,0.788c0.747,0,1.387-0.267,1.924-0.803
			c0.548-0.548,0.818-1.188,0.818-1.924s-0.271-1.376-0.818-1.924c-0.527-0.547-1.166-0.818-1.924-0.818
			c-0.746,0-1.386,0.271-1.924,0.818C235.808,7.873,235.535,8.517,235.535,9.264z"/>
		<path fill="#043F65" d="M247.652,14.228h-2.615V4.224h2.44l4.191,5.368V4.224h2.615v10.003h-2.227l-4.405-5.583V14.228
			L247.652,14.228z"/>
		<path fill="#043F65" d="M263.412,14.228h-7.491V4.224h7.38V6.68h-4.651v1.376h4.334v2.242h-4.334v1.52h4.763V14.228
			L263.412,14.228z"/>
		<path fill="#043F65" d="M264.011,12.248l1.925-1.479c0.266,0.374,0.625,0.67,1.063,0.896c0.44,0.226,0.922,0.338,1.438,0.338
			c0.891,0,1.336-0.241,1.336-0.717c0-0.255-0.185-0.465-0.559-0.619c-0.219-0.087-0.414-0.153-0.588-0.199
			c-0.706-0.21-1.233-0.379-1.581-0.501c-1.54-0.573-2.312-1.535-2.312-2.886c0-0.947,0.347-1.685,1.049-2.211
			c0.695-0.527,1.545-0.788,2.537-0.788c1.648,0,2.882,0.532,3.705,1.592l-1.796,1.535c-0.44-0.526-1.043-0.788-1.806-0.788
			c-0.344,0-0.615,0.056-0.804,0.174c-0.19,0.113-0.286,0.261-0.286,0.445c0,0.266,0.133,0.46,0.403,0.573
			c0.153,0.066,0.323,0.123,0.502,0.173c0.476,0.098,1.063,0.271,1.765,0.533c0.85,0.307,1.469,0.69,1.853,1.157
			c0.384,0.465,0.573,1.039,0.573,1.729c0,0.998-0.338,1.77-1.018,2.333c-0.681,0.558-1.669,0.839-2.974,0.839
			c-1.121,0-2.041-0.205-2.769-0.62C264.958,13.342,264.405,12.841,264.011,12.248z"/>
	</g>
</g>
<path fill="#FFFF00" d="M169.682,99.41"/>
<g>
	<g>
		<path fill="#098342" d="M155.079,91.674h-0.004c0,0-4.586-0.307-8.826-0.307c-4.239,0-8.737,0.257-8.737,0.257H137.4
			c-0.062,0.424-0.097,0.865-0.097,1.305c0,0.444,0.031,0.878,0.097,1.309c0.025,0,4.594,0.309,8.824,0.309
			c4.241,0,8.739-0.258,8.739-0.258h0.106c0.065-0.444,0.1-0.895,0.1-1.359C155.167,92.504,155.136,92.085,155.079,91.674z"/>
		<path fill="#098342" d="M153.255,98.447c0.663-0.838,1.174-1.798,1.5-2.839c-0.014,0-5.129,0.308-8.535,0.308
			c-3.411,0-8.507-0.324-8.517-0.324c0.328,1.047,0.844,2.012,1.507,2.855h0.029c0,0,2.406,0.749,6.98,0.749
			C150.793,99.196,153.255,98.447,153.255,98.447z"/>
		<path fill="#098342" d="M141.104,85.64c0,0,2.873-0.354,5.146-0.354c2.275,0,5.146,0.373,5.146,0.373l0.074,0.03
			c-1.47-1.065-3.279-1.692-5.229-1.692c-1.957,0-3.766,0.626-5.236,1.692L141.104,85.64z"/>
		<path fill="#098342" d="M146.22,100.591c-2.274,0-5.146-0.375-5.146-0.375c1.455,1.031,3.234,1.638,5.16,1.638
			c1.91,0,3.681-0.602,5.131-1.618C151.34,100.242,148.481,100.591,146.22,100.591z"/>
		<path fill="#098342" d="M137.708,90.3c0,0,5.126-0.307,8.536-0.307c3.413,0,8.518,0.323,8.518,0.323l0.014,0.005
			c-0.323-1.062-0.838-2.038-1.499-2.892h-0.051c0,0-2.407-0.748-6.981-0.748c-4.573,0-7.034,0.748-7.034,0.748h-0.021
			c-0.662,0.85-1.178,1.825-1.501,2.881L137.708,90.3z"/>
	</g>
	<g>
		<path fill="#098342" d="M160.518,102.506h-3.891v-2.051h1.84V76.052h-24.332v24.403h1.697v2.051h-3.82V74h28.506V102.506z"/>
	</g>
</g>
<g>
	<path fill="#098342" d="M106.406,123.573h-6.454v-9.881h2.693v7.444h3.756v2.437H106.406z"/>
	<path fill="#098342" d="M109.611,123.573h-2.836l4.029-9.881h2.461l4.027,9.881h-2.851l-0.511-1.288h-3.799L109.611,123.573z
		 M112.031,117.139l-1.192,3.063h2.382L112.031,117.139z"/>
	<path fill="#098342" d="M125.416,123.573h-2.693v-9.881h4.635c0.802,0,1.561,0.288,2.268,0.864
		c0.359,0.284,0.652,0.657,0.875,1.127s0.334,0.976,0.334,1.526c0,1.001-0.364,1.84-1.092,2.507c-0.717,0.662-1.512,0.99-2.381,0.99
		h-1.94v2.866L125.416,123.573L125.416,123.573z M125.416,116.133v2.138h1.829c0.132,0,0.299-0.045,0.495-0.141
		c0.294-0.122,0.439-0.43,0.439-0.92c0-0.51-0.146-0.828-0.439-0.95c-0.196-0.086-0.368-0.126-0.51-0.126H125.416L125.416,116.133z"
		/>
	<path fill="#098342" d="M134.645,123.573h-2.693v-9.881h4.492c0.981,0,1.82,0.328,2.508,0.991c0.688,0.662,1.037,1.466,1.037,2.411
		c0,0.623-0.152,1.192-0.461,1.704c-0.309,0.51-0.717,0.885-1.229,1.122l2.467,3.659h-3.088l-2.012-3.078h-0.03h-0.991V123.573
		L134.645,123.573z M134.645,116.133v2.213h1.502c0.359,0,0.641-0.1,0.85-0.302c0.205-0.202,0.312-0.491,0.312-0.859
		c0-0.313-0.092-0.566-0.268-0.758c-0.182-0.193-0.404-0.293-0.668-0.293H134.645z"/>
	<path fill="#098342" d="M144.345,123.573h-2.694v-9.881h2.694V123.573z"/>
	<path fill="#098342" d="M148.514,123.573h-2.497v-9.881h2.215l3.204,4.493l3.204-4.493h2.215v9.881h-2.498v-5.231l-2.921,4.039
		l-2.922-4.039V123.573L148.514,123.573z"/>
	<path fill="#098342" d="M161.215,123.573h-2.694v-9.881h2.694V123.573z"/>
	<path fill="#098342" d="M167.508,123.573h-2.695v-7.44h-2.662v-2.437h7.967v2.437h-2.609V123.573z"/>
	<path fill="#098342" d="M173.746,123.573h-2.696v-9.881h2.696V123.573z"/>
	<path fill="#098342" d="M181.175,123.573h-2.481l-3.997-9.881h2.851l2.396,6.055l2.38-6.055h2.851L181.175,123.573z"/>
	<path fill="#098342" d="M186.265,123.573h-2.835l4.029-9.881h2.465l4.028,9.881h-2.85l-0.511-1.288h-3.801L186.265,123.573z
		 M188.69,117.139l-1.193,3.063h2.381L188.69,117.139z"/>
</g>
<g>
	<path fill="#748525" d="M7.621,129.934H2.837v-9.524h4.428c0.721,0,1.326,0.234,1.817,0.697c0.493,0.458,0.736,1.032,0.736,1.734
		c0,0.94-0.404,1.578-1.218,1.915c0.61,0.126,1.082,0.399,1.413,0.813c0.332,0.415,0.496,0.931,0.496,1.55
		c0,0.818-0.277,1.496-0.833,2.022C9.146,129.671,8.459,129.934,7.621,129.934z M5.434,122.515v1.695h1.257
		c0.239,0,0.428-0.078,0.58-0.239c0.151-0.161,0.225-0.365,0.225-0.624c0-0.238-0.079-0.433-0.234-0.595
		c-0.156-0.16-0.346-0.238-0.575-0.238H5.434L5.434,122.515z M5.434,125.988v1.817h1.613c0.282,0,0.516-0.088,0.696-0.268
		c0.181-0.175,0.273-0.4,0.273-0.663c0-0.253-0.093-0.467-0.273-0.633c-0.18-0.17-0.418-0.253-0.711-0.253H5.434L5.434,125.988z"/>
	<path fill="#748525" d="M21.793,125.208c0,1.35-0.516,2.509-1.545,3.483c-1.017,0.955-2.26,1.437-3.716,1.437
		s-2.699-0.477-3.717-1.437c-1.018-0.964-1.529-2.129-1.529-3.483c0-1.359,0.511-2.519,1.529-3.483
		c1.018-0.964,2.261-1.447,3.717-1.447c1.457,0,2.699,0.482,3.716,1.447C21.277,122.68,21.793,123.839,21.793,125.208z
		 M13.936,125.208c0,0.73,0.248,1.345,0.75,1.846c0.502,0.502,1.115,0.75,1.846,0.75c0.711,0,1.32-0.253,1.832-0.765
		c0.521-0.521,0.779-1.13,0.779-1.832c0-0.701-0.258-1.31-0.779-1.832c-0.502-0.521-1.111-0.779-1.832-0.779
		c-0.711,0-1.321,0.258-1.833,0.779C14.188,123.888,13.936,124.498,13.936,125.208z"/>
	<path fill="#748525" d="M25.466,129.934h-2.489v-9.524h2.324l3.99,5.11v-5.11h2.49v9.524h-2.119l-4.195-5.314V129.934
		L25.466,129.934z"/>
	<path fill="#748525" d="M43.477,125.208c0,1.35-0.517,2.509-1.544,3.483c-1.018,0.955-2.26,1.437-3.717,1.437
		c-1.457,0-2.699-0.477-3.717-1.437c-1.019-0.964-1.531-2.129-1.531-3.483c0-1.359,0.512-2.519,1.531-3.483
		c1.018-0.964,2.26-1.447,3.717-1.447c1.457,0,2.699,0.482,3.717,1.447C42.965,122.68,43.477,123.839,43.477,125.208z
		 M35.624,125.208c0,0.73,0.249,1.345,0.75,1.846c0.502,0.502,1.116,0.75,1.847,0.75c0.711,0,1.321-0.253,1.831-0.765
		c0.522-0.521,0.78-1.13,0.78-1.832c0-0.701-0.258-1.31-0.78-1.832c-0.5-0.521-1.11-0.779-1.831-0.779
		c-0.711,0-1.32,0.258-1.832,0.779C35.877,123.888,35.624,124.498,35.624,125.208z"/>
	<path fill="#748525" d="M50.887,129.934h-6.222v-9.524h2.598v7.177h3.618v2.348L50.887,129.934L50.887,129.934z"/>
	<path fill="#748525" d="M61.805,125.208c0,1.35-0.517,2.509-1.545,3.483c-1.018,0.955-2.261,1.437-3.717,1.437
		s-2.699-0.477-3.718-1.437c-1.017-0.964-1.528-2.129-1.528-3.483c0-1.359,0.512-2.519,1.528-3.483
		c1.019-0.964,2.262-1.447,3.718-1.447s2.699,0.482,3.717,1.447C61.288,122.68,61.805,123.839,61.805,125.208z M53.946,125.208
		c0,0.73,0.249,1.345,0.751,1.846c0.501,0.502,1.115,0.75,1.846,0.75c0.711,0,1.32-0.253,1.832-0.765
		c0.521-0.521,0.779-1.13,0.779-1.832c0-0.701-0.259-1.31-0.779-1.832c-0.502-0.521-1.111-0.779-1.832-0.779
		c-0.711,0-1.319,0.258-1.831,0.779C54.2,123.888,53.946,124.498,53.946,125.208z"/>
	<path fill="#748525" d="M67.242,129.934h-2.598v-7.17h-2.567v-2.349h7.678v2.349h-2.513V129.934z"/>
	<path fill="#748525" d="M80.542,125.208c0,1.35-0.518,2.509-1.545,3.483c-1.018,0.955-2.262,1.437-3.718,1.437
		c-1.457,0-2.698-0.477-3.717-1.437c-1.017-0.964-1.528-2.129-1.528-3.483c0-1.359,0.512-2.519,1.528-3.483
		c1.019-0.964,2.26-1.447,3.717-1.447c1.456,0,2.7,0.482,3.718,1.447C80.024,122.68,80.542,123.839,80.542,125.208z M72.683,125.208
		c0,0.73,0.249,1.345,0.75,1.846c0.502,0.502,1.117,0.75,1.847,0.75c0.712,0,1.321-0.253,1.832-0.765
		c0.521-0.521,0.779-1.13,0.779-1.832c0-0.701-0.258-1.31-0.779-1.832c-0.501-0.521-1.11-0.779-1.832-0.779
		c-0.71,0-1.32,0.258-1.832,0.779C72.936,123.888,72.683,124.498,72.683,125.208z"/>
</g>
<g>
	<g>
		<g>
			<path fill="#748525" d="M40.987,95.342c0.014-0.131,0.025-0.262,0.025-0.399c0-0.015,0-0.031,0-0.041c0-0.005,0-0.01,0-0.01l0,0
				c-0.012-1.132-0.218-1.875-1.213-2.855c-0.81-0.798-1.87-0.96-2.784-0.96c-0.88,0-1.647,0.358-2.219,0.94
				c-0.683,0.606-1.111,1.496-1.111,2.471c0,1.163,0.303,1.96,1.312,2.957c0.764,0.752,1.668,0.893,2.527,0.909l0,0
				c0,0,0.606-0.01,0.656-0.01c0.354,0,1.098-0.086,1.517-0.091c0.369-0.004,0.223,0,0.505,0c0.606,0,0.758,0.152,0.758,0.152
				l0.051-0.05l0,0c0,0-0.151-0.152-0.151-0.758c0-0.505,0-1.213,0.101-2.022C40.972,95.56,40.978,95.458,40.987,95.342z
				 M40.941,95.625c0.005-0.015,0.011-0.03,0.016-0.046C40.946,95.615,40.931,95.66,40.941,95.625z"/>
			<path fill="#748525" d="M42.326,95.574c0.102,0.81,0.102,1.517,0.102,2.022c0,0.605-0.151,0.758-0.151,0.758l0,0l0.05,0.05
				c0,0,0.151-0.151,0.758-0.151c0.284,0,0.137-0.005,0.506,0c0.42,0.005,1.163,0.091,1.517,0.091c0.051,0,0.656,0.01,0.656,0.01
				l0,0c0.859-0.016,1.764-0.157,2.527-0.91c1.01-1.001,1.313-1.794,1.313-2.957c0-0.975-0.437-1.864-1.112-2.471
				c-0.571-0.582-1.339-0.94-2.219-0.94c-0.909,0-1.976,0.162-2.784,0.96c-0.995,0.985-1.202,1.723-1.213,2.855l0,0
				c0,0,0,0.005,0,0.01c0,0.015,0,0.03,0,0.04c0,0.137,0.011,0.268,0.025,0.399C42.312,95.458,42.316,95.56,42.326,95.574z
				 M42.331,95.585c0.006,0.015,0.011,0.026,0.016,0.045C42.355,95.66,42.342,95.615,42.331,95.585z"/>
			<path fill="#748525" d="M40.961,102.094c-0.101-0.809-0.101-1.517-0.101-2.021c0-0.606,0.152-0.758,0.152-0.758l0,0l-0.052-0.05
				c0,0-0.151,0.151-0.757,0.151c-0.283,0-0.137,0.005-0.506,0c-0.419-0.005-1.162-0.091-1.516-0.091
				c-0.051,0-0.657-0.01-0.657-0.01l0,0c-0.858,0.016-1.764,0.157-2.526,0.91c-1.011,1.001-1.313,1.794-1.313,2.957
				c0,0.975,0.436,1.864,1.111,2.47c0.571,0.582,1.34,0.94,2.219,0.94c0.909,0,1.976-0.162,2.784-0.96
				c0.995-0.985,1.202-1.724,1.213-2.855l0,0c0,0,0-0.005,0-0.01c0-0.015,0-0.03,0-0.041c0-0.136-0.011-0.268-0.025-0.399
				C40.978,102.209,40.972,102.108,40.961,102.094z M40.957,102.083c-0.005-0.016-0.011-0.025-0.016-0.045
				C40.931,102.008,40.946,102.053,40.957,102.083z"/>
			<path fill="#748525" d="M42.301,102.326c-0.015,0.131-0.024,0.263-0.024,0.399c0,0.015,0,0.031,0,0.041c0,0.005,0,0.01,0,0.01
				l0,0c0.01,1.131,0.217,1.875,1.212,2.855c0.809,0.798,1.87,0.96,2.784,0.96c0.88,0,1.647-0.358,2.22-0.94
				c0.682-0.606,1.111-1.495,1.111-2.47c0-1.163-0.251-1.911-1.263-2.906c-0.764-0.753-1.719-0.945-2.578-0.96l0,0
				c0,0-0.605,0.01-0.656,0.01c-0.354,0-1.097,0.086-1.517,0.091c-0.369,0.005-0.222,0-0.506,0c-0.606,0-0.758-0.151-0.758-0.151
				l-0.05,0.05l0,0c0,0,0.151,0.151,0.151,0.758c0,0.505,0,1.212-0.102,2.021C42.316,102.108,42.312,102.209,42.301,102.326z
				 M42.347,102.043c-0.005,0.015-0.01,0.03-0.016,0.046C42.342,102.053,42.355,102.008,42.347,102.043z"/>
			<path fill="#748525" d="M42.225,109.169c0.506-1.365,0.404-2.522,0.404-3.134c0-0.53-0.429-0.96-0.959-0.96
				c-0.531,0-0.96,0.43-0.96,0.96c0,0.036,0,0.071,0.004,0.107c0.016,0.333,0.045,1.37-0.207,2.167
				c-0.237,0.749-0.692,1.466-0.889,1.759c-0.035,0.04-0.066,0.086-0.091,0.131c0,0.005-0.006,0.005-0.006,0.005l0,0
				c-0.081,0.141-0.126,0.303-0.126,0.475c0,0.531,0.43,0.96,0.96,0.96c0.288,0,0.545-0.127,0.718-0.33l0,0c0,0,0-0.005,0.005-0.005
				c0.04-0.045,0.076-0.095,0.106-0.151C41.401,110.852,41.881,110.104,42.225,109.169z"/>
		</g>
	</g>
	<g>
		<path fill="#748525" d="M55.939,108.784h-3.891v-2.052h1.839V82.33H29.562v24.397h1.698v2.052h-3.82V80.278h28.5V108.784
			L55.939,108.784z"/>
	</g>
</g>
<g>
	<path fill="#3FBCD0" d="M20.375,41.07c1.112-1.043,2.464-1.57,4.044-1.57c1.581,0,2.938,0.521,4.06,1.57
		c1.112,1.043,1.671,2.31,1.671,3.789c0,1.213-0.42,2.288-1.256,3.225l0.852,0.958l-1.868,1.612l-0.91-1
		c-0.777,0.367-1.628,0.553-2.554,0.553c-1.57,0-2.921-0.516-4.044-1.554c-1.112-1.043-1.671-2.31-1.671-3.789
		C18.699,43.374,19.258,42.113,20.375,41.07z M21.6,44.858c0,0.788,0.271,1.453,0.819,2c0.548,0.537,1.213,0.804,2,0.804
		c0.288,0,0.517-0.021,0.687-0.059L24,46.38l1.868-1.612l1.149,1.283c0.16-0.309,0.24-0.708,0.24-1.192
		c0-0.756-0.277-1.416-0.835-1.969c-0.548-0.569-1.213-0.851-2.001-0.851c-0.777,0-1.442,0.276-2,0.835
		C21.871,43.422,21.6,44.082,21.6,44.858z"/>
	<path fill="#3FBCD0" d="M31.326,45.577v-5.928h2.836v5.625c0,0.835,0.154,1.437,0.463,1.804s0.767,0.553,1.373,0.553
		s1.064-0.186,1.373-0.553c0.309-0.367,0.463-0.968,0.463-1.804v-5.625h2.836v5.928c0,1.5-0.441,2.65-1.33,3.448
		c-0.878,0.788-1.99,1.181-3.342,1.181s-2.469-0.394-3.341-1.181C31.773,48.227,31.326,47.077,31.326,45.577z"/>
	<path fill="#3FBCD0" d="M45.15,50.052h-2.836V39.649h2.836V50.052z"/>
	<path fill="#3FBCD0" d="M49.625,50.052h-2.719V39.649h2.539l4.357,5.582v-5.582h2.719v10.403h-2.314l-4.582-5.805V50.052
		L49.625,50.052z"/>
	<path fill="#3FBCD0" d="M61.119,50.052h-2.837V39.649h2.837V50.052z"/>
	<path fill="#3FBCD0" d="M68.147,39.5c1.703,0,3.108,0.617,4.226,1.852l-1.927,1.612c-0.596-0.617-1.362-0.926-2.299-0.926
		c-0.798,0-1.468,0.266-2.016,0.804c-0.549,0.538-0.82,1.208-0.82,2.017c0,0.803,0.271,1.479,0.82,2.017
		c0.558,0.527,1.229,0.792,2.016,0.792c0.916,0,1.64-0.298,2.166-0.894v-0.702h-2.688v-2.363h5.135v4.177
		c-0.5,0.708-1.154,1.267-1.969,1.687c-0.813,0.42-1.697,0.628-2.639,0.628c-1.581,0-2.927-0.506-4.028-1.522
		c-1.096-1.016-1.644-2.288-1.644-3.82s0.548-2.805,1.644-3.821C65.216,40.011,66.557,39.5,68.147,39.5z"/>
	<path fill="#3FBCD0" d="M85.207,44.89c0,1.474-0.563,2.74-1.687,3.805c-1.112,1.043-2.469,1.57-4.061,1.57
		c-1.591,0-2.947-0.521-4.06-1.57c-1.112-1.054-1.671-2.325-1.671-3.805c0-1.484,0.559-2.75,1.671-3.804s2.469-1.581,4.06-1.581
		s2.948,0.527,4.061,1.581C84.648,42.129,85.207,43.395,85.207,44.89z M76.624,44.89c0,0.798,0.271,1.469,0.82,2.017
		c0.548,0.547,1.218,0.819,2.016,0.819c0.777,0,1.442-0.276,2.001-0.835c0.569-0.569,0.852-1.234,0.852-2s-0.282-1.431-0.852-2
		c-0.548-0.569-1.213-0.851-2.001-0.851c-0.776,0-1.441,0.282-2,0.851C76.906,43.448,76.624,44.113,76.624,44.89z"/>
	<path fill="#3FBCD0" d="M93.301,50.052h-6.79V39.649h2.836v7.838h3.954V50.052L93.301,50.052z"/>
</g>
<g>
	<g>
		<g>
			<g>
				<g>
					<path fill="#3FBCD0" d="M70.25,28.504h-3.891v-2.051h1.839V2.052H43.873v24.396h1.698V28.5h-3.82V0h28.5V28.504L70.25,28.504z"
						/>
				</g>
			</g>
		</g>
	</g>
	<path opacity="0.17" fill="#1E1E1E" enable-background="new    " d="M49.369,25.25"/>
	<g>
		<path fill="#3FBCD0" d="M58.521,17.241c-0.58-0.54-2.521-1.92-2.521-1.92s-1.941,1.381-2.521,1.92
			c-0.064,0.06-0.17,0.215-0.091,0.413c0,0,0.622,1.877,0.899,2.505c0.038,0.085,0.139,0.263,0.262,0.263c0.123,0,1.451,0,1.451,0
			s1.328,0,1.451,0s0.225-0.178,0.263-0.263c0.276-0.628,0.898-2.505,0.898-2.505C58.691,17.456,58.586,17.301,58.521,17.241z"/>
		<path fill="#3FBCD0" d="M59.297,23.492c-0.391-0.562-1.419-2.157-1.419-2.157H56h-1.877c0,0-1.03,1.595-1.419,2.157
			c-0.202,0.292-0.189,0.477-0.031,0.713c0.1,0.147,0.973,1.453,1.387,1.893c0.155,0.165,0.62,0.278,1.086,0.278
			c0.468,0,0.854,0,0.854,0s0.386,0,0.854,0c0.467,0,0.932-0.113,1.086-0.278c0.414-0.44,1.287-1.746,1.387-1.893
			C59.486,23.968,59.499,23.783,59.297,23.492z"/>
		<path fill="#3FBCD0" d="M49.728,16.724c0,0-1.472,1.402-1.472,2.419c0,1.017,0.638,2.893,1.124,3.379
			c0.3,0.3,1.627,0.72,2.217,0.72c0.278,0,1.792-2.286,1.792-2.505s-1.019-3.226-1.019-3.226L49.728,16.724z"/>
		<path fill="#3FBCD0" d="M62.272,16.741c0,0,1.472,1.402,1.472,2.419c0,1.017-0.638,2.893-1.124,3.379
			c-0.3,0.3-1.627,0.72-2.218,0.72c-0.278,0-1.792-2.287-1.792-2.506c0-0.219,1.02-3.225,1.02-3.225L62.272,16.741z"/>
		<path fill="#3FBCD0" d="M50.465,12.319c-0.222,0.222-0.524,1.856-0.524,2.884c0,0.497,0,0.547,0,0.547l2.612,0.859l2.947-1.996
			v-2.586c0,0-1.297-0.893-2.645-0.893C51.929,11.136,50.664,12.121,50.465,12.319z"/>
		<path fill="#3FBCD0" d="M61.534,12.319c0.222,0.222,0.524,1.856,0.524,2.884c0,0.497,0,0.547,0,0.547l-2.611,0.859L56.5,14.614
			v-2.586c0,0,1.297-0.893,2.646-0.893C60.071,11.136,61.337,12.121,61.534,12.319z"/>
		<path fill="#3FBCD0" d="M49.38,25.188c0-0.322,0-0.96,0-1.333c0,0,0.074-0.208,0.333-0.208c0,0,1.863,0.492,1.945,0.594
			c0.195,0.24,1.411,2.116,1.411,2.207c0,0.212-0.504,0.455-0.716,0.455c-0.034,0-0.568,0-0.872,0
			C51.198,26.901,49.38,25.322,49.38,25.188z"/>
		<path fill="#3FBCD0" d="M62.62,25.188c0-0.322,0-0.96,0-1.333c0,0-0.073-0.208-0.333-0.208c0,0-1.864,0.492-1.946,0.594
			c-0.194,0.24-1.41,2.116-1.41,2.207c0,0.212,0.505,0.455,0.717,0.455c0.032,0,0.568,0,0.871,0
			C60.801,26.901,62.62,25.322,62.62,25.188z"/>
		<path fill="#3FBCD0" d="M58.141,27.232c-0.155-0.128-0.242-0.204-0.242-0.204s-0.554,0.226-1.625,0.226
			c-0.256,0-0.273,0.001-0.273,0.001s-0.018-0.001-0.273-0.001c-1.072,0-1.625-0.226-1.625-0.226s-0.164,0.162-0.257,0.225
			c-0.104,0.07-0.535,0.306-0.535,0.306s1.192,0.346,2.039,0.346c0.387,0,0.651,0,0.651,0s0.265,0,0.652,0
			c0.846,0,2.039-0.346,2.039-0.346S58.288,27.354,58.141,27.232z"/>
		<path fill="#3FBCD0" d="M48.483,23.646c0,0-1.259-1.794-1.259-4.106c0-0.44,0.003-0.44,0.003-0.44l0.174,0.22
			c0,0,0.088,1.42,0.423,2.254c0.336,0.837,0.781,1.31,0.781,1.31c0,0.109,0,0.302,0,0.312
			C48.605,23.263,48.483,23.646,48.483,23.646z"/>
		<path fill="#3FBCD0" d="M63.518,23.607c0,0,1.259-1.794,1.259-4.105c0-0.44-0.004-0.44-0.004-0.44l-0.175,0.22
			c0,0-0.087,1.42-0.422,2.254c-0.336,0.837-0.767,1.31-0.767,1.31c0,0.109,0,0.302,0,0.312
			C63.409,23.29,63.518,23.607,63.518,23.607z"/>
		<path fill="#3FBCD0" d="M47.137,17.814c0,0,0.126-1.221,0.581-2.231c0.455-1.011,1.449-2.384,1.449-2.384s-0.072,1.16-0.072,1.779
			c0,0.751,0.041,1.158,0.041,1.158s-0.593,0.415-0.896,0.886s-0.665,1.339-0.665,1.339L47.137,17.814z"/>
		<path fill="#3FBCD0" d="M64.863,17.814c0,0-0.126-1.221-0.581-2.231c-0.455-1.011-1.657-2.674-1.657-2.674
			s0.228,1.137,0.228,1.756c0,0.752,0.013,1.472,0.013,1.472s0.593,0.415,0.896,0.887s0.664,1.339,0.664,1.339L64.863,17.814z"/>
		<path fill="#3FBCD0" d="M55.993,10.042c-1.593,0-2.232,0.388-2.232,0.388s0.933,0.218,1.452,0.433
			c0.452,0.188,0.634,0.383,0.634,0.383h0.146h0.161c0,0,0.182-0.195,0.634-0.383c0.518-0.215,1.451-0.433,1.451-0.433
			S57.587,10.042,55.993,10.042z"/>
	</g>
</g>
</svg>
