<?xml version="1.0" encoding="utf-8"?>
<!-- Generator: Adobe Illustrator 16.0.0, SVG Export Plug-In . SVG Version: 6.00 Build 0)  -->
<!DOCTYPE svg PUBLIC "-//W3C//DTD SVG 1.1//EN" "http://www.w3.org/Graphics/SVG/1.1/DTD/svg11.dtd">
<svg version="1.1" id="Capa_1" xmlns="http://www.w3.org/2000/svg" xmlns:xlink="http://www.w3.org/1999/xlink" x="0px" y="0px"
	 width="384px" height="365px" viewBox="0 0 384 365" enable-background="new 0 0 384 365" xml:space="preserve">
<rect fill="#FAEEDE" width="384" height="365"/>
<path fill="#010102" d="M185.821,309.714c-0.369,0.204-0.672,0.511-0.871,0.882h-11.463c-1.682-1.414-4.504-1.335-4.504-2.496
	c0-0.438,0.19-0.675,0.952-0.675c1.563,0,3.466,0.128,3.466,0.128l0.675-2.725c0,0-1.669-0.128-5.092-0.128
	c-2.073,0-3.571,1.162-3.571,3.527c0,4.168,5.707,3.636,5.707,5.326c0,0.383-0.19,1.033-1.161,1.033
	c-2.264,0-3.721-0.757-3.721-0.757l-0.909,2.873c0,0,1.289,0.764,4.67,0.764c2.875,0,4.714-1.562,4.714-4.077
	c0-0.432-0.062-0.791-0.155-1.128h10.214c0.166,0.571,0.549,1.043,1.055,1.325v8.54h-2.897v0.682h0.248v0.522h0.278v0.732h0.36
	v3.956h-0.422l-6.85,28.897h9.716h1.28h9.715l-6.848-28.897h-0.424v-3.956h0.362v-0.732h0.276v-0.522h0.252v-0.682h-2.902v-8.54
	c0.511-0.282,0.891-0.754,1.057-1.325h10.528v4.949h3.213l-0.085-7.567h0.38l4.162,7.567h3.569v-12.337h-3.21l0.148,6.484h-0.38
	l-3.441-6.484h-4.354v5.725h-10.712c-0.202-0.374-0.504-0.675-0.873-0.882 M188.533,326.146v1.757h-3.277v-1.757
	c0-0.906,0.734-1.642,1.637-1.642C187.798,324.505,188.533,325.24,188.533,326.146"/>
<line fill="none" stroke="#010102" stroke-width="4.7791" stroke-miterlimit="10" x1="186.87" y1="202.014" x2="186.87" y2="311.636"/>
<line fill="none" stroke="#010102" stroke-width="5.9736" stroke-miterlimit="10" x1="38.91" y1="203.029" x2="363.899" y2="203.029"/>
<polygon fill="#010102" points="377.148,203.504 351.392,193.307 351.392,213.703 "/>
<path fill="#0B0026" d="M177.723,179.287c0,0,28.084,13.493,32.559,16.778c6.13,4.495,3.089,10.546-0.912,17.256
	c-4.004,6.713-25.861,35.501-25.861,35.501s-12.681-2.052-14.543-8.428c5.798-6.227,22.033-27.417,23.327-29.155
	c1.296-1.739,2.132-3.064,0.676-3.524c-5.339-1.684-20.124-6.905-20.124-6.905L177.723,179.287z"/>
<path fill="#E4A97E" d="M246.176,141.225c-0.013-0.111-11.931,2.566-13.22-2.017c-1.288-4.582,11.571-9.664,5.582-3.131
	c2.84-2.582,14.988-0.9,15.515,1.09C254.575,139.154,246.176,141.225,246.176,141.225"/>
<path fill="#304B12" d="M212.611,147.771l21.169-11.648c0,0,4.466,1.289,5.074,6.242c-7.132,6.006-27.472,18.851-27.472,18.851
	l-23.156,0.059l6.216-17.547L212.611,147.771z"/>
<path fill="#FFA512" d="M184.666,119.019c-2.066-5.479-6.257-12.079-20.456-5.27c-14.2,6.809-29.314-1.856-30.381-5.763
	c-3.87,11.276-1.635,24.939,11.149,20.619c12.783-4.318,30.484-16.174,37.445-7.008C186.21,121.039,184.666,119.019,184.666,119.019
	"/>
<path fill="#DD6E14" d="M158.606,120.822c8.482-6.227,17.702-9.103,22.888-7.201c1.506,1.553,2.472,3.536,3.175,5.401
	c0,0,1.546,2.017-2.248,2.575c-6.965-9.163-24.666,2.689-37.445,7.011c-5.02,1.697-8.406,0.613-10.442-2.005
	C139.927,128.352,150.141,127.036,158.606,120.822"/>
<path fill="#DA5F02" d="M185.392,119.485c-5.474-2.789-21.849-4.124-31.871,10.794c-10.021,14.918-26.639,7.914-29.831,4.557
	c-1.429,12.197,2.049,26.572,10.616,26.864c8.567,0.296,13.985-7.288,22.092-19.666c8.107-12.378,17.141-17.413,25.179-17.349
	C186.096,123.097,190.812,121.778,185.392,119.485"/>
<path fill="#C43701" d="M181.432,121.837c-5.495-3.026-13.605-3.552-19.272,5.722c-5.668,9.274-15.282,17.438-18.386,16.722
	c6.646,0.273,14.28-9.082,18.533-14.502c5.784-7.373,11.438-9.788,16.773-6.743C182.642,123.546,181.432,121.837,181.432,121.837"/>
<path fill="#E4A97E" d="M211.304,125.815c0,0,13.283,4.034,15.636,0.43c0.356-0.542,0.532-4.458,0.512-7.263
	c-0.031-4.147-0.745-9.399-2.551-12.55c-2.979-5.208-11.48-11.315-16.372-8.035C203.637,101.676,193.482,112.254,211.304,125.815"/>
<path fill="#010102" d="M220.395,105.526c-3.496,1.578-9.397,6.173-9.282,10.537c-2.174-4.43-5.001-3.364-4.113-0.631
	c0.894,2.736,3.067,3.957,3.886,2.708c0.65,3.647-3.977,6.672-3.977,6.672s-10.015-7.95-9.997-12.664
	c0.016-4.712,0.192-5.638,1.46-6.301C202.932,103.453,220.395,105.526,220.395,105.526"/>
<path fill="#E4A97E" d="M223.93,111.706c-0.009-0.003-0.015-0.003-0.027-0.009l0.098-0.778c1.897,1.277,3.943,2.011,5.855,2.852
	c-2.456,4.038-6.546,2.026-6.773-2.053C223.407,111.637,223.744,111.675,223.93,111.706
	C224.146,111.765,224.109,111.737,223.93,111.706"/>
<path fill="#D9814C" d="M224.049,107.764c0.34,0.778,1.508,3.603-0.718,4.446c-2.223,0.844-2.578-2.876-2.578-2.876
	S223.036,108.17,224.049,107.764"/>
<path fill="#D9814C" d="M223.471,107.728c-2.475,0.638-3.897,2.359-1.66,1.628C224.049,108.624,224.76,107.395,223.471,107.728"/>
<path fill="#D9814C" d="M222.534,112.16c0.292-1.488,1.861-1.394,2.129-0.274"/>
<path fill="none" stroke="#2D130C" stroke-width="0.301" stroke-miterlimit="10" d="M222.534,112.16
	c0.292-1.488,1.861-1.394,2.129-0.274"/>
<path fill="#934138" d="M220.607,119.336c-0.183,0.464,0,0.971,0.236,1.37c0.256,0.401,0.654,0.698,1.102,0.867
	c0.888,0.381,1.894,0.339,2.872,0.261l-0.727,0.152c-0.249,0.015-0.498,0.042-0.747,0.04c-0.499-0.003-1.004-0.071-1.484-0.248
	c-0.468-0.205-0.891-0.549-1.14-0.994C220.467,120.352,220.337,119.779,220.607,119.336"/>
<path fill="#010102" d="M186.409,289.843c0,0,2.659,5.227,3.749,6.467c1.093,1.24,6.037,5.266,6.949,5.655
	c0.909,0.389,4.183,0.337,4.226,1.684c0.039,1.351-6.205,1.6-9.546,1.946c-3.339,0.337-7.427-3.771-11.294-6.661
	c-3.862-2.883-2.469-6.212-0.594-9.586C181.768,285.976,186.409,289.843,186.409,289.843"/>
<path fill="#170A30" d="M180.183,212.159c4.278,7.254,9.346,14.603,10.837,17.9c1.49,3.305,1.417,7.422,1.21,15.013
	c-0.21,7.592-2.318,43.156-2.69,45.549c-0.374,2.393-9.58,3.25-13.046-1.656c1.473-17.755,3.948-43.342,4.007-45.98
	c0.059-2.64,0.43-3.828-0.635-6.188c-1.061-2.359-20.353-24.002-20.353-24.002L180.183,212.159z"/>
<path fill="#FFA512" d="M218.674,127.779c-8.318-4.667-12.362-7.16-22.525-15.774c-3.633-3.077-5.691-1.587-7.363-0.526
	c-3.808,2.418-15.607,11.845-11.048,17.854c4.557,6.009,19.996,12.45,24.945,14.054c4.95,1.602,7.553,0.915,9.556-1.542
	c2.001-2.459,4.473-6.463,5.913-9.455C218.935,130.759,221.009,129.089,218.674,127.779"/>
<path fill="#66981B" d="M204.05,142.881c-2.365,8.645-14.956,24.974-18.431,33.663c-3.474,8.689-5.522,29.434,1.678,41.249
	c-16.258,3.63-24.03-0.572-35.16-6.598c-12.242-6.634-16.82-11.697-22.131-13.12c3.359-2.064,16.724-23.34,24.442-37.557
	c10.036-18.496,17.106-29.358,24.024-33.099C189.667,121.354,207.72,129.466,204.05,142.881"/>
<path fill="#7BC229" d="M190.945,141.396c-8.806,1.669-14.955,24.974-18.43,33.663c-3.473,8.689-5.155,32.227,2.049,44.035
	c-8.573,0.204-22.559-7.753-22.864-7.962c-0.32-0.21-18.199-11.914-23.51-13.336c3.359-2.064,17.897-24.551,25.615-38.772
	c10.036-18.495,17.106-29.358,24.024-33.101C189.028,119.869,219.37,136.011,190.945,141.396"/>
<path fill="#E4A97E" d="M226.138,194.302c6.356,2.977,9.366,4.281,9.212,7.583c-0.152,3.302-5.202,7.485-9.738,4.98
	c-4.539-2.502,0.678-4.6,0.678-4.6s-8.139-0.155-6.929-6.158C219.975,193.025,219.78,191.329,226.138,194.302"/>
<path fill="#40571E" d="M223.823,193.182c-3.486-2.257-14.796-13.724-16.69-16.127c-1.371-1.737-3.049-3.817-3.253-6.532
	c-0.311-4.007-0.073-21.746-0.735-34.216c-0.408-7.622-17.476-7.747-16.24,9.274c0.538,7.452,4.656,25.933,6.96,31.118
	c1.137,2.557,2.384,3.942,4.725,6.585c2.335,2.646,14.353,13.309,20.139,15.5C225.478,196.827,223.823,193.182,223.823,193.182"/>
<path fill="#FFA512" d="M7.572,220.055l0.398-37.106c0.006-0.48,0.439-0.834,0.909-0.745l59.851,11.395
	c0.365,0.068,0.626,0.389,0.624,0.763l-0.169,15.615c-0.003,0.374-0.273,0.689-0.639,0.751L8.463,220.82
	C7.992,220.899,7.569,220.535,7.572,220.055"/>
<path fill="#FFA512" d="M85.67,190.277l-15.641,3.761c-0.351,0.071-0.675-0.065-0.678,0.295l-0.168,15.671
	c-0.003,0.355,0.205,0.134,0.553,0.216l15.675,4.187c0.476,0.112,0.931-0.25,0.938-0.733l0.245-22.637
	C86.597,190.548,86.15,190.177,85.67,190.277"/>
<path fill="#26163C" d="M65.397,211.542l0.202-18.831c0.006-0.423,0.351-0.763,0.775-0.759l7.122,0.075
	c0.424,0.003,0.763,0.351,0.757,0.775l-0.202,18.834c-0.006,0.423-0.351,0.764-0.775,0.761l-7.126-0.076
	C65.73,212.314,65.395,211.968,65.397,211.542"/>
<path fill="#DA5F02" d="M9.394,187.02c-0.122-0.12-0.184-0.295-0.152-0.479c0.049-0.299,0.33-0.504,0.631-0.455L54,193.396
	c0.295,0.053,0.502,0.33,0.452,0.635c-0.05,0.301-0.33,0.503-0.632,0.455l-44.126-7.31C9.577,187.158,9.474,187.102,9.394,187.02"/>
<path fill="#DA5F02" d="M26.861,195.464c-0.12-0.119-0.182-0.291-0.155-0.47c0.047-0.303,0.324-0.511,0.626-0.465l11.836,1.794
	c0.302,0.047,0.508,0.327,0.46,0.629c-0.045,0.301-0.324,0.507-0.625,0.463l-11.837-1.797
	C27.045,195.604,26.94,195.544,26.861,195.464"/>
<path fill="#DA5F02" d="M9.331,192.811c-0.119-0.119-0.184-0.29-0.155-0.47c0.045-0.302,0.327-0.511,0.625-0.465l12.463,1.886
	c0.298,0.047,0.506,0.325,0.46,0.626c-0.047,0.302-0.327,0.511-0.626,0.463l-12.465-1.886
	C9.518,192.948,9.412,192.889,9.331,192.811"/>
<path fill="#DA5F02" d="M44.688,210.87c-0.081-0.082-0.137-0.191-0.155-0.311c-0.044-0.301,0.164-0.583,0.467-0.623l8.667-1.24
	c0.298-0.046,0.58,0.164,0.622,0.465c0.041,0.302-0.167,0.581-0.467,0.624l-8.667,1.24C44.978,211.05,44.806,210.988,44.688,210.87"
	/>
<path fill="#DA5F02" d="M9.082,215.975c-0.081-0.076-0.137-0.188-0.155-0.31c-0.044-0.302,0.167-0.584,0.467-0.621l26.266-3.77
	c0.299-0.043,0.579,0.164,0.62,0.468c0.042,0.299-0.166,0.578-0.468,0.621l-26.266,3.77C9.372,216.16,9.2,216.097,9.082,215.975"/>
<path fill="#DA5F02" d="M9.138,211.01c-0.083-0.082-0.14-0.191-0.155-0.319c-0.041-0.304,0.173-0.58,0.473-0.617l29.454-3.809
	c0.302-0.037,0.579,0.173,0.617,0.471c0.036,0.307-0.175,0.581-0.478,0.617l-29.454,3.812C9.418,211.189,9.253,211.126,9.138,211.01
	"/>
<path fill="#0B0026" d="M183.898,114.568c0,0,7.651-1.324,25.813-2.186c18.156-0.863,24.318-17.773,23.525-21.792
	C232.434,86.57,197.131,99.324,183.898,114.568"/>
<path fill="#291827" d="M195.963,106.23l23.635-11.487c0,0-10.872-7.976-9.516-16.363c1.355-8.391,8.342-1.582,8.342-1.582
	s-6.359-11.755-18.271-2.712C188.241,83.13,195.963,106.23,195.963,106.23"/>
<path fill="#0B0026" d="M195.963,106.23c0,0,4.11-0.686,11.426-4.24c7.317-3.555,12.209-7.248,12.209-7.248
	s-10.872-7.976-9.516-16.363c1.355-8.391,8.342-1.582,8.342-1.582s-6.359-11.755-18.271-2.712
	C188.241,83.13,195.963,106.23,195.963,106.23"/>
<path fill="#FEA413" d="M214.788,90.231c-7.898,5.448-17.059,8.801-20.339,9.903c0.693,3.633,1.514,6.093,1.514,6.093
	s4.113-0.686,11.432-4.24c7.314-3.556,12.203-7.248,12.203-7.248S217.193,92.976,214.788,90.231"/>
<path fill="#FFFFFF" d="M211.134,97.96c0.088,0.184,0.012,0.406-0.17,0.493l-7.103,3.452c-0.183,0.088-0.401,0.012-0.492-0.17
	l-1.161-2.388c-0.085-0.184-0.013-0.401,0.173-0.493l7.099-3.449c0.186-0.086,0.408-0.012,0.493,0.172L211.134,97.96z"/>
<g opacity="0.4">
	<path fill="#0B0026" d="M202.387,104.204c1.444-0.573,3.116-1.298,5.002-2.213c7.317-3.555,12.209-7.248,12.209-7.248
		s-8.415-6.173-9.51-13.371h-0.003C210.085,81.369,212.155,99.552,202.387,104.204"/>
	<rect x="202.387" y="81.369" fill="none" width="17.211" height="22.832"/>
</g>
<g opacity="0.2">
	<path fill="#FFFFFF" d="M200.985,88.98c0.355,3.708-0.647,6.836-2.24,6.989c-1.597,0.149-3.178-2.73-3.53-6.439
		c-0.353-3.705,0.65-6.836,2.247-6.988C199.052,82.389,200.633,85.272,200.985,88.98"/>
	<rect x="195.146" y="82.536" fill="none" width="5.913" height="13.436"/>
</g>
<g opacity="0.2">
	<path fill="#FFFFFF" d="M228.834,96.05c0,0-4.031,12.596-14.736,13.21c-10.704,0.609,2.818-5.611,6.102-7.087
		C223.483,100.698,229.552,93.201,228.834,96.05"/>
	<rect x="210.049" y="95.408" fill="none" width="18.843" height="13.891"/>
</g>
<path fill="#7BC229" d="M253.794,130.918c0,4.392-3.562,7.95-7.953,7.95c-4.393,0-7.953-3.562-7.953-7.95
	c0-4.393,3.563-7.955,7.953-7.955C250.231,122.966,253.794,126.525,253.794,130.918"/>
<path fill="#304B12" d="M250.231,124.286c0.389,0.935,0.602,1.959,0.602,3.036c0,4.393-3.56,7.955-7.953,7.955
	c-1.624,0-3.132-0.489-4.39-1.324c1.191,2.89,4.037,4.919,7.354,4.919c4.394,0,7.95-3.562,7.95-7.95
	C253.794,128.15,252.378,125.712,250.231,124.286"/>
<path fill="#EDEDE9" d="M251.751,131.008c0,2.124-1.724,3.841-3.846,3.841c-2.125,0-3.846-1.721-3.846-3.841
	c0-2.124,1.721-3.844,3.846-3.844C250.027,127.164,251.751,128.881,251.751,131.008"/>
<text transform="matrix(0.8621 -0.5068 0.5068 0.8621 247.6533 133.1152)" fill="#363233" font-family="'ArialMT'" font-size="4.7724">7</text>
<path fill="#EDEDE9" d="M245.896,121.977c0,2.122-1.721,3.844-3.843,3.844s-3.846-1.722-3.846-3.844
	c0-2.124,1.724-3.846,3.846-3.846S245.896,119.856,245.896,121.977"/>
<path fill="none" d="M237.888,130.918c0,4.392,3.563,7.95,7.953,7.95c4.391,0,7.953-3.559,7.953-7.95
	c0-4.393-3.562-7.955-7.953-7.955C241.451,122.966,237.888,126.525,237.888,130.918"/>
<g opacity="0.5">
	<path fill="#CBCCC4" d="M250.754,128.43c-0.377,2.683-2.092,4.94-4.451,6.068c0.49,0.224,1.034,0.351,1.603,0.351
		c2.122,0,3.846-1.721,3.846-3.844C251.751,130.015,251.374,129.112,250.754,128.43"/>
	<rect x="246.31" y="128.43" fill="none" width="5.441" height="6.419"/>
</g>
<g opacity="0.7">
	<path fill="#FFFFFF" d="M246.151,124.327c0.705,0.878-0.122,2.708-1.849,4.09c-1.727,1.385-3.697,1.794-4.399,0.915
		c-0.702-0.877,0.125-2.711,1.852-4.093C243.476,123.857,245.449,123.448,246.151,124.327"/>
	<rect x="239.654" y="123.863" fill="none" width="6.746" height="5.93"/>
</g>
<g opacity="0.7">
	<path fill="#FFFFFF" d="M243.713,130.768c0.279,0.514-0.033,1.224-0.696,1.585c-0.663,0.36-1.429,0.242-1.709-0.271
		c-0.282-0.514,0.031-1.224,0.696-1.585C242.673,130.137,243.434,130.254,243.713,130.768"/>
	<rect x="241.201" y="130.289" fill="none" width="2.612" height="2.272"/>
</g>
<path fill="#100F13" d="M279.667,168.79c-5.773,0-11.216-0.377-15.317-1.065c-5.25-0.877-7.488-2.07-7.488-3.987
	c0-1.921,2.238-3.113,7.488-3.989c4.102-0.687,9.541-1.064,15.317-1.064c5.772,0,11.212,0.377,15.316,1.064
	c5.247,0.879,7.485,2.071,7.485,3.989c0,1.917-2.238,3.11-7.485,3.987C290.876,168.413,285.437,168.79,279.667,168.79"/>
<path fill="#1E1B20" d="M300.979,163.74c0,1.967-9.54,3.561-21.312,3.561c-11.772,0-21.312-1.593-21.312-3.561
	c0-1.968,9.54-3.562,21.312-3.562C291.438,160.179,300.979,161.772,300.979,163.74"/>
<path fill="#010102" d="M279.667,161.082c10.854,0,19.804,1.357,21.135,3.108c0.116-0.149,0.18-0.298,0.18-0.45
	c0-1.968-9.543-3.562-21.314-3.562c-11.77,0-21.312,1.593-21.312,3.562c0,0.152,0.067,0.301,0.177,0.45
	C259.859,162.436,268.812,161.082,279.667,161.082"/>
<path fill="#7BC229" d="M260.13,165.163c3.29,1.257,10.796,2.138,19.53,2.138c8.741,0,16.247-0.877,19.537-2.138
	c-3.29-1.258-10.796-2.14-19.537-2.14C270.926,163.027,263.42,163.905,260.13,165.163"/>
<g>
	<path fill="#304B12" d="M279.667,163.027c-0.587,0-1.168,0.006-1.742,0.012c7.986,0.108,17.807,1.454,17.794,2.127
		c-0.012,0.668-9.805,2.017-17.794,2.125c0.574,0.009,1.155,0.012,1.742,0.012c8.737,0,16.243-0.88,19.533-2.137
		C295.91,163.905,288.404,163.027,279.667,163.027"/>
	<rect x="277.925" y="163.027" fill="none" width="21.275" height="4.276"/>
</g>
<g>
	<path fill="#7BC229" d="M288.562,165.479c0,0.368-5.509,1.11-12.301,1.11s-12.301-0.745-12.301-1.11c0-0.363,5.509-1.5,12.301-1.5
		S288.562,165.113,288.562,165.479"/>
	<rect x="263.961" y="163.976" fill="none" width="24.599" height="2.613"/>
</g>
<path fill="#4D385A" d="M285.729,160.876c0.092,3.405-2.65,6.245-6.126,6.344c-3.475,0.1-6.369-2.577-6.46-5.98
	c-0.098-3.406,2.645-6.245,6.123-6.348C282.737,154.79,285.632,157.473,285.729,160.876"/>
<path fill="#0B0026" d="M285.729,160.876c-0.061-2.146-1.231-4.004-2.961-5.059c0.322,0.711,0.517,1.503,0.535,2.338
	c0.098,3.402-2.648,6.245-6.123,6.343c-1.283,0.038-2.487-0.304-3.502-0.924c1.006,2.21,3.298,3.72,5.922,3.646
	C283.081,167.121,285.82,164.282,285.729,160.876"/>
<path fill="#FFFFFF" d="M282.333,161.371c0.046,1.646-1.28,3.021-2.958,3.066c-1.679,0.05-3.077-1.245-3.126-2.891
	c-0.042-1.645,1.283-3.018,2.962-3.067C280.889,158.429,282.29,159.728,282.333,161.371"/>
<path fill="none" d="M280.822,154.161c-6.783,0.419-11.79,8.608-11.681,10.355c0.109,1.748,5.676,2.526,12.459,2.104
	c6.776-0.422,12.19-2.074,12.081-3.823c-0.104-1.696-5.752-8.654-12.294-8.654C281.199,154.143,281.011,154.148,280.822,154.161"/>
<path fill="#FFFFFF" d="M284.403,153.323c0.049,1.646-1.283,3.021-2.961,3.066c-1.679,0.047-3.077-1.248-3.123-2.891
	c-0.042-1.645,1.283-3.018,2.962-3.068C282.959,150.382,284.36,151.68,284.403,153.323"/>
<path fill="#FFFFFF" d="M274.295,159.493c0.045,1.648-1.28,3.021-2.959,3.066c-1.678,0.047-3.082-1.245-3.119-2.892
	c-0.049-1.643,1.277-3.017,2.955-3.066C272.851,156.552,274.252,157.85,274.295,159.493"/>
<path fill="#FFFFFF" d="M280.591,169.106c0.046,1.648-1.283,3.021-2.961,3.067c-1.679,0.049-3.077-1.246-3.123-2.893
	c-0.045-1.646,1.28-3.021,2.959-3.066C279.149,166.168,280.548,167.463,280.591,169.106"/>
<path fill="#FFFFFF" d="M290.459,163.298c0.046,1.643-1.282,3.019-2.961,3.066c-1.681,0.05-3.076-1.245-3.122-2.891
	c-0.046-1.645,1.28-3.018,2.958-3.068C289.012,160.36,290.411,161.655,290.459,163.298"/>
<path fill="none" d="M279.266,154.892c-3.479,0.1-6.215,2.938-6.123,6.348l12.586-0.363c-0.091-3.344-2.882-5.988-6.277-5.988
	C279.393,154.889,279.329,154.892,279.266,154.892"/>
<g opacity="0.5">
	<path fill="#FFFFFF" d="M282.327,161.632c-0.867,1.333-2.235,2.32-3.853,2.7c0.286,0.077,0.587,0.114,0.9,0.104
		C280.962,164.394,282.232,163.158,282.327,161.632"/>
	<rect x="278.475" y="161.632" fill="none" width="3.853" height="2.808"/>
</g>
<g opacity="0.5">
	<path fill="#FFFFFF" d="M279.603,167.22c0.07,0,0.146-0.006,0.219-0.012c-0.574-0.632-1.423-1.021-2.355-0.993
		c-0.39,0.009-0.758,0.096-1.098,0.235C277.325,166.971,278.433,167.255,279.603,167.22"/>
	<rect x="276.371" y="166.215" fill="none" width="3.45" height="1.008"/>
</g>
<g opacity="0.5">
	<path fill="#FFFFFF" d="M284.376,163.473c0.009,0.381,0.094,0.743,0.24,1.076c0.729-1.034,1.143-2.288,1.112-3.636
		C284.89,161.466,284.343,162.41,284.376,163.473"/>
	<rect x="284.373" y="160.913" fill="none" width="1.355" height="3.633"/>
</g>
<path fill="#010102" d="M277.593,162.467l0.444-0.128c0.03,0.112,0.085,0.193,0.158,0.246c0.072,0.054,0.151,0.069,0.246,0.057
	c0.098-0.017,0.173-0.065,0.225-0.15c0.052-0.084,0.07-0.186,0.052-0.311c-0.018-0.118-0.063-0.207-0.14-0.264
	c-0.073-0.056-0.155-0.079-0.243-0.067c-0.063,0.011-0.134,0.035-0.213,0.07l-0.006-0.389c0.128-0.017,0.219-0.064,0.276-0.131
	c0.055-0.07,0.076-0.153,0.064-0.249c-0.016-0.082-0.052-0.143-0.11-0.184c-0.055-0.041-0.121-0.056-0.203-0.044
	c-0.076,0.012-0.144,0.053-0.191,0.119c-0.049,0.065-0.07,0.149-0.064,0.258l-0.44-0.003c0.006-0.152,0.033-0.276,0.076-0.377
	c0.045-0.096,0.118-0.181,0.219-0.249c0.101-0.065,0.216-0.112,0.35-0.134c0.228-0.037,0.426,0.006,0.587,0.131
	c0.131,0.1,0.21,0.228,0.237,0.38c0.033,0.211-0.059,0.401-0.268,0.567c0.146,0.006,0.268,0.056,0.367,0.146
	c0.098,0.09,0.161,0.208,0.186,0.354c0.033,0.213-0.012,0.409-0.146,0.584c-0.131,0.176-0.313,0.28-0.544,0.319
	c-0.223,0.035-0.414,0-0.581-0.102C277.767,162.815,277.65,162.666,277.593,162.467"/>
<path fill="#010102" d="M279.484,162.161l0.443-0.131c0.03,0.116,0.085,0.196,0.158,0.246c0.073,0.054,0.152,0.069,0.243,0.057
	c0.098-0.015,0.174-0.065,0.226-0.149c0.055-0.085,0.069-0.187,0.052-0.312c-0.021-0.118-0.064-0.205-0.138-0.264
	c-0.075-0.056-0.157-0.078-0.249-0.065c-0.061,0.009-0.131,0.033-0.207,0.068l-0.009-0.386c0.128-0.015,0.219-0.059,0.276-0.131
	c0.055-0.068,0.076-0.153,0.062-0.246c-0.013-0.083-0.049-0.143-0.106-0.187c-0.058-0.04-0.125-0.056-0.204-0.042
	c-0.076,0.012-0.14,0.052-0.191,0.114c-0.046,0.065-0.07,0.153-0.063,0.261l-0.444-0.006c0.006-0.148,0.03-0.273,0.079-0.374
	c0.046-0.096,0.115-0.18,0.219-0.248c0.098-0.067,0.213-0.112,0.347-0.134c0.229-0.038,0.426,0.006,0.584,0.131
	c0.134,0.102,0.213,0.227,0.237,0.375c0.036,0.213-0.055,0.403-0.268,0.57c0.146,0.006,0.268,0.057,0.367,0.146
	c0.101,0.091,0.161,0.21,0.186,0.359c0.037,0.211-0.012,0.407-0.146,0.582c-0.134,0.178-0.313,0.283-0.547,0.321
	c-0.22,0.034-0.411,0-0.578-0.104C279.654,162.514,279.539,162.363,279.484,162.161"/>
<g opacity="0.7">
	<path fill="#FFFFFF" d="M279.551,155.935c0.575,0.665-0.042,2.105-1.377,3.214c-1.338,1.111-2.885,1.476-3.457,0.809
		c-0.577-0.666,0.04-2.104,1.374-3.215C277.429,155.634,278.974,155.272,279.551,155.935"/>
	<rect x="274.498" y="155.602" fill="none" width="5.266" height="4.688"/>
</g>
<g opacity="0.7">
	<path fill="#FFFFFF" d="M277.754,160.984c0.234,0.389,0,0.95-0.517,1.245c-0.52,0.296-1.128,0.219-1.358-0.173
		c-0.237-0.392,0-0.95,0.517-1.247C276.912,160.521,277.523,160.595,277.754,160.984"/>
	<rect x="275.787" y="160.636" fill="none" width="2.056" height="1.774"/>
</g>
<path fill="none" d="M280.822,154.161c-6.783,0.419-11.79,8.608-11.681,10.355c0.109,1.748,5.676,2.526,12.459,2.104
	c6.776-0.422,12.19-2.074,12.081-3.823c-0.104-1.696-5.752-8.654-12.294-8.654C281.199,154.143,281.011,154.148,280.822,154.161"/>
<path fill="#7BC229" d="M277.377,164.68c-0.261,3.393-3.286,5.935-6.752,5.67c-3.469-0.266-6.065-3.235-5.798-6.629
	c0.262-3.396,3.286-5.933,6.752-5.668S277.642,161.284,277.377,164.68"/>
<path fill="#304B12" d="M277.377,164.68c0.168-2.142-0.803-4.108-2.41-5.338c0.249,0.743,0.353,1.55,0.291,2.38
	c-0.268,3.397-3.292,5.935-6.755,5.667c-1.283-0.097-2.444-0.564-3.387-1.286c0.766,2.305,2.888,4.047,5.509,4.248
	C274.085,170.614,277.113,168.073,277.377,164.68"/>
<path fill="#FFFFFF" d="M273.951,164.813c-0.128,1.642-1.594,2.867-3.266,2.739c-1.678-0.127-2.931-1.56-2.803-3.203
	s1.59-2.867,3.265-2.739C272.823,161.742,274.078,163.173,273.951,164.813"/>
<path fill="none" d="M260.61,163.996c-0.055,1.281,5.412,2.338,12.2,2.626c6.786,0.289,12.331-0.433,12.386-1.714
	c0.059-1.283-5.204-7.136-11.993-7.429c-0.177-0.006-0.347-0.009-0.517-0.009C266.125,157.473,260.665,162.743,260.61,163.996"/>
<path fill="#FFFFFF" d="M276.852,157.028c-0.128,1.64-1.594,2.867-3.266,2.739c-1.675-0.128-2.931-1.56-2.803-3.203
	c0.131-1.64,1.593-2.867,3.265-2.739C275.724,153.956,276.979,155.388,276.852,157.028"/>
<path fill="#FFFFFF" d="M266.156,162.108c-0.128,1.642-1.594,2.869-3.266,2.741c-1.678-0.128-2.931-1.562-2.803-3.204
	c0.127-1.641,1.587-2.867,3.265-2.739C265.028,159.033,266.283,160.465,266.156,162.108"/>
<path fill="#FFFFFF" d="M271.406,172.326c-0.128,1.64-1.59,2.867-3.266,2.739c-1.675-0.128-2.931-1.56-2.803-3.203
	c0.128-1.643,1.59-2.867,3.269-2.739C270.278,169.254,271.534,170.686,271.406,172.326"/>
<path fill="#FFFFFF" d="M281.825,167.585c-0.128,1.64-1.59,2.867-3.266,2.739c-1.678-0.128-2.931-1.56-2.803-3.203
	c0.128-1.645,1.587-2.867,3.266-2.739C280.7,164.51,281.953,165.941,281.825,167.585"/>
<path fill="none" d="M264.824,163.721l12.553,0.959c0.265-3.393-2.332-6.36-5.798-6.625c-0.167-0.012-0.334-0.018-0.498-0.018
	C267.828,158.034,265.073,160.487,264.824,163.721"/>
<g opacity="0.5">
	<path fill="#FFFFFF" d="M273.914,165.072c-0.997,1.232-2.462,2.073-4.11,2.282c0.274,0.106,0.572,0.175,0.882,0.199
		C272.272,167.675,273.665,166.582,273.914,165.072"/>
	<rect x="269.804" y="165.072" fill="none" width="4.11" height="2.49"/>
</g>
<g opacity="0.5">
	<path fill="#FFFFFF" d="M270.622,170.35c0.069,0.003,0.146,0.006,0.216,0.009c-0.505-0.688-1.308-1.164-2.237-1.232
		c-0.39-0.032-0.761,0.015-1.113,0.12C268.381,169.86,269.451,170.259,270.622,170.35"/>
	<rect x="267.487" y="169.112" fill="none" width="3.351" height="1.247"/>
</g>
<g opacity="0.5">
	<path fill="#FFFFFF" d="M275.757,167.121c-0.024,0.383,0.019,0.75,0.128,1.096c0.83-0.95,1.374-2.156,1.489-3.5
		C276.48,165.179,275.839,166.059,275.757,167.121"/>
	<rect x="275.751" y="164.718" fill="none" width="1.62" height="3.5"/>
</g>
<path fill="#010102" d="M269.697,165.312l0.316,0.042c-0.006,0.15,0.016,0.266,0.079,0.346c0.058,0.081,0.143,0.134,0.259,0.161
	c0.097,0.023,0.194,0.023,0.276-0.006c0.088-0.027,0.161-0.071,0.222-0.137c0.067-0.065,0.134-0.155,0.195-0.273
	c0.066-0.119,0.109-0.247,0.14-0.377c0.003-0.013,0.006-0.034,0.012-0.065c-0.085,0.086-0.194,0.149-0.322,0.187
	c-0.128,0.037-0.255,0.042-0.386,0.009c-0.219-0.05-0.387-0.17-0.499-0.357c-0.115-0.19-0.14-0.412-0.082-0.665
	c0.064-0.261,0.191-0.455,0.39-0.578c0.191-0.125,0.407-0.16,0.645-0.104c0.17,0.037,0.319,0.122,0.438,0.243
	c0.121,0.122,0.197,0.274,0.231,0.458c0.036,0.184,0.018,0.435-0.062,0.752c-0.079,0.33-0.176,0.585-0.298,0.763
	c-0.118,0.181-0.261,0.302-0.432,0.371c-0.17,0.068-0.353,0.081-0.544,0.037c-0.204-0.046-0.362-0.14-0.465-0.283
	C269.719,165.695,269.677,165.521,269.697,165.312 M271.291,164.478c0.045-0.181,0.027-0.336-0.046-0.466
	c-0.073-0.131-0.183-0.21-0.319-0.24c-0.143-0.034-0.282-0.006-0.416,0.083c-0.134,0.091-0.219,0.228-0.265,0.412
	c-0.04,0.164-0.019,0.307,0.058,0.435s0.188,0.207,0.338,0.24c0.148,0.035,0.282,0.009,0.404-0.068
	C271.166,164.79,271.245,164.659,271.291,164.478"/>
<g opacity="0.7">
	<path fill="#FFFFFF" d="M271.75,159.119c0.498,0.721-0.262,2.086-1.709,3.051c-1.44,0.965-3.021,1.164-3.523,0.442
		c-0.502-0.719,0.259-2.085,1.705-3.051C269.67,158.597,271.245,158.397,271.75,159.119"/>
	<rect x="266.365" y="158.685" fill="none" width="5.54" height="4.361"/>
</g>
<g opacity="0.7">
	<path fill="#FFFFFF" d="M269.434,163.952c0.191,0.414-0.095,0.943-0.642,1.183c-0.545,0.244-1.144,0.101-1.335-0.314
		c-0.188-0.411,0.104-0.942,0.645-1.183C268.648,163.397,269.245,163.54,269.434,163.952"/>
	<rect x="267.399" y="163.521" fill="none" width="2.092" height="1.731"/>
</g>
<path fill="none" d="M260.61,163.996c-0.055,1.281,5.412,2.338,12.2,2.626c6.786,0.289,12.331-0.433,12.386-1.714
	c0.059-1.283-5.204-7.136-11.993-7.429c-0.177-0.006-0.347-0.009-0.517-0.009C266.125,157.473,260.665,162.743,260.61,163.996"/>
<path fill="#FFA512" d="M294.697,163.724c0.229,3.397-2.398,6.348-5.867,6.582c-3.466,0.239-6.464-2.322-6.695-5.722
	c-0.225-3.397,2.402-6.345,5.871-6.582C291.475,157.764,294.473,160.328,294.697,163.724"/>
<path fill="#DA5F02" d="M294.697,163.724c-0.14-2.142-1.386-3.951-3.158-4.937c0.353,0.704,0.574,1.485,0.632,2.316
	c0.231,3.396-2.398,6.345-5.864,6.581c-1.283,0.088-2.499-0.205-3.539-0.784c1.095,2.17,3.444,3.587,6.062,3.406
	C292.299,170.069,294.926,167.121,294.697,163.724"/>
<path fill="#FFFFFF" d="M291.329,164.35c0.109,1.643-1.161,3.066-2.84,3.182c-1.672,0.115-3.125-1.124-3.234-2.768
	c-0.106-1.64,1.161-3.066,2.839-3.182C289.767,161.474,291.22,162.71,291.329,164.35"/>
<path fill="none" d="M289.529,157.206c-6.762,0.695-11.65,6.982-11.52,8.259s5.694,1.535,12.453,0.844
	c6.755-0.692,12.139-2.208,12.006-3.483c-0.122-1.196-5.437-5.685-11.656-5.685C290.387,157.14,289.961,157.158,289.529,157.206"/>
<path fill="#FFFFFF" d="M293.077,156.228c0.109,1.643-1.161,3.066-2.837,3.182c-1.678,0.116-3.125-1.124-3.237-2.768
	c-0.106-1.64,1.161-3.066,2.836-3.182C291.518,153.348,292.965,154.583,293.077,156.228"/>
<path fill="#FFFFFF" d="M283.221,162.796c0.109,1.644-1.161,3.066-2.837,3.182c-1.675,0.116-3.125-1.124-3.234-2.764
	c-0.109-1.645,1.161-3.07,2.836-3.183C281.661,159.92,283.111,161.153,283.221,162.796"/>
<path fill="#FFFFFF" d="M289.894,172.151c0.109,1.645-1.161,3.067-2.839,3.182c-1.673,0.115-3.126-1.124-3.235-2.764
	c-0.106-1.645,1.161-3.067,2.84-3.182C288.331,169.272,289.784,170.511,289.894,172.151"/>
<path fill="#FFFFFF" d="M299.52,165.957c0.109,1.64-1.162,3.066-2.834,3.182c-1.675,0.115-3.125-1.124-3.234-2.769
	c-0.109-1.64,1.161-3.066,2.833-3.182C297.963,163.076,299.413,164.312,299.52,165.957"/>
<path fill="none" d="M288.006,158.002c-3.469,0.237-6.096,3.185-5.864,6.582l12.562-0.86c-0.219-3.25-2.973-5.737-6.25-5.737
	C288.304,157.987,288.152,157.993,288.006,158.002"/>
<g opacity="0.5">
	<path fill="#FFFFFF" d="M291.329,164.611c-0.809,1.364-2.141,2.407-3.739,2.852c0.288,0.065,0.586,0.089,0.899,0.068
		C290.079,167.425,291.299,166.144,291.329,164.611"/>
	<rect x="287.59" y="164.611" fill="none" width="3.739" height="2.926"/>
</g>
<g opacity="0.5">
	<path fill="#FFFFFF" d="M288.83,170.306c0.072-0.003,0.146-0.012,0.219-0.02c-0.596-0.606-1.459-0.961-2.39-0.898
		c-0.39,0.027-0.754,0.128-1.085,0.28C286.544,170.146,287.662,170.386,288.83,170.306"/>
	<rect x="285.574" y="169.382" fill="none" width="3.475" height="0.939"/>
</g>
<g opacity="0.5">
	<path fill="#FFFFFF" d="M293.451,166.37c0.024,0.383,0.124,0.739,0.279,1.066c0.688-1.062,1.052-2.335,0.973-3.677
		C293.883,164.347,293.378,165.312,293.451,166.37"/>
	<rect x="293.445" y="163.762" fill="none" width="1.265" height="3.677"/>
</g>
<path fill="#010102" d="M287.766,165.405l-0.243,0.365l-1.38-0.916c0.109-0.127,0.243-0.231,0.395-0.302
	c0.158-0.075,0.414-0.14,0.772-0.196c0.286-0.05,0.469-0.086,0.548-0.122c0.109-0.047,0.188-0.108,0.243-0.187
	c0.058-0.086,0.075-0.17,0.063-0.249c-0.019-0.078-0.063-0.146-0.149-0.198c-0.079-0.053-0.164-0.073-0.246-0.056
	c-0.082,0.018-0.161,0.081-0.246,0.193l-0.365-0.299c0.165-0.199,0.341-0.309,0.529-0.321c0.183-0.012,0.371,0.044,0.554,0.164
	c0.2,0.135,0.325,0.296,0.371,0.48c0.042,0.187,0.006,0.362-0.098,0.523c-0.061,0.093-0.137,0.169-0.225,0.231
	c-0.092,0.061-0.201,0.114-0.335,0.158c-0.085,0.027-0.228,0.06-0.429,0.09c-0.197,0.032-0.331,0.056-0.386,0.068
	c-0.058,0.017-0.109,0.035-0.152,0.056L287.766,165.405z"/>
<path fill="#010102" d="M288.797,166.617l-0.393-0.262l0.985-1.482c-0.234,0.041-0.469,0.026-0.709-0.041l0.24-0.354
	c0.125,0.035,0.276,0.044,0.456,0.032c0.186-0.014,0.341-0.07,0.469-0.166l0.322,0.211L288.797,166.617z"/>
<g opacity="0.7">
	<path fill="#FFFFFF" d="M288.331,159.033c0.599,0.642,0.036,2.105-1.249,3.265c-1.293,1.165-2.824,1.588-3.427,0.947
		c-0.602-0.642-0.042-2.101,1.25-3.266C286.197,158.815,287.729,158.391,288.331,159.033"/>
	<rect x="283.412" y="158.733" fill="none" width="5.156" height="4.811"/>
</g>
<g opacity="0.7">
	<path fill="#FFFFFF" d="M286.735,164.151c0.249,0.383,0.039,0.946-0.466,1.263c-0.504,0.318-1.115,0.266-1.364-0.117
		c-0.247-0.383-0.04-0.947,0.465-1.265C285.881,163.715,286.489,163.768,286.735,164.151"/>
	<rect x="284.802" y="163.827" fill="none" width="2.04" height="1.797"/>
</g>
<path fill="none" d="M289.529,157.206c-6.762,0.695-11.65,6.982-11.52,8.259s5.694,1.535,12.453,0.844
	c6.755-0.692,12.139-2.208,12.006-3.483c-0.122-1.196-5.437-5.685-11.656-5.685C290.387,157.14,289.961,157.158,289.529,157.206"/>
<path fill="#010102" d="M301.58,165.523c-1.091,0.938-3.216,1.634-6.603,2.201c-4.102,0.686-9.544,1.065-15.317,1.065
	c-5.77,0-11.212-0.38-15.316-1.065c-3.381-0.567-5.509-1.263-6.598-2.201c-1.587,3.238-2.48,6.871-2.48,10.718
	c0,13.475,10.921,24.398,24.395,24.398c13.475,0,24.401-10.923,24.401-24.398C304.062,172.395,303.168,168.761,301.58,165.523"/>
<path fill="#030306" d="M279.667,168.79c-5.773,0-11.216-0.377-15.317-1.065c-3.387-0.567-5.515-1.263-6.604-2.201
	c-1.58,3.238-2.48,6.871-2.48,10.718c0,10.2,6.263,18.935,15.146,22.577c14.095-0.702,25.307-12.352,25.307-26.62
	c0-1.547-0.134-3.06-0.389-4.533c-0.116,0.018-0.231,0.041-0.347,0.059C290.876,168.413,285.437,168.79,279.667,168.79"/>
<path fill="#060609" d="M285.659,168.649c-1.925,0.091-3.938,0.141-5.992,0.141c-5.773,0-11.216-0.377-15.317-1.062
	c-3.387-0.567-5.512-1.263-6.604-2.204c-1.58,3.238-2.48,6.871-2.48,10.718c0,7.245,3.165,13.748,8.179,18.216
	C275.896,192.36,285.416,181.645,285.659,168.649"/>
<path fill="#100F13" d="M263.565,194.567l-1.603,7.648c0,0,0.8,1.009,2.952,0.443l2.84-5.124
	C266.25,196.693,264.849,195.696,263.565,194.567"/>
<path fill="#010102" d="M263.565,194.567l-0.279,1.329c0.981,0.769,2.358,1.52,2.626,2.459c0.274,0.941-2.201,4.474-2.201,4.474
	c0.347-0.004,0.742-0.049,1.207-0.171l2.84-5.124C266.25,196.693,264.849,195.696,263.565,194.567"/>
<path fill="#17121E" d="M295.786,194.549c-1.286,1.132-2.688,2.132-4.189,2.975l2.846,5.132c2.152,0.565,2.948-0.44,2.948-0.44
	L295.786,194.549L295.786,194.549z"/>
<path fill="#100F13" d="M295.786,194.549c-1.286,1.132-2.688,2.132-4.189,2.975l2.846,5.132c2.152,0.565,2.948-0.44,2.948-0.44
	L295.786,194.549L295.786,194.549z"/>
<path fill="#010102" d="M293.5,198.396c0.35-1.236,1.568-1.529,2.602-2.347l-0.315-1.497l0,0c-1.286,1.132-2.688,2.129-4.189,2.975
	l2.846,5.132c0.331,0.085,0.632,0.134,0.905,0.155C295.342,202.811,293.22,199.383,293.5,198.396"/>
<path fill="#100F13" d="M269.811,175.452c-0.377,2.201-2.9,3.605-5.634,3.137c-2.736-0.467-4.648-2.626-4.274-4.828
	c0.377-2.201,2.897-3.606,5.633-3.138C268.271,171.093,270.188,173.253,269.811,175.452"/>
<g opacity="0.48">
	<path fill="#1E1826" d="M301.888,166.177c-0.101-0.217-0.198-0.436-0.308-0.651c-1.088,0.938-3.213,1.634-6.597,2.201
		c-4.104,0.689-9.544,1.066-15.316,1.066c-5.776,0-11.216-0.377-15.317-1.066c-3.387-0.567-5.515-1.263-6.604-2.201
		c-0.103,0.215-0.206,0.437-0.304,0.651c0.961,1.096,3.168,1.88,6.907,2.507c4.102,0.684,9.541,1.064,15.317,1.064
		c5.772,0,11.212-0.38,15.316-1.064C298.723,168.058,300.924,167.27,301.888,166.177"/>
	<rect x="257.442" y="165.523" fill="none" width="44.445" height="4.222"/>
</g>
<path fill="#1E1826" d="M302.83,168.666c1.724-2.569,6.707-3.126,7.263,0.464c0.9,5.775-9.139,10.03-9.139,10.03
	c-1.231-0.704-0.508-1.896-0.508-1.896c4.782-1.358,9.659-6.812,7.379-8.612c-1.9-1.494-4.469,1.883-4.469,1.883L302.83,168.666z"/>
<path fill="#100F13" d="M302.83,168.666c1.724-2.569,6.707-3.126,7.263,0.464c0.9,5.775-9.139,10.03-9.139,10.03
	c-1.231-0.704-0.508-1.896-0.508-1.896c4.782-1.358,9.659-6.812,7.379-8.612c-1.9-1.494-4.469,1.883-4.469,1.883L302.83,168.666z"/>
<path fill="#100F13" d="M256.473,168.666c-1.724-2.569-6.707-3.126-7.263,0.464c-0.9,5.775,9.136,10.03,9.136,10.03
	c1.231-0.704,0.511-1.896,0.511-1.896c-4.782-1.358-9.665-6.812-7.373-8.612c1.895-1.494,4.463,1.883,4.463,1.883L256.473,168.666z"
	/>
<path fill="#010102" d="M171.422,241.057c-1.338,0.924-4.302,5.527-4.863,6.369c-0.557,0.842,4.188,10.097,4.42,10.285
	c0.234,0.194,7.307,2.833,9.674,2.161c2.366-0.672,3.685-2.456,1.849-2.909c-1.836-0.456-5.006-1.355-5.074-3.423
	c-0.068-2.07,0.744-8.814,0.744-8.814L171.422,241.057z"/>
<path fill="#7D6982" d="M52.648,167.451c0,0,6.656-2.335,8.216,5.249c0,0,3.287-1.616,6.774,3.131c0,0,0.66-5.29,4.788-4.545
	c4.129,0.744,9.471,5.386,9.471,5.386l-2.37-4.869l3.497-7.135l-4.539-7.88l-4.757,4.194l-8.847-3.674
	C64.881,157.308,54.948,162.312,52.648,167.451"/>
<path fill="#7D6982" d="M94.524,171.806c0,0-1.292-13.483,9.203-10.504c0,0,2.416-6.862,8.809-5.002c0,0-3.417-12.634,2.459-15.308
	c0,0-11.527-1.23-17.919,2.412l-5.43,10.333l-3.643-0.595v8.085l5.276,5.855l0.445,5.168L94.524,171.806z"/>
<path fill="#574F61" d="M109.349,145.833c-0.009,0.042-0.015,0.072-0.021,0.093c0,0.021,0,0.047,0,0.086
	c-0.003,0.083,0,0.163,0,0.247c0.034-0.25,0.075-0.496,0.128-0.737C109.396,145.618,109.393,145.644,109.349,145.833"/>
<path fill="#4D385A" d="M99.729,144.516l0.093,0.003l-1.04-0.591l1.04-0.669h-1.488l0.358-0.436c5.858-2.674,16.3-1.83,16.3-1.83
	c-6.681-1.218-13.404,0.143-15.73,1.138l0.114-0.134l-0.529,0.324c-1.213,0.573-1.774,1.087-1.774,1.087l-5.95,9.738
	c0,0-2.653-2.095-5.945-0.894c-6.561,0.822-7.927,2.536-7.927,2.536l-3.595,5.345l-7.509-2.677l-0.968-1.488v0.818h-0.894v0.166
	c-1.426,0.809-9.513,5.719-12.004,11.03c0,0,7.354-8.418,12.479-10.329l0.33,0.137c-4.72,7.496-4.221,14.906-4.221,14.906
	c0-6.653,3.624-12.743,4.866-14.639l0.024,0.012c-1.211,11.095,1.88,17.758,1.88,17.758c-2.683-6.861-1.708-15.542-1.426-17.571
	l7.815,3.265l3.832-3.881c0,0,0.108,2.113,0.999,4.202c0.891,2.083,2.828,3.656,2.828,3.656l-3.048,5.707l2.963,4.495l-1.264,0.445
	l1.114,0.149l-1.488,0.371l2.599-0.225l-2.368-4.94l2.9-4.685c0,0,2.75,1.081,4.238,0.482c1.485-0.594,2.08-2.639,2.08-2.639
	l3.048,2.377l0.743,5.801h3.273l-1.114-0.449l1.04-0.594h-1.19l0.445-0.52l-1.708,0.52l-0.371-5.056l-3.567-4.316
	c0,0,0.968-2.154,0.312-4.382c-0.237-1.934-1.5-3.642-1.5-3.642l3.346,0.594l5.243-9.794c1.227,1.765,5.463,8.336,6.317,16.092
	c0,0-0.127-9.851-6.024-16.644l0.065-0.119c5.999,1.69,14.768,11.759,14.768,11.759C109.479,150.829,102.297,145.933,99.729,144.516
	"/>
<g opacity="0.6">
	<path fill="#170A30" d="M99.729,144.516l0.093,0.003l-1.04-0.591l1.04-0.669h-1.488l0.358-0.436c5.858-2.674,16.3-1.83,16.3-1.83
		c-6.681-1.218-13.404,0.143-15.73,1.138l0.114-0.134l-0.529,0.324c-1.213,0.573-1.774,1.087-1.774,1.087l-5.95,9.738
		c0,0-2.653-2.095-5.945-0.894c-0.499,0.064-0.965,0.131-1.405,0.204c0.122,0.14,0.217,0.31,0.283,0.494
		c0.464,1.286,0.953,2.613,0.991,3.992c0.034,1.357-0.389,2.674-1.102,3.82c-0.769,1.233-1.713,2.318-3.074,2.906
		c-0.24,0.106-0.482,0.19-0.728,0.252c0.785,0.971,1.542,1.585,1.542,1.585l-3.048,5.707l2.963,4.495l-1.264,0.445l1.114,0.149
		l-1.488,0.371l2.599-0.223l-2.368-4.942l2.9-4.685c0,0,2.75,1.081,4.238,0.482c1.485-0.594,2.08-2.639,2.08-2.639l3.048,2.377
		l0.743,5.801h3.273l-1.114-0.448l1.04-0.594h-1.19l0.445-0.52l-1.708,0.52l-0.371-5.056l-3.567-4.315c0,0,0.968-2.154,0.312-4.383
		c-0.237-1.934-1.5-3.642-1.5-3.642l3.346,0.595l5.243-9.794c1.227,1.765,5.463,8.336,6.317,16.092c0,0-0.127-9.85-6.024-16.644
		l0.065-0.117c5.999,1.69,14.768,11.758,14.768,11.758C109.479,150.829,102.297,145.933,99.729,144.516"/>
	<rect x="78.635" y="140.509" fill="none" width="36.358" height="36.167"/>
</g>
<path fill="#796788" d="M83.56,126.276c-5.278,2.646-4.574,13.822-4.574,13.822l7.742,3.321
	C88.809,131.861,83.56,126.276,83.56,126.276"/>
<g opacity="0.6">
	<path fill="#4D385A" d="M83.56,126.276c-5.278,2.646-4.574,13.822-4.574,13.822l7.742,3.321
		C88.809,131.861,83.56,126.276,83.56,126.276"/>
	<rect x="78.952" y="126.276" fill="none" width="8.262" height="17.141"/>
</g>
<path fill="#26163C" d="M83.503,126.571c-5.199,2.581-2.846,14.468-2.846,14.468l5.968,2.253
	C88.676,132.019,83.503,126.571,83.503,126.571"/>
<path fill="#0B0026" d="M86.215,142.837c0.003-5.279-4.057-8.913-5.981-9.833c-0.392,3.916,0.424,8.038,0.424,8.038l5.558,3.437
	C86.215,144.005,86.215,143.312,86.215,142.837"/>
<path fill="#705B77" d="M65.817,132.149c0,0-1.976,10.654,6.604,16.495l3.941-6.454C76.359,142.19,71.72,132,65.817,132.149"/>
<path fill="#26163C" d="M66.007,132.384c5.799-0.17,9.321,11.425,9.321,11.425l-2.88,4.676
	C64.055,143.125,66.007,132.384,66.007,132.384"/>
<path fill="#0B0026" d="M71.984,136.622c-0.458,0.572-3.203,3.052-1.512,10.454c0.687,0.696,1.049,0.821,1.973,1.412l2.88-4.676
	C75.325,143.812,74.129,139.875,71.984,136.622"/>
<path fill="#705B77" d="M87.737,150.524c0,0-3.266,3.928-5.362,4.355c-2.095,0.427-5.909-0.16-5.909-0.16l-1.272,0.412l0.311-0.476
	l-1.498,0.444l0.035-1.263l-0.725,0.647l0.375-1.438l-0.912,0.755l0.406-1.198c0,0-2.043-4.2-0.16-7.941l-0.71-0.02
	c0,0,1.651-1.777,3.068-1.961c0,0-2.025,0.504-3.048,1.257c0,0,1.462-1.818,3.564-2.434c0,0-2.008,0.021-3.064,0.55
	c0,0,2.308-2.764,7.839-2.502l2.572-0.153l-0.312,0.439l1.09-0.417l-0.284,0.883l0.866-0.423l0.04,1.23c0,0,3.039,3.28,3.425,3.996
	l-0.342,0.365l1.456-0.258l-1.03,1.016c0,0,1.164-0.452,1.426-0.409c0,0-0.588,1.211-1.08,1.461c0,0,0.669,0.015,1.034,0.268
	l-1.134,0.62l0.894-0.014L87.737,150.524z"/>
<g opacity="0.6">
	<path fill="#4D385A" d="M88.497,147.271c0.491-0.246,1.079-1.458,1.079-1.458c-0.258-0.044-1.426,0.409-1.426,0.409l1.034-1.016
		l-1.456,0.259l0.342-0.365c-0.389-0.716-3.425-3.997-3.425-3.997l-0.04-1.23l-0.866,0.423l0.284-0.885l-1.09,0.418l0.312-0.439
		l-2.572,0.152c-3.867-0.18-6.155,1.109-7.186,1.909c1.125-0.327,2.528-0.538,4.241-0.458l2.571-0.154l-0.31,0.439l1.088-0.417
		l-0.282,0.883l0.865-0.423c0,0,1.476,0.289,2.724,1.432c1.503,1.382,0.398,2.946,0.787,3.665l0.16,0.214l1.457-0.258l-1.023,1.019
		c0,0,1.165-0.455,1.426-0.409c0,0-0.59,1.211-1.081,1.461c0,0,0.669,0.018,1.034,0.268l-1.134,0.62l0.894-0.014l-2.104,2.652
		c0,0-1.42,1.706-2.986,2.992c0.199-0.021,0.389-0.052,0.569-0.086c2.096-0.427,5.361-4.355,5.361-4.355l1.554-2.376l-0.894,0.012
		l1.134-0.619C89.163,147.29,88.497,147.271,88.497,147.271"/>
	<rect x="73.487" y="139.395" fill="none" width="16.086" height="15.572"/>
</g>
<path fill="#C43701" d="M81.847,151.523c0,0-0.202,0.091-0.312,0.097c-0.778,0.027-3.804-0.097-3.568-2.507
	c0.062-0.626,0.032-1.009,0.216-1.204c0.125-0.131,0.442-0.169,0.591-0.169c0.594,0.003,1.286,0.847,1.286,0.847
	s-0.119-0.822,0.304-1.254c0.147-0.15,0.529-0.252,0.77-0.258c0.172-0.008,0.371,0.036,0.601,0.149
	C83.207,147.94,82.906,149.967,81.847,151.523"/>
<path fill="#38254A" d="M73.345,148.469c-0.03,1.208,0.707,2.329,1.98,2.335c1.774,0.012,2.026-1.204,2.06-2.409
	c0.035-1.206-0.859-1.75-1.92-1.777C74.402,146.589,73.376,147.266,73.345,148.469"/>
<g opacity="0.2">
	<path fill="#FFFFFF" d="M81.535,151.621c0,0-4.15,0.336-3.878-2.409c0.273-2.744,2.095-0.523,2.095-0.523s0.205-2.077,1.675-1.365
		C82.896,148.038,82.595,150.064,81.535,151.621"/>
	<rect x="77.646" y="147.171" fill="none" width="4.785" height="4.461"/>
</g>
<path fill="#2D0616" d="M78.169,148.544c0.306-0.295,1.006-0.494,1.371,0.701c0.366,1.195-0.465,1.775-1.04,1.23
	C77.925,149.927,77.865,148.84,78.169,148.544"/>
<path fill="#2D0616" d="M81.196,147.676c-0.425-0.035-1.117,0.255-0.694,1.414c0.421,1.161,1.449,1.082,1.588,0.292
	S81.623,147.709,81.196,147.676"/>
<g opacity="0.2">
	<path fill="#FFFFFF" d="M78.501,150.472c0.339,0.32,0.761,0.249,0.983-0.106c-0.222,0.115-0.493,0.079-0.725-0.14
		c-0.517-0.488-0.617-1.42-0.409-1.815c-0.069,0.038-0.131,0.083-0.181,0.131C77.865,148.84,77.925,149.927,78.501,150.472"/>
	<rect x="77.99" y="148.413" fill="none" width="1.494" height="2.267"/>
</g>
<g opacity="0.2">
	<path fill="#FFFFFF" d="M80.501,149.09c0.368,1.004,1.184,1.079,1.488,0.568c-0.375,0.19-0.939-0.027-1.227-0.812
		c-0.186-0.514-0.155-0.853-0.027-1.075C80.433,147.931,80.222,148.317,80.501,149.09"/>
	<rect x="80.371" y="147.769" fill="none" width="1.616" height="2.198"/>
</g>
<path fill="#38254A" d="M81.787,146.375c0.626,1.034,1.903,1.646,2.93,0.897c1.152-0.844,1.164-2.35,0.337-3.235
	c-0.957-1.021-1.856-0.719-2.765-0.171C81.383,144.417,81.163,145.341,81.787,146.375"/>
<path fill="#010103" d="M82.672,145.469c-0.015,0.57,0.437,1.043,1.002,1.058c0.567,0.015,1.04-0.432,1.06-1.002
	c0.012-0.57-0.434-1.04-1.003-1.06C83.16,144.447,82.687,144.898,82.672,145.469"/>
<path fill="#010103" d="M74.226,148.457c-0.017,0.57,0.432,1.043,1.002,1.058c0.57,0.012,1.043-0.432,1.058-1.001
	c0.014-0.57-0.432-1.043-1.002-1.06C74.714,147.439,74.241,147.887,74.226,148.457"/>
<path fill="#FEA621" d="M-97.917,0c3.214,8.004,11.041,13.658,20.193,13.658c3.174,0,6.187-0.686,8.905-1.906
	c-1.732,4.002-2.698,8.416-2.698,13.055c0,18.174,14.733,32.905,32.905,32.905c3.523,0,6.912-0.56,10.094-1.584
	c9.748,13.547,25.641,22.376,43.604,22.376c29.655,0,53.697-24.041,53.697-53.697c0-0.373-0.021-0.74-0.028-1.111
	c0.009,0,0.019,0,0.028,0c12.259,0,22.197-9.938,22.197-22.197c0-0.504-0.023-1.002-0.057-1.498H-97.917z"/>
<g>
	<path fill="#FF8000" d="M253,379c-35.693-25.698-61.114-47.04-106.8-34.191c-5.711-52.827-58.536-51.399-94.229-18.56
		c18.56-78.523-91.376-119.928-147.056-77.098c-68.53,51.399-25.331,106.626,8.567,114.218c-17.062,0-31.058,8.154-30.735,15.631
		C11.233,379,253,379,253,379z"/>
</g>
<g>
	<path fill="#FEA621" d="M-0.704,365c23.637-24.881,68.423-19.903,99.526-21.146l0,0c8.707-24.882,27.368-48.521,53.492-54.741
		c19.903-4.977,51.007-3.731,55.982,21.15c0,0-2.01-63.43,61.772-63.43s50.192,69.649,50.192,69.649
		c31.103-23.638,67.18-26.125,90.817,8.709c6.219,8.708,2.488,12.439,12.44,14.927c4.976,2.489,18.662-1.241,26.125,0
		C465.814,342.608,496.917,365,496.917,365H-0.704z"/>
</g>
<path fill="#FF8000" d="M465.735-1c0.054,0.701,0.092,1.408,0.092,2.125c0,14.716-11.931,26.645-26.646,26.645
	c-0.488,0-0.972-0.014-1.45-0.041c-5.956,13.985-19.825,23.791-35.985,23.791c-0.787,0-1.566-0.031-2.343-0.076
	c-7.225,25.22-30.44,43.686-57.982,43.686c-28.551,0-52.453-19.842-58.71-46.483c-14.451-4.524-25.174-17.457-26.46-33.064
	c-3.079,0.899-6.33,1.389-9.699,1.389c-13.072,0-24.447-7.263-30.313-17.971H465.735z"/>
</svg>
