<?xml version="1.0" encoding="utf-8"?>
<!-- Generator: Adobe Illustrator 23.0.3, SVG Export Plug-In . SVG Version: 6.00 Build 0)  -->
<svg version="1.1" id="Capa_1" xmlns="http://www.w3.org/2000/svg" xmlns:xlink="http://www.w3.org/1999/xlink" x="0px" y="0px"
	 viewBox="0 0 126 41" style="enable-background:new 0 0 126 41;" xml:space="preserve">
<style type="text/css">
	.st0{fill-rule:evenodd;clip-rule:evenodd;fill:#F6F6F6;}
	.st1{fill-rule:evenodd;clip-rule:evenodd;fill:#265697;}
	.st2{fill-rule:evenodd;clip-rule:evenodd;fill:#D97B16;}
	.st3{fill:#E30613;}
	.st4{fill-rule:evenodd;clip-rule:evenodd;fill:#FAB31E;}
	.st5{fill-rule:evenodd;clip-rule:evenodd;fill:#E40520;}
	.st6{fill-rule:evenodd;clip-rule:evenodd;fill:#FFFFFF;}
	.st7{fill-rule:evenodd;clip-rule:evenodd;fill:#06326E;}
</style>
<g id="Page-1">
	<g id="Visa">
		<rect id="Rectangle-20" y="5.32" class="st0" width="59.25" height="29.62"/>
		<path id="Rectangle-1" class="st1" d="M54.81,1.98c-2.96,0-34.33,0-51.84,0C1.48,1.98,0,3.47,0,4.95v4.44h59.25c0,0,0,6.88,0-2.96
			C59.25,3.47,57.77,1.98,54.81,1.98z"/>
		<path class="st2" d="M0,31.61c0,0,0,0,0,2.96c0,2.96,1.48,4.44,4.44,4.44c16.52,0,47.4,0,50.36,0s4.44-1.48,4.44-4.44v-2.96H0z"/>
		<path id="Shape" class="st1" d="M41.33,13.01c-0.83-0.32-2.13-0.66-3.76-0.66c-4.14,0-7.06,2.13-7.08,5.19
			c-0.02,2.26,2.08,3.52,3.67,4.27c1.63,0.77,2.18,1.26,2.17,1.95c-0.01,1.05-1.3,1.53-2.51,1.53c-1.68,0-2.57-0.24-3.95-0.82
			l-0.54-0.25l-0.59,3.52c0.98,0.44,2.79,0.82,4.67,0.84c4.41,0,7.27-2.11,7.3-5.37c0.02-1.79-1.1-3.15-3.52-4.27
			c-1.47-0.73-2.36-1.21-2.35-1.95c0-0.65,0.76-1.35,2.4-1.35c1.37-0.02,2.36,0.28,3.14,0.6l0.38,0.18L41.33,13.01"/>
		<path class="st1" d="M52.08,12.64h-3.24c-1,0-1.75,0.28-2.19,1.3l-6.22,14.4h4.4c0,0,0.72-1.94,0.88-2.36
			c0.48,0,4.76,0.01,5.37,0.01c0.13,0.55,0.51,2.35,0.51,2.35h3.89L52.08,12.64L52.08,12.64z M46.91,22.77
			c0.35-0.91,1.67-4.39,1.67-4.39c-0.02,0.04,0.34-0.91,0.56-1.5l0.28,1.35c0,0,0.8,3.75,0.97,4.54L46.91,22.77L46.91,22.77
			L46.91,22.77L46.91,22.77z"/>
		<path class="st1" d="M21.94,28.34l2.62-15.71h4.19l-2.62,15.71H21.94z"/>
		<path class="st1" d="M18.43,12.64l-4.1,10.71l-0.44-2.18c-0.76-2.51-3.14-5.23-5.8-6.59l3.75,13.74l4.43-0.01l6.6-15.68H18.43"/>
		<path class="st2" d="M10.52,12.63H3.76L3.7,12.95c5.26,1.3,8.74,4.44,10.18,8.22l-1.47-7.22C12.16,12.96,11.43,12.66,10.52,12.63"
			/>
	</g>
</g>
<g>
	<g>
		<path class="st3" d="M122.04,2.91c1.6,0,2.9,1.3,2.9,2.9v29.73c0,1.6-1.3,2.9-2.9,2.9H69.96c-1.6,0-2.9-1.3-2.9-2.9V5.81
			c0-1.6,1.3-2.9,2.9-2.9L122.04,2.91 M122.04,2.33H69.96c-1.92,0-3.47,1.56-3.47,3.47v29.73c0,1.92,1.56,3.47,3.47,3.47h52.08
			c1.92,0,3.47-1.55,3.47-3.47V5.81C125.51,3.89,123.96,2.33,122.04,2.33L122.04,2.33z"/>
	</g>
	<g>
		<path class="st4" d="M96.08,31.96c2.61,2.41,6.12,3.86,9.93,3.86c8.19,0,14.82-6.68,14.82-14.9c0-8.24-6.63-14.92-14.82-14.92
			c-3.81,0-7.32,1.46-9.93,3.86c-2.99,2.74-4.89,6.68-4.89,11.06C91.19,25.31,93.09,29.25,96.08,31.96L96.08,31.96z"/>
		<path class="st5" d="M100.87,19.34c-0.05-0.54-0.15-1.05-0.26-1.59h-9.06c0.1-0.54,0.26-1.05,0.41-1.56h8.22
			c-0.18-0.54-0.38-1.07-0.61-1.59H92.6c0.26-0.54,0.54-1.07,0.84-1.59h5.25c-0.33-0.54-0.72-1.08-1.13-1.56h-2.99
			c0.46-0.56,0.97-1.1,1.51-1.59c-2.64-2.38-6.12-3.86-9.96-3.86c-8.16,0-14.82,6.68-14.82,14.92c0,8.22,6.65,14.9,14.82,14.9
			c3.84,0,7.32-1.46,9.96-3.86l0,0l0,0c0.54-0.49,1.02-1,1.48-1.56h-2.99c-0.41-0.51-0.77-1.02-1.13-1.59h5.25
			c0.33-0.51,0.61-1.02,0.87-1.59H92.6c-0.23-0.51-0.46-1.02-0.64-1.56h8.22c0.18-0.51,0.31-1.05,0.43-1.59
			c0.1-0.51,0.2-1.05,0.26-1.59c0.05-0.51,0.08-1.02,0.08-1.56C100.94,20.39,100.92,19.86,100.87,19.34L100.87,19.34z"/>
		<path class="st6" d="M118.86,24.39c0-0.28,0.2-0.49,0.46-0.49c0.28,0,0.49,0.2,0.49,0.49c0,0.26-0.2,0.49-0.49,0.49
			C119.06,24.87,118.86,24.64,118.86,24.39L118.86,24.39z M119.32,24.74c0.2,0,0.38-0.15,0.38-0.36c0-0.2-0.18-0.36-0.38-0.36
			c-0.18,0-0.36,0.15-0.36,0.36C118.96,24.59,119.14,24.74,119.32,24.74L119.32,24.74z M119.27,24.59h-0.1v-0.41h0.18
			c0.03,0,0.08,0,0.1,0c0.05,0.03,0.05,0.08,0.05,0.13c0,0.03-0.03,0.08-0.08,0.1l0.1,0.18h-0.13l-0.05-0.15h-0.08L119.27,24.59
			l0-0.23h0.05c0.03,0,0.05,0,0.05-0.03c0.03,0,0.03-0.03,0.03-0.05c0,0,0-0.03-0.03-0.03c0-0.03-0.03,0-0.05,0h-0.05v0.1
			L119.27,24.59L119.27,24.59z"/>
		<path class="st7" d="M91.04,25.23c-0.49,0.13-0.84,0.2-1.2,0.2c-0.77,0-1.23-0.49-1.23-1.36c0-0.18,0.03-0.36,0.05-0.56l0.1-0.59
			l0.08-0.49l0.69-4.2h1.54l-0.18,0.92h0.97l-0.23,1.54h-0.97l-0.41,2.51c-0.03,0.13-0.03,0.2-0.03,0.26c0,0.33,0.15,0.46,0.54,0.46
			c0.18,0,0.33-0.03,0.49-0.05L91.04,25.23L91.04,25.23z"/>
		<path class="st7" d="M96,25.18c-0.56,0.15-1.07,0.23-1.64,0.23c-1.74,0-2.74-0.92-2.74-2.74c0-2.12,1.18-3.66,2.82-3.66
			c1.31,0,2.15,0.87,2.15,2.23c0,0.46-0.05,0.9-0.18,1.51h-3.2c-0.03,0.1-0.03,0.15-0.03,0.2c0,0.72,0.49,1.07,1.41,1.07
			c0.59,0,1.1-0.13,1.66-0.38L96,25.18L96,25.18z M95.06,21.52c0-0.13,0-0.23,0-0.31c0-0.51-0.28-0.79-0.77-0.79
			c-0.51,0-0.87,0.38-1.02,1.1H95.06L95.06,21.52z"/>
		<polygon class="st7" points="78.75,25.31 77.16,25.31 78.09,19.5 76.01,25.31 74.91,25.31 74.78,19.52 73.81,25.31 72.25,25.31 
			73.5,17.76 75.83,17.76 75.89,22.41 77.45,17.76 80.01,17.76 		"/>
		<path class="st7" d="M82.62,22.57c-0.15-0.03-0.2-0.03-0.31-0.03c-0.92,0-1.38,0.36-1.38,0.92c0,0.38,0.23,0.64,0.59,0.64
			C82.28,24.1,82.59,23.46,82.62,22.57L82.62,22.57z M83.9,25.31h-1.38l0.03-0.64c-0.36,0.49-0.84,0.74-1.69,0.74
			c-0.77,0-1.43-0.69-1.43-1.69c0-0.28,0.05-0.54,0.13-0.79c0.26-0.95,1.2-1.54,2.66-1.56c0.18,0,0.46,0,0.72,0.03
			c0.05-0.2,0.05-0.28,0.05-0.41c0-0.41-0.33-0.54-1.08-0.54c-0.46,0-0.97,0.08-1.33,0.2l-0.23,0.05l-0.1,0.03l0.23-1.38
			c0.74-0.23,1.28-0.33,1.87-0.33c1.38,0,2.12,0.64,2.12,1.82c0,0.31,0.03,0.54-0.08,1.2l-0.36,2.2l-0.05,0.38l-0.03,0.31l-0.03,0.2
			L83.9,25.31L83.9,25.31z"/>
		<path class="st7" d="M103.73,19.22c0.46,0,0.87,0.13,1.43,0.41l0.28-1.64c-0.15-0.08-0.2-0.08-0.41-0.15l-0.64-0.18
			c-0.2-0.05-0.46-0.08-0.74-0.08c-0.79,0-1.25,0.03-1.74,0.31c-0.26,0.18-0.59,0.41-0.95,0.82l-0.2-0.05l-1.64,1.15l0.08-0.64
			h-1.69l-1,6.14h1.61l0.59-3.3c0,0,0.23-0.46,0.33-0.61c0.31-0.38,0.56-0.38,0.9-0.38c0.05,0,0.1,0,0.13,0
			c-0.05,0.36-0.08,0.74-0.08,1.18c0,2,1.13,3.25,2.87,3.25c0.44,0,0.82-0.05,1.41-0.2l0.28-1.74c-0.51,0.28-0.97,0.41-1.36,0.41
			c-0.95,0-1.51-0.72-1.51-1.84C101.69,20.39,102.53,19.22,103.73,19.22L103.73,19.22z"/>
		<path class="st7" d="M117.32,17.76l-0.36,2.15c-0.38-0.59-0.84-0.87-1.46-0.87c-0.84,0-1.64,0.49-2.12,1.41v-0.03l-1.02-0.61
			l0.1-0.64h-1.71l-0.97,6.14h1.59l0.54-3.3c0,0,0.41-0.46,0.51-0.61c0.26-0.31,0.51-0.36,0.72-0.38c-0.18,0.51-0.28,1.13-0.28,1.82
			c0,1.54,0.79,2.56,1.97,2.56c0.59,0,1.05-0.2,1.48-0.69l-0.08,0.61h1.51l1.23-7.55L117.32,17.76L117.32,17.76z M115.35,23.85
			c-0.54,0-0.82-0.41-0.82-1.2c0-1.2,0.51-2.07,1.25-2.07c0.56,0,0.84,0.44,0.84,1.2C116.63,23,116.12,23.85,115.35,23.85
			L115.35,23.85z"/>
		<path class="st7" d="M107.96,22.57c-0.15-0.03-0.2-0.03-0.31-0.03c-0.92,0-1.38,0.36-1.38,0.92c0,0.38,0.23,0.64,0.59,0.64
			C107.62,24.1,107.93,23.46,107.96,22.57L107.96,22.57z M109.24,25.31h-1.41l0.05-0.64c-0.36,0.49-0.84,0.74-1.69,0.74
			c-0.79,0-1.48-0.67-1.48-1.69c0-1.46,1.1-2.35,2.84-2.35c0.18,0,0.46,0,0.69,0.03c0.05-0.2,0.08-0.28,0.08-0.41
			c0-0.41-0.33-0.54-1.1-0.54c-0.44,0-0.97,0.08-1.33,0.2l-0.2,0.05l-0.1,0.03l0.23-1.38c0.74-0.23,1.28-0.33,1.87-0.33
			c1.38,0,2.1,0.64,2.1,1.82c0,0.31,0.05,0.54-0.08,1.2l-0.33,2.2l-0.05,0.38l-0.05,0.31l-0.03,0.2V25.31L109.24,25.31z"/>
		<path class="st7" d="M87.25,20.47c0.31,0,0.74,0.03,1.2,0.1l0.23-1.43c-0.46-0.05-1.08-0.13-1.43-0.13c-1.79,0-2.38,0.97-2.38,2.1
			c0,0.74,0.33,1.28,1.2,1.69c0.64,0.31,0.74,0.36,0.74,0.64c0,0.38-0.33,0.61-0.95,0.61c-0.49,0-0.95-0.08-1.46-0.26l-0.18,1.41
			l0.03,0.03l0.31,0.05c0.1,0.03,0.23,0.05,0.41,0.08c0.38,0.03,0.72,0.05,0.92,0.05c1.79,0,2.53-0.69,2.53-2.05
			c0-0.84-0.41-1.36-1.2-1.72c-0.69-0.31-0.77-0.36-0.77-0.64C86.46,20.73,86.76,20.47,87.25,20.47L87.25,20.47z"/>
		<path class="st6" d="M105.88,17.5l-0.28,1.64c-0.56-0.28-0.97-0.41-1.43-0.41c-1.2,0-2.05,1.18-2.05,2.84
			c0,1.15,0.56,1.84,1.51,1.84c0.38,0,0.84-0.13,1.36-0.38l-0.28,1.72c-0.59,0.15-0.97,0.23-1.41,0.23c-1.74,0-2.82-1.25-2.82-3.28
			c0-2.69,1.48-4.58,3.61-4.58c0.28,0,0.54,0.03,0.74,0.08l0.64,0.15C105.68,17.42,105.73,17.45,105.88,17.5L105.88,17.5z"/>
		<path class="st6" d="M100.71,18.63c-0.05,0-0.1,0-0.15,0c-0.54,0-0.84,0.26-1.33,1l0.15-0.95h-1.46l-1,6.14h1.61
			c0.59-3.76,0.74-4.4,1.51-4.4c0.05,0,0.05,0,0.1,0c0.15-0.74,0.36-1.28,0.61-1.77L100.71,18.63L100.71,18.63z"/>
		<path class="st6" d="M91.45,24.74c-0.43,0.15-0.79,0.2-1.15,0.2c-0.82,0-1.28-0.46-1.28-1.36c0-0.15,0.03-0.36,0.05-0.54l0.1-0.61
			l0.08-0.49l0.69-4.2h1.59l-0.18,0.92h0.82l-0.2,1.51h-0.82l-0.43,2.56c-0.03,0.1-0.03,0.18-0.03,0.26c0,0.31,0.15,0.44,0.54,0.44
			c0.18,0,0.33,0,0.44-0.05L91.45,24.74L91.45,24.74z"/>
		<path class="st6" d="M85.28,20.62c0,0.77,0.36,1.31,1.2,1.72c0.67,0.31,0.77,0.41,0.77,0.67c0,0.38-0.28,0.56-0.92,0.56
			c-0.49,0-0.92-0.08-1.43-0.23l-0.23,1.41l0.08,0.03l0.28,0.05c0.1,0.03,0.23,0.05,0.44,0.05c0.36,0.05,0.67,0.05,0.87,0.05
			c1.69,0,2.48-0.64,2.48-2.05c0-0.84-0.33-1.33-1.13-1.71c-0.69-0.31-0.77-0.38-0.77-0.67c0-0.33,0.28-0.49,0.79-0.49
			c0.31,0,0.74,0.03,1.15,0.08l0.23-1.41c-0.41-0.08-1.05-0.13-1.41-0.13C85.89,18.55,85.25,19.5,85.28,20.62L85.28,20.62z"/>
		<path class="st6" d="M118.14,24.82h-1.51l0.08-0.59c-0.44,0.46-0.9,0.67-1.48,0.67c-1.18,0-1.95-1-1.95-2.53
			c0-2.05,1.2-3.79,2.61-3.79c0.64,0,1.1,0.28,1.54,0.84l0.36-2.15h1.59L118.14,24.82L118.14,24.82z M115.79,23.39
			c0.74,0,1.25-0.87,1.25-2.07c0-0.79-0.28-1.2-0.84-1.2c-0.72,0-1.25,0.84-1.25,2.05C114.94,22.98,115.23,23.39,115.79,23.39
			L115.79,23.39z"/>
		<path class="st6" d="M96.36,24.69c-0.56,0.18-1.07,0.26-1.66,0.26c-1.79,0-2.71-0.95-2.71-2.76c0-2.1,1.18-3.66,2.79-3.66
			c1.33,0,2.18,0.87,2.18,2.23c0,0.46-0.05,0.9-0.2,1.54h-3.17c-0.03,0.08-0.03,0.13-0.03,0.18c0,0.72,0.49,1.08,1.41,1.08
			c0.59,0,1.1-0.1,1.66-0.38L96.36,24.69L96.36,24.69z M95.47,21.03c0-0.13,0-0.23,0-0.31c0-0.51-0.28-0.79-0.77-0.79
			c-0.51,0-0.87,0.38-1.02,1.1H95.47L95.47,21.03z"/>
		<polygon class="st6" points="79.16,24.82 77.57,24.82 78.5,19.01 76.42,24.82 75.32,24.82 75.19,19.06 74.22,24.82 72.74,24.82 
			73.99,17.27 76.29,17.27 76.37,21.95 77.91,17.27 80.42,17.27 		"/>
		<path class="st6" d="M83.13,22.08c-0.15,0-0.23-0.03-0.36-0.03c-0.9,0-1.36,0.33-1.36,0.95c0,0.38,0.2,0.61,0.56,0.61
			C82.64,23.62,83.1,23,83.13,22.08L83.13,22.08z M84.31,24.82h-1.33L83,24.18c-0.41,0.51-0.95,0.74-1.69,0.74
			c-0.87,0-1.46-0.67-1.46-1.66c0-1.51,1.02-2.38,2.82-2.38c0.18,0,0.41,0.03,0.67,0.05c0.05-0.2,0.05-0.28,0.05-0.38
			c0-0.41-0.28-0.56-1.02-0.56c-0.46,0-0.97,0.05-1.33,0.15l-0.23,0.08l-0.15,0.03l0.23-1.38c0.79-0.23,1.33-0.31,1.92-0.31
			c1.38,0,2.12,0.61,2.12,1.79c0,0.31-0.03,0.54-0.13,1.23l-0.36,2.18l-0.05,0.38l-0.03,0.31l-0.03,0.23L84.31,24.82L84.31,24.82z"
			/>
		<path class="st6" d="M108.47,22.08c-0.18,0-0.26-0.03-0.36-0.03c-0.92,0-1.38,0.33-1.38,0.95c0,0.38,0.23,0.61,0.59,0.61
			C107.96,23.62,108.44,23,108.47,22.08L108.47,22.08z M109.64,24.82h-1.33l0.03-0.64c-0.41,0.51-0.95,0.74-1.69,0.74
			c-0.87,0-1.46-0.67-1.46-1.66c0-1.51,1.02-2.38,2.82-2.38c0.18,0,0.41,0.03,0.64,0.05c0.05-0.2,0.08-0.28,0.08-0.38
			c0-0.41-0.28-0.56-1.02-0.56c-0.46,0-1,0.05-1.36,0.15l-0.2,0.08l-0.15,0.03l0.23-1.38c0.79-0.23,1.33-0.31,1.92-0.31
			c1.38,0,2.1,0.61,2.1,1.79c0,0.31,0,0.54-0.13,1.23l-0.33,2.18l-0.05,0.38l-0.05,0.31l-0.03,0.23L109.64,24.82L109.64,24.82z"/>
		<path class="st6" d="M113.95,18.63c-0.05,0-0.1,0-0.15,0c-0.54,0-0.84,0.26-1.33,1l0.15-0.95h-1.46l-0.97,6.14h1.59
			c0.59-3.76,0.74-4.4,1.51-4.4c0.05,0,0.05,0,0.1,0c0.15-0.74,0.36-1.28,0.61-1.77L113.95,18.63L113.95,18.63z"/>
	</g>
</g>
</svg>
