<?xml version="1.0" encoding="utf-8"?>
<!-- Generator: Adobe Illustrator 22.0.0, SVG Export Plug-In . SVG Version: 6.00 Build 0)  -->
<svg version="1.1" xmlns="http://www.w3.org/2000/svg" xmlns:xlink="http://www.w3.org/1999/xlink" x="0px" y="0px"
	 viewBox="0 0 76 24.6" style="enable-background:new 0 0 76 24.6;" xml:space="preserve">
<style type="text/css">
	.st0{display:none;}
	.st1{fill:#454849;}
	.st2{fill:#DDC430;}
	.st3{fill-rule:evenodd;clip-rule:evenodd;fill:#FFFFFF;}
	.st4{fill:#FFFFFF;}
</style>
<g id="ENCABEZADO" class="st0">
</g>
<g id="LOGIN" class="st0">
</g>
<g id="IDIOMAS" class="st0">
</g>
<g id="Capa_3" class="st0">
</g>
<g id="Capa_5">
	<g>
		<g>
			<path class="st1" d="M0.3,20.9h0.3c1,0,1.6-0.2,2-0.6c0.4-0.4,0.5-1.2,0.5-2.4V9.2l1.1-0.1v8.8c0,1.5-0.2,2.5-0.7,3.1
				c-0.5,0.6-1.4,0.9-2.6,0.9H0.7L0.3,20.9z"/>
			<path class="st1" d="M12.1,17c-0.4,0.6-0.8,1-1.3,1.3c-0.5,0.3-1.1,0.4-1.7,0.4c-1,0-1.8-0.3-2.4-0.9c-0.6-0.6-0.9-1.5-0.9-2.6
				V9.2l1-0.1v5.5c0,1.1,0.2,1.9,0.6,2.4c0.4,0.5,1,0.8,1.8,0.8c0.7,0,1.4-0.3,1.9-0.8c0.6-0.6,0.8-1.2,0.8-2V9.2l1-0.1v9.3l-1,0.1
				V17z"/>
			<path class="st1" d="M20.2,15.2c0.7,0.3,1.2,0.7,1.6,1.3c0.4,0.5,0.6,1.2,0.6,1.8c0,1-0.4,1.8-1.2,2.5c-0.8,0.7-1.8,1-3,1
				c-0.9,0-1.6-0.2-2.4-0.6c-0.7-0.4-1.3-1-1.8-1.7l0.9-0.6c0.4,0.6,0.9,1.1,1.4,1.4c0.5,0.3,1.2,0.5,1.8,0.5c0.9,0,1.6-0.2,2.2-0.7
				c0.6-0.5,0.9-1.1,0.9-1.8c0-0.7-0.3-1.4-0.9-1.9c-0.6-0.5-1.3-0.8-2.2-0.8c-0.4,0-0.7,0-1.1,0.1c-0.4,0.1-0.8,0.2-1.2,0.4
				l0.4-1.2c-0.6-0.3-1-0.7-1.3-1.2c-0.3-0.5-0.5-1-0.5-1.6c0-0.9,0.4-1.7,1.1-2.3C16.3,9.3,17.2,9,18.3,9c0.2,0,0.3,0,0.5,0
				c0.2,0,0.4,0,0.6,0.1c0,0,0.1,0,0.1,0c0,0,0.1,0,0.2,0c0.3,0,0.7,0,1.1-0.1c0.4-0.1,1-0.2,1.7-0.4l-0.2,0.7
				c-0.1,0.2-0.1,0.3-0.2,0.4c-0.1,0.1-0.2,0.1-0.4,0.1c-0.1,0-0.4,0-0.8-0.1c-0.1,0-0.2,0-0.2,0c0.5,0.3,0.9,0.7,1.2,1.1
				c0.3,0.4,0.4,0.9,0.4,1.5c0,0.6-0.2,1.2-0.5,1.7C21.3,14.5,20.8,14.9,20.2,15.2z M15.6,12.3c0,0.7,0.3,1.3,0.8,1.7
				c0.5,0.5,1.2,0.7,2,0.7c0.8,0,1.5-0.2,2-0.7c0.5-0.5,0.8-1,0.8-1.7c0-0.6-0.3-1.2-0.8-1.6c-0.5-0.5-1.2-0.7-2-0.7
				c-0.8,0-1.4,0.2-2,0.7C15.8,11.1,15.6,11.7,15.6,12.3z"/>
			<path class="st1" d="M29.3,17.5c-0.3,0.4-0.7,0.7-1.1,0.9c-0.4,0.2-0.9,0.3-1.4,0.3c-0.9,0-1.7-0.3-2.4-1c-0.7-0.7-1-1.5-1-2.4
				c0-0.9,0.3-1.7,1-2.4c0.7-0.7,1.5-1,2.4-1c0.5,0,0.9,0.1,1.3,0.3c0.4,0.2,0.8,0.5,1.1,0.8v-1.2c0-0.6-0.2-1.1-0.5-1.4
				c-0.3-0.3-0.8-0.5-1.5-0.5c-0.4,0-0.8,0.1-1.3,0.2c-0.5,0.1-1,0.3-1.6,0.6l0.4-1.2c0.5-0.2,0.9-0.3,1.3-0.4C26.6,9,27,9,27.4,9
				c1,0,1.7,0.2,2.2,0.7c0.5,0.5,0.7,1.2,0.7,2.2v6.5l-1,0.2V17.5z M24.5,15.3c0,0.7,0.2,1.2,0.7,1.7c0.5,0.5,1,0.7,1.7,0.7
				c0.7,0,1.3-0.2,1.7-0.7c0.4-0.4,0.6-1,0.6-1.7c0-0.7-0.2-1.3-0.6-1.7c-0.4-0.4-1-0.7-1.7-0.7c-0.7,0-1.3,0.2-1.8,0.7
				C24.7,14,24.5,14.6,24.5,15.3z"/>
			<path class="st1" d="M32.2,18.6V9.2l1-0.1v2c0.4-0.7,0.8-1.3,1.4-1.6c0.5-0.4,1.2-0.5,1.9-0.5h0.3l-0.4,1c-1,0.1-1.8,0.6-2.3,1.4
				c-0.5,0.8-0.7,2-0.7,3.6v3.5L32.2,18.6z"/>
			<path class="st1" d="M38,18.6V8.9h4.5c0.9,0,1.6,0.2,2.1,0.7c0.5,0.5,0.8,1.1,0.8,1.8c0,0.5-0.1,0.9-0.3,1.2
				c-0.2,0.3-0.5,0.7-1,0.9c0.5,0.2,0.9,0.5,1.1,0.9c0.3,0.4,0.4,0.9,0.4,1.4c0,0.8-0.3,1.5-0.9,2c-0.6,0.5-1.3,0.8-2.3,0.8H38z
				 M41,14.5v1.8h0.5c0.3,0,0.5-0.1,0.7-0.2c0.2-0.2,0.2-0.4,0.2-0.7c0-0.3-0.1-0.5-0.2-0.7c-0.2-0.2-0.4-0.2-0.7-0.2H41z M41,11.1
				v1.6h0.5c0.3,0,0.5-0.1,0.6-0.2c0.2-0.2,0.2-0.3,0.2-0.6c0-0.3-0.1-0.4-0.2-0.6c-0.1-0.1-0.4-0.2-0.6-0.2H41z"/>
			<path class="st1" d="M46.5,18.8V9l3.1-0.2v9.7L46.5,18.8z"/>
			<path class="st1" d="M51,18.6V8.9h5.4l0.6,2.6H54v0.9h1.8v2.5H54v1h3.1l-0.6,2.7H51z"/>
		</g>
		<path class="st1" d="M63.9,13.4L63.9,13.4L63.9,13.4c-1.4-1.1-2.5-2.7-2.8-4.5h-3v9.9l3-0.2v-4.6l2.8,4.7h3v-3.8
			C65.8,14.6,64.7,14.1,63.9,13.4z"/>
		<circle class="st2" cx="68.6" cy="7.4" r="7"/>
		<g id="Forma_2_2_">
			<g>
				<path class="st3" d="M64.4,8.4c-0.2,0-0.4,0.2-0.4,0.4s0.2,0.4,0.4,0.4c0.2,0,0.4-0.2,0.4-0.4S64.7,8.4,64.4,8.4z"/>
			</g>
		</g>
		<g>
			<path class="st4" d="M68.5,8.8c-0.2,0.2-0.5,0.3-0.7,0.4c-0.2,0.1-0.5,0.1-0.7,0.1c-0.5,0-1-0.2-1.3-0.5
				c-0.4-0.4-0.5-0.8-0.5-1.3c0-0.5,0.2-1,0.5-1.3c0.4-0.3,0.8-0.5,1.3-0.5c0.3,0,0.6,0.1,0.9,0.2c0.2,0.1,0.4,0.4,0.6,0.6l-2.7,1.6
				c0.1,0.3,0.3,0.4,0.5,0.6c0.2,0.1,0.5,0.2,0.8,0.2c0.2,0,0.4,0,0.7-0.1c0.2-0.1,0.5-0.2,0.7-0.5V8.8z M65.7,7.7L68,6.4
				c-0.1-0.1-0.2-0.2-0.4-0.3C67.5,6,67.4,6,67.2,6c-0.4,0-0.7,0.1-1,0.4c-0.3,0.3-0.4,0.6-0.4,1c0,0.1,0,0.1,0,0.2
				C65.7,7.6,65.7,7.7,65.7,7.7z"/>
			<path class="st4" d="M69.2,8.7l0.3-0.3c0.1,0.1,0.3,0.3,0.4,0.3s0.3,0.1,0.5,0.1c0.2,0,0.4-0.1,0.5-0.2c0.1-0.1,0.2-0.3,0.2-0.5
				c0-0.2-0.1-0.3-0.2-0.4c-0.1-0.1-0.3-0.2-0.5-0.2c-0.4-0.1-0.7-0.2-0.9-0.4c-0.2-0.1-0.2-0.4-0.2-0.6c0-0.3,0.1-0.5,0.3-0.7
				c0.2-0.2,0.5-0.3,0.8-0.3c0.2,0,0.4,0,0.6,0.1c0.2,0.1,0.3,0.2,0.5,0.3l-0.2,0.3c-0.1-0.1-0.3-0.2-0.4-0.3C70.7,6,70.6,6,70.4,6
				C70.2,6,70,6,69.9,6.1c-0.1,0.1-0.2,0.3-0.2,0.4c0,0.3,0.2,0.5,0.7,0.6c0.1,0,0.2,0,0.2,0.1c0.3,0.1,0.5,0.2,0.7,0.4
				c0.1,0.2,0.2,0.4,0.2,0.6c0,0.3-0.1,0.6-0.3,0.8c-0.2,0.2-0.5,0.3-0.9,0.3c-0.2,0-0.5,0-0.7-0.1C69.5,9.1,69.3,8.9,69.2,8.7z"/>
		</g>
		<g>
			<path class="st2" d="M24.1,21.2c-0.1,0-0.1,0-0.2,0c0,0-0.1,0-0.1-0.1c-0.1-0.1-0.1-0.1-0.1-0.1c0,0,0,0,0-0.1c0,0,0-0.1,0.1-0.1
				c0,0,0.1,0,0.2,0c0.1,0,0.1,0.1,0.1,0.1V21.2z M24.3,24.4c0,0,0,0.1-0.1,0.1c0,0-0.1,0-0.1,0c0,0-0.1,0-0.1-0.1
				c-0.1,0-0.1-0.1-0.1-0.1c0-0.2-0.1-0.4-0.1-0.7V23c0-0.4,0.1-0.8,0.2-0.9h0c0.1,0,0.1,0,0.2,0c0.1,0,0.1,0.1,0.1,0.1
				c0,0.1,0,0.2-0.1,0.3c0,0.1-0.1,0.2-0.1,0.3c0,0.4,0,0.7,0,0.8c0,0.1,0,0.2,0.1,0.4C24.2,24.2,24.3,24.3,24.3,24.4z"/>
			<path class="st2" d="M26.5,22.2c0,0.3-0.1,0.5-0.2,0.8c-0.2,0.3-0.4,0.4-0.7,0.4h-0.3c0,0-0.1,0-0.3-0.1
				c-0.3-0.2-0.5-0.6-0.5-1.1c0-0.2,0.1-0.3,0.4-0.3c0,0,0,0,0.1,0c0,0,0,0.1,0,0.1c0,0,0,0.1,0,0.2c0,0.1,0,0.1,0,0.2
				c0,0.2,0,0.3,0.1,0.5c0.1,0.2,0.2,0.3,0.3,0.3c0,0,0,0,0,0c0,0,0,0,0,0c0.1,0,0.2-0.1,0.3-0.2c0.1-0.1,0.2-0.3,0.2-0.3
				c0-0.1,0.1-0.3,0.1-0.5c0,0,0-0.1,0-0.1c0,0,0-0.1,0-0.1c0.1,0,0.1-0.1,0.2-0.1c0,0,0,0,0,0c0,0,0,0,0,0l0,0l0,0
				C26.4,21.8,26.5,21.9,26.5,22.2z"/>
			<path class="st2" d="M28.4,24c0,0.2-0.1,0.3-0.2,0.4c-0.1,0.1-0.2,0.1-0.4,0.1c0,0-0.2,0-0.5-0.1v-0.1c0,0,0.1,0,0.4,0
				c0,0,0.1,0,0.2,0c0.1,0,0.1-0.1,0.2-0.1c0,0,0-0.1,0-0.2c0-0.1-0.1-0.2-0.1-0.4c0-0.2-0.1-0.3-0.1-0.4c-0.1,0.1-0.3,0.2-0.4,0.2
				c-0.1,0-0.3-0.1-0.4-0.2c-0.1-0.1-0.2-0.2-0.2-0.4c0-0.1,0-0.3,0.1-0.5c0.1-0.2,0.2-0.3,0.3-0.4c0.1,0,0.2,0,0.4,0
				c0,0,0.1,0,0.2,0.1c0.1,0,0.2,0.1,0.2,0.1c0.1,0.1,0.1,0.2,0.1,0.3c0,0,0,0.1,0,0.1c0.1,0,0.1,0.1,0.1,0.2c0,0,0,0.1,0,0.2
				c0,0.1,0,0.2,0,0.4c0,0.1,0,0.2,0.1,0.3c0,0.1,0.1,0.2,0.1,0.3C28.4,23.9,28.4,23.9,28.4,24C28.4,23.9,28.4,24,28.4,24z
				 M27.8,22.7C27.8,22.7,27.8,22.7,27.8,22.7c0-0.1,0-0.1,0-0.2c0,0,0-0.1,0-0.1c0,0,0-0.1,0-0.1c0,0,0-0.1-0.1-0.1
				c-0.1,0-0.1-0.1-0.2-0.1c-0.1,0-0.2,0.1-0.3,0.3c-0.1,0.2-0.1,0.3-0.1,0.4c0,0,0,0.1,0.1,0.2c0.1,0.1,0.1,0.1,0.2,0.1
				c0.1,0,0.2,0,0.3-0.1C27.8,22.9,27.8,22.8,27.8,22.7z"/>
			<path class="st2" d="M30.7,23.3c0,0.1-0.1,0.2-0.3,0.2c0,0,0,0,0,0l0,0c-0.1-0.1-0.2-0.1-0.2-0.2L30,23.1
				c-0.2,0.1-0.3,0.2-0.3,0.2c-0.1,0.1-0.2,0.1-0.3,0.1c0,0,0,0-0.1,0c0,0,0,0-0.1,0c0,0,0,0,0,0c0,0,0,0,0,0
				c-0.2,0-0.3-0.1-0.4-0.2c-0.1-0.1-0.1-0.3-0.1-0.5c0-0.4,0.2-0.7,0.5-0.7c0.1,0,0.2-0.1,0.4-0.1c0.1,0,0.3,0,0.4,0.1
				c0.2,0.1,0.3,0.1,0.3,0.2c0,0,0,0.1,0,0.2c0,0.1,0,0.2,0,0.2c0,0.1,0,0.2,0.1,0.3c0.1,0.2,0.1,0.3,0.1,0.3c0,0,0,0,0,0
				c0,0,0,0,0,0C30.6,23.2,30.6,23.2,30.7,23.3C30.7,23.3,30.7,23.3,30.7,23.3z M29.9,22.2C29.9,22.2,29.8,22.2,29.9,22.2
				c-0.1-0.1-0.3-0.1-0.4-0.1c-0.1,0-0.2,0.1-0.3,0.2c-0.1,0.1-0.1,0.2-0.1,0.3c0,0.4,0.1,0.6,0.4,0.6c0,0,0.1,0,0.2-0.1
				c0.1,0,0.1-0.1,0.2-0.1c0.1-0.1,0.1-0.2,0.1-0.3C29.8,22.5,29.8,22.4,29.9,22.2C29.8,22.2,29.9,22.2,29.9,22.2z"/>
			<path class="st2" d="M32.6,21.8c-0.2,0-0.4,0.1-0.5,0.3c-0.2,0.1-0.3,0.3-0.4,0.5c0,0.1-0.1,0.1-0.1,0.2c0,0.1,0,0.2-0.1,0.2
				c0,0.1,0,0.2,0,0.2c0,0.1-0.1,0.1-0.1,0.1c-0.1,0-0.1,0-0.2-0.1c-0.1,0-0.1-0.1-0.1-0.2c0,0,0-0.1,0-0.4c0-0.2,0-0.3,0-0.3
				c0,0,0-0.1,0-0.2c0-0.1,0-0.1,0.1-0.1c0,0,0.1,0,0.1,0c0.1,0,0.1,0,0.1,0.1c0.1-0.1,0.2-0.2,0.3-0.3l0,0c0,0,0-0.1,0.1-0.1
				c0,0,0,0,0.1-0.1c0.1-0.1,0.1-0.1,0.2-0.1c0,0,0,0,0,0c0,0,0,0,0,0c0,0,0,0,0,0c0,0,0,0,0,0c0,0,0,0,0,0c0,0,0,0,0,0l0,0l0,0l0,0
				c0.1,0,0.2,0,0.3,0C32.5,21.7,32.5,21.7,32.6,21.8C32.6,21.8,32.6,21.8,32.6,21.8z"/>
			<path class="st2" d="M35,22c0,0.1,0,0.1-0.1,0.1c0,0-0.1,0-0.2,0c-0.1,0-0.2,0-0.2,0c-0.2,0-0.4,0.1-0.4,0.3
				C34,22.5,34,22.6,34,22.6c0,0.2,0.1,0.3,0.2,0.4c0.1,0.1,0.3,0.1,0.5,0.1c0,0,0,0,0,0c0,0,0,0,0,0c0,0,0.1,0,0.1,0
				c0,0,0.1,0.1,0.1,0.1c0,0.1-0.1,0.1-0.2,0.1c0,0,0,0,0,0c0,0,0,0-0.1,0c-0.1,0-0.3,0-0.5-0.1c-0.2-0.1-0.3-0.2-0.4-0.3
				c0-0.1-0.1-0.2-0.2-0.3c0,0,0,0,0-0.1c0,0,0-0.1,0-0.1c0-0.2,0.1-0.4,0.2-0.6c0.1-0.2,0.3-0.2,0.5-0.2c0,0,0.1,0,0.1,0
				c0.1,0,0.1,0,0.1,0c0.1,0,0.2,0,0.3,0.1C35,21.8,35,21.9,35,22z"/>
			<path class="st2" d="M37.2,22.5c0,0.2-0.1,0.4-0.3,0.6c-0.2,0.2-0.4,0.3-0.6,0.3h-0.1c-0.2,0-0.4-0.1-0.5-0.2
				c-0.2-0.2-0.2-0.3-0.2-0.5c0,0,0-0.1,0.1-0.2c0,0,0-0.1,0-0.1c0-0.1,0.1-0.2,0.2-0.4c0.1-0.1,0.2-0.2,0.3-0.2c0,0,0,0,0.1,0
				c0,0,0.1,0,0.1,0c0,0,0.1,0,0.1,0c0,0,0.1,0,0.1,0c0.1,0,0.2,0,0.3,0l0.1,0c0,0,0,0,0,0c0,0,0,0,0,0c0,0,0.1,0,0.1,0.1
				C37,22.1,37.2,22.3,37.2,22.5z M36.8,22.5c0-0.1,0-0.2-0.1-0.3c-0.1-0.1-0.2-0.1-0.3-0.1c-0.1,0-0.1,0-0.2,0.1L36,22.2
				c-0.1,0-0.2,0.1-0.2,0.1c-0.1,0-0.1,0.1-0.1,0.3c0,0.4,0.1,0.6,0.3,0.6c0.2,0,0.3-0.1,0.5-0.2C36.7,22.8,36.8,22.7,36.8,22.5z"/>
			<path class="st2" d="M39,22.5c0,0.2,0,0.4-0.1,0.5c0,0.1,0,0.1-0.1,0.2c0,0.1-0.1,0.2-0.1,0.2c0,0,0,0,0,0c0,0,0,0,0,0
				c0,0,0,0,0,0c0,0,0,0,0,0c0,0,0,0,0-0.1c0,0,0-0.1,0-0.1c0,0,0,0,0,0c0.1-0.2,0.1-0.5,0.1-0.8c0-0.2,0-0.4-0.1-0.4
				c-0.1,0-0.2,0.1-0.3,0.2c-0.1,0.1-0.2,0.2-0.2,0.3c0,0.1-0.1,0.2-0.1,0.3c-0.1,0.2-0.1,0.3-0.1,0.3c0,0.1-0.1,0.1-0.1,0.1
				c-0.1,0-0.1,0-0.2-0.1c-0.1,0-0.1-0.1-0.1-0.2c0-0.6,0-1,0.1-1.1c0,0,0.1-0.1,0.2-0.1c0.1,0,0.1,0,0.1,0.1c0,0,0.1,0.1,0.1,0.2
				c0,0,0.1-0.1,0.2-0.2c0.1-0.1,0.1-0.1,0.2-0.1l0,0v0l0,0c0,0,0,0,0,0c0,0,0,0,0.1,0c0.1,0,0.2,0,0.2,0c0,0,0,0,0,0c0,0,0,0,0,0h0
				l0,0c0.1,0,0.2,0.1,0.3,0.2C39,22.3,39,22.4,39,22.5z"/>
			<path class="st2" d="M41.9,21.8c-0.2,0-0.4,0.1-0.5,0.3c-0.2,0.1-0.3,0.3-0.4,0.5c0,0.1-0.1,0.1-0.1,0.2c0,0.1,0,0.2-0.1,0.2
				c0,0.1,0,0.2,0,0.2c0,0.1-0.1,0.1-0.1,0.1c-0.1,0-0.1,0-0.2-0.1c-0.1,0-0.1-0.1-0.1-0.2c0,0,0-0.1,0-0.4c0-0.2,0-0.3,0-0.3
				c0,0,0-0.1,0-0.2c0-0.1,0-0.1,0.1-0.1c0,0,0.1,0,0.1,0c0.1,0,0.1,0,0.1,0.1c0.1-0.1,0.2-0.2,0.3-0.3l0,0c0,0,0-0.1,0.1-0.1
				c0,0,0,0,0.1-0.1c0.1-0.1,0.1-0.1,0.2-0.1c0,0,0,0,0,0c0,0,0,0,0,0c0,0,0,0,0,0c0,0,0,0,0,0c0,0,0,0,0,0c0,0,0,0,0,0l0,0l0,0l0,0
				c0.1,0,0.2,0,0.3,0C41.8,21.7,41.9,21.7,41.9,21.8C41.9,21.8,41.9,21.8,41.9,21.8z"/>
			<path class="st2" d="M43.6,22.2c0,0.1-0.1,0.3-0.3,0.4c-0.2,0.1-0.4,0.2-0.5,0.2c0,0-0.1,0-0.3,0l0,0l0,0c0,0.1,0,0.1,0.1,0.2
				c0.1,0.1,0.2,0.1,0.3,0.1c0.1,0,0.2,0,0.4,0c0.1,0,0.2,0,0.2,0v0.1c-0.1,0-0.2,0-0.3,0c-0.1,0-0.2,0-0.3,0
				c-0.2,0-0.4-0.1-0.6-0.2c-0.2-0.2-0.3-0.3-0.3-0.6c0-0.1,0.1-0.3,0.2-0.5c0.1-0.2,0.2-0.3,0.4-0.3c0.1,0,0.3-0.1,0.4-0.1
				c0,0,0,0,0,0s0,0,0,0c0,0,0,0,0,0c0,0,0,0,0,0c0,0,0.1,0,0.1,0.1c0.1,0.1,0.2,0.1,0.2,0.1C43.5,22.1,43.6,22.1,43.6,22.2z
				 M43.2,22.2c0-0.1-0.1-0.1-0.2-0.1c-0.1,0-0.2,0-0.3,0.1c-0.1,0.1-0.2,0.2-0.2,0.3c0,0,0,0,0.1,0s0.1,0,0.1,0c0,0,0.1,0,0.1,0
				c0.1,0,0.2,0,0.3-0.1C43.1,22.3,43.2,22.3,43.2,22.2z"/>
			<path class="st2" d="M45,21.9c0,0.1,0,0.1-0.1,0.1c0,0-0.1,0-0.2,0c-0.1,0-0.1,0-0.2,0c-0.1,0-0.2,0-0.3,0.1c0,0,0,0.1,0,0.1
				c0,0.2,0.1,0.3,0.2,0.5c0,0.1,0.1,0.2,0.3,0.4c0.1,0.1,0.2,0.2,0.2,0.2c0,0.2-0.2,0.2-0.7,0.2c0,0-0.1,0-0.2-0.1
				c-0.1,0-0.1-0.1-0.2-0.1v0c0.1,0,0.2,0,0.3,0c0.1,0,0.1,0,0.2,0c0.1,0,0.1-0.1,0.1-0.1c0,0,0-0.1-0.1-0.2
				c-0.1-0.1-0.2-0.3-0.3-0.4c-0.1-0.2-0.1-0.4-0.1-0.6c0-0.1,0-0.1,0.1-0.2c0.1,0,0.1,0,0.2-0.1l0,0c0.1,0,0.2,0,0.3,0
				c0.1,0,0.1,0,0.2,0.1C45,21.8,45,21.8,45,21.9z"/>
			<path class="st2" d="M47.2,22.2c0,0.6-0.4,1-1.2,1.2c0,0.3-0.1,0.6-0.1,0.9c0,0,0,0.1-0.1,0.1c0,0,0,0-0.1,0
				c-0.1,0-0.2,0-0.3-0.1v-0.4c0-0.1,0-0.5,0.1-1.1c0-0.2,0-0.4,0-0.6c0-0.3,0.1-0.4,0.2-0.4c0,0,0,0,0.1,0c0,0,0.1,0,0.1,0
				c0,0,0.1,0,0.1-0.1c0.1-0.1,0.3-0.1,0.5-0.1c0,0,0,0,0,0c0,0,0,0,0,0c0,0,0,0,0,0l0,0c0.1,0,0.2,0.1,0.3,0.2
				C47.1,22.1,47.2,22.2,47.2,22.2z M46.8,22.2c0-0.1,0-0.1-0.1-0.2c0-0.1-0.1-0.1-0.1-0.1c-0.3,0-0.4,0.2-0.5,0.7L46,23.1
				c0,0,0,0,0,0c0,0,0,0,0,0c0.1-0.1,0.2-0.1,0.2-0.1c0,0,0,0,0.1-0.1c0.1-0.2,0.2-0.3,0.3-0.3C46.7,22.5,46.8,22.4,46.8,22.2z"/>
			<path class="st2" d="M49.4,22.5c0,0.2-0.1,0.4-0.3,0.6c-0.2,0.2-0.4,0.3-0.6,0.3h-0.1c-0.2,0-0.4-0.1-0.5-0.2
				c-0.2-0.2-0.2-0.3-0.2-0.5c0,0,0-0.1,0.1-0.2c0,0,0-0.1,0-0.1c0-0.1,0.1-0.2,0.2-0.4c0.1-0.1,0.2-0.2,0.3-0.2c0,0,0,0,0.1,0
				c0,0,0.1,0,0.1,0c0,0,0.1,0,0.1,0c0,0,0.1,0,0.1,0c0.1,0,0.2,0,0.3,0l0.1,0c0,0,0,0,0,0c0,0,0,0,0,0c0,0,0.1,0,0.1,0.1
				C49.2,22.1,49.4,22.3,49.4,22.5z M49,22.5c0-0.1,0-0.2-0.1-0.3c-0.1-0.1-0.2-0.1-0.3-0.1c-0.1,0-0.1,0-0.2,0.1l-0.1,0.1
				c-0.1,0-0.2,0.1-0.2,0.1c-0.1,0-0.1,0.1-0.1,0.3c0,0.4,0.1,0.6,0.3,0.6c0.2,0,0.3-0.1,0.5-0.2C48.9,22.8,49,22.7,49,22.5z"/>
			<path class="st2" d="M51.2,22.5c0,0.2,0,0.4-0.1,0.5c0,0.1,0,0.1-0.1,0.2c0,0.1-0.1,0.2-0.1,0.2c0,0,0,0,0,0c0,0,0,0,0,0
				c0,0,0,0,0,0c0,0,0,0,0,0c0,0,0,0,0-0.1c0,0,0-0.1,0-0.1c0,0,0,0,0,0c0.1-0.2,0.1-0.5,0.1-0.8c0-0.2,0-0.4-0.1-0.4
				c-0.1,0-0.2,0.1-0.3,0.2c-0.1,0.1-0.2,0.2-0.2,0.3c0,0.1-0.1,0.2-0.1,0.3C50,23.1,50,23.3,50,23.3c0,0.1-0.1,0.1-0.1,0.1
				c-0.1,0-0.1,0-0.2-0.1c-0.1,0-0.1-0.1-0.1-0.2c0-0.6,0-1,0.1-1.1c0,0,0.1-0.1,0.2-0.1c0.1,0,0.1,0,0.1,0.1c0,0,0.1,0.1,0.1,0.2
				c0,0,0.1-0.1,0.2-0.2c0.1-0.1,0.1-0.1,0.2-0.1l0,0v0l0,0c0,0,0,0,0,0c0,0,0,0,0.1,0c0.1,0,0.2,0,0.2,0c0,0,0,0,0,0c0,0,0,0,0,0h0
				l0,0c0.1,0,0.2,0.1,0.3,0.2C51.2,22.3,51.2,22.4,51.2,22.5z"/>
			<path class="st2" d="M52.7,21.9c0,0.1,0,0.1-0.1,0.1c0,0-0.1,0-0.2,0c-0.1,0-0.1,0-0.2,0c-0.1,0-0.2,0-0.3,0.1c0,0,0,0.1,0,0.1
				c0,0.2,0.1,0.3,0.2,0.5c0,0.1,0.1,0.2,0.3,0.4c0.1,0.1,0.2,0.2,0.2,0.2c0,0.2-0.2,0.2-0.7,0.2c0,0-0.1,0-0.2-0.1
				c-0.1,0-0.1-0.1-0.2-0.1v0c0.1,0,0.2,0,0.3,0c0.1,0,0.1,0,0.2,0c0.1,0,0.1-0.1,0.1-0.1c0,0,0-0.1-0.1-0.2
				c-0.1-0.1-0.2-0.3-0.3-0.4c-0.1-0.2-0.1-0.4-0.1-0.6c0-0.1,0-0.1,0.1-0.2c0.1,0,0.1,0,0.2-0.1l0,0c0.1,0,0.2,0,0.3,0
				c0.1,0,0.1,0,0.2,0.1C52.7,21.8,52.7,21.8,52.7,21.9z"/>
			<path class="st2" d="M55,23.3c0,0.1-0.1,0.2-0.3,0.2c0,0,0,0,0,0l0,0c-0.1-0.1-0.2-0.1-0.2-0.2l-0.1-0.2
				c-0.2,0.1-0.3,0.2-0.3,0.2c-0.1,0.1-0.2,0.1-0.3,0.1c0,0,0,0-0.1,0c0,0,0,0-0.1,0c0,0,0,0,0,0c0,0,0,0,0,0
				c-0.2,0-0.3-0.1-0.4-0.2c-0.1-0.1-0.1-0.3-0.1-0.5c0-0.4,0.2-0.7,0.5-0.7c0.1,0,0.2-0.1,0.4-0.1c0.1,0,0.3,0,0.4,0.1
				c0.2,0.1,0.3,0.1,0.3,0.2c0,0,0,0.1,0,0.2c0,0.1,0,0.2,0,0.2c0,0.1,0,0.2,0.1,0.3c0.1,0.2,0.1,0.3,0.1,0.3c0,0,0,0,0,0
				c0,0,0,0,0,0C54.9,23.2,54.9,23.2,55,23.3C55,23.3,55,23.3,55,23.3z M54.1,22.2C54.1,22.2,54.1,22.2,54.1,22.2
				c-0.1-0.1-0.3-0.1-0.4-0.1c-0.1,0-0.2,0.1-0.3,0.2c-0.1,0.1-0.1,0.2-0.1,0.3c0,0.4,0.1,0.6,0.4,0.6c0,0,0.1,0,0.2-0.1
				c0.1,0,0.1-0.1,0.2-0.1c0.1-0.1,0.1-0.2,0.1-0.3C54.1,22.5,54.1,22.4,54.1,22.2C54.1,22.2,54.1,22.2,54.1,22.2z"/>
			<path class="st2" d="M57.2,22.3c0,0,0,0.1-0.1,0.3c0,0-0.1,0.1-0.1,0.2c0,0.1-0.1,0.2-0.1,0.2c-0.1,0.1-0.2,0.2-0.4,0.2
				c-0.2,0.1-0.3,0.1-0.4,0.1c-0.3,0-0.4-0.1-0.4-0.3v0c0.1,0,0.1,0.1,0.1,0.1c0,0,0.1,0,0.2,0c0.1,0,0.1,0,0.2,0c0,0,0,0,0.1,0
				c0.2-0.1,0.3-0.2,0.4-0.3c0.1-0.1,0.1-0.3,0.1-0.5c0-0.1,0-0.1-0.1-0.2c-0.1-0.1-0.1-0.1-0.2-0.1c-0.2,0-0.3,0.2-0.5,0.5
				c0,0,0,0.1-0.1,0.2c0,0.1-0.1,0.1-0.1,0.1c0,0-0.1,0-0.2-0.1c-0.1,0-0.1-0.1-0.1-0.1c0-0.2,0-0.5,0-0.8c0-0.2,0-0.4,0.1-0.7
				c0,0,0-0.1,0-0.1c0,0,0,0,0-0.1c0,0,0-0.1,0-0.1c0-0.2,0.1-0.3,0.2-0.3c0.1,0,0.1,0,0.2,0c0.1,0,0.1,0.1,0.1,0.1
				c0,0.1,0,0.1,0,0.2c0,0.1-0.1,0.2-0.1,0.2c0,0.3-0.1,0.5-0.1,0.7l0,0c0.3-0.1,0.4-0.1,0.6-0.1c0.1,0,0.3,0.1,0.4,0.2
				C57.1,22.1,57.2,22.2,57.2,22.3z"/>
			<path class="st2" d="M57.9,22.2c0,0,0,0.1,0,0.1c0,0.1,0,0.1,0,0.1c0,0.1,0,0.2,0,0.3c0,0.1,0,0.2,0,0.3c0,0.2,0,0.3-0.1,0.4
				c0,0,0,0,0,0c0,0,0,0-0.1,0c0,0-0.1,0-0.1,0l0-0.1l0,0c-0.1-0.2-0.2-0.4-0.2-0.6v-0.4c0-0.1,0-0.2,0-0.2c0-0.1,0.1-0.1,0.2-0.1
				c0.1,0,0.1,0,0.2,0.1C57.9,22.1,57.9,22.1,57.9,22.2z M58.1,21c0,0.1,0,0.1-0.1,0.1c-0.1,0-0.1,0-0.3-0.1
				c-0.1-0.1-0.2-0.2-0.2-0.2c0,0,0,0,0-0.1c0.1,0,0.1,0,0.2,0C58,20.9,58.1,21,58.1,21z"/>
			<path class="st2" d="M58.9,20.9c0,0.2,0,0.6-0.1,1c0,0.5-0.1,0.8-0.1,1c0,0.3-0.1,0.5-0.2,0.5c0,0-0.1,0-0.2-0.1
				c0-0.1,0-0.2,0-0.3c0-0.2,0-0.5,0-0.9c0-0.4,0-0.7,0-0.9v-0.4c0-0.1,0.1-0.1,0.2-0.1c0.1,0,0.1,0,0.2,0.1
				C58.9,20.8,58.9,20.8,58.9,20.9z"/>
			<path class="st2" d="M59.7,22.2c0,0,0,0.1,0,0.1c0,0.1,0,0.1,0,0.1c0,0.1,0,0.2,0,0.3c0,0.1,0,0.2,0,0.3c0,0.2,0,0.3-0.1,0.4
				c0,0,0,0,0,0c0,0,0,0-0.1,0c0,0-0.1,0-0.1,0l0-0.1l0,0c-0.1-0.2-0.2-0.4-0.2-0.6v-0.4c0-0.1,0-0.2,0-0.2c0-0.1,0.1-0.1,0.2-0.1
				c0.1,0,0.1,0,0.2,0.1C59.7,22.1,59.7,22.1,59.7,22.2z M59.9,21c0,0.1,0,0.1-0.1,0.1c-0.1,0-0.1,0-0.3-0.1
				c-0.1-0.1-0.2-0.2-0.2-0.2c0,0,0,0,0-0.1c0.1,0,0.1,0,0.2,0C59.8,20.9,59.9,21,59.9,21z"/>
			<path class="st2" d="M62.3,21.4c0,0.4-0.1,0.8-0.3,1.2c-0.1,0.2-0.2,0.3-0.4,0.5c-0.2,0.2-0.4,0.3-0.6,0.3h-0.2c0,0,0,0-0.1,0
				c-0.1-0.1-0.2-0.2-0.3-0.2c-0.1-0.1-0.1-0.2-0.1-0.3c0-0.1,0.1-0.3,0.2-0.5c0.1-0.2,0.3-0.3,0.4-0.3c0,0,0.1-0.1,0.2-0.1
				c0.1-0.1,0.2-0.1,0.2-0.1l0,0l0,0l0,0c0,0,0.1,0,0.1,0c0,0,0.1,0,0.1,0c0.1,0,0.1,0,0.2,0c0.1,0,0.1,0.1,0.2,0.1
				c0.1-0.2,0.1-0.4,0.2-0.5c0-0.1,0-0.2,0-0.5c0-0.2,0-0.3,0-0.3c0,0,0.1,0,0.1,0c0,0,0.1,0,0.1,0c0.1,0,0.1,0.1,0.2,0.2
				c0,0,0,0.1,0,0.2c0,0.1,0,0.1,0,0.2C62.3,21.3,62.3,21.3,62.3,21.4C62.3,21.4,62.3,21.4,62.3,21.4z M61.7,22.1
				C61.7,22.1,61.7,22.1,61.7,22.1C61.7,22.1,61.7,22.1,61.7,22.1c-0.1,0-0.1-0.1-0.2-0.1c-0.1,0-0.1,0-0.1,0c0,0-0.1,0-0.2,0.1
				c-0.2,0.1-0.3,0.2-0.4,0.3c-0.1,0.1-0.2,0.3-0.2,0.5c0,0.1,0,0.1,0.1,0.2c0,0.1,0.1,0.1,0.2,0.1c0,0,0,0,0.1,0c0,0,0,0,0.1,0
				c0.1,0,0.3-0.1,0.5-0.4C61.6,22.5,61.7,22.3,61.7,22.1z"/>
			<path class="st2" d="M64.6,23.3c0,0.1-0.1,0.2-0.3,0.2c0,0,0,0,0,0l0,0c-0.1-0.1-0.2-0.1-0.2-0.2l-0.1-0.2
				c-0.2,0.1-0.3,0.2-0.3,0.2c-0.1,0.1-0.2,0.1-0.3,0.1c0,0,0,0-0.1,0c0,0,0,0-0.1,0c0,0,0,0,0,0c0,0,0,0,0,0
				c-0.2,0-0.3-0.1-0.4-0.2c-0.1-0.1-0.1-0.3-0.1-0.5c0-0.4,0.2-0.7,0.5-0.7c0.1,0,0.2-0.1,0.4-0.1c0.1,0,0.3,0,0.4,0.1
				c0.2,0.1,0.3,0.1,0.3,0.2c0,0,0,0.1,0,0.2c0,0.1,0,0.2,0,0.2c0,0.1,0,0.2,0.1,0.3c0.1,0.2,0.1,0.3,0.1,0.3c0,0,0,0,0,0
				c0,0,0,0,0,0C64.5,23.2,64.5,23.2,64.6,23.3C64.6,23.3,64.6,23.3,64.6,23.3z M63.7,22.2C63.7,22.2,63.7,22.2,63.7,22.2
				c-0.1-0.1-0.3-0.1-0.4-0.1c-0.1,0-0.2,0.1-0.3,0.2c-0.1,0.1-0.1,0.2-0.1,0.3c0,0.4,0.1,0.6,0.4,0.6c0,0,0.1,0,0.2-0.1
				c0.1,0,0.1-0.1,0.2-0.1c0.1-0.1,0.1-0.2,0.1-0.3C63.7,22.5,63.7,22.4,63.7,22.2C63.7,22.2,63.7,22.2,63.7,22.2z"/>
			<path class="st2" d="M67,21.4c0,0.4-0.1,0.8-0.3,1.2c-0.1,0.2-0.2,0.3-0.4,0.5c-0.2,0.2-0.4,0.3-0.6,0.3h-0.2c0,0,0,0-0.1,0
				c-0.1-0.1-0.2-0.2-0.3-0.2c-0.1-0.1-0.1-0.2-0.1-0.3c0-0.1,0.1-0.3,0.2-0.5c0.1-0.2,0.3-0.3,0.4-0.3c0,0,0.1-0.1,0.2-0.1
				c0.1-0.1,0.2-0.1,0.2-0.1l0,0l0,0l0,0c0,0,0.1,0,0.1,0c0,0,0.1,0,0.1,0c0.1,0,0.1,0,0.2,0c0.1,0,0.1,0.1,0.2,0.1
				c0.1-0.2,0.1-0.4,0.2-0.5c0-0.1,0-0.2,0-0.5c0-0.2,0-0.3,0-0.3c0,0,0.1,0,0.1,0c0,0,0.1,0,0.1,0c0.1,0,0.1,0.1,0.2,0.2
				c0,0,0,0.1,0,0.2c0,0.1,0,0.1,0,0.2C67,21.3,67,21.3,67,21.4C67,21.4,67,21.4,67,21.4z M66.5,22.1C66.5,22.1,66.4,22.1,66.5,22.1
				C66.4,22.1,66.4,22.1,66.5,22.1c-0.1,0-0.1-0.1-0.2-0.1c-0.1,0-0.1,0-0.1,0c0,0-0.1,0-0.2,0.1c-0.2,0.1-0.3,0.2-0.4,0.3
				c-0.1,0.1-0.2,0.3-0.2,0.5c0,0.1,0,0.1,0.1,0.2c0,0.1,0.1,0.1,0.2,0.1c0,0,0,0,0.1,0c0,0,0,0,0.1,0c0.1,0,0.3-0.1,0.5-0.4
				C66.3,22.5,66.5,22.3,66.5,22.1z"/>
		</g>
	</g>
</g>
</svg>
