<?xml version="1.0" encoding="utf-8"?>
<!-- Generator: Adobe Illustrator 16.0.0, SVG Export Plug-In . SVG Version: 6.00 Build 0)  -->
<!DOCTYPE svg PUBLIC "-//W3C//DTD SVG 1.1//EN" "http://www.w3.org/Graphics/SVG/1.1/DTD/svg11.dtd">
<svg version="1.1" id="Capa_1" xmlns="http://www.w3.org/2000/svg" xmlns:xlink="http://www.w3.org/1999/xlink" x="0px" y="0px"
	 width="318.878px" height="100px" viewBox="0 0 318.878 100" enable-background="new 0 0 318.878 100" xml:space="preserve">
<rect x="1089.11" y="269.54" fill="none" width="382.947" height="489.706"/>
<g>
	<path fill="#FAEEDE" d="M12.283,46.95C12.283,21.02,33.303,0,59.232,0c25.929,0,46.95,21.02,46.95,46.95
		c0,25.929-21.02,46.95-46.95,46.95S12.283,72.879,12.283,46.95"/>
	<path fill="#010102" d="M57.256,84.839c-0.119,0.065-0.216,0.164-0.28,0.283h-3.682c-0.54-0.454-1.447-0.429-1.447-0.802
		c0-0.141,0.061-0.217,0.306-0.217c0.502,0,1.113,0.041,1.113,0.041l0.217-0.875c0,0-0.536-0.041-1.636-0.041
		c-0.666,0-1.147,0.373-1.147,1.133c0,1.339,1.833,1.168,1.833,1.711c0,0.123-0.061,0.332-0.373,0.332
		c-0.727,0-1.195-0.243-1.195-0.243l-0.292,0.923c0,0,0.414,0.245,1.5,0.245c0.923,0,1.514-0.502,1.514-1.31
		c0-0.138-0.02-0.254-0.05-0.362h3.281c0.053,0.184,0.176,0.335,0.339,0.426v2.743h-0.931v0.219h0.08v0.168h0.089v0.235h0.116v1.271
		h-0.136l-2.2,9.282h3.121h0.411h3.121l-2.2-9.282h-0.136v-1.271h0.116v-0.235h0.089v-0.168h0.081v-0.219h-0.932v-2.743
		c0.164-0.091,0.286-0.242,0.339-0.426h3.382v1.59h1.032l-0.027-2.431h0.122l1.337,2.431h1.147v-3.963h-1.032l0.048,2.083h-0.122
		l-1.106-2.083h-1.398v1.839h-3.441c-0.065-0.12-0.162-0.217-0.28-0.283 M58.127,90.117v0.564h-1.053v-0.564
		c0-0.291,0.236-0.527,0.526-0.527C57.891,89.59,58.127,89.826,58.127,90.117"/>
	
		<line fill="none" stroke="#010102" stroke-width="1.5351" stroke-miterlimit="10" x1="57.593" y1="50.244" x2="57.593" y2="85.456"/>
	
		<line fill="none" stroke="#010102" stroke-width="1.9188" stroke-miterlimit="10" x1="10.066" y1="50.57" x2="114.457" y2="50.57"/>
	<polygon fill="#010102" points="118.713,50.723 110.439,47.447 110.439,53.999 	"/>
	<path fill="#0B0026" d="M54.655,42.944c0,0,9.021,4.334,10.458,5.389c1.969,1.444,0.993,3.388-0.293,5.543
		c-1.286,2.156-8.307,11.403-8.307,11.403s-4.073-0.659-4.671-2.707c1.862-2,7.077-8.807,7.493-9.365s0.685-0.984,0.217-1.132
		c-1.715-0.541-6.464-2.218-6.464-2.218L54.655,42.944z"/>
	<path fill="#E4A97E" d="M76.643,30.718c-0.005-0.036-3.833,0.824-4.246-0.648c-0.414-1.472,3.716-3.104,1.792-1.006
		c0.913-0.829,4.815-0.289,4.984,0.35C79.341,30.053,76.643,30.718,76.643,30.718"/>
	<path fill="#304B12" d="M65.862,32.821l6.799-3.742c0,0,1.434,0.414,1.63,2.005c-2.291,1.929-8.824,6.055-8.824,6.055l-7.438,0.019
		l1.997-5.636L65.862,32.821z"/>
	<path fill="#FFA512" d="M56.885,23.585c-0.664-1.76-2.01-3.88-6.571-1.693s-9.416-0.596-9.759-1.851
		c-1.243,3.622-0.525,8.011,3.581,6.623c4.106-1.387,9.792-5.195,12.028-2.251C57.381,24.234,56.885,23.585,56.885,23.585"/>
	<path fill="#DD6E14" d="M48.514,24.164c2.725-2,5.686-2.924,7.352-2.313c0.484,0.499,0.794,1.136,1.02,1.735
		c0,0,0.497,0.648-0.722,0.827c-2.237-2.943-7.923,0.864-12.028,2.252c-1.612,0.545-2.7,0.197-3.354-0.644
		C42.514,26.583,45.795,26.16,48.514,24.164"/>
	<path fill="#DA5F02" d="M57.118,23.735c-1.758-0.896-7.018-1.325-10.237,3.467c-3.219,4.792-8.557,2.542-9.582,1.464
		c-0.459,3.918,0.658,8.535,3.41,8.629c2.752,0.095,4.492-2.341,7.096-6.317s5.506-5.593,8.088-5.573
		C57.344,24.895,58.859,24.471,57.118,23.735"/>
	<path fill="#C43701" d="M55.846,24.49c-1.765-0.972-4.37-1.141-6.19,1.838c-1.821,2.979-4.909,5.601-5.906,5.371
		c2.135,0.088,4.587-2.917,5.953-4.658c1.858-2.368,3.674-3.144,5.388-2.166C56.235,25.039,55.846,24.49,55.846,24.49"/>
	<path fill="#E4A97E" d="M65.441,25.768c0,0,4.267,1.296,5.023,0.138c0.114-0.174,0.171-1.432,0.164-2.333
		c-0.01-1.332-0.239-3.019-0.819-4.031c-0.957-1.673-3.688-3.635-5.259-2.581C62.979,18.014,59.717,21.412,65.441,25.768"/>
	<path fill="#010102" d="M68.362,19.251c-1.123,0.507-3.019,1.983-2.982,3.385c-0.698-1.423-1.606-1.081-1.321-0.203
		c0.286,0.879,0.985,1.271,1.247,0.87c0.209,1.171-1.276,2.143-1.276,2.143s-3.217-2.554-3.212-4.068
		c0.005-1.514,0.062-1.811,0.469-2.024C62.752,18.585,68.362,19.251,68.362,19.251"/>
	<path fill="#E4A97E" d="M69.497,21.236c-0.003-0.001-0.005-0.001-0.009-0.003l0.032-0.25c0.609,0.41,1.266,0.646,1.881,0.916
		c-0.79,1.297-2.103,0.651-2.177-0.66C69.329,21.214,69.437,21.226,69.497,21.236C69.567,21.255,69.555,21.246,69.497,21.236"/>
	<path fill="#D9814C" d="M69.535,19.97c0.109,0.25,0.484,1.157-0.23,1.428c-0.714,0.271-0.828-0.924-0.828-0.924
		S69.21,20.1,69.535,19.97"/>
	<path fill="#D9814C" d="M69.349,19.958c-0.795,0.205-1.252,0.758-0.533,0.523C69.535,20.246,69.764,19.851,69.349,19.958"/>
	<path fill="#D9814C" d="M69.049,21.382c0.093-0.478,0.597-0.448,0.683-0.088"/>
	<path fill="none" stroke="#2D130C" stroke-width="0.0967" stroke-miterlimit="10" d="M69.049,21.382
		c0.093-0.478,0.597-0.448,0.683-0.088"/>
	<path fill="#934138" d="M68.429,23.687c-0.058,0.149,0.001,0.312,0.077,0.44c0.082,0.129,0.21,0.224,0.353,0.278
		c0.285,0.123,0.609,0.109,0.923,0.084l-0.233,0.049c-0.08,0.005-0.16,0.014-0.24,0.013c-0.161-0.001-0.323-0.023-0.477-0.08
		c-0.151-0.066-0.286-0.176-0.366-0.319C68.385,24.013,68.343,23.829,68.429,23.687"/>
	<path fill="#010102" d="M57.445,78.456c0,0,0.854,1.679,1.204,2.077c0.351,0.398,1.939,1.691,2.232,1.816
		c0.292,0.125,1.343,0.109,1.357,0.541c0.013,0.434-1.993,0.514-3.066,0.625c-1.073,0.109-2.386-1.211-3.628-2.139
		c-1.241-0.926-0.793-1.995-0.191-3.079C55.954,77.214,57.445,78.456,57.445,78.456"/>
	<path fill="#170A30" d="M55.445,53.503c1.374,2.33,3.002,4.69,3.481,5.75c0.479,1.062,0.455,2.384,0.388,4.822
		S58.57,77.938,58.45,78.706c-0.12,0.769-3.077,1.044-4.19-0.532c0.473-5.703,1.268-13.922,1.287-14.77s0.138-1.229-0.204-1.987
		c-0.341-0.758-6.538-7.71-6.538-7.71L55.445,53.503z"/>
	<path fill="#FFA512" d="M67.809,26.399c-2.673-1.499-3.971-2.3-7.236-5.067c-1.167-0.988-1.828-0.51-2.365-0.169
		c-1.223,0.777-5.013,3.805-3.549,5.735c1.464,1.93,6.423,3.999,8.013,4.514c1.59,0.515,2.426,0.294,3.069-0.495
		c0.643-0.79,1.437-2.076,1.9-3.037C67.892,27.356,68.558,26.82,67.809,26.399"/>
	<path fill="#66981B" d="M63.111,31.25c-0.76,2.777-4.804,8.022-5.92,10.813c-1.116,2.791-1.774,9.455,0.539,13.25
		c-5.222,1.166-7.719-0.184-11.294-2.119c-3.932-2.131-5.403-3.758-7.109-4.215c1.079-0.663,5.372-7.497,7.851-12.064
		c3.224-5.941,5.495-9.43,7.717-10.632C58.491,24.335,64.29,26.941,63.111,31.25"/>
	<path fill="#7BC229" d="M58.902,30.773c-2.829,0.536-4.804,8.022-5.92,10.813c-1.116,2.791-1.656,10.352,0.658,14.145
		c-2.754,0.065-7.246-2.491-7.344-2.558c-0.103-0.067-5.846-3.827-7.552-4.284c1.079-0.663,5.749-7.886,8.228-12.454
		c3.224-5.941,5.495-9.43,7.717-10.632C58.286,23.858,68.032,29.043,58.902,30.773"/>
	<path fill="#E4A97E" d="M70.206,47.767c2.042,0.956,3.009,1.375,2.959,2.436c-0.049,1.061-1.671,2.404-3.128,1.6
		c-1.458-0.804,0.218-1.478,0.218-1.478s-2.614-0.049-2.226-1.978C68.227,47.357,68.164,46.812,70.206,47.767"/>
	<path fill="#40571E" d="M69.463,47.407c-1.12-0.725-4.753-4.408-5.362-5.18c-0.44-0.558-0.979-1.226-1.045-2.098
		c-0.099-1.287-0.023-6.985-0.236-10.991c-0.13-2.448-5.613-2.488-5.216,2.979c0.173,2.394,1.495,8.33,2.236,9.996
		c0.365,0.821,0.766,1.266,1.517,2.115c0.751,0.85,4.611,4.275,6.469,4.979C69.994,48.578,69.463,47.407,69.463,47.407"/>
	<path fill="#FFA512" d="M0,56.039L0.128,44.12c0.002-0.154,0.141-0.268,0.292-0.239l19.225,3.66c0.117,0.022,0.201,0.125,0.2,0.245
		l-0.054,5.016c-0.001,0.12-0.088,0.222-0.205,0.241l-19.3,3.242C0.135,56.311-0.001,56.193,0,56.039"/>
	<path fill="#FFA512" d="M25.086,46.474l-5.024,1.208c-0.113,0.023-0.217-0.021-0.218,0.095l-0.054,5.034
		c-0.001,0.114,0.066,0.043,0.178,0.069l5.035,1.345c0.153,0.036,0.299-0.08,0.301-0.236l0.079-7.271
		C25.384,46.561,25.24,46.442,25.086,46.474"/>
	<path fill="#26163C" d="M18.574,53.305l0.065-6.049c0.002-0.136,0.113-0.245,0.249-0.244l2.288,0.024
		c0.136,0.001,0.245,0.113,0.243,0.249l-0.065,6.05c-0.002,0.136-0.113,0.245-0.249,0.244l-2.289-0.024
		C18.681,53.553,18.573,53.441,18.574,53.305"/>
	<path fill="#DA5F02" d="M0.585,45.428c-0.039-0.039-0.059-0.095-0.049-0.154c0.016-0.096,0.106-0.162,0.203-0.146l14.174,2.348
		c0.095,0.017,0.161,0.106,0.145,0.204c-0.016,0.097-0.106,0.162-0.203,0.146L0.681,45.478C0.644,45.472,0.611,45.454,0.585,45.428"
		/>
	<path fill="#DA5F02" d="M6.196,48.14c-0.039-0.038-0.059-0.093-0.05-0.151c0.015-0.097,0.104-0.164,0.201-0.149l3.802,0.576
		c0.097,0.015,0.163,0.105,0.148,0.202c-0.015,0.097-0.104,0.163-0.201,0.149L6.294,48.19C6.255,48.185,6.221,48.166,6.196,48.14"/>
	<path fill="#DA5F02" d="M0.565,47.288c-0.038-0.038-0.059-0.093-0.05-0.151c0.015-0.097,0.105-0.164,0.201-0.149l4.003,0.606
		c0.096,0.015,0.163,0.104,0.148,0.201c-0.015,0.097-0.105,0.164-0.201,0.149l-4.004-0.606C0.625,47.332,0.591,47.313,0.565,47.288"
		/>
	<path fill="#DA5F02" d="M11.922,53.089c-0.026-0.026-0.044-0.062-0.05-0.1c-0.014-0.097,0.053-0.187,0.15-0.2l2.784-0.398
		c0.096-0.015,0.186,0.053,0.2,0.149c0.013,0.097-0.054,0.187-0.15,0.2l-2.784,0.398C12.015,53.146,11.96,53.127,11.922,53.089"/>
	<path fill="#DA5F02" d="M0.485,54.729c-0.026-0.025-0.044-0.061-0.05-0.1c-0.014-0.097,0.054-0.188,0.15-0.199l8.437-1.211
		c0.096-0.014,0.186,0.053,0.199,0.15c0.014,0.096-0.053,0.186-0.15,0.199l-8.437,1.211C0.578,54.788,0.523,54.768,0.485,54.729"/>
	<path fill="#DA5F02" d="M0.503,53.134c-0.027-0.026-0.045-0.062-0.05-0.103c-0.013-0.098,0.056-0.186,0.152-0.198l9.461-1.224
		c0.097-0.012,0.186,0.056,0.198,0.152c0.012,0.098-0.056,0.186-0.153,0.198L0.65,53.184C0.593,53.191,0.54,53.171,0.503,53.134"/>
	<path fill="#0B0026" d="M56.638,22.155c0,0,2.458-0.425,8.291-0.702c5.833-0.277,7.812-5.709,7.557-7
		C72.229,13.162,60.888,17.259,56.638,22.155"/>
	<path fill="#291827" d="M60.513,19.477l7.592-3.69c0,0-3.491-2.562-3.056-5.256c0.436-2.695,2.68-0.508,2.68-0.508
		s-2.044-3.776-5.87-0.871C58.033,12.057,60.513,19.477,60.513,19.477"/>
	<path fill="#0B0026" d="M60.513,19.477c0,0,1.321-0.22,3.671-1.362c2.35-1.142,3.921-2.328,3.921-2.328s-3.491-2.562-3.056-5.256
		c0.436-2.695,2.68-0.508,2.68-0.508s-2.044-3.776-5.87-0.871C58.033,12.057,60.513,19.477,60.513,19.477"/>
	<path fill="#FEA413" d="M66.56,14.338c-2.536,1.75-5.479,2.827-6.533,3.181c0.223,1.167,0.487,1.957,0.487,1.957
		s1.321-0.22,3.671-1.362c2.35-1.142,3.921-2.328,3.921-2.328S67.333,15.22,66.56,14.338"/>
	<path fill="#FFFFFF" d="M65.387,16.821c0.028,0.059,0.004,0.13-0.055,0.158l-2.281,1.109c-0.059,0.028-0.129,0.004-0.158-0.055
		l-0.373-0.767c-0.028-0.059-0.004-0.129,0.055-0.158L64.856,16c0.059-0.028,0.13-0.004,0.158,0.055L65.387,16.821z"/>
	<g opacity="0.4">
		<path fill="#0B0026" d="M62.577,18.826c0.464-0.184,1.001-0.417,1.607-0.711c2.35-1.142,3.921-2.328,3.921-2.328
			s-2.702-1.983-3.054-4.295H65.05C65.05,11.491,65.715,17.332,62.577,18.826"/>
		<rect x="62.577" y="11.491" fill="none" width="5.528" height="7.334"/>
	</g>
	<g opacity="0.2">
		<path fill="#FFFFFF" d="M62.127,13.936c0.114,1.191-0.208,2.196-0.72,2.245c-0.512,0.048-1.02-0.877-1.133-2.068
			c-0.114-1.19,0.208-2.196,0.721-2.245C61.506,11.819,62.014,12.745,62.127,13.936"/>
		<rect x="60.251" y="11.866" fill="none" width="1.899" height="4.316"/>
	</g>
	<g opacity="0.2">
		<path fill="#FFFFFF" d="M71.072,16.207c0,0-1.294,4.046-4.733,4.243c-3.439,0.196,0.905-1.802,1.96-2.276
			C69.354,17.7,71.303,15.292,71.072,16.207"/>
		<rect x="65.038" y="16.001" fill="none" width="6.053" height="4.462"/>
	</g>
	<path fill="#7BC229" d="M79.09,27.407c0,1.411-1.144,2.554-2.555,2.554c-1.411,0-2.554-1.144-2.554-2.554
		c0-1.411,1.144-2.555,2.554-2.555C77.946,24.853,79.09,25.996,79.09,27.407"/>
	<path fill="#304B12" d="M77.946,25.277c0.124,0.3,0.193,0.629,0.193,0.975c0,1.411-1.144,2.555-2.555,2.555
		c-0.521,0-1.006-0.157-1.41-0.425c0.383,0.928,1.296,1.58,2.362,1.58c1.411,0,2.554-1.144,2.554-2.554
		C79.09,26.518,78.635,25.735,77.946,25.277"/>
	<path fill="#EDEDE9" d="M78.433,27.436c0,0.682-0.553,1.234-1.235,1.234c-0.682,0-1.235-0.553-1.235-1.234
		c0-0.682,0.553-1.235,1.235-1.235C77.88,26.201,78.433,26.753,78.433,27.436"/>
	
		<text transform="matrix(0.8621 -0.5068 0.5068 0.8621 77.1167 28.1123)" fill="#363233" font-family="'ArialMT'" font-size="1.5329">7</text>
	<path fill="#EDEDE9" d="M76.553,24.535c0,0.682-0.553,1.235-1.235,1.235s-1.235-0.553-1.235-1.235c0-0.682,0.553-1.235,1.235-1.235
		S76.553,23.854,76.553,24.535"/>
	<path fill="none" d="M73.981,27.407c0,1.411,1.144,2.554,2.554,2.554c1.411,0,2.555-1.143,2.555-2.554
		c0-1.411-1.144-2.555-2.555-2.555C75.125,24.853,73.981,25.996,73.981,27.407"/>
	<g opacity="0.5">
		<path fill="#CBCCC4" d="M78.113,26.608c-0.121,0.862-0.671,1.587-1.429,1.949c0.157,0.072,0.331,0.113,0.514,0.113
			c0.682,0,1.235-0.553,1.235-1.235C78.433,27.117,78.312,26.827,78.113,26.608"/>
		<rect x="76.685" y="26.608" fill="none" width="1.749" height="2.062"/>
	</g>
	<g opacity="0.7">
		<path fill="#FFFFFF" d="M76.635,25.29c0.226,0.282-0.04,0.87-0.594,1.314c-0.554,0.445-1.187,0.576-1.413,0.294
			c-0.226-0.282,0.04-0.871,0.594-1.315C75.776,25.139,76.409,25.008,76.635,25.29"/>
		<rect x="74.548" y="25.141" fill="none" width="2.167" height="1.905"/>
	</g>
	<g opacity="0.7">
		<path fill="#FFFFFF" d="M75.851,27.359c0.09,0.165-0.01,0.393-0.223,0.509c-0.213,0.116-0.459,0.078-0.549-0.087
			c-0.09-0.165,0.01-0.393,0.224-0.509C75.517,27.156,75.761,27.194,75.851,27.359"/>
		<rect x="75.045" y="27.205" fill="none" width="0.839" height="0.73"/>
	</g>
	<path fill="#100F13" d="M87.4,39.572c-1.854,0-3.602-0.121-4.92-0.342c-1.686-0.282-2.405-0.665-2.405-1.281
		c0-0.617,0.719-1,2.405-1.281c1.318-0.221,3.065-0.342,4.92-0.342s3.602,0.121,4.92,0.342c1.686,0.282,2.405,0.665,2.405,1.281
		c0,0.616-0.719,0.999-2.405,1.281C91.001,39.451,89.254,39.572,87.4,39.572"/>
	<path fill="#1E1B20" d="M94.246,37.95c0,0.632-3.065,1.144-6.846,1.144c-3.781,0-6.846-0.512-6.846-1.144
		c0-0.632,3.065-1.144,6.846-1.144C91.181,36.806,94.246,37.318,94.246,37.95"/>
	<path fill="#010102" d="M87.4,37.096c3.487,0,6.362,0.436,6.79,0.999c0.036-0.048,0.057-0.096,0.057-0.145
		c0-0.632-3.065-1.144-6.846-1.144c-3.781,0-6.846,0.512-6.846,1.144c0,0.049,0.021,0.097,0.057,0.145
		C81.038,37.531,83.914,37.096,87.4,37.096"/>
	<path fill="#7BC229" d="M81.125,38.407c1.057,0.404,3.468,0.687,6.274,0.687c2.807,0,5.218-0.282,6.275-0.687
		c-1.057-0.404-3.468-0.687-6.275-0.687C84.593,37.721,82.182,38.003,81.125,38.407"/>
	<g>
		<path fill="#304B12" d="M87.4,37.721c-0.188,0-0.375,0.002-0.559,0.004c2.565,0.035,5.72,0.467,5.716,0.683
			c-0.004,0.215-3.15,0.648-5.716,0.683c0.185,0.003,0.371,0.004,0.559,0.004c2.807,0,5.218-0.283,6.275-0.687
			C92.618,38.003,90.207,37.721,87.4,37.721"/>
		<rect x="86.841" y="37.721" fill="none" width="6.834" height="1.374"/>
	</g>
	<g>
		<path fill="#7BC229" d="M90.258,38.509c0,0.118-1.769,0.356-3.951,0.356s-3.951-0.239-3.951-0.356
			c0-0.117,1.769-0.482,3.951-0.482S90.258,38.391,90.258,38.509"/>
		<rect x="82.355" y="38.026" fill="none" width="7.902" height="0.839"/>
	</g>
	<path fill="#4D385A" d="M89.347,37.03c0.03,1.094-0.851,2.006-1.967,2.038c-1.117,0.032-2.046-0.828-2.076-1.921
		c-0.03-1.094,0.851-2.006,1.967-2.039C88.387,35.075,89.317,35.937,89.347,37.03"/>
	<path fill="#0B0026" d="M89.347,37.03c-0.019-0.689-0.395-1.286-0.951-1.625c0.104,0.229,0.166,0.483,0.173,0.751
		c0.03,1.093-0.851,2.006-1.967,2.038c-0.413,0.012-0.799-0.098-1.125-0.297c0.323,0.71,1.059,1.195,1.902,1.171
		C88.497,39.036,89.377,38.124,89.347,37.03"/>
	<path fill="#FFFFFF" d="M88.257,37.189c0.015,0.529-0.411,0.97-0.951,0.985c-0.539,0.016-0.988-0.4-1.003-0.929
		c-0.014-0.528,0.412-0.969,0.951-0.985C87.793,36.244,88.243,36.661,88.257,37.189"/>
	<path fill="none" d="M87.771,34.873c-2.178,0.135-3.786,2.765-3.751,3.326c0.035,0.562,1.823,0.812,4.001,0.676
		c2.177-0.136,3.917-0.666,3.882-1.228c-0.034-0.545-1.849-2.78-3.95-2.78C87.893,34.867,87.832,34.869,87.771,34.873"/>
	<path fill="#FFFFFF" d="M88.922,34.604c0.015,0.529-0.412,0.97-0.951,0.985c-0.539,0.015-0.989-0.401-1.003-0.929
		c-0.014-0.528,0.412-0.969,0.951-0.985C88.458,33.659,88.908,34.076,88.922,34.604"/>
	<path fill="#FFFFFF" d="M85.675,36.586c0.015,0.529-0.411,0.97-0.951,0.985c-0.539,0.015-0.989-0.4-1.002-0.929
		c-0.015-0.528,0.411-0.969,0.95-0.985C85.211,35.641,85.661,36.058,85.675,36.586"/>
	<path fill="#FFFFFF" d="M87.697,39.674c0.015,0.529-0.412,0.97-0.951,0.985c-0.539,0.016-0.988-0.4-1.003-0.929
		c-0.014-0.529,0.411-0.97,0.951-0.985C87.234,38.73,87.683,39.146,87.697,39.674"/>
	<path fill="#FFFFFF" d="M90.867,37.808c0.015,0.528-0.412,0.97-0.951,0.985c-0.54,0.016-0.988-0.4-1.003-0.929
		c-0.014-0.528,0.411-0.969,0.951-0.985C90.403,36.864,90.852,37.28,90.867,37.808"/>
	<path fill="none" d="M87.272,35.108c-1.117,0.032-1.997,0.944-1.967,2.039l4.042-0.117c-0.029-1.074-0.925-1.923-2.016-1.923
		C87.312,35.107,87.292,35.108,87.272,35.108"/>
	<g opacity="0.5">
		<path fill="#FFFFFF" d="M88.255,37.273c-0.278,0.428-0.718,0.745-1.238,0.867c0.092,0.025,0.189,0.037,0.289,0.034
			C87.817,38.16,88.225,37.763,88.255,37.273"/>
		<rect x="87.018" y="37.273" fill="none" width="1.237" height="0.902"/>
	</g>
	<g opacity="0.5">
		<path fill="#FFFFFF" d="M87.38,39.068c0.023,0,0.047-0.002,0.07-0.004c-0.185-0.203-0.457-0.328-0.757-0.319
			c-0.125,0.003-0.243,0.031-0.352,0.076C86.649,38.988,87.004,39.079,87.38,39.068"/>
		<rect x="86.342" y="38.745" fill="none" width="1.108" height="0.324"/>
	</g>
	<g opacity="0.5">
		<path fill="#FFFFFF" d="M88.913,37.864c0.003,0.123,0.031,0.239,0.077,0.346c0.234-0.332,0.367-0.735,0.358-1.168
			C89.078,37.22,88.903,37.523,88.913,37.864"/>
		<rect x="88.912" y="37.042" fill="none" width="0.436" height="1.167"/>
	</g>
	<path fill="#010102" d="M86.735,37.541l0.142-0.041c0.01,0.036,0.028,0.062,0.051,0.079c0.023,0.017,0.049,0.022,0.079,0.018
		c0.031-0.005,0.055-0.021,0.072-0.048c0.017-0.027,0.023-0.06,0.017-0.1c-0.006-0.038-0.021-0.066-0.045-0.085
		c-0.024-0.018-0.05-0.025-0.079-0.021c-0.02,0.003-0.042,0.011-0.067,0.022l-0.003-0.125c0.041-0.005,0.07-0.02,0.089-0.042
		c0.018-0.022,0.024-0.049,0.02-0.08c-0.004-0.026-0.016-0.046-0.034-0.059c-0.018-0.013-0.04-0.018-0.066-0.014
		c-0.025,0.004-0.046,0.017-0.062,0.038c-0.015,0.021-0.022,0.048-0.02,0.083l-0.142-0.001c0.002-0.049,0.011-0.089,0.025-0.121
		c0.015-0.031,0.038-0.058,0.07-0.08c0.032-0.021,0.069-0.036,0.113-0.043c0.073-0.012,0.136,0.002,0.188,0.042
		c0.042,0.032,0.068,0.073,0.076,0.122c0.011,0.068-0.018,0.129-0.086,0.182c0.047,0.002,0.086,0.018,0.118,0.047
		c0.032,0.029,0.052,0.067,0.06,0.114c0.011,0.068-0.004,0.131-0.047,0.187c-0.042,0.057-0.101,0.09-0.175,0.103
		c-0.071,0.011-0.133,0-0.186-0.033C86.79,37.653,86.753,37.605,86.735,37.541"/>
	<path fill="#010102" d="M87.342,37.443l0.142-0.042c0.01,0.037,0.027,0.063,0.051,0.079c0.023,0.017,0.049,0.022,0.078,0.018
		c0.031-0.005,0.056-0.021,0.073-0.048c0.017-0.027,0.022-0.06,0.016-0.1c-0.006-0.038-0.021-0.066-0.044-0.085
		c-0.024-0.018-0.05-0.025-0.08-0.021c-0.019,0.003-0.042,0.011-0.067,0.022l-0.002-0.124c0.041-0.005,0.07-0.019,0.088-0.042
		c0.018-0.022,0.025-0.049,0.02-0.079c-0.004-0.027-0.016-0.046-0.034-0.06c-0.018-0.013-0.04-0.018-0.065-0.014
		c-0.025,0.004-0.046,0.017-0.062,0.037c-0.015,0.021-0.022,0.049-0.021,0.084l-0.142-0.002c0.002-0.048,0.01-0.088,0.025-0.12
		c0.015-0.031,0.038-0.058,0.07-0.08c0.032-0.021,0.069-0.036,0.112-0.043c0.073-0.012,0.136,0.002,0.188,0.042
		c0.043,0.033,0.068,0.073,0.076,0.121c0.011,0.068-0.018,0.129-0.086,0.183c0.046,0.002,0.085,0.018,0.118,0.047
		c0.032,0.029,0.052,0.067,0.06,0.115c0.011,0.068-0.005,0.131-0.047,0.187c-0.043,0.057-0.101,0.091-0.176,0.103
		c-0.07,0.011-0.132,0-0.186-0.033C87.396,37.556,87.36,37.508,87.342,37.443"/>
	<g opacity="0.7">
		<path fill="#FFFFFF" d="M87.363,35.443c0.185,0.213-0.014,0.676-0.442,1.032c-0.43,0.357-0.927,0.474-1.111,0.26
			c-0.185-0.214,0.013-0.676,0.442-1.033C86.681,35.346,87.178,35.23,87.363,35.443"/>
		<rect x="85.74" y="35.336" fill="none" width="1.692" height="1.506"/>
	</g>
	<g opacity="0.7">
		<path fill="#FFFFFF" d="M86.786,37.065c0.075,0.125,0,0.305-0.166,0.4c-0.167,0.095-0.362,0.07-0.437-0.056
			c-0.075-0.126,0-0.305,0.166-0.4C86.516,36.916,86.712,36.94,86.786,37.065"/>
		<rect x="86.155" y="36.953" fill="none" width="0.66" height="0.57"/>
	</g>
	<path fill="none" d="M87.771,34.873c-2.178,0.135-3.786,2.765-3.751,3.326c0.035,0.562,1.823,0.812,4.001,0.676
		c2.177-0.136,3.917-0.666,3.882-1.228c-0.034-0.545-1.849-2.78-3.95-2.78C87.893,34.867,87.832,34.869,87.771,34.873"/>
	<path fill="#7BC229" d="M86.665,38.252c-0.084,1.09-1.056,1.906-2.169,1.821c-1.114-0.085-1.948-1.039-1.862-2.129
		c0.084-1.091,1.056-1.906,2.169-1.821C85.916,36.208,86.75,37.161,86.665,38.252"/>
	<path fill="#304B12" d="M86.665,38.252c0.054-0.688-0.258-1.32-0.775-1.715c0.08,0.239,0.114,0.498,0.094,0.765
		c-0.085,1.091-1.057,1.906-2.17,1.82c-0.412-0.031-0.785-0.181-1.088-0.413c0.247,0.74,0.928,1.3,1.77,1.364
		C85.608,40.158,86.58,39.342,86.665,38.252"/>
	<path fill="#FFFFFF" d="M85.564,38.295c-0.041,0.527-0.511,0.921-1.049,0.88c-0.539-0.041-0.941-0.501-0.9-1.029
		s0.511-0.921,1.049-0.88C85.202,37.308,85.605,37.768,85.564,38.295"/>
	<path fill="none" d="M81.28,38.032c-0.018,0.412,1.738,0.751,3.918,0.844c2.18,0.093,3.961-0.139,3.979-0.551
		c0.018-0.412-1.672-2.292-3.853-2.386c-0.056-0.002-0.111-0.003-0.166-0.003C83.051,35.937,81.297,37.63,81.28,38.032"/>
	<path fill="#FFFFFF" d="M86.496,35.794c-0.041,0.527-0.511,0.921-1.049,0.88c-0.538-0.041-0.941-0.501-0.9-1.029
		c0.042-0.527,0.511-0.921,1.049-0.88C86.134,34.807,86.537,35.267,86.496,35.794"/>
	<path fill="#FFFFFF" d="M83.06,37.426c-0.041,0.527-0.511,0.921-1.049,0.88c-0.539-0.041-0.941-0.502-0.9-1.029
		c0.041-0.527,0.51-0.921,1.049-0.88C82.698,36.438,83.101,36.898,83.06,37.426"/>
	<path fill="#FFFFFF" d="M84.747,40.708c-0.041,0.527-0.511,0.921-1.049,0.88c-0.538-0.041-0.941-0.501-0.9-1.029
		s0.511-0.921,1.049-0.88C84.385,39.721,84.788,40.181,84.747,40.708"/>
	<path fill="#FFFFFF" d="M88.094,39.185c-0.041,0.527-0.511,0.921-1.049,0.88c-0.539-0.041-0.941-0.501-0.9-1.029
		c0.041-0.528,0.51-0.921,1.049-0.88C87.733,38.197,88.135,38.657,88.094,39.185"/>
	<path fill="none" d="M82.633,37.944l4.032,0.308c0.085-1.09-0.749-2.043-1.862-2.128c-0.054-0.004-0.107-0.006-0.16-0.006
		C83.597,36.117,82.713,36.905,82.633,37.944"/>
	<g opacity="0.5">
		<path fill="#FFFFFF" d="M85.553,38.378c-0.32,0.396-0.792,0.666-1.321,0.733c0.089,0.034,0.184,0.056,0.283,0.064
			C85.025,39.214,85.472,38.863,85.553,38.378"/>
		<rect x="84.232" y="38.378" fill="none" width="1.321" height="0.8"/>
	</g>
	<g opacity="0.5">
		<path fill="#FFFFFF" d="M84.495,40.073c0.023,0.001,0.047,0.002,0.07,0.003c-0.163-0.221-0.42-0.374-0.719-0.396
			c-0.125-0.01-0.245,0.005-0.357,0.039C83.776,39.916,84.119,40.044,84.495,40.073"/>
		<rect x="83.489" y="39.676" fill="none" width="1.076" height="0.4"/>
	</g>
	<g opacity="0.5">
		<path fill="#FFFFFF" d="M86.145,39.036c-0.009,0.123,0.006,0.241,0.04,0.352c0.267-0.305,0.442-0.692,0.479-1.124
			C86.377,38.412,86.171,38.695,86.145,39.036"/>
		<rect x="86.142" y="38.264" fill="none" width="0.521" height="1.124"/>
	</g>
	<path fill="#010102" d="M84.198,38.455l0.102,0.014c-0.002,0.048,0.005,0.085,0.025,0.111c0.019,0.026,0.046,0.043,0.083,0.052
		c0.032,0.007,0.062,0.007,0.089-0.002c0.028-0.009,0.052-0.023,0.072-0.044c0.021-0.021,0.042-0.05,0.062-0.088
		c0.021-0.038,0.035-0.079,0.045-0.121c0.001-0.004,0.002-0.011,0.004-0.021c-0.028,0.028-0.063,0.048-0.104,0.06
		s-0.082,0.013-0.124,0.003c-0.07-0.016-0.124-0.055-0.16-0.115c-0.037-0.061-0.045-0.132-0.026-0.213
		c0.02-0.084,0.061-0.146,0.124-0.186c0.062-0.04,0.132-0.051,0.208-0.033c0.055,0.012,0.102,0.039,0.141,0.078
		c0.039,0.039,0.063,0.088,0.074,0.147s0.005,0.14-0.02,0.242c-0.025,0.106-0.057,0.188-0.095,0.245
		c-0.039,0.058-0.085,0.097-0.14,0.119c-0.054,0.022-0.112,0.026-0.174,0.012c-0.066-0.015-0.116-0.045-0.149-0.091
		C84.205,38.578,84.191,38.522,84.198,38.455 M84.71,38.187c0.014-0.058,0.009-0.108-0.015-0.15
		c-0.023-0.042-0.058-0.067-0.102-0.077c-0.046-0.011-0.091-0.002-0.134,0.027c-0.043,0.029-0.071,0.073-0.085,0.132
		c-0.013,0.053-0.006,0.099,0.018,0.14c0.025,0.041,0.061,0.066,0.109,0.077c0.048,0.011,0.091,0.003,0.13-0.022
		C84.67,38.287,84.696,38.245,84.71,38.187"/>
	<g opacity="0.7">
		<path fill="#FFFFFF" d="M84.857,36.466c0.161,0.231-0.084,0.67-0.548,0.98s-0.971,0.374-1.132,0.142
			c-0.162-0.231,0.083-0.67,0.548-0.98C84.189,36.298,84.696,36.234,84.857,36.466"/>
		<rect x="83.128" y="36.326" fill="none" width="1.779" height="1.401"/>
	</g>
	<g opacity="0.7">
		<path fill="#FFFFFF" d="M84.114,38.018c0.061,0.133-0.031,0.303-0.207,0.38c-0.175,0.078-0.367,0.032-0.428-0.101
			c-0.061-0.132,0.032-0.303,0.207-0.38C83.861,37.84,84.053,37.886,84.114,38.018"/>
		<rect x="83.46" y="37.88" fill="none" width="0.672" height="0.556"/>
	</g>
	<path fill="none" d="M81.28,38.032c-0.018,0.412,1.738,0.751,3.918,0.844c2.18,0.093,3.961-0.139,3.979-0.551
		c0.018-0.412-1.672-2.292-3.853-2.386c-0.056-0.002-0.111-0.003-0.166-0.003C83.051,35.937,81.297,37.63,81.28,38.032"/>
	<path fill="#FFA512" d="M92.229,37.945c0.073,1.091-0.771,2.039-1.885,2.114c-1.114,0.077-2.077-0.746-2.15-1.838
		c-0.073-1.091,0.771-2.038,1.885-2.114C91.193,36.03,92.156,36.854,92.229,37.945"/>
	<path fill="#DA5F02" d="M92.229,37.945c-0.046-0.688-0.446-1.269-1.015-1.586c0.113,0.226,0.185,0.477,0.203,0.744
		c0.074,1.091-0.771,2.038-1.884,2.114c-0.412,0.028-0.803-0.066-1.136-0.252c0.351,0.697,1.106,1.152,1.947,1.094
		C91.458,39.983,92.302,39.036,92.229,37.945"/>
	<path fill="#FFFFFF" d="M91.146,38.146c0.036,0.528-0.373,0.985-0.911,1.022s-1.004-0.361-1.039-0.889
		c-0.035-0.527,0.373-0.985,0.911-1.022C90.645,37.222,91.111,37.619,91.146,38.146"/>
	<path fill="none" d="M90.568,35.851c-2.171,0.223-3.742,2.243-3.7,2.653s1.829,0.493,4,0.271c2.17-0.222,3.899-0.709,3.857-1.119
		c-0.039-0.384-1.746-1.826-3.744-1.826C90.844,35.83,90.707,35.836,90.568,35.851"/>
	<path fill="#FFFFFF" d="M91.708,35.537c0.035,0.528-0.373,0.985-0.911,1.022c-0.539,0.037-1.004-0.361-1.04-0.889
		c-0.035-0.527,0.373-0.985,0.911-1.022C91.207,34.612,91.672,35.009,91.708,35.537"/>
	<path fill="#FFFFFF" d="M88.542,37.647c0.035,0.528-0.373,0.985-0.911,1.022s-1.004-0.361-1.039-0.888
		c-0.035-0.528,0.373-0.986,0.911-1.022C88.041,36.723,88.507,37.119,88.542,37.647"/>
	<path fill="#FFFFFF" d="M90.685,40.652c0.035,0.528-0.373,0.985-0.911,1.022c-0.538,0.037-1.004-0.361-1.039-0.888
		c-0.035-0.528,0.373-0.985,0.911-1.022C90.184,39.727,90.65,40.125,90.685,40.652"/>
	<path fill="#FFFFFF" d="M93.778,38.662c0.035,0.527-0.373,0.985-0.911,1.022c-0.538,0.037-1.004-0.361-1.039-0.889
		c-0.035-0.527,0.373-0.985,0.911-1.022C93.277,37.737,93.743,38.134,93.778,38.662"/>
	<path fill="none" d="M90.079,36.107c-1.114,0.076-1.958,1.023-1.884,2.114l4.035-0.276c-0.07-1.044-0.955-1.843-2.007-1.843
		C90.175,36.102,90.126,36.104,90.079,36.107"/>
	<g opacity="0.5">
		<path fill="#FFFFFF" d="M91.147,38.23c-0.26,0.438-0.688,0.773-1.202,0.916c0.093,0.021,0.189,0.029,0.29,0.022
			C90.745,39.134,91.137,38.722,91.147,38.23"/>
		<rect x="89.945" y="38.23" fill="none" width="1.202" height="0.94"/>
	</g>
	<g opacity="0.5">
		<path fill="#FFFFFF" d="M90.344,40.059c0.023-0.001,0.047-0.004,0.07-0.006c-0.192-0.195-0.469-0.309-0.768-0.289
			c-0.125,0.009-0.242,0.041-0.348,0.09C89.61,40.008,89.969,40.085,90.344,40.059"/>
		<rect x="89.298" y="39.762" fill="none" width="1.116" height="0.302"/>
	</g>
	<g opacity="0.5">
		<path fill="#FFFFFF" d="M91.828,38.795c0.008,0.123,0.04,0.237,0.09,0.342c0.221-0.341,0.338-0.75,0.312-1.181
			C91.967,38.145,91.805,38.455,91.828,38.795"/>
		<rect x="91.826" y="37.957" fill="none" width="0.407" height="1.181"/>
	</g>
	<path fill="#010102" d="M90.002,38.485l-0.078,0.117l-0.443-0.294c0.034-0.041,0.077-0.074,0.127-0.097
		c0.05-0.024,0.132-0.045,0.247-0.063c0.092-0.016,0.151-0.028,0.176-0.039c0.035-0.015,0.061-0.035,0.078-0.06
		c0.019-0.028,0.025-0.055,0.021-0.08c-0.006-0.025-0.021-0.047-0.048-0.064c-0.026-0.017-0.053-0.023-0.079-0.018
		c-0.026,0.006-0.052,0.026-0.079,0.062l-0.118-0.096c0.054-0.064,0.11-0.099,0.17-0.103c0.059-0.004,0.119,0.014,0.178,0.053
		c0.065,0.043,0.105,0.095,0.119,0.154c0.014,0.06,0.003,0.116-0.031,0.168c-0.02,0.03-0.044,0.054-0.072,0.074
		c-0.029,0.02-0.064,0.037-0.107,0.051c-0.028,0.009-0.074,0.019-0.138,0.029c-0.064,0.01-0.106,0.018-0.124,0.022
		c-0.019,0.005-0.035,0.011-0.049,0.018L90.002,38.485z"/>
	<path fill="#010102" d="M90.333,38.874l-0.126-0.084l0.316-0.476c-0.075,0.013-0.15,0.008-0.227-0.013l0.077-0.114
		c0.04,0.011,0.089,0.014,0.147,0.01c0.059-0.004,0.109-0.022,0.15-0.053l0.103,0.068L90.333,38.874z"/>
	<g opacity="0.7">
		<path fill="#FFFFFF" d="M90.183,36.438c0.193,0.206,0.013,0.676-0.401,1.049c-0.415,0.374-0.907,0.51-1.1,0.304
			s-0.014-0.675,0.401-1.049S89.99,36.232,90.183,36.438"/>
		<rect x="88.604" y="36.342" fill="none" width="1.656" height="1.545"/>
	</g>
	<g opacity="0.7">
		<path fill="#FFFFFF" d="M89.671,38.082c0.08,0.123,0.013,0.304-0.15,0.406c-0.162,0.102-0.358,0.085-0.438-0.038
			c-0.079-0.123-0.012-0.304,0.15-0.406C89.396,37.942,89.592,37.959,89.671,38.082"/>
		<rect x="89.05" y="37.978" fill="none" width="0.655" height="0.577"/>
	</g>
	<path fill="none" d="M90.568,35.851c-2.171,0.223-3.742,2.243-3.7,2.653s1.829,0.493,4,0.271c2.17-0.222,3.899-0.709,3.857-1.119
		c-0.039-0.384-1.746-1.826-3.744-1.826C90.844,35.83,90.707,35.836,90.568,35.851"/>
	<path fill="#010102" d="M94.439,38.523c-0.35,0.301-1.033,0.525-2.12,0.707c-1.318,0.22-3.066,0.342-4.92,0.342
		s-3.602-0.122-4.92-0.342c-1.087-0.182-1.77-0.406-2.12-0.707c-0.509,1.04-0.797,2.207-0.797,3.443
		c0,4.328,3.509,7.837,7.837,7.837s7.837-3.509,7.837-7.837C95.237,40.73,94.949,39.563,94.439,38.523"/>
	<path fill="#030306" d="M87.4,39.572c-1.854,0-3.602-0.121-4.92-0.342c-1.087-0.182-1.771-0.406-2.12-0.707
		c-0.509,1.04-0.797,2.207-0.797,3.443c0,3.276,2.011,6.082,4.865,7.252c4.527-0.226,8.129-3.968,8.129-8.551
		c0-0.497-0.043-0.983-0.125-1.456c-0.037,0.006-0.074,0.013-0.112,0.019C91.001,39.451,89.254,39.572,87.4,39.572"/>
	<path fill="#060609" d="M89.325,39.527c-0.618,0.029-1.265,0.045-1.925,0.045c-1.854,0-3.602-0.121-4.92-0.341
		c-1.087-0.182-1.77-0.406-2.12-0.708c-0.509,1.04-0.797,2.207-0.797,3.443c0,2.327,1.016,4.416,2.626,5.851
		C86.19,47.143,89.247,43.701,89.325,39.527"/>
	<path fill="#100F13" d="M82.228,47.852l-0.514,2.457c0,0,0.256,0.324,0.948,0.142l0.912-1.646
		C83.091,48.535,82.641,48.215,82.228,47.852"/>
	<path fill="#010102" d="M82.228,47.852l-0.089,0.427c0.315,0.247,0.757,0.488,0.844,0.79c0.087,0.302-0.708,1.437-0.708,1.437
		c0.111-0.001,0.239-0.016,0.388-0.055l0.912-1.646C83.091,48.535,82.641,48.215,82.228,47.852"/>
	<path fill="#17121E" d="M92.578,47.846c-0.413,0.364-0.863,0.685-1.346,0.956l0.914,1.648c0.692,0.182,0.948-0.142,0.948-0.142
		L92.578,47.846L92.578,47.846z"/>
	<path fill="#100F13" d="M92.578,47.846c-0.413,0.364-0.863,0.685-1.346,0.956l0.914,1.648c0.692,0.182,0.948-0.142,0.948-0.142
		L92.578,47.846L92.578,47.846z"/>
	<path fill="#010102" d="M91.844,49.082c0.112-0.397,0.504-0.491,0.835-0.754l-0.101-0.481l0,0
		c-0.413,0.364-0.863,0.684-1.346,0.956l0.914,1.648c0.107,0.028,0.203,0.043,0.291,0.05C92.436,50.5,91.754,49.399,91.844,49.082"
		/>
	<path fill="#100F13" d="M84.234,41.712c-0.121,0.707-0.931,1.158-1.809,1.008c-0.879-0.15-1.494-0.844-1.373-1.551
		c0.121-0.707,0.931-1.158,1.81-1.008C83.74,40.312,84.355,41.006,84.234,41.712"/>
	<g opacity="0.48">
		<path fill="#1E1826" d="M94.538,38.733c-0.032-0.07-0.064-0.14-0.098-0.209c-0.35,0.301-1.033,0.525-2.12,0.707
			c-1.318,0.221-3.065,0.342-4.92,0.342s-3.602-0.121-4.92-0.342c-1.087-0.182-1.771-0.406-2.12-0.707
			c-0.034,0.069-0.067,0.14-0.099,0.209c0.31,0.352,1.018,0.604,2.219,0.805c1.318,0.22,3.065,0.342,4.92,0.342
			s3.602-0.122,4.92-0.342C93.521,39.337,94.229,39.084,94.538,38.733"/>
		<rect x="80.261" y="38.523" fill="none" width="14.277" height="1.356"/>
	</g>
	<path fill="#1E1826" d="M94.841,39.532c0.553-0.825,2.154-1.004,2.333,0.149c0.289,1.855-2.935,3.222-2.935,3.222
		c-0.396-0.226-0.164-0.609-0.164-0.609c1.537-0.436,3.103-2.188,2.37-2.766c-0.61-0.48-1.435,0.605-1.435,0.605L94.841,39.532z"/>
	<path fill="#100F13" d="M94.841,39.532c0.553-0.825,2.154-1.004,2.333,0.149c0.289,1.855-2.935,3.222-2.935,3.222
		c-0.396-0.226-0.164-0.609-0.164-0.609c1.537-0.436,3.103-2.188,2.37-2.766c-0.61-0.48-1.435,0.605-1.435,0.605L94.841,39.532z"/>
	<path fill="#100F13" d="M79.95,39.532c-0.553-0.825-2.154-1.004-2.333,0.149c-0.289,1.855,2.935,3.222,2.935,3.222
		c0.395-0.226,0.164-0.609,0.164-0.609c-1.537-0.436-3.104-2.188-2.369-2.766c0.609-0.48,1.434,0.605,1.434,0.605L79.95,39.532z"/>
	<path fill="#010102" d="M52.631,62.785c-0.43,0.297-1.382,1.775-1.562,2.046c-0.179,0.271,1.345,3.243,1.42,3.304
		c0.075,0.062,2.347,0.91,3.107,0.694c0.76-0.216,1.184-0.789,0.594-0.935c-0.59-0.146-1.608-0.435-1.63-1.099
		c-0.022-0.665,0.239-2.831,0.239-2.831L52.631,62.785z"/>
	<path fill="#7D6982" d="M14.479,39.142c0,0,2.138-0.75,2.639,1.686c0,0,1.056-0.519,2.176,1.006c0,0,0.212-1.699,1.538-1.46
		c1.326,0.239,3.042,1.73,3.042,1.73l-0.761-1.564l1.123-2.292l-1.458-2.531l-1.528,1.347l-2.842-1.18
		C18.408,35.884,15.218,37.491,14.479,39.142"/>
	<path fill="#7D6982" d="M27.93,40.541c0,0-0.415-4.331,2.956-3.374c0,0,0.776-2.204,2.83-1.607c0,0-1.098-4.058,0.79-4.917
		c0,0-3.703-0.395-5.756,0.775l-1.744,3.319l-1.17-0.191v2.597l1.695,1.881l0.143,1.66L27.93,40.541z"/>
	<path fill="#574F61" d="M32.692,32.198c-0.003,0.014-0.005,0.023-0.007,0.03c0,0.007,0,0.015,0,0.028c-0.001,0.026,0,0.052,0,0.079
		c0.011-0.08,0.024-0.159,0.041-0.237C32.707,32.129,32.706,32.137,32.692,32.198"/>
	<path fill="#4D385A" d="M29.602,31.775l0.03,0.001l-0.334-0.19l0.334-0.215h-0.478l0.115-0.14c1.882-0.859,5.236-0.588,5.236-0.588
		c-2.146-0.391-4.306,0.046-5.053,0.366l0.037-0.043l-0.17,0.104c-0.39,0.184-0.57,0.349-0.57,0.349l-1.911,3.128
		c0,0-0.852-0.673-1.91-0.287c-2.107,0.264-2.546,0.814-2.546,0.814l-1.155,1.717l-2.412-0.86l-0.311-0.478v0.263h-0.287v0.053
		c-0.458,0.26-3.056,1.837-3.856,3.543c0,0,2.362-2.704,4.008-3.318l0.106,0.044c-1.516,2.408-1.356,4.788-1.356,4.788
		c0-2.137,1.164-4.093,1.563-4.702l0.008,0.004c-0.389,3.564,0.604,5.704,0.604,5.704c-0.862-2.204-0.549-4.992-0.458-5.644
		l2.51,1.049l1.231-1.247c0,0,0.035,0.679,0.321,1.35c0.286,0.669,0.908,1.174,0.908,1.174l-0.979,1.833l0.952,1.444l-0.406,0.143
		l0.358,0.048l-0.478,0.119l0.835-0.072l-0.761-1.587l0.932-1.505c0,0,0.883,0.347,1.361,0.155c0.477-0.191,0.668-0.848,0.668-0.848
		l0.979,0.764l0.239,1.863h1.051l-0.358-0.144l0.334-0.191h-0.382l0.143-0.167l-0.549,0.167l-0.119-1.624l-1.146-1.386
		c0,0,0.311-0.692,0.1-1.408c-0.076-0.621-0.482-1.17-0.482-1.17l1.075,0.191l1.684-3.146c0.394,0.567,1.755,2.678,2.029,5.169
		c0,0-0.041-3.164-1.935-5.346l0.021-0.038c1.927,0.543,4.744,3.777,4.744,3.777C32.734,33.803,30.427,32.23,29.602,31.775"/>
	<g opacity="0.6">
		<path fill="#170A30" d="M29.602,31.775l0.03,0.001l-0.334-0.19l0.334-0.215h-0.478l0.115-0.14
			c1.882-0.859,5.236-0.588,5.236-0.588c-2.146-0.391-4.306,0.046-5.053,0.366l0.037-0.043l-0.17,0.104
			c-0.39,0.184-0.57,0.349-0.57,0.349l-1.911,3.128c0,0-0.852-0.673-1.91-0.287c-0.16,0.02-0.31,0.042-0.451,0.065
			c0.039,0.045,0.07,0.1,0.091,0.159c0.149,0.413,0.306,0.839,0.318,1.282c0.011,0.436-0.125,0.859-0.354,1.227
			c-0.247,0.396-0.55,0.745-0.987,0.934c-0.077,0.034-0.155,0.061-0.234,0.081c0.252,0.312,0.495,0.509,0.495,0.509l-0.979,1.833
			l0.952,1.444l-0.406,0.143l0.358,0.048l-0.478,0.119l0.835-0.072l-0.761-1.587l0.932-1.505c0,0,0.883,0.347,1.361,0.155
			c0.477-0.191,0.668-0.848,0.668-0.848l0.979,0.764l0.239,1.863h1.051l-0.358-0.144l0.334-0.191h-0.382l0.143-0.167l-0.549,0.167
			l-0.119-1.624l-1.146-1.386c0,0,0.311-0.692,0.1-1.408c-0.076-0.621-0.482-1.17-0.482-1.17l1.075,0.191l1.684-3.146
			c0.394,0.567,1.755,2.678,2.029,5.169c0,0-0.041-3.164-1.935-5.346l0.021-0.038c1.927,0.543,4.744,3.777,4.744,3.777
			C32.734,33.803,30.427,32.23,29.602,31.775"/>
		<rect x="22.826" y="30.488" fill="none" width="11.679" height="11.617"/>
	</g>
	<path fill="#796788" d="M24.408,25.916c-1.695,0.85-1.469,4.44-1.469,4.44l2.487,1.067C26.094,27.71,24.408,25.916,24.408,25.916"
		/>
	<g opacity="0.6">
		<path fill="#4D385A" d="M24.408,25.916c-1.695,0.85-1.469,4.44-1.469,4.44l2.487,1.067C26.094,27.71,24.408,25.916,24.408,25.916"
			/>
		<rect x="22.928" y="25.916" fill="none" width="2.654" height="5.506"/>
	</g>
	<path fill="#26163C" d="M24.39,26.011c-1.67,0.829-0.914,4.647-0.914,4.647l1.917,0.724C26.052,27.761,24.39,26.011,24.39,26.011"
		/>
	<path fill="#0B0026" d="M25.261,31.236c0.001-1.696-1.303-2.863-1.921-3.159c-0.126,1.258,0.136,2.582,0.136,2.582l1.785,1.104
		C25.261,31.611,25.261,31.388,25.261,31.236"/>
	<path fill="#705B77" d="M18.709,27.803c0,0-0.635,3.422,2.121,5.298l1.266-2.073C22.095,31.028,20.605,27.755,18.709,27.803"/>
	<path fill="#26163C" d="M18.77,27.878c1.863-0.055,2.994,3.67,2.994,3.67l-0.925,1.502C18.143,31.328,18.77,27.878,18.77,27.878"/>
	<path fill="#0B0026" d="M20.69,29.239c-0.147,0.184-1.029,0.981-0.486,3.358c0.221,0.224,0.337,0.264,0.634,0.454l0.925-1.502
		C21.763,31.549,21.379,30.284,20.69,29.239"/>
	<path fill="#705B77" d="M25.75,33.705c0,0-1.049,1.262-1.722,1.399c-0.673,0.137-1.898-0.051-1.898-0.051l-0.409,0.132l0.1-0.153
		l-0.481,0.143l0.011-0.406l-0.233,0.208l0.121-0.462l-0.293,0.243l0.13-0.385c0,0-0.656-1.349-0.051-2.551l-0.228-0.006
		c0,0,0.53-0.571,0.985-0.63c0,0-0.65,0.162-0.979,0.404c0,0,0.47-0.584,1.145-0.782c0,0-0.645,0.007-0.984,0.177
		c0,0,0.741-0.888,2.518-0.804l0.826-0.049l-0.1,0.141l0.35-0.134l-0.091,0.284l0.278-0.136l0.013,0.395c0,0,0.976,1.054,1.1,1.284
		l-0.11,0.117L26.216,32l-0.331,0.326c0,0,0.374-0.145,0.458-0.131c0,0-0.189,0.389-0.347,0.469c0,0,0.215,0.005,0.332,0.086
		l-0.364,0.199l0.287-0.004L25.75,33.705z"/>
	<g opacity="0.6">
		<path fill="#4D385A" d="M25.994,32.66c0.158-0.079,0.347-0.468,0.347-0.468c-0.083-0.014-0.458,0.131-0.458,0.131l0.332-0.326
			l-0.468,0.083l0.11-0.117c-0.125-0.23-1.1-1.284-1.1-1.284l-0.013-0.395l-0.278,0.136l0.091-0.284l-0.35,0.134l0.1-0.141
			l-0.826,0.049c-1.242-0.058-1.977,0.356-2.308,0.613c0.361-0.105,0.812-0.173,1.362-0.147l0.826-0.049l-0.1,0.141l0.35-0.134
			l-0.091,0.284l0.278-0.136c0,0,0.474,0.093,0.875,0.46c0.483,0.444,0.128,0.946,0.253,1.177l0.051,0.069l0.468-0.083L25.116,32.7
			c0,0,0.374-0.146,0.458-0.131c0,0-0.189,0.389-0.347,0.469c0,0,0.215,0.006,0.332,0.086l-0.364,0.199l0.287-0.004l-0.676,0.852
			c0,0-0.456,0.548-0.959,0.961c0.064-0.007,0.125-0.017,0.183-0.028c0.673-0.137,1.722-1.399,1.722-1.399l0.499-0.763l-0.287,0.004
			l0.364-0.199C26.208,32.666,25.994,32.66,25.994,32.66"/>
		<rect x="21.173" y="30.13" fill="none" width="5.167" height="5.002"/>
	</g>
	<path fill="#C43701" d="M23.858,34.026c0,0-0.065,0.029-0.1,0.031c-0.25,0.009-1.222-0.031-1.146-0.805
		c0.02-0.201,0.01-0.324,0.069-0.387c0.04-0.042,0.142-0.054,0.19-0.054c0.191,0.001,0.413,0.272,0.413,0.272
		s-0.038-0.264,0.098-0.403c0.047-0.048,0.17-0.081,0.247-0.083c0.055-0.002,0.119,0.012,0.193,0.048
		C24.295,32.875,24.198,33.526,23.858,34.026"/>
	<path fill="#38254A" d="M21.127,33.045c-0.01,0.388,0.227,0.748,0.636,0.75c0.57,0.004,0.651-0.387,0.662-0.774
		c0.011-0.387-0.276-0.562-0.617-0.571C21.467,32.441,21.137,32.658,21.127,33.045"/>
	<g opacity="0.2">
		<path fill="#FFFFFF" d="M23.758,34.057c0,0-1.333,0.108-1.246-0.774c0.088-0.881,0.673-0.168,0.673-0.168s0.066-0.667,0.538-0.438
			C24.195,32.906,24.098,33.557,23.758,34.057"/>
		<rect x="22.509" y="32.628" fill="none" width="1.537" height="1.433"/>
	</g>
	<path fill="#2D0616" d="M22.677,33.069c0.098-0.095,0.323-0.159,0.44,0.225c0.118,0.384-0.149,0.57-0.334,0.395
		C22.598,33.513,22.579,33.164,22.677,33.069"/>
	<path fill="#2D0616" d="M23.649,32.79c-0.137-0.011-0.359,0.082-0.223,0.454c0.135,0.373,0.465,0.348,0.51,0.094
		S23.786,32.801,23.649,32.79"/>
	<g opacity="0.2">
		<path fill="#FFFFFF" d="M22.783,33.688c0.109,0.103,0.245,0.08,0.316-0.034c-0.071,0.037-0.158,0.025-0.233-0.045
			c-0.166-0.157-0.198-0.456-0.131-0.583c-0.022,0.012-0.042,0.027-0.058,0.042C22.579,33.164,22.598,33.513,22.783,33.688"/>
		<rect x="22.619" y="33.027" fill="none" width="0.48" height="0.728"/>
	</g>
	<g opacity="0.2">
		<path fill="#FFFFFF" d="M23.426,33.244c0.118,0.323,0.38,0.347,0.478,0.183c-0.121,0.061-0.302-0.009-0.394-0.261
			c-0.06-0.165-0.05-0.274-0.009-0.345C23.404,32.872,23.336,32.996,23.426,33.244"/>
		<rect x="23.384" y="32.82" fill="none" width="0.519" height="0.706"/>
	</g>
	<path fill="#38254A" d="M23.839,32.372c0.201,0.332,0.611,0.529,0.941,0.288c0.37-0.271,0.374-0.755,0.108-1.039
		c-0.307-0.328-0.596-0.231-0.888-0.055C23.709,31.743,23.638,32.04,23.839,32.372"/>
	<path fill="#010103" d="M24.123,32.081c-0.005,0.183,0.14,0.335,0.322,0.34c0.182,0.005,0.334-0.139,0.34-0.322
		c0.004-0.183-0.139-0.334-0.322-0.34C24.28,31.753,24.128,31.898,24.123,32.081"/>
	<path fill="#010103" d="M21.41,33.041c-0.005,0.183,0.139,0.335,0.322,0.34c0.183,0.004,0.335-0.139,0.34-0.322
		c0.004-0.183-0.139-0.335-0.322-0.34C21.567,32.714,21.415,32.858,21.41,33.041"/>
</g>
<g>
	<polygon points="145.411,36.511 145.411,59.945 145.411,61.146 146.594,61.146 157.76,61.146 157.76,64.889 141.614,64.889 
		141.614,36.511 	"/>
	<path d="M183.676,64.889h-4.065l-2.1-4.675h-6.039h-6.021l-2.1,4.675h-4.065l12.195-28.646L183.676,64.889z M171.472,57.158h4.647
		c-0.777-1.78-1.551-3.696-2.318-5.745c-0.769-2.047-1.535-3.969-2.302-5.762c-0.776,1.793-1.556,3.715-2.337,5.762
		c-0.782,2.049-1.555,3.964-2.318,5.745H171.472z"/>
	<polygon points="208.7,65.137 196.657,36.511 198.613,36.511 200.587,36.511 208.681,56.053 216.792,36.511 220.797,36.511 	"/>
	<polygon points="239.616,36.453 239.616,40.231 228.453,40.231 227.27,40.231 227.27,41.415 227.27,47.617 227.27,48.819 
		228.453,48.819 236.525,48.819 236.525,52.6 228.453,52.6 227.27,52.6 227.27,53.781 227.27,59.983 227.27,61.186 228.453,61.186 
		239.616,61.186 239.616,64.966 228.453,64.966 223.471,64.966 223.471,36.453 	"/>
	<polygon points="246.088,36.511 246.088,59.945 246.088,61.146 247.272,61.146 258.437,61.146 258.437,64.889 242.29,64.889 
		242.29,36.511 	"/>
	<polygon points="277.254,36.453 277.254,40.231 266.09,40.231 264.907,40.231 264.907,41.415 264.907,47.617 264.907,48.819 
		266.09,48.819 274.163,48.819 274.163,52.6 266.09,52.6 264.907,52.6 264.907,53.781 264.907,59.983 264.907,61.186 266.09,61.186 
		277.254,61.186 277.254,64.966 266.09,64.966 261.108,64.966 261.108,36.453 	"/>
	<polygon points="291.357,36.511 297.732,36.511 297.732,40.27 291.357,40.27 290.156,40.27 290.156,41.452 290.156,64.889 
		286.358,64.889 286.358,41.452 286.358,40.27 285.157,40.27 278.782,40.27 278.782,36.511 285.157,36.511 	"/>
	<path d="M318.878,64.889h-4.065l-2.101-4.675h-6.038h-6.021l-2.102,4.675h-4.063l12.195-28.646L318.878,64.889z M306.674,57.158
		h4.646c-0.776-1.78-1.549-3.696-2.319-5.745c-0.771-2.047-1.536-3.969-2.3-5.762c-0.776,1.793-1.558,3.715-2.34,5.762
		c-0.782,2.049-1.555,3.964-2.318,5.745H306.674z"/>
</g>
</svg>
