<?xml version="1.0" encoding="utf-8"?>
<!-- Generator: Adobe Illustrator 22.0.0, SVG Export Plug-In . SVG Version: 6.00 Build 0)  -->
<svg version="1.1" xmlns="http://www.w3.org/2000/svg" xmlns:xlink="http://www.w3.org/1999/xlink" x="0px" y="0px"
	 viewBox="0 0 22.4 22.4" style="enable-background:new 0 0 22.4 22.4;" xml:space="preserve">
<style type="text/css">
	.st0{display:none;}
	.st1{fill:#ED1C24;stroke:#ED1C24;stroke-width:3;}
	.st2{fill:#FFFFFF;}
</style>
<g id="ENCABEZADO" class="st0">
</g>
<g id="LOGIN">
</g>
<g id="IDIOMAS" class="st0">
</g>
<g id="Capa_3" class="st0">
</g>
<g id="Capa_5">
	<g>
		<path class="st1" d="M1.8,10.2c-0.6,5.2,3.1,9.9,8.3,10.5c5.2,0.6,9.9-3.1,10.5-8.3c0.6-5.2-3.1-9.9-8.3-10.5
			C7.1,1.3,2.4,5,1.8,10.2z"/>
		<g>
			<path class="st2" d="M5.2,8.8h1.4v2h2v1.5h-2v2H5.2v-2h-2v-1.5h2V8.8z"/>
			<path class="st2" d="M9.9,8.1H8.4v-1c0.8-0.4,1.6-0.9,2.2-1.4h0.9v10.9H9.9V8.1z"/>
			<path class="st2" d="M13.7,10.9c-0.6-0.5-1-1.3-1-2.1c0-2.1,0.9-3,2.4-3c1.5,0,2.4,0.9,2.4,3c0,0.8-0.3,1.7-1,2.1
				c0.9,0.6,1.1,1.4,1.1,2.7c0,2-0.9,3.1-2.6,3.1c-1.7,0-2.6-1.1-2.6-3.1C12.6,12.3,12.8,11.5,13.7,10.9z M16.1,13.5
				c0-1.1-0.2-1.8-0.9-1.8c-0.7,0-0.9,0.7-0.9,1.8s0.2,1.8,0.9,1.8C15.9,15.3,16.1,14.6,16.1,13.5z M16,8.7c0-1-0.2-1.5-0.8-1.5
				c-0.6,0-0.8,0.4-0.8,1.5c0,1,0.2,1.5,0.8,1.5C15.7,10.1,16,9.7,16,8.7z"/>
		</g>
	</g>
</g>
</svg>
