<?xml version="1.0" encoding="utf-8"?>
<!-- Generator: Adobe Illustrator 16.0.0, SVG Export Plug-In . SVG Version: 6.00 Build 0)  -->
<!DOCTYPE svg PUBLIC "-//W3C//DTD SVG 1.1//EN" "http://www.w3.org/Graphics/SVG/1.1/DTD/svg11.dtd">
<svg version="1.1" id="Capa_1" xmlns="http://www.w3.org/2000/svg" xmlns:xlink="http://www.w3.org/1999/xlink" x="0px" y="0px"
	 width="512px" height="110.207px" viewBox="0 0 512 110.207" enable-background="new 0 0 512 110.207" xml:space="preserve">
<g>
	<path fill="#3378B3" d="M55.489,108.514H0V23.556h23.158v64.003h32.288v20.946h0.043V108.514z"/>
	<path fill="#3378B3" d="M152.872,66.311c0,12.037-4.596,22.381-13.773,31.073c-9.09,8.521-20.168,12.823-33.156,12.823
		c-12.986,0-24.078-4.26-33.164-12.823c-9.086-8.606-13.643-18.993-13.643-31.073c0-12.132,4.574-22.466,13.643-31.072
		c9.078-8.606,20.17-12.91,33.164-12.91c12.996,0,24.078,4.304,33.156,12.91C148.276,43.775,152.872,54.145,152.872,66.311z
		 M82.786,66.311c0,6.524,2.221,11.994,6.691,16.47c4.477,4.477,9.955,6.688,16.475,6.688c6.342,0,11.777-2.255,16.344-6.817
		c4.645-4.658,6.953-10.084,6.953-16.341c0-6.273-2.299-11.691-6.953-16.349c-4.48-4.648-9.91-6.947-16.344-6.947
		c-6.342,0-11.777,2.299-16.344,6.947C85.045,54.542,82.786,59.969,82.786,66.311z"/>
	<path fill="#3378B3" d="M201.374,108.514h-23.158V44.501h-22.898V23.556h68.484v20.945h-22.418L201.374,108.514L201.374,108.514z"
		/>
	<path fill="#3378B3" d="M295.024,108.514h-63.666V23.556h62.674v20.859h-39.508v11.69h36.82v19.036h-36.82v12.91h40.467v20.462
		H295.024L295.024,108.514z"/>
	<path fill="#3378B3" d="M330.004,108.514h-23.158V23.556h38.625c8.434,0,15.658,2.816,21.559,8.52
		c5.91,5.686,8.91,12.607,8.91,20.722c0,5.34-1.297,10.265-3.941,14.638c-2.662,4.406-6.178,7.604-10.568,9.651l21.215,31.462
		h-26.562L338.784,82.09h-0.252h-8.52v26.424H330.004z M330.004,44.501v19.036h12.908c3.086,0,5.514-0.873,7.293-2.601
		c1.781-1.746,2.705-4.217,2.705-7.389c0-2.704-0.785-4.864-2.307-6.523c-1.572-1.65-3.482-2.523-5.738-2.523H330.004
		L330.004,44.501z"/>
	<path fill="#3378B3" d="M413.354,108.514h-23.158V23.556h23.158V108.514z M407.272,17.68h-16.557L396.678,0h23.156L407.272,17.68z"
		/>
	<path fill="#3378B3" d="M445.905,108.514H421.53l34.633-84.958h21.205L512,108.514h-24.516l-4.389-11.078h-32.672L445.905,108.514z
		 M466.756,53.15l-10.248,26.329h20.461L466.756,53.15z"/>
</g>
</svg>
