<?xml version="1.0" encoding="utf-8"?>
<!-- Generator: Adobe Illustrator 22.0.0, SVG Export Plug-In . SVG Version: 6.00 Build 0)  -->
<svg version="1.1" xmlns="http://www.w3.org/2000/svg" xmlns:xlink="http://www.w3.org/1999/xlink" x="0px" y="0px"
	 viewBox="0 0 22.2 21.6" style="enable-background:new 0 0 22.2 21.6;" xml:space="preserve">
<style type="text/css">
	.st0{display:none;}
	.st1{fill:#ED1C24;stroke:#ED1C24;stroke-width:3;}
	.st2{fill:#FFFFFF;}
</style>
<g id="ENCABEZADO" class="st0">
</g>
<g id="LOGIN" class="st0">
</g>
<g id="IDIOMAS" class="st0">
</g>
<g id="Capa_3" class="st0">
</g>
<g id="Capa_5">
	<g id="Mano_x5F_circulo_x5F_1_1_">
		<path class="st1" d="M1.7,9.7c-0.6,5,3.1,9.6,8.3,10.1c5.2,0.6,9.9-3,10.5-8c0.6-5-3.1-9.6-8.3-10.2C7,1.1,2.3,4.7,1.7,9.7z"/>
		<path class="st2" d="M13.7,18.1c0.4-0.5,1.5-0.7,1.8-1.8c0.3-1.1,0.9-3.2,1.1-3.7c0.2-0.6,1.7-2.5,2.2-3.5c0.5-1-0.6-1.1-0.9-0.7
			c-0.2,0.3-1.1,1.6-1.6,2.3c-0.2,0.3-0.1,0.1-0.2,0.3c-0.1,0.1-0.8-0.2-0.7-0.3c0,0,0.1-0.4,0.1-0.5c0.3-1.3,0.9-3.3,1.2-4.4
			c0.3-1.1-1.3-1.1-1.6-0.3c-0.3,1-1.1,3.7-1.3,4.2c0,0-0.1,0.3-0.1,0.3c-0.1,0.2-1,0-1-0.2c0,0,0-0.2,0-0.3c0-1,0-4.1,0-5.2
			c0-1-1.7-0.9-1.7,0c0,0.8,0,4.2,0,4.6c0,0,0,0.4,0,0.7c0,0.2-0.9,0.3-1,0.1c-0.1-0.2,0,0-0.1-0.1C9.5,8,8.9,6.6,8.6,5.7
			C8.2,4.5,6.7,4.9,7.1,6.1c0.4,1.2,0.9,2.7,1.3,4.2c0.5,1.6,0.9,2.2-0.5,2.8c-0.4-0.3,0.8,0.6-1.1-0.7c-1.9-1.4-2.9-1-3.3-0.6
			c-0.3,0.4,0.9,0.8,1.6,1.5c0.8,0.7,1.7,1.8,2.5,2.7c0.5,0.5,0.7,0.9,1,1.2c-0.1,1.1-1.6,2-1.6,2c2,0.9,4.3,0.9,5.6,0.7
			C12.8,19.8,13.4,18.4,13.7,18.1z"/>
	</g>
</g>
</svg>
